solid FURNITURE_FURNITURE_0_Mirror_0_Line001_0
facet normal 1 0 0
outer loop
	vertex -0.7849941 -0.1059619 -1.085851
	vertex -0.7849941 -0.04611375 -1.090036
	vertex -0.7849941 0.03650448 0.9515169
endloop
endfacet
facet normal 1 0 0
outer loop
	vertex -0.7849941 -0.04611375 -1.090036
	vertex -0.7849941 0.1020665 0.9467868
	vertex -0.7849941 0.03650448 0.9515169
endloop
endfacet
facet normal 1 0 0
outer loop
	vertex -0.7849941 0.1020665 0.9467868
	vertex -0.7849941 0.1059617 1.085863
	vertex -0.7849941 0.03650448 0.9515169
endloop
endfacet
facet normal 1 0 0
outer loop
	vertex -0.7849941 0.1059617 1.085863
	vertex -0.7849941 0.04619057 1.090036
	vertex -0.7849941 0.03650448 0.9515169
endloop
endfacet
facet normal -1 0 0
outer loop
	vertex -0.795002 0.04619059 1.090036
	vertex -0.795002 0.1059617 1.085863
	vertex -0.795002 0.03650449 0.9515169
endloop
endfacet
facet normal -1 0 0
outer loop
	vertex -0.795002 0.1059617 1.085863
	vertex -0.795002 0.1020665 0.9467868
	vertex -0.795002 0.03650449 0.9515169
endloop
endfacet
facet normal -1 0 0
outer loop
	vertex -0.795002 0.1020665 0.9467868
	vertex -0.795002 -0.04611374 -1.090036
	vertex -0.795002 0.03650449 0.9515169
endloop
endfacet
facet normal -1 0 0
outer loop
	vertex -0.795002 -0.04611374 -1.090036
	vertex -0.795002 -0.1059619 -1.085851
	vertex -0.795002 0.03650449 0.9515169
endloop
endfacet
facet normal 0 0.06964383 0.9975719
outer loop
	vertex -0.795002 0.04619059 1.090036
	vertex -0.7849941 0.04619057 1.090036
	vertex -0.795002 0.1059617 1.085863
endloop
endfacet
facet normal 0 0.06964384 0.9975719
outer loop
	vertex -0.7849941 0.04619057 1.090036
	vertex -0.7849941 0.1059617 1.085863
	vertex -0.795002 0.1059617 1.085863
endloop
endfacet
facet normal 1.665254E-06 0.9988601 -0.04285066
outer loop
	vertex -0.795002 0.1059617 1.085863
	vertex -0.7849941 0.1059617 1.085863
	vertex -0.795002 0.1020665 0.9467868
endloop
endfacet
facet normal 1.42989E-06 0.9981121 -0.05770479
outer loop
	vertex -0.7849941 0.1059617 1.085863
	vertex -0.7849941 0.1020665 0.9467868
	vertex -0.795002 0.1020665 0.9467868
endloop
endfacet
facet normal 1.194527E-06 0.9973641 -0.07255892
outer loop
	vertex -0.795002 0.1020665 0.9467868
	vertex -0.7849941 0.1020665 0.9467868
	vertex -0.795002 -0.04611374 -1.090036
endloop
endfacet
facet normal 1.194527E-06 0.9973641 -0.07255892
outer loop
	vertex -0.7849941 0.1020665 0.9467868
	vertex -0.7849941 -0.04611375 -1.090036
	vertex -0.795002 -0.04611374 -1.090036
endloop
endfacet
facet normal 0 -0.06975704 -0.9975641
outer loop
	vertex -0.795002 -0.04611374 -1.090036
	vertex -0.7849941 -0.04611375 -1.090036
	vertex -0.795002 -0.1059619 -1.085851
endloop
endfacet
facet normal 0 -0.06975705 -0.9975641
outer loop
	vertex -0.7849941 -0.04611375 -1.090036
	vertex -0.7849941 -0.1059619 -1.085851
	vertex -0.795002 -0.1059619 -1.085851
endloop
endfacet
facet normal -1.116551E-06 -0.9975641 0.06975614
outer loop
	vertex -0.795002 -0.1059619 -1.085851
	vertex -0.7849941 -0.1059619 -1.085851
	vertex -0.795002 0.03650449 0.9515169
endloop
endfacet
facet normal -1.038655E-06 -0.9975641 0.06975589
outer loop
	vertex -0.7849941 -0.1059619 -1.085851
	vertex -0.7849941 0.03650448 0.9515169
	vertex -0.795002 0.03650449 0.9515169
endloop
endfacet
facet normal -9.607587E-07 -0.9975642 0.06975565
outer loop
	vertex -0.795002 0.03650449 0.9515169
	vertex -0.7849941 0.03650448 0.9515169
	vertex -0.795002 0.04619059 1.090036
endloop
endfacet
facet normal -9.607587E-07 -0.9975642 0.06975565
outer loop
	vertex -0.7849941 0.03650448 0.9515169
	vertex -0.7849941 0.04619057 1.090036
	vertex -0.795002 0.04619059 1.090036
endloop
endfacet
facet normal 1 0 0
outer loop
	vertex -0.005002147 0.1060456 1.085858
	vertex -0.005002147 0.04619075 1.090036
	vertex -0.005002147 0.1053074 1.075307
endloop
endfacet
facet normal 1 0 0
outer loop
	vertex -0.005002147 0.04619075 1.090036
	vertex -0.005002147 0.04545306 1.079486
	vertex -0.005002147 0.1053074 1.075307
endloop
endfacet
facet normal 1 0 0
outer loop
	vertex 0.005008954 -0.107042 -1.101294
	vertex 0.005008954 -0.04718788 -1.105479
	vertex 0.005008955 -0.1059608 -1.085841
endloop
endfacet
facet normal 1 0 0
outer loop
	vertex 0.005008954 -0.04718788 -1.105479
	vertex 0.005008955 -0.04610734 -1.090027
	vertex 0.005008955 -0.1059608 -1.085841
endloop
endfacet
facet normal 1 0 0
outer loop
	vertex -0.005002032 -0.08940554 -0.8490827
	vertex -0.005002032 -0.02955152 -0.8532677
	vertex -0.005002032 -0.0885065 -0.8362277
endloop
endfacet
facet normal 1 0 0
outer loop
	vertex -0.005002032 -0.02955152 -0.8532677
	vertex -0.005002032 -0.02865283 -0.8404137
	vertex -0.005002032 -0.0885065 -0.8362277
endloop
endfacet
facet normal -1 0 0
outer loop
	vertex -0.7849942 0.04545299 1.079486
	vertex -0.7849942 0.04619068 1.090036
	vertex -0.7849942 0.1053074 1.075307
endloop
endfacet
facet normal -1 0 0
outer loop
	vertex -0.7849942 0.04619068 1.090036
	vertex -0.7849942 0.1060456 1.085858
	vertex -0.7849942 0.1053074 1.075307
endloop
endfacet
facet normal -1 0 0
outer loop
	vertex -0.795002 -0.04610742 -1.090027
	vertex -0.795002 -0.04718795 -1.105479
	vertex -0.795002 -0.1059608 -1.085841
endloop
endfacet
facet normal -1 0 0
outer loop
	vertex -0.795002 -0.04718795 -1.105479
	vertex -0.795002 -0.107042 -1.101294
	vertex -0.795002 -0.1059608 -1.085841
endloop
endfacet
facet normal -1 0 0
outer loop
	vertex -0.7849941 -0.0286529 -0.8404137
	vertex -0.7849941 -0.02955159 -0.8532677
	vertex -0.7849941 -0.08850656 -0.8362277
endloop
endfacet
facet normal -1 0 0
outer loop
	vertex -0.7849941 -0.02955159 -0.8532677
	vertex -0.7849941 -0.08940559 -0.8490826
	vertex -0.7849941 -0.08850656 -0.8362277
endloop
endfacet
facet normal -1.036714E-07 0.06964173 0.997572
outer loop
	vertex -0.7849942 0.04619068 1.090036
	vertex -0.005002147 0.04619075 1.090036
	vertex -0.7849942 0.1060456 1.085858
endloop
endfacet
facet normal -1.036714E-07 0.06964173 0.997572
outer loop
	vertex -0.005002147 0.04619075 1.090036
	vertex -0.005002147 0.1060456 1.085858
	vertex -0.7849942 0.1060456 1.085858
endloop
endfacet
facet normal 0 0.9975611 -0.06979819
outer loop
	vertex -0.7849942 0.1060456 1.085858
	vertex -0.005002147 0.1060456 1.085858
	vertex -0.7849942 0.1053074 1.075307
endloop
endfacet
facet normal 0 0.9975611 -0.06979819
outer loop
	vertex -0.005002147 0.1060456 1.085858
	vertex -0.005002147 0.1053074 1.075307
	vertex -0.7849942 0.1053074 1.075307
endloop
endfacet
facet normal 2.011038E-07 -0.06964611 -0.9975718
outer loop
	vertex -0.7849942 0.1053074 1.075307
	vertex -0.005002147 0.1053074 1.075307
	vertex -0.7849942 0.04545299 1.079486
endloop
endfacet
facet normal 2.011038E-07 -0.06964611 -0.9975718
outer loop
	vertex -0.005002147 0.1053074 1.075307
	vertex -0.005002147 0.04545306 1.079486
	vertex -0.7849942 0.04545299 1.079486
endloop
endfacet
facet normal 0 -0.9975643 0.06975304
outer loop
	vertex -0.7849942 0.04545299 1.079486
	vertex -0.005002147 0.04545306 1.079486
	vertex -0.7849942 0.04619068 1.090036
endloop
endfacet
facet normal 0 -0.9975643 0.06975304
outer loop
	vertex -0.005002147 0.04545306 1.079486
	vertex -0.005002147 0.04619075 1.090036
	vertex -0.7849942 0.04619068 1.090036
endloop
endfacet
facet normal 0 -0.9975611 0.06979877
outer loop
	vertex -0.795002 -0.107042 -1.101294
	vertex 0.005008954 -0.107042 -1.101294
	vertex -0.795002 -0.1059608 -1.085841
endloop
endfacet
facet normal 0 -0.9975611 0.06979877
outer loop
	vertex 0.005008954 -0.107042 -1.101294
	vertex 0.005008955 -0.1059608 -1.085841
	vertex -0.795002 -0.1059608 -1.085841
endloop
endfacet
facet normal 0 0.06975543 0.9975642
outer loop
	vertex -0.795002 -0.1059608 -1.085841
	vertex 0.005008955 -0.1059608 -1.085841
	vertex -0.795002 -0.04610742 -1.090027
endloop
endfacet
facet normal 0 0.06975543 0.9975642
outer loop
	vertex 0.005008955 -0.1059608 -1.085841
	vertex 0.005008955 -0.04610734 -1.090027
	vertex -0.795002 -0.04610742 -1.090027
endloop
endfacet
facet normal 0 0.9975642 -0.06975502
outer loop
	vertex -0.795002 -0.04610742 -1.090027
	vertex 0.005008955 -0.04610734 -1.090027
	vertex -0.795002 -0.04718795 -1.105479
endloop
endfacet
facet normal 0 0.9975642 -0.06975502
outer loop
	vertex 0.005008955 -0.04610734 -1.090027
	vertex 0.005008954 -0.04718788 -1.105479
	vertex -0.795002 -0.04718795 -1.105479
endloop
endfacet
facet normal 0 -0.06975781 -0.997564
outer loop
	vertex -0.795002 -0.04718795 -1.105479
	vertex 0.005008954 -0.04718788 -1.105479
	vertex -0.795002 -0.107042 -1.101294
endloop
endfacet
facet normal 0 -0.06975781 -0.997564
outer loop
	vertex 0.005008954 -0.04718788 -1.105479
	vertex 0.005008954 -0.107042 -1.101294
	vertex -0.795002 -0.107042 -1.101294
endloop
endfacet
facet normal 0 -0.9975635 0.06976595
outer loop
	vertex -0.7849941 -0.08940559 -0.8490826
	vertex -0.005002032 -0.08940554 -0.8490827
	vertex -0.7849941 -0.08850656 -0.8362277
endloop
endfacet
facet normal 0 -0.9975635 0.06976595
outer loop
	vertex -0.005002032 -0.08940554 -0.8490827
	vertex -0.005002032 -0.0885065 -0.8362277
	vertex -0.7849941 -0.08850656 -0.8362277
endloop
endfacet
facet normal 0 0.06976717 0.9975634
outer loop
	vertex -0.7849941 -0.08850656 -0.8362277
	vertex -0.005002032 -0.0885065 -0.8362277
	vertex -0.7849941 -0.0286529 -0.8404137
endloop
endfacet
facet normal 0 0.06976717 0.9975634
outer loop
	vertex -0.005002032 -0.0885065 -0.8362277
	vertex -0.005002032 -0.02865283 -0.8404137
	vertex -0.7849941 -0.0286529 -0.8404137
endloop
endfacet
facet normal 0 0.9975648 -0.06974515
outer loop
	vertex -0.7849941 -0.0286529 -0.8404137
	vertex -0.005002032 -0.02865283 -0.8404137
	vertex -0.7849941 -0.02955159 -0.8532677
endloop
endfacet
facet normal 0 0.9975648 -0.06974515
outer loop
	vertex -0.005002032 -0.02865283 -0.8404137
	vertex -0.005002032 -0.02955152 -0.8532677
	vertex -0.7849941 -0.02955159 -0.8532677
endloop
endfacet
facet normal 0 -0.0697503 -0.9975646
outer loop
	vertex -0.7849941 -0.02955159 -0.8532677
	vertex -0.005002032 -0.02955152 -0.8532677
	vertex -0.7849941 -0.08940559 -0.8490826
endloop
endfacet
facet normal 0 -0.0697503 -0.9975646
outer loop
	vertex -0.005002032 -0.02955152 -0.8532677
	vertex -0.005002032 -0.08940554 -0.8490827
	vertex -0.7849941 -0.08940559 -0.8490826
endloop
endfacet
facet normal 1 1.291633E-07 4.163803E-08
outer loop
	vertex -0.005002032 -0.04151639 -0.8395081
	vertex -0.005002032 -0.02866178 -0.8404071
	vertex -0.005002109 0.08921704 0.9478068
endloop
endfacet
facet normal 1 2.534445E-07 8.22286E-08
outer loop
	vertex -0.005002032 -0.02866178 -0.8404071
	vertex -0.005002109 0.1020636 0.9467868
	vertex -0.005002109 0.08921704 0.9478068
endloop
endfacet
facet normal 1 5.059061E-07 1.503211E-07
outer loop
	vertex -0.005002109 0.08921704 0.9478068
	vertex -0.005002109 0.1020636 0.9467868
	vertex -0.005002147 0.1052095 1.075254
endloop
endfacet
facet normal 1 6.340866E-07 1.77823E-07
outer loop
	vertex -0.005002128 0.09235513 1.076153
	vertex -0.005002109 0.08921704 0.9478068
	vertex -0.005002147 0.1052095 1.075254
endloop
endfacet
facet normal -1 0 0
outer loop
	vertex -0.7849941 -0.02866185 -0.8404071
	vertex -0.7849941 -0.04151646 -0.8395081
	vertex -0.7849942 0.1020636 0.9467868
endloop
endfacet
facet normal -1 0 0
outer loop
	vertex -0.7849941 -0.04151646 -0.8395081
	vertex -0.7849942 0.08921698 0.9478068
	vertex -0.7849942 0.1020636 0.9467868
endloop
endfacet
facet normal -1 0 0
outer loop
	vertex -0.7849942 0.1020636 0.9467868
	vertex -0.7849942 0.08921698 0.9478068
	vertex -0.7849942 0.1052095 1.075254
endloop
endfacet
facet normal -1 0 0
outer loop
	vertex -0.7849942 0.08921698 0.9478068
	vertex -0.7849942 0.09235508 1.076153
	vertex -0.7849942 0.1052095 1.075254
endloop
endfacet
facet normal 0 0.9973355 -0.07295073
outer loop
	vertex -0.7849942 0.1020636 0.9467868
	vertex -0.005002109 0.1020636 0.9467868
	vertex -0.7849941 -0.02866185 -0.8404071
endloop
endfacet
facet normal 0 0.9973355 -0.07295073
outer loop
	vertex -0.005002109 0.1020636 0.9467868
	vertex -0.005002032 -0.02866178 -0.8404071
	vertex -0.7849941 -0.02866185 -0.8404071
endloop
endfacet
facet normal 0 -0.06976927 -0.9975632
outer loop
	vertex -0.7849941 -0.02866185 -0.8404071
	vertex -0.005002032 -0.02866178 -0.8404071
	vertex -0.7849941 -0.04151646 -0.8395081
endloop
endfacet
facet normal 0 -0.06976927 -0.9975632
outer loop
	vertex -0.005002032 -0.02866178 -0.8404071
	vertex -0.005002032 -0.04151639 -0.8395081
	vertex -0.7849941 -0.04151646 -0.8395081
endloop
endfacet
facet normal 0 -0.9973355 0.07295027
outer loop
	vertex -0.7849941 -0.04151646 -0.8395081
	vertex -0.005002032 -0.04151639 -0.8395081
	vertex -0.7849942 0.08921698 0.9478068
endloop
endfacet
facet normal 0 -0.9973355 0.07295027
outer loop
	vertex -0.005002032 -0.04151639 -0.8395081
	vertex -0.005002109 0.08921704 0.9478068
	vertex -0.7849942 0.08921698 0.9478068
endloop
endfacet
facet normal 0 -0.9997012 0.02444303
outer loop
	vertex -0.7849942 0.08921698 0.9478068
	vertex -0.005002109 0.08921704 0.9478068
	vertex -0.7849942 0.09235508 1.076153
endloop
endfacet
facet normal 0 -0.9997012 0.02444303
outer loop
	vertex -0.005002109 0.08921704 0.9478068
	vertex -0.005002128 0.09235513 1.076153
	vertex -0.7849942 0.09235508 1.076153
endloop
endfacet
facet normal 0 0.06978226 0.9975623
outer loop
	vertex -0.7849942 0.09235508 1.076153
	vertex -0.005002128 0.09235513 1.076153
	vertex -0.7849942 0.1052095 1.075254
endloop
endfacet
facet normal 0 0.06978227 0.9975623
outer loop
	vertex -0.005002128 0.09235513 1.076153
	vertex -0.005002147 0.1052095 1.075254
	vertex -0.7849942 0.1052095 1.075254
endloop
endfacet
facet normal 0 0.9997003 -0.02448066
outer loop
	vertex -0.7849942 0.1052095 1.075254
	vertex -0.005002147 0.1052095 1.075254
	vertex -0.7849942 0.1020636 0.9467868
endloop
endfacet
facet normal 0 0.9997003 -0.02448066
outer loop
	vertex -0.005002147 0.1052095 1.075254
	vertex -0.005002109 0.1020636 0.9467868
	vertex -0.7849942 0.1020636 0.9467868
endloop
endfacet
facet normal 1 0 0
outer loop
	vertex 0.005003995 -0.1059618 -1.085851
	vertex 0.005003995 -0.04611362 -1.090036
	vertex 0.005003995 0.03650461 0.9515169
endloop
endfacet
facet normal 1 0 0
outer loop
	vertex 0.005003995 -0.04611362 -1.090036
	vertex 0.005003995 0.1020666 0.9467868
	vertex 0.005003995 0.03650461 0.9515169
endloop
endfacet
facet normal 1 0 0
outer loop
	vertex 0.005003995 0.1020666 0.9467868
	vertex 0.005003995 0.1059618 1.085863
	vertex 0.005003995 0.03650461 0.9515169
endloop
endfacet
facet normal 1 0 0
outer loop
	vertex 0.005003995 0.1059618 1.085863
	vertex 0.005003995 0.04619071 1.090036
	vertex 0.005003995 0.03650461 0.9515169
endloop
endfacet
facet normal -1 0 0
outer loop
	vertex -0.005003978 0.04619071 1.090036
	vertex -0.005003978 0.1059618 1.085863
	vertex -0.005003973 0.03650462 0.9515169
endloop
endfacet
facet normal -1 0 0
outer loop
	vertex -0.005003978 0.1059618 1.085863
	vertex -0.005003978 0.1020666 0.9467868
	vertex -0.005003973 0.03650462 0.9515169
endloop
endfacet
facet normal -1 0 0
outer loop
	vertex -0.005003978 0.1020666 0.9467868
	vertex -0.005003978 -0.04611361 -1.090036
	vertex -0.005003973 0.03650462 0.9515169
endloop
endfacet
facet normal -1 0 0
outer loop
	vertex -0.005003978 -0.04611361 -1.090036
	vertex -0.005003978 -0.1059618 -1.085851
	vertex -0.005003973 0.03650462 0.9515169
endloop
endfacet
facet normal 0 0.06964383 0.9975719
outer loop
	vertex -0.005003978 0.04619071 1.090036
	vertex 0.005003995 0.04619071 1.090036
	vertex -0.005003978 0.1059618 1.085863
endloop
endfacet
facet normal 0 0.06964383 0.9975719
outer loop
	vertex 0.005003995 0.04619071 1.090036
	vertex 0.005003995 0.1059618 1.085863
	vertex -0.005003978 0.1059618 1.085863
endloop
endfacet
facet normal 8.326236E-07 0.9988601 -0.04285065
outer loop
	vertex -0.005003978 0.1059618 1.085863
	vertex 0.005003995 0.1059618 1.085863
	vertex -0.005003978 0.1020666 0.9467868
endloop
endfacet
facet normal 7.149425E-07 0.9981121 -0.05770478
outer loop
	vertex 0.005003995 0.1059618 1.085863
	vertex 0.005003995 0.1020666 0.9467868
	vertex -0.005003978 0.1020666 0.9467868
endloop
endfacet
facet normal 5.972614E-07 0.9973641 -0.07255891
outer loop
	vertex -0.005003978 0.1020666 0.9467868
	vertex 0.005003995 0.1020666 0.9467868
	vertex -0.005003978 -0.04611361 -1.090036
endloop
endfacet
facet normal 5.972614E-07 0.9973641 -0.07255891
outer loop
	vertex 0.005003995 0.1020666 0.9467868
	vertex 0.005003995 -0.04611362 -1.090036
	vertex -0.005003978 -0.04611361 -1.090036
endloop
endfacet
facet normal 0 -0.06975705 -0.9975641
outer loop
	vertex -0.005003978 -0.04611361 -1.090036
	vertex 0.005003995 -0.04611362 -1.090036
	vertex -0.005003978 -0.1059618 -1.085851
endloop
endfacet
facet normal 0 -0.06975705 -0.9975641
outer loop
	vertex 0.005003995 -0.04611362 -1.090036
	vertex 0.005003995 -0.1059618 -1.085851
	vertex -0.005003978 -0.1059618 -1.085851
endloop
endfacet
facet normal -7.183993E-07 -0.9975641 0.06975614
outer loop
	vertex -0.005003978 -0.1059618 -1.085851
	vertex 0.005003995 -0.1059618 -1.085851
	vertex -0.005003973 0.03650462 0.9515169
endloop
endfacet
facet normal -8.395772E-07 -0.9975641 0.0697559
outer loop
	vertex 0.005003995 -0.1059618 -1.085851
	vertex 0.005003995 0.03650461 0.9515169
	vertex -0.005003973 0.03650462 0.9515169
endloop
endfacet
facet normal -9.607551E-07 -0.9975642 0.06975566
outer loop
	vertex -0.005003973 0.03650462 0.9515169
	vertex 0.005003995 0.03650461 0.9515169
	vertex -0.005003978 0.04619071 1.090036
endloop
endfacet
facet normal -9.607551E-07 -0.9975642 0.06975566
outer loop
	vertex 0.005003995 0.03650461 0.9515169
	vertex 0.005003995 0.04619071 1.090036
	vertex -0.005003978 0.04619071 1.090036
endloop
endfacet
endsolid FURNITURE_FURNITURE_0_Mirror_0_Line001_0
