solid Props_Props_0_Object047_0
facet normal 0 0 -1
outer loop
	vertex 16.5006 2.8161 40.36449
	vertex 16.4602 2.8564 40.36449
	vertex 16.5006 7.6812 40.36449
endloop
endfacet
facet normal 0 0 -1
outer loop
	vertex 16.4602 7.6409 40.36449
	vertex 16.5006 7.6812 40.36449
	vertex 16.4602 2.8564 40.36449
endloop
endfacet
facet normal 0 0 -1
outer loop
	vertex 16.4602 2.8564 40.36449
	vertex 16.5006 2.8161 40.36449
	vertex 15.7959 2.8564 40.36449
endloop
endfacet
facet normal 0 0 -1
outer loop
	vertex 16.5006 7.6812 40.36449
	vertex 16.4602 7.6409 40.36449
	vertex 15.7556 7.6812 40.36449
endloop
endfacet
facet normal 0 0 -1
outer loop
	vertex 15.7556 2.8161 40.36449
	vertex 15.7959 2.8564 40.36449
	vertex 16.5006 2.8161 40.36449
endloop
endfacet
facet normal 0 0 -1
outer loop
	vertex 15.7959 7.6409 40.36449
	vertex 15.7556 7.6812 40.36449
	vertex 16.4602 7.6409 40.36449
endloop
endfacet
facet normal 0 0 -1
outer loop
	vertex 15.7959 2.8564 40.36449
	vertex 15.7556 2.8161 40.36449
	vertex 15.7959 7.6409 40.36449
endloop
endfacet
facet normal 0 0 -1
outer loop
	vertex 15.7556 7.6812 40.36449
	vertex 15.7959 7.6409 40.36449
	vertex 15.7556 2.8161 40.36449
endloop
endfacet
facet normal 0 0 -1
outer loop
	vertex 16.5006 8.1699 40.36449
	vertex 16.4602 8.2102 40.36449
	vertex 16.5006 13.035 40.3644
endloop
endfacet
facet normal 0 0 -1
outer loop
	vertex 16.4602 12.9947 40.3644
	vertex 16.5006 13.035 40.3644
	vertex 16.4602 8.2102 40.36449
endloop
endfacet
facet normal 0 0 -1
outer loop
	vertex 16.4602 8.2102 40.36449
	vertex 16.5006 8.1699 40.36449
	vertex 15.7959 8.2102 40.36449
endloop
endfacet
facet normal 0 0 -1
outer loop
	vertex 16.5006 13.035 40.3644
	vertex 16.4602 12.9947 40.3644
	vertex 15.7556 13.035 40.3644
endloop
endfacet
facet normal 0 0 -1
outer loop
	vertex 15.7556 8.1699 40.36449
	vertex 15.7959 8.2102 40.36449
	vertex 16.5006 8.1699 40.36449
endloop
endfacet
facet normal 0 0 -1
outer loop
	vertex 15.7959 12.9947 40.3644
	vertex 15.7556 13.035 40.3644
	vertex 16.4602 12.9947 40.3644
endloop
endfacet
facet normal 0 0 -1
outer loop
	vertex 15.7959 8.2102 40.36449
	vertex 15.7556 8.1699 40.36449
	vertex 15.7959 12.9947 40.3644
endloop
endfacet
facet normal 0 0 -1
outer loop
	vertex 15.7556 13.035 40.3644
	vertex 15.7959 12.9947 40.3644
	vertex 15.7556 8.1699 40.36449
endloop
endfacet
facet normal 0 0 -1
outer loop
	vertex 15.7556 13.5237 40.3644
	vertex 15.7959 13.564 40.3644
	vertex 16.5006 13.5237 40.3644
endloop
endfacet
facet normal 0 0 -1
outer loop
	vertex 16.4602 13.564 40.3644
	vertex 16.5006 13.5237 40.3644
	vertex 15.7959 13.564 40.3644
endloop
endfacet
facet normal 0 0 -1
outer loop
	vertex 15.7959 13.564 40.3644
	vertex 15.7556 13.5237 40.3644
	vertex 15.7959 18.5928 40.3644
endloop
endfacet
facet normal 0 0 -1
outer loop
	vertex 16.5006 13.5237 40.3644
	vertex 16.4602 13.564 40.3644
	vertex 16.5006 18.6331 40.3644
endloop
endfacet
facet normal 0 0 -1
outer loop
	vertex 15.7556 18.6331 40.3644
	vertex 15.7959 18.5928 40.3644
	vertex 15.7556 13.5237 40.3644
endloop
endfacet
facet normal 0 0 -1
outer loop
	vertex 16.4602 18.5928 40.3644
	vertex 16.5006 18.6331 40.3644
	vertex 16.4602 13.564 40.3644
endloop
endfacet
facet normal 0 0 -1
outer loop
	vertex 15.7959 18.5928 40.3644
	vertex 15.7556 18.6331 40.3644
	vertex 16.4602 18.5928 40.3644
endloop
endfacet
facet normal 0 0 -1
outer loop
	vertex 16.5006 18.6331 40.3644
	vertex 16.4602 18.5928 40.3644
	vertex 15.7556 18.6331 40.3644
endloop
endfacet
facet normal 0 0 -1
outer loop
	vertex 16.5006 -7.8915 40.36449
	vertex 16.4602 -7.8512 40.36449
	vertex 16.5006 -3.0264 40.36449
endloop
endfacet
facet normal 0 0 -1
outer loop
	vertex 16.4602 -3.0667 40.36449
	vertex 16.5006 -3.0264 40.36449
	vertex 16.4602 -7.8512 40.36449
endloop
endfacet
facet normal 0 0 -1
outer loop
	vertex 16.4602 -7.8512 40.36449
	vertex 16.5006 -7.8915 40.36449
	vertex 15.7959 -7.8512 40.36449
endloop
endfacet
facet normal 0 0 -1
outer loop
	vertex 16.5006 -3.0264 40.36449
	vertex 16.4602 -3.0667 40.36449
	vertex 15.7556 -3.0264 40.36449
endloop
endfacet
facet normal 0 0 -1
outer loop
	vertex 15.7556 -7.8915 40.36449
	vertex 15.7959 -7.8512 40.36449
	vertex 16.5006 -7.8915 40.36449
endloop
endfacet
facet normal 0 0 -1
outer loop
	vertex 15.7959 -3.0667 40.36449
	vertex 15.7556 -3.0264 40.36449
	vertex 16.4602 -3.0667 40.36449
endloop
endfacet
facet normal 0 0 -1
outer loop
	vertex 15.7959 -7.8512 40.36449
	vertex 15.7556 -7.8915 40.36449
	vertex 15.7959 -3.0667 40.36449
endloop
endfacet
facet normal 0 0 -1
outer loop
	vertex 15.7556 -3.0264 40.36449
	vertex 15.7959 -3.0667 40.36449
	vertex 15.7556 -7.8915 40.36449
endloop
endfacet
facet normal 0 0 -1
outer loop
	vertex 16.5006 -13.2453 40.36449
	vertex 16.4602 -13.205 40.36449
	vertex 16.5006 -8.3802 40.36449
endloop
endfacet
facet normal 0 0 -1
outer loop
	vertex 16.4602 -8.4205 40.36449
	vertex 16.5006 -8.3802 40.36449
	vertex 16.4602 -13.205 40.36449
endloop
endfacet
facet normal 0 0 -1
outer loop
	vertex 16.4602 -13.205 40.36449
	vertex 16.5006 -13.2453 40.36449
	vertex 15.7959 -13.205 40.36449
endloop
endfacet
facet normal 0 0 -1
outer loop
	vertex 16.5006 -8.3802 40.36449
	vertex 16.4602 -8.4205 40.36449
	vertex 15.7556 -8.3802 40.36449
endloop
endfacet
facet normal 0 0 -1
outer loop
	vertex 15.7556 -13.2453 40.36449
	vertex 15.7959 -13.205 40.36449
	vertex 16.5006 -13.2453 40.36449
endloop
endfacet
facet normal 0 0 -1
outer loop
	vertex 15.7959 -8.4205 40.36449
	vertex 15.7556 -8.3802 40.36449
	vertex 16.4602 -8.4205 40.36449
endloop
endfacet
facet normal 0 0 -1
outer loop
	vertex 15.7959 -13.205 40.36449
	vertex 15.7556 -13.2453 40.36449
	vertex 15.7959 -8.4205 40.36449
endloop
endfacet
facet normal 0 0 -1
outer loop
	vertex 15.7556 -8.3802 40.36449
	vertex 15.7959 -8.4205 40.36449
	vertex 15.7556 -13.2453 40.36449
endloop
endfacet
facet normal 0 0 -1
outer loop
	vertex 15.7556 -13.734 40.36449
	vertex 15.7959 -13.7743 40.36449
	vertex 15.7556 -18.4504 40.36449
endloop
endfacet
facet normal 0 0 -1
outer loop
	vertex 15.7959 -18.4101 40.36449
	vertex 15.7556 -18.4504 40.36449
	vertex 15.7959 -13.7743 40.36449
endloop
endfacet
facet normal 0 0 -1
outer loop
	vertex 15.7959 -13.7743 40.36449
	vertex 15.7556 -13.734 40.36449
	vertex 16.4602 -13.7743 40.36449
endloop
endfacet
facet normal 0 0 -1
outer loop
	vertex 15.7556 -18.4504 40.36449
	vertex 15.7959 -18.4101 40.36449
	vertex 16.5006 -18.4504 40.36449
endloop
endfacet
facet normal 0 0 -1
outer loop
	vertex 16.5006 -13.734 40.36449
	vertex 16.4602 -13.7743 40.36449
	vertex 15.7556 -13.734 40.36449
endloop
endfacet
facet normal 0 0 -1
outer loop
	vertex 16.4602 -18.4101 40.36449
	vertex 16.5006 -18.4504 40.36449
	vertex 15.7959 -18.4101 40.36449
endloop
endfacet
facet normal 0 0 -1
outer loop
	vertex 16.4602 -13.7743 40.36449
	vertex 16.5006 -13.734 40.36449
	vertex 16.4602 -18.4101 40.36449
endloop
endfacet
facet normal 0 0 -1
outer loop
	vertex 16.5006 -18.4504 40.36449
	vertex 16.4602 -18.4101 40.36449
	vertex 16.5006 -13.734 40.36449
endloop
endfacet
facet normal 0 0 -1
outer loop
	vertex 16.5006 -2.5377 40.36449
	vertex 16.4602 -2.4974 40.36449
	vertex 16.5006 2.3274 40.36449
endloop
endfacet
facet normal 0 0 -1
outer loop
	vertex 16.4602 2.2871 40.36449
	vertex 16.5006 2.3274 40.36449
	vertex 16.4602 -2.4974 40.36449
endloop
endfacet
facet normal 0 0 -1
outer loop
	vertex 16.4602 -2.4974 40.36449
	vertex 16.5006 -2.5377 40.36449
	vertex 15.7959 -2.4974 40.36449
endloop
endfacet
facet normal 0 0 -1
outer loop
	vertex 16.5006 2.3274 40.36449
	vertex 16.4602 2.2871 40.36449
	vertex 15.7556 2.3274 40.36449
endloop
endfacet
facet normal 0 0 -1
outer loop
	vertex 15.7556 -2.5377 40.36449
	vertex 15.7959 -2.4974 40.36449
	vertex 16.5006 -2.5377 40.36449
endloop
endfacet
facet normal 0 0 -1
outer loop
	vertex 15.7959 2.2871 40.36449
	vertex 15.7556 2.3274 40.36449
	vertex 16.4602 2.2871 40.36449
endloop
endfacet
facet normal 0 0 -1
outer loop
	vertex 15.7959 -2.4974 40.36449
	vertex 15.7556 -2.5377 40.36449
	vertex 15.7959 2.2871 40.36449
endloop
endfacet
facet normal 0 0 -1
outer loop
	vertex 15.7556 2.3274 40.36449
	vertex 15.7959 2.2871 40.36449
	vertex 15.7556 -2.5377 40.36449
endloop
endfacet
facet normal 0 0.638839 -0.7693405
outer loop
	vertex 15.7959 -36.117 33.5378
	vertex 15.7556 -36.117 33.5378
	vertex 15.7959 -34.7934 34.6372
endloop
endfacet
facet normal 0 0.6388871 -0.7693005
outer loop
	vertex 15.7556 -34.7934 34.6372
	vertex 15.7959 -34.7934 34.6372
	vertex 15.7556 -36.117 33.5378
endloop
endfacet
facet normal -8.136832E-05 0.686179 -0.7274327
outer loop
	vertex 15.7556 -36.117 33.5378
	vertex 15.7959 -36.117 33.5378
	vertex 15.7556 -37.3711 32.3545
endloop
endfacet
facet normal -4.068416E-05 0.686179 -0.7274327
outer loop
	vertex 15.7959 -37.3418 32.3821
	vertex 15.7556 -37.3711 32.3545
	vertex 15.7959 -36.117 33.5378
endloop
endfacet
facet normal 8.136832E-05 0.686179 -0.7274327
outer loop
	vertex 15.7556 -37.3711 32.3545
	vertex 15.7959 -37.3418 32.3821
	vertex 16.5006 -37.3711 32.3545
endloop
endfacet
facet normal 0.0001627366 0.686179 -0.7274327
outer loop
	vertex 16.4602 -37.3418 32.3821
	vertex 16.5006 -37.3711 32.3545
	vertex 15.7959 -37.3418 32.3821
endloop
endfacet
facet normal 0.000244105 0.686179 -0.7274327
outer loop
	vertex 16.5006 -37.3711 32.3545
	vertex 16.4602 -37.3418 32.3821
	vertex 16.5006 -36.117 33.5378
endloop
endfacet
facet normal 0.000244105 0.686179 -0.7274327
outer loop
	vertex 16.4602 -36.117 33.5378
	vertex 16.5006 -36.117 33.5378
	vertex 16.4602 -37.3418 32.3821
endloop
endfacet
facet normal 0 0.6388871 -0.7693005
outer loop
	vertex 16.4602 -34.7934 34.6372
	vertex 16.5006 -34.7934 34.6372
	vertex 16.4602 -36.117 33.5378
endloop
endfacet
facet normal 0 0.638839 -0.7693405
outer loop
	vertex 16.5006 -36.117 33.5378
	vertex 16.4602 -36.117 33.5378
	vertex 16.5006 -34.7934 34.6372
endloop
endfacet
facet normal 0 0.5890471 -0.8080987
outer loop
	vertex 16.5006 -34.7934 34.6372
	vertex 16.4602 -34.7934 34.6372
	vertex 16.5006 -33.7428 35.4027
endloop
endfacet
facet normal 0 0.5890714 -0.808081
outer loop
	vertex 16.4602 -33.7754 35.379
	vertex 16.5006 -33.7428 35.4027
	vertex 16.4602 -34.7934 34.6372
endloop
endfacet
facet normal -4.068032E-05 0.5890714 -0.808081
outer loop
	vertex 16.5006 -33.7428 35.4027
	vertex 16.4602 -33.7754 35.379
	vertex 15.7556 -33.7428 35.4027
endloop
endfacet
facet normal -8.136648E-05 0.5889408 -0.8081762
outer loop
	vertex 15.7959 -33.7754 35.379
	vertex 15.7556 -33.7428 35.4027
	vertex 16.4602 -33.7754 35.379
endloop
endfacet
facet normal -0.0001220468 0.5889165 -0.8081939
outer loop
	vertex 15.7556 -33.7428 35.4027
	vertex 15.7959 -33.7754 35.379
	vertex 15.7556 -34.7934 34.6372
endloop
endfacet
facet normal -0.0001220468 0.5889165 -0.8081939
outer loop
	vertex 15.7959 -34.7934 34.6372
	vertex 15.7556 -34.7934 34.6372
	vertex 15.7959 -33.7754 35.379
endloop
endfacet
facet normal 0 0.4817407 -0.8763139
outer loop
	vertex 15.7959 -31.9352 36.5838
	vertex 15.7556 -31.9352 36.5838
	vertex 15.7959 -30.4185 37.4172
endloop
endfacet
facet normal 0 0.4817407 -0.8763139
outer loop
	vertex 15.7556 -30.4185 37.4172
	vertex 15.7959 -30.4185 37.4172
	vertex 15.7556 -31.9352 36.5838
endloop
endfacet
facet normal 0 0.5364804 -0.8439128
outer loop
	vertex 15.7556 -31.9352 36.5838
	vertex 15.7959 -31.9352 36.5838
	vertex 15.7556 -33.3989 35.6536
endloop
endfacet
facet normal 0 0.5364224 -0.8439496
outer loop
	vertex 15.7959 -33.36489 35.6752
	vertex 15.7556 -33.3989 35.6536
	vertex 15.7959 -31.9352 36.5838
endloop
endfacet
facet normal 0 0.5364224 -0.8439496
outer loop
	vertex 15.7556 -33.3989 35.6536
	vertex 15.7959 -33.36489 35.6752
	vertex 16.5006 -33.3989 35.6536
endloop
endfacet
facet normal 0 0.5363645 -0.8439865
outer loop
	vertex 16.4602 -33.36489 35.6752
	vertex 16.5006 -33.3989 35.6536
	vertex 15.7959 -33.36489 35.6752
endloop
endfacet
facet normal 0 0.5364224 -0.8439496
outer loop
	vertex 16.5006 -33.3989 35.6536
	vertex 16.4602 -33.36489 35.6752
	vertex 16.5006 -31.9352 36.5838
endloop
endfacet
facet normal 0 0.5364224 -0.8439496
outer loop
	vertex 16.4602 -31.9352 36.5838
	vertex 16.5006 -31.9352 36.5838
	vertex 16.4602 -33.36489 35.6752
endloop
endfacet
facet normal 0 0.4817407 -0.8763139
outer loop
	vertex 16.4602 -30.4185 37.4172
	vertex 16.5006 -30.4185 37.4172
	vertex 16.4602 -31.9352 36.5838
endloop
endfacet
facet normal 0 0.4817407 -0.8763139
outer loop
	vertex 16.5006 -31.9352 36.5838
	vertex 16.4602 -31.9352 36.5838
	vertex 16.5006 -30.4185 37.4172
endloop
endfacet
facet normal 0 0.4250051 -0.9051909
outer loop
	vertex 16.5006 -30.4185 37.4172
	vertex 16.4602 -30.4185 37.4172
	vertex 16.5006 -29.2469 37.9675
endloop
endfacet
facet normal 0 0.4249385 -0.9052222
outer loop
	vertex 16.4602 -29.2834 37.9504
	vertex 16.5006 -29.2469 37.9675
	vertex 16.4602 -30.4185 37.4172
endloop
endfacet
facet normal 0 0.4249071 -0.905237
outer loop
	vertex 16.5006 -29.2469 37.9675
	vertex 16.4602 -29.2834 37.9504
	vertex 15.7556 -29.2469 37.9675
endloop
endfacet
facet normal 0 0.4250051 -0.9051909
outer loop
	vertex 15.7959 -29.2834 37.9504
	vertex 15.7556 -29.2469 37.9675
	vertex 16.4602 -29.2834 37.9504
endloop
endfacet
facet normal 0 0.4250718 -0.9051597
outer loop
	vertex 15.7556 -29.2469 37.9675
	vertex 15.7959 -29.2834 37.9504
	vertex 15.7556 -30.4185 37.4172
endloop
endfacet
facet normal 0 0.4251031 -0.9051449
outer loop
	vertex 15.7959 -30.4185 37.4172
	vertex 15.7556 -30.4185 37.4172
	vertex 15.7959 -29.2834 37.9504
endloop
endfacet
facet normal 0 0.3072809 -0.9516189
outer loop
	vertex 15.7959 -27.2554 38.782
	vertex 15.7556 -27.2554 38.782
	vertex 15.7959 -25.6133 39.3122
endloop
endfacet
facet normal 0 0.3072809 -0.9516189
outer loop
	vertex 15.7556 -25.6133 39.3122
	vertex 15.7959 -25.6133 39.3122
	vertex 15.7556 -27.2554 38.782
endloop
endfacet
facet normal 0 0.3668831 -0.9302671
outer loop
	vertex 15.7556 -27.2554 38.782
	vertex 15.7959 -27.2554 38.782
	vertex 15.7556 -28.8633 38.1479
endloop
endfacet
facet normal 0 0.3668831 -0.9302671
outer loop
	vertex 15.7959 -28.8258 38.1627
	vertex 15.7556 -28.8633 38.1479
	vertex 15.7959 -27.2554 38.782
endloop
endfacet
facet normal 0 0.3668831 -0.9302671
outer loop
	vertex 15.7556 -28.8633 38.1479
	vertex 15.7959 -28.8258 38.1627
	vertex 16.5006 -28.8633 38.1479
endloop
endfacet
facet normal 0 0.3668831 -0.9302671
outer loop
	vertex 16.4602 -28.8258 38.1627
	vertex 16.5006 -28.8633 38.1479
	vertex 15.7959 -28.8258 38.1627
endloop
endfacet
facet normal 0 0.3668831 -0.9302671
outer loop
	vertex 16.5006 -28.8633 38.1479
	vertex 16.4602 -28.8258 38.1627
	vertex 16.5006 -27.2554 38.782
endloop
endfacet
facet normal 0 0.3668831 -0.9302671
outer loop
	vertex 16.4602 -27.2554 38.782
	vertex 16.5006 -27.2554 38.782
	vertex 16.4602 -28.8258 38.1627
endloop
endfacet
facet normal 0 0.3072809 -0.9516189
outer loop
	vertex 16.4602 -25.6133 39.3122
	vertex 16.5006 -25.6133 39.3122
	vertex 16.4602 -27.2554 38.782
endloop
endfacet
facet normal 0 0.3072809 -0.9516189
outer loop
	vertex 16.5006 -27.2554 38.782
	vertex 16.4602 -27.2554 38.782
	vertex 16.5006 -25.6133 39.3122
endloop
endfacet
facet normal 0 0.2466126 -0.9691142
outer loop
	vertex 16.5006 -25.6133 39.3122
	vertex 16.4602 -25.6133 39.3122
	vertex 16.5006 -24.3631 39.6301
endloop
endfacet
facet normal 0 0.2465556 -0.9691287
outer loop
	vertex 16.4602 -24.4021 39.6202
	vertex 16.5006 -24.3631 39.6301
	vertex 16.4602 -25.6133 39.3122
endloop
endfacet
facet normal -4.069514E-05 0.2465556 -0.9691287
outer loop
	vertex 16.5006 -24.3631 39.6301
	vertex 16.4602 -24.4021 39.6202
	vertex 15.7556 -24.3631 39.6301
endloop
endfacet
facet normal -8.140237E-05 0.2464986 -0.9691432
outer loop
	vertex 15.7959 -24.4021 39.6202
	vertex 15.7556 -24.3631 39.6301
	vertex 16.4602 -24.4021 39.6202
endloop
endfacet
facet normal -0.0001220975 0.2465556 -0.9691286
outer loop
	vertex 15.7556 -24.3631 39.6301
	vertex 15.7959 -24.4021 39.6202
	vertex 15.7556 -25.6133 39.3122
endloop
endfacet
facet normal -0.0001220975 0.2465556 -0.9691286
outer loop
	vertex 15.7959 -25.6133 39.3122
	vertex 15.7556 -25.6133 39.3122
	vertex 15.7959 -24.4021 39.6202
endloop
endfacet
facet normal 0 0.1220516 -0.9925237
outer loop
	vertex 15.7959 -22.2584 40.0532
	vertex 15.7556 -22.2584 40.0532
	vertex 15.7959 -20.5402 40.2646
endloop
endfacet
facet normal 0 0.1220516 -0.9925237
outer loop
	vertex 15.7556 -20.5402 40.2646
	vertex 15.7959 -20.5402 40.2646
	vertex 15.7556 -22.2584 40.0532
endloop
endfacet
facet normal 0 0.184834 -0.9827697
outer loop
	vertex 15.7556 -22.2584 40.0532
	vertex 15.7959 -22.2584 40.0532
	vertex 15.7556 -23.954 39.7344
endloop
endfacet
facet normal 0 0.184834 -0.9827697
outer loop
	vertex 15.7959 -23.9143 39.7419
	vertex 15.7556 -23.954 39.7344
	vertex 15.7959 -22.2584 40.0532
endloop
endfacet
facet normal 0 0.184834 -0.9827697
outer loop
	vertex 15.7556 -23.954 39.7344
	vertex 15.7959 -23.9143 39.7419
	vertex 16.5006 -23.954 39.7344
endloop
endfacet
facet normal 0 0.184834 -0.9827697
outer loop
	vertex 16.4602 -23.9143 39.7419
	vertex 16.5006 -23.954 39.7344
	vertex 15.7959 -23.9143 39.7419
endloop
endfacet
facet normal 0 0.184834 -0.9827697
outer loop
	vertex 16.5006 -23.954 39.7344
	vertex 16.4602 -23.9143 39.7419
	vertex 16.5006 -22.2584 40.0532
endloop
endfacet
facet normal 0 0.184834 -0.9827697
outer loop
	vertex 16.4602 -22.2584 40.0532
	vertex 16.5006 -22.2584 40.0532
	vertex 16.4602 -23.9143 39.7419
endloop
endfacet
facet normal 0 0.1220516 -0.9925237
outer loop
	vertex 16.4602 -20.5402 40.2646
	vertex 16.5006 -20.5402 40.2646
	vertex 16.4602 -22.2584 40.0532
endloop
endfacet
facet normal 0 0.1220516 -0.9925237
outer loop
	vertex 16.5006 -22.2584 40.0532
	vertex 16.4602 -22.2584 40.0532
	vertex 16.5006 -20.5402 40.2646
endloop
endfacet
facet normal 0 0.05883651 -0.9982677
outer loop
	vertex 15.7959 -20.5402 40.2646
	vertex 15.7556 -20.5402 40.2646
	vertex 15.7959 -18.8788 40.3625
endloop
endfacet
facet normal 0 0.05887706 -0.9982653
outer loop
	vertex 15.7556 -18.8386 40.3648
	vertex 15.7959 -18.8788 40.3625
	vertex 15.7556 -20.5402 40.2646
endloop
endfacet
facet normal 0 0.05887706 -0.9982653
outer loop
	vertex 15.7959 -18.8788 40.3625
	vertex 15.7556 -18.8386 40.3648
	vertex 16.4602 -18.8788 40.3625
endloop
endfacet
facet normal 0 0.05891761 -0.9982628
outer loop
	vertex 16.5006 -18.8386 40.3648
	vertex 16.4602 -18.8788 40.3625
	vertex 15.7556 -18.8386 40.3648
endloop
endfacet
facet normal 0 0.05887706 -0.9982653
outer loop
	vertex 16.4602 -18.8788 40.3625
	vertex 16.5006 -18.8386 40.3648
	vertex 16.4602 -20.5402 40.2646
endloop
endfacet
facet normal 0 0.05887706 -0.9982653
outer loop
	vertex 16.5006 -20.5402 40.2646
	vertex 16.4602 -20.5402 40.2646
	vertex 16.5006 -18.8386 40.3648
endloop
endfacet
facet normal 0 -0.1223118 -0.9924917
outer loop
	vertex 15.7959 20.3284 40.2644
	vertex 15.7556 20.3284 40.2644
	vertex 15.7959 22.0468 40.0528
endloop
endfacet
facet normal 0 -0.122302 -0.9924929
outer loop
	vertex 15.7556 22.0468 40.0528
	vertex 15.7959 22.0468 40.0528
	vertex 15.7556 20.3284 40.2644
endloop
endfacet
facet normal 0 -0.05895815 -0.9982604
outer loop
	vertex 15.7556 20.3284 40.2644
	vertex 15.7959 20.3284 40.2644
	vertex 15.7556 19.0531 40.3397
endloop
endfacet
facet normal 0 -0.05891761 -0.9982628
outer loop
	vertex 15.7959 19.0934 40.3373
	vertex 15.7556 19.0531 40.3397
	vertex 15.7959 20.3284 40.2644
endloop
endfacet
facet normal 0 -0.05891761 -0.9982628
outer loop
	vertex 15.7556 19.0531 40.3397
	vertex 15.7959 19.0934 40.3373
	vertex 16.5006 19.0531 40.3397
endloop
endfacet
facet normal 0 -0.05887706 -0.9982653
outer loop
	vertex 16.4602 19.0934 40.3373
	vertex 16.5006 19.0531 40.3397
	vertex 15.7959 19.0934 40.3373
endloop
endfacet
facet normal 0 -0.05891761 -0.9982628
outer loop
	vertex 16.5006 19.0531 40.3397
	vertex 16.4602 19.0934 40.3373
	vertex 16.5006 20.3284 40.2644
endloop
endfacet
facet normal 0 -0.05891761 -0.9982628
outer loop
	vertex 16.4602 20.3284 40.2644
	vertex 16.5006 20.3284 40.2644
	vertex 16.4602 19.0934 40.3373
endloop
endfacet
facet normal 0 -0.122302 -0.9924929
outer loop
	vertex 16.4602 22.0468 40.0528
	vertex 16.5006 22.0468 40.0528
	vertex 16.4602 20.3284 40.2644
endloop
endfacet
facet normal 0 -0.1223118 -0.9924917
outer loop
	vertex 16.5006 20.3284 40.2644
	vertex 16.4602 20.3284 40.2644
	vertex 16.5006 22.0468 40.0528
endloop
endfacet
facet normal -8.138513E-05 -0.1849126 -0.982755
outer loop
	vertex 15.7959 22.0468 40.0528
	vertex 15.7556 22.0468 40.0528
	vertex 15.7959 23.7 39.7419
endloop
endfacet
facet normal -4.069256E-05 -0.1847554 -0.9827845
outer loop
	vertex 15.7556 23.7396 39.7345
	vertex 15.7959 23.7 39.7419
	vertex 15.7556 22.0468 40.0528
endloop
endfacet
facet normal 0 -0.1845981 -0.9828141
outer loop
	vertex 15.7959 23.7 39.7419
	vertex 15.7556 23.7396 39.7345
	vertex 16.4602 23.7 39.7419
endloop
endfacet
facet normal 0 -0.1845981 -0.9828141
outer loop
	vertex 16.5006 23.7396 39.7345
	vertex 16.4602 23.7 39.7419
	vertex 15.7556 23.7396 39.7345
endloop
endfacet
facet normal 8.138513E-05 -0.1847554 -0.9827845
outer loop
	vertex 16.4602 23.7 39.7419
	vertex 16.5006 23.7396 39.7345
	vertex 16.4602 22.0468 40.0528
endloop
endfacet
facet normal 0.0001627703 -0.1849126 -0.982755
outer loop
	vertex 16.5006 22.0468 40.0528
	vertex 16.4602 22.0468 40.0528
	vertex 16.5006 23.7396 39.7345
endloop
endfacet
facet normal 0 -0.3072786 -0.9516196
outer loop
	vertex 15.7959 25.4015 39.3116
	vertex 15.7556 25.4015 39.3116
	vertex 15.7959 27.04 38.7826
endloop
endfacet
facet normal 0 -0.3072049 -0.9516434
outer loop
	vertex 15.7556 27.04 38.7826
	vertex 15.7959 27.04 38.7826
	vertex 15.7556 25.4015 39.3116
endloop
endfacet
facet normal 0 -0.2465556 -0.9691287
outer loop
	vertex 15.7556 25.4015 39.3116
	vertex 15.7959 25.4015 39.3116
	vertex 15.7556 24.1495 39.63
endloop
endfacet
facet normal 0 -0.2465556 -0.9691287
outer loop
	vertex 15.7959 24.1886 39.6201
	vertex 15.7556 24.1495 39.63
	vertex 15.7959 25.4015 39.3116
endloop
endfacet
facet normal 8.141447E-05 -0.2464986 -0.9691432
outer loop
	vertex 15.7556 24.1495 39.63
	vertex 15.7959 24.1886 39.6201
	vertex 16.5006 24.1495 39.63
endloop
endfacet
facet normal 0.0001628047 -0.2465556 -0.9691287
outer loop
	vertex 16.4602 24.1886 39.6201
	vertex 16.5006 24.1495 39.63
	vertex 15.7959 24.1886 39.6201
endloop
endfacet
facet normal 0.000244195 -0.2465556 -0.9691286
outer loop
	vertex 16.5006 24.1495 39.63
	vertex 16.4602 24.1886 39.6201
	vertex 16.5006 25.4015 39.3116
endloop
endfacet
facet normal 0.0002441708 -0.2466126 -0.9691141
outer loop
	vertex 16.4602 25.4015 39.3116
	vertex 16.5006 25.4015 39.3116
	vertex 16.4602 24.1886 39.6201
endloop
endfacet
facet normal 0 -0.3072049 -0.9516434
outer loop
	vertex 16.4602 27.04 38.7826
	vertex 16.5006 27.04 38.7826
	vertex 16.4602 25.4015 39.3116
endloop
endfacet
facet normal 0 -0.3072786 -0.9516196
outer loop
	vertex 16.5006 25.4015 39.3116
	vertex 16.4602 25.4015 39.3116
	vertex 16.5006 27.04 38.7826
endloop
endfacet
facet normal 0 -0.3666718 -0.9303504
outer loop
	vertex 15.7959 27.04 38.7826
	vertex 15.7556 27.04 38.7826
	vertex 15.7959 28.6071 38.1647
endloop
endfacet
facet normal 0 -0.3666996 -0.9303394
outer loop
	vertex 15.7556 28.6446 38.14989
	vertex 15.7959 28.6071 38.1647
	vertex 15.7556 27.04 38.7826
endloop
endfacet
facet normal 0 -0.3666996 -0.9303394
outer loop
	vertex 15.7959 28.6071 38.1647
	vertex 15.7556 28.6446 38.14989
	vertex 16.4602 28.6071 38.1647
endloop
endfacet
facet normal 0 -0.3667273 -0.9303285
outer loop
	vertex 16.5006 28.6446 38.14989
	vertex 16.4602 28.6071 38.1647
	vertex 15.7556 28.6446 38.14989
endloop
endfacet
facet normal 0 -0.3666996 -0.9303394
outer loop
	vertex 16.4602 28.6071 38.1647
	vertex 16.5006 28.6446 38.14989
	vertex 16.4602 27.04 38.7826
endloop
endfacet
facet normal 0 -0.3666996 -0.9303394
outer loop
	vertex 16.5006 27.04 38.7826
	vertex 16.4602 27.04 38.7826
	vertex 16.5006 28.6446 38.14989
endloop
endfacet
facet normal 0 -0.4817063 -0.8763328
outer loop
	vertex 15.7959 30.2057 37.4168
	vertex 15.7556 30.2057 37.4168
	vertex 15.7959 31.7217 36.5835
endloop
endfacet
facet normal 0 -0.481672 -0.8763516
outer loop
	vertex 15.7556 31.7217 36.5835
	vertex 15.7959 31.7217 36.5835
	vertex 15.7556 30.2057 37.4168
endloop
endfacet
facet normal 0 -0.4250092 -0.9051891
outer loop
	vertex 15.7556 30.2057 37.4168
	vertex 15.7959 30.2057 37.4168
	vertex 15.7556 29.0297 37.9689
endloop
endfacet
facet normal 0 -0.4250092 -0.9051891
outer loop
	vertex 15.7959 29.0662 37.9518
	vertex 15.7556 29.0297 37.9689
	vertex 15.7959 30.2057 37.4168
endloop
endfacet
facet normal 0 -0.4250092 -0.9051891
outer loop
	vertex 15.7556 29.0297 37.9689
	vertex 15.7959 29.0662 37.9518
	vertex 16.5006 29.0297 37.9689
endloop
endfacet
facet normal 0 -0.4250092 -0.9051891
outer loop
	vertex 16.4602 29.0662 37.9518
	vertex 16.5006 29.0297 37.9689
	vertex 15.7959 29.0662 37.9518
endloop
endfacet
facet normal 0 -0.4250092 -0.9051891
outer loop
	vertex 16.5006 29.0297 37.9689
	vertex 16.4602 29.0662 37.9518
	vertex 16.5006 30.2057 37.4168
endloop
endfacet
facet normal 0 -0.4250092 -0.9051891
outer loop
	vertex 16.4602 30.2057 37.4168
	vertex 16.5006 30.2057 37.4168
	vertex 16.4602 29.0662 37.9518
endloop
endfacet
facet normal 0 -0.481672 -0.8763516
outer loop
	vertex 16.4602 31.7217 36.5835
	vertex 16.5006 31.7217 36.5835
	vertex 16.4602 30.2057 37.4168
endloop
endfacet
facet normal 0 -0.4817063 -0.8763328
outer loop
	vertex 16.5006 30.2057 37.4168
	vertex 16.4602 30.2057 37.4168
	vertex 16.5006 31.7217 36.5835
endloop
endfacet
facet normal 0 -0.5364067 -0.8439596
outer loop
	vertex 15.7959 31.7217 36.5835
	vertex 15.7556 31.7217 36.5835
	vertex 15.7959 33.15 35.6759
endloop
endfacet
facet normal 0 -0.5364067 -0.8439596
outer loop
	vertex 15.7556 33.1841 35.6543
	vertex 15.7959 33.15 35.6759
	vertex 15.7556 31.7217 36.5835
endloop
endfacet
facet normal 0 -0.5364436 -0.8439362
outer loop
	vertex 15.7959 33.15 35.6759
	vertex 15.7556 33.1841 35.6543
	vertex 16.4602 33.15 35.6759
endloop
endfacet
facet normal 0 -0.5364067 -0.8439596
outer loop
	vertex 16.5006 33.1841 35.6543
	vertex 16.4602 33.15 35.6759
	vertex 15.7556 33.1841 35.6543
endloop
endfacet
facet normal 0 -0.5364067 -0.8439596
outer loop
	vertex 16.4602 33.15 35.6759
	vertex 16.5006 33.1841 35.6543
	vertex 16.4602 31.7217 36.5835
endloop
endfacet
facet normal 0 -0.5363699 -0.843983
outer loop
	vertex 16.5006 31.7217 36.5835
	vertex 16.4602 31.7217 36.5835
	vertex 16.5006 33.1841 35.6543
endloop
endfacet
facet normal 0 -0.6389671 -0.769234
outer loop
	vertex 15.7959 34.5745 34.641
	vertex 15.7556 34.5745 34.641
	vertex 15.7959 35.9017 33.539
endloop
endfacet
facet normal 0 -0.638879 -0.7693073
outer loop
	vertex 15.7556 35.9017 33.539
	vertex 15.7959 35.9017 33.539
	vertex 15.7556 34.5745 34.641
endloop
endfacet
facet normal 0 -0.5889165 -0.8081939
outer loop
	vertex 15.7556 34.5745 34.641
	vertex 15.7959 34.5745 34.641
	vertex 15.7556 34.2254 34.8954
endloop
endfacet
facet normal 0 -0.5888634 -0.8082326
outer loop
	vertex 15.7959 34.2254 34.8954
	vertex 15.7556 34.2254 34.8954
	vertex 15.7959 34.5745 34.641
endloop
endfacet
facet normal 0 -0.5888102 -0.8082713
outer loop
	vertex 15.7556 34.2254 34.8954
	vertex 15.7959 34.2254 34.8954
	vertex 15.7556 33.8762 35.1498
endloop
endfacet
facet normal 0 -0.5888102 -0.8082713
outer loop
	vertex 15.7959 33.8762 35.1498
	vertex 15.7556 33.8762 35.1498
	vertex 15.7959 34.2254 34.8954
endloop
endfacet
facet normal 0 -0.5888102 -0.8082713
outer loop
	vertex 15.7556 33.8762 35.1498
	vertex 15.7959 33.8762 35.1498
	vertex 15.7556 33.527 35.4042
endloop
endfacet
facet normal 0 -0.5888102 -0.8082713
outer loop
	vertex 15.7959 33.5596 35.3805
	vertex 15.7556 33.527 35.4042
	vertex 15.7959 33.8762 35.1498
endloop
endfacet
facet normal 0 -0.5888102 -0.8082713
outer loop
	vertex 15.7556 33.527 35.4042
	vertex 15.7959 33.5596 35.3805
	vertex 16.5006 33.527 35.4042
endloop
endfacet
facet normal 0 -0.5888102 -0.8082713
outer loop
	vertex 16.4602 33.5596 35.3805
	vertex 16.5006 33.527 35.4042
	vertex 15.7959 33.5596 35.3805
endloop
endfacet
facet normal 0 -0.5888102 -0.8082713
outer loop
	vertex 16.5006 33.527 35.4042
	vertex 16.4602 33.5596 35.3805
	vertex 16.5006 33.8762 35.1498
endloop
endfacet
facet normal 0 -0.5888102 -0.8082713
outer loop
	vertex 16.4602 33.8762 35.1498
	vertex 16.5006 33.8762 35.1498
	vertex 16.4602 33.5596 35.3805
endloop
endfacet
facet normal 0 -0.5888102 -0.8082713
outer loop
	vertex 16.5006 33.8762 35.1498
	vertex 16.4602 33.8762 35.1498
	vertex 16.5006 34.2254 34.8954
endloop
endfacet
facet normal 0 -0.5888102 -0.8082713
outer loop
	vertex 16.4602 34.2254 34.8954
	vertex 16.5006 34.2254 34.8954
	vertex 16.4602 33.8762 35.1498
endloop
endfacet
facet normal 0 -0.5888634 -0.8082326
outer loop
	vertex 16.5006 34.2254 34.8954
	vertex 16.4602 34.2254 34.8954
	vertex 16.5006 34.5745 34.641
endloop
endfacet
facet normal 0 -0.5889165 -0.8081939
outer loop
	vertex 16.4602 34.5745 34.641
	vertex 16.5006 34.5745 34.641
	vertex 16.4602 34.2254 34.8954
endloop
endfacet
facet normal 0 -0.638879 -0.7693073
outer loop
	vertex 16.4602 35.9017 33.539
	vertex 16.5006 35.9017 33.539
	vertex 16.4602 34.5745 34.641
endloop
endfacet
facet normal 0 -0.6389671 -0.769234
outer loop
	vertex 16.5006 34.5745 34.641
	vertex 16.4602 34.5745 34.641
	vertex 16.5006 35.9017 33.539
endloop
endfacet
facet normal 0 -0.686179 -0.7274327
outer loop
	vertex 15.7959 35.9017 33.539
	vertex 15.7556 35.9017 33.539
	vertex 15.7959 37.1286 32.3814
endloop
endfacet
facet normal 0 -0.6862196 -0.7273944
outer loop
	vertex 15.7556 37.1579 32.3538
	vertex 15.7959 37.1286 32.3814
	vertex 15.7556 35.9017 33.539
endloop
endfacet
facet normal 0 -0.6862196 -0.7273944
outer loop
	vertex 15.7959 37.1286 32.3814
	vertex 15.7556 37.1579 32.3538
	vertex 16.4602 37.1286 32.3814
endloop
endfacet
facet normal 0 -0.6862602 -0.7273561
outer loop
	vertex 16.5006 37.1579 32.3538
	vertex 16.4602 37.1286 32.3814
	vertex 15.7556 37.1579 32.3538
endloop
endfacet
facet normal 0 -0.6862196 -0.7273944
outer loop
	vertex 16.4602 37.1286 32.3814
	vertex 16.5006 37.1579 32.3538
	vertex 16.4602 35.9017 33.539
endloop
endfacet
facet normal 0 -0.6862196 -0.7273944
outer loop
	vertex 16.5006 35.9017 33.539
	vertex 16.4602 35.9017 33.539
	vertex 16.5006 37.1579 32.3538
endloop
endfacet
facet normal 0 -1 0
outer loop
	vertex 16.5006 2.8161 40.36449
	vertex 16.5006 2.8161 40.4045
	vertex 15.7556 2.8161 40.36449
endloop
endfacet
facet normal 0 -1 0
outer loop
	vertex 15.7556 2.8161 40.4045
	vertex 15.7556 2.8161 40.36449
	vertex 16.5006 2.8161 40.4045
endloop
endfacet
facet normal 1 0 0
outer loop
	vertex 16.5006 7.6812 40.36449
	vertex 16.5006 7.6812 40.4045
	vertex 16.5006 2.8161 40.36449
endloop
endfacet
facet normal 1 0 0
outer loop
	vertex 16.5006 2.8161 40.4045
	vertex 16.5006 2.8161 40.36449
	vertex 16.5006 7.6812 40.4045
endloop
endfacet
facet normal 0 1 0
outer loop
	vertex 15.7556 7.6812 40.36449
	vertex 15.7556 7.6812 40.4045
	vertex 16.5006 7.6812 40.36449
endloop
endfacet
facet normal 0 1 0
outer loop
	vertex 16.5006 7.6812 40.4045
	vertex 16.5006 7.6812 40.36449
	vertex 15.7556 7.6812 40.4045
endloop
endfacet
facet normal -1 0 0
outer loop
	vertex 15.7556 2.8161 40.36449
	vertex 15.7556 2.8161 40.4045
	vertex 15.7556 7.6812 40.36449
endloop
endfacet
facet normal -1 0 0
outer loop
	vertex 15.7556 7.6812 40.4045
	vertex 15.7556 7.6812 40.36449
	vertex 15.7556 2.8161 40.4045
endloop
endfacet
facet normal 0 -1 0
outer loop
	vertex 16.5006 8.1699 40.36449
	vertex 16.5006 8.1699 40.4045
	vertex 15.7556 8.1699 40.36449
endloop
endfacet
facet normal 0 -1 0
outer loop
	vertex 15.7556 8.1699 40.4045
	vertex 15.7556 8.1699 40.36449
	vertex 16.5006 8.1699 40.4045
endloop
endfacet
facet normal 1 0 0
outer loop
	vertex 16.5006 13.035 40.3644
	vertex 16.5006 13.035 40.4044
	vertex 16.5006 8.1699 40.36449
endloop
endfacet
facet normal 1 0 0
outer loop
	vertex 16.5006 8.1699 40.4045
	vertex 16.5006 8.1699 40.36449
	vertex 16.5006 13.035 40.4044
endloop
endfacet
facet normal 0 1 0
outer loop
	vertex 15.7556 13.035 40.3644
	vertex 15.7556 13.035 40.4044
	vertex 16.5006 13.035 40.3644
endloop
endfacet
facet normal 0 1 0
outer loop
	vertex 16.5006 13.035 40.4044
	vertex 16.5006 13.035 40.3644
	vertex 15.7556 13.035 40.4044
endloop
endfacet
facet normal -1 0 0
outer loop
	vertex 15.7556 8.1699 40.36449
	vertex 15.7556 8.1699 40.4045
	vertex 15.7556 13.035 40.3644
endloop
endfacet
facet normal -1 0 0
outer loop
	vertex 15.7556 13.035 40.4044
	vertex 15.7556 13.035 40.3644
	vertex 15.7556 8.1699 40.4045
endloop
endfacet
facet normal -1 0 0
outer loop
	vertex 15.7556 13.5237 40.3644
	vertex 15.7556 13.5237 40.4044
	vertex 15.7556 18.6331 40.3644
endloop
endfacet
facet normal -1 0 0
outer loop
	vertex 15.7556 18.6331 40.4044
	vertex 15.7556 18.6331 40.3644
	vertex 15.7556 13.5237 40.4044
endloop
endfacet
facet normal 0 -1 0
outer loop
	vertex 16.5006 13.5237 40.3644
	vertex 16.5006 13.5237 40.4044
	vertex 15.7556 13.5237 40.3644
endloop
endfacet
facet normal 0 -1 0
outer loop
	vertex 15.7556 13.5237 40.4044
	vertex 15.7556 13.5237 40.3644
	vertex 16.5006 13.5237 40.4044
endloop
endfacet
facet normal 1 0 0
outer loop
	vertex 16.5006 18.6331 40.3644
	vertex 16.5006 18.6331 40.4044
	vertex 16.5006 13.5237 40.3644
endloop
endfacet
facet normal 1 0 0
outer loop
	vertex 16.5006 13.5237 40.4044
	vertex 16.5006 13.5237 40.3644
	vertex 16.5006 18.6331 40.4044
endloop
endfacet
facet normal 0 1 0
outer loop
	vertex 15.7556 18.6331 40.3644
	vertex 15.7556 18.6331 40.4044
	vertex 16.5006 18.6331 40.3644
endloop
endfacet
facet normal 0 1 0
outer loop
	vertex 16.5006 18.6331 40.4044
	vertex 16.5006 18.6331 40.3644
	vertex 15.7556 18.6331 40.4044
endloop
endfacet
facet normal 0 -1 0
outer loop
	vertex 16.5006 -7.8915 40.36449
	vertex 16.5006 -7.8915 40.4045
	vertex 15.7556 -7.8915 40.36449
endloop
endfacet
facet normal 0 -1 0
outer loop
	vertex 15.7556 -7.8915 40.4045
	vertex 15.7556 -7.8915 40.36449
	vertex 16.5006 -7.8915 40.4045
endloop
endfacet
facet normal 1 0 0
outer loop
	vertex 16.5006 -3.0264 40.36449
	vertex 16.5006 -3.0264 40.4045
	vertex 16.5006 -7.8915 40.36449
endloop
endfacet
facet normal 1 0 0
outer loop
	vertex 16.5006 -7.8915 40.4045
	vertex 16.5006 -7.8915 40.36449
	vertex 16.5006 -3.0264 40.4045
endloop
endfacet
facet normal 0 1 0
outer loop
	vertex 15.7556 -3.0264 40.36449
	vertex 15.7556 -3.0264 40.4045
	vertex 16.5006 -3.0264 40.36449
endloop
endfacet
facet normal 0 1 0
outer loop
	vertex 16.5006 -3.0264 40.4045
	vertex 16.5006 -3.0264 40.36449
	vertex 15.7556 -3.0264 40.4045
endloop
endfacet
facet normal -1 0 0
outer loop
	vertex 15.7556 -7.8915 40.36449
	vertex 15.7556 -7.8915 40.4045
	vertex 15.7556 -3.0264 40.36449
endloop
endfacet
facet normal -1 0 0
outer loop
	vertex 15.7556 -3.0264 40.4045
	vertex 15.7556 -3.0264 40.36449
	vertex 15.7556 -7.8915 40.4045
endloop
endfacet
facet normal 0 -1 0
outer loop
	vertex 16.5006 -13.2453 40.36449
	vertex 16.5006 -13.2453 40.4045
	vertex 15.7556 -13.2453 40.36449
endloop
endfacet
facet normal 0 -1 0
outer loop
	vertex 15.7556 -13.2453 40.4045
	vertex 15.7556 -13.2453 40.36449
	vertex 16.5006 -13.2453 40.4045
endloop
endfacet
facet normal 1 0 0
outer loop
	vertex 16.5006 -8.3802 40.36449
	vertex 16.5006 -8.3802 40.4045
	vertex 16.5006 -13.2453 40.36449
endloop
endfacet
facet normal 1 0 0
outer loop
	vertex 16.5006 -13.2453 40.4045
	vertex 16.5006 -13.2453 40.36449
	vertex 16.5006 -8.3802 40.4045
endloop
endfacet
facet normal 0 1 0
outer loop
	vertex 15.7556 -8.3802 40.36449
	vertex 15.7556 -8.3802 40.4045
	vertex 16.5006 -8.3802 40.36449
endloop
endfacet
facet normal 0 1 0
outer loop
	vertex 16.5006 -8.3802 40.4045
	vertex 16.5006 -8.3802 40.36449
	vertex 15.7556 -8.3802 40.4045
endloop
endfacet
facet normal -1 0 0
outer loop
	vertex 15.7556 -13.2453 40.36449
	vertex 15.7556 -13.2453 40.4045
	vertex 15.7556 -8.3802 40.36449
endloop
endfacet
facet normal -1 0 0
outer loop
	vertex 15.7556 -8.3802 40.4045
	vertex 15.7556 -8.3802 40.36449
	vertex 15.7556 -13.2453 40.4045
endloop
endfacet
facet normal 0 1 0
outer loop
	vertex 15.7556 -13.734 40.36449
	vertex 15.7556 -13.734 40.4045
	vertex 16.5006 -13.734 40.36449
endloop
endfacet
facet normal 0 1 0
outer loop
	vertex 16.5006 -13.734 40.4045
	vertex 16.5006 -13.734 40.36449
	vertex 15.7556 -13.734 40.4045
endloop
endfacet
facet normal -1 0 0
outer loop
	vertex 15.7556 -18.4504 40.36449
	vertex 15.7556 -18.4504 40.4045
	vertex 15.7556 -13.734 40.36449
endloop
endfacet
facet normal -1 0 0
outer loop
	vertex 15.7556 -13.734 40.4045
	vertex 15.7556 -13.734 40.36449
	vertex 15.7556 -18.4504 40.4045
endloop
endfacet
facet normal 0 -1 0
outer loop
	vertex 16.5006 -18.4504 40.36449
	vertex 16.5006 -18.4504 40.4045
	vertex 15.7556 -18.4504 40.36449
endloop
endfacet
facet normal 0 -1 0
outer loop
	vertex 15.7556 -18.4504 40.4045
	vertex 15.7556 -18.4504 40.36449
	vertex 16.5006 -18.4504 40.4045
endloop
endfacet
facet normal 1 0 0
outer loop
	vertex 16.5006 -13.734 40.36449
	vertex 16.5006 -13.734 40.4045
	vertex 16.5006 -18.4504 40.36449
endloop
endfacet
facet normal 1 0 0
outer loop
	vertex 16.5006 -18.4504 40.4045
	vertex 16.5006 -18.4504 40.36449
	vertex 16.5006 -13.734 40.4045
endloop
endfacet
facet normal 0 -0.7656937 -0.6432055
outer loop
	vertex 16.5006 -37.3711 32.3545
	vertex 16.5006 -37.3968 32.3851
	vertex 15.7556 -37.3711 32.3545
endloop
endfacet
facet normal 0 -0.7656536 -0.6432531
outer loop
	vertex 15.7556 -37.3968 32.3851
	vertex 15.7556 -37.3711 32.3545
	vertex 16.5006 -37.3968 32.3851
endloop
endfacet
facet normal 1 0 0
outer loop
	vertex 16.5006 -37.3968 32.3851
	vertex 16.5006 -37.3711 32.3545
	vertex 16.5006 -36.1427 33.5684
endloop
endfacet
facet normal 1 0 0
outer loop
	vertex 16.5006 -36.117 33.5378
	vertex 16.5006 -36.1427 33.5684
	vertex 16.5006 -37.3711 32.3545
endloop
endfacet
facet normal 1 0 0
outer loop
	vertex 16.5006 -36.1427 33.5684
	vertex 16.5006 -36.117 33.5378
	vertex 16.5006 -34.8191 34.6678
endloop
endfacet
facet normal 1 0 0
outer loop
	vertex 16.5006 -34.7934 34.6372
	vertex 16.5006 -34.8191 34.6678
	vertex 16.5006 -36.117 33.5378
endloop
endfacet
facet normal 1 0 0
outer loop
	vertex 16.5006 -34.8191 34.6678
	vertex 16.5006 -34.7934 34.6372
	vertex 16.5006 -33.7686 35.4333
endloop
endfacet
facet normal 1 0 0
outer loop
	vertex 16.5006 -33.7428 35.4027
	vertex 16.5006 -33.7686 35.4333
	vertex 16.5006 -34.7934 34.6372
endloop
endfacet
facet normal 0 0.7656536 0.6432531
outer loop
	vertex 15.7556 -33.7428 35.4027
	vertex 15.7556 -33.7686 35.4333
	vertex 16.5006 -33.7428 35.4027
endloop
endfacet
facet normal 0 0.7656937 0.6432055
outer loop
	vertex 16.5006 -33.7686 35.4333
	vertex 16.5006 -33.7428 35.4027
	vertex 15.7556 -33.7686 35.4333
endloop
endfacet
facet normal -1 0 0
outer loop
	vertex 15.7556 -37.3711 32.3545
	vertex 15.7556 -37.3968 32.3851
	vertex 15.7556 -36.117 33.5378
endloop
endfacet
facet normal -1 0 0
outer loop
	vertex 15.7556 -36.1427 33.5684
	vertex 15.7556 -36.117 33.5378
	vertex 15.7556 -37.3968 32.3851
endloop
endfacet
facet normal -1 0 0
outer loop
	vertex 15.7556 -36.117 33.5378
	vertex 15.7556 -36.1427 33.5684
	vertex 15.7556 -34.7934 34.6372
endloop
endfacet
facet normal -1 0 0
outer loop
	vertex 15.7556 -34.8191 34.6678
	vertex 15.7556 -34.7934 34.6372
	vertex 15.7556 -36.1427 33.5684
endloop
endfacet
facet normal -1 0 0
outer loop
	vertex 15.7556 -34.7934 34.6372
	vertex 15.7556 -34.8191 34.6678
	vertex 15.7556 -33.7428 35.4027
endloop
endfacet
facet normal -1 0 0
outer loop
	vertex 15.7556 -33.7686 35.4333
	vertex 15.7556 -33.7428 35.4027
	vertex 15.7556 -34.8191 34.6678
endloop
endfacet
facet normal 0 -0.8735462 -0.4867412
outer loop
	vertex 16.5006 -33.3989 35.6536
	vertex 16.5006 -33.4184 35.6885
	vertex 15.7556 -33.3989 35.6536
endloop
endfacet
facet normal 0 -0.8735808 -0.4866791
outer loop
	vertex 15.7556 -33.4184 35.6885
	vertex 15.7556 -33.3989 35.6536
	vertex 16.5006 -33.4184 35.6885
endloop
endfacet
facet normal 1 0 0
outer loop
	vertex 16.5006 -33.4184 35.6885
	vertex 16.5006 -33.3989 35.6536
	vertex 16.5006 -31.9547 36.6187
endloop
endfacet
facet normal 1 0 0
outer loop
	vertex 16.5006 -31.9352 36.5838
	vertex 16.5006 -31.9547 36.6187
	vertex 16.5006 -33.3989 35.6536
endloop
endfacet
facet normal 1 0 0
outer loop
	vertex 16.5006 -31.9547 36.6187
	vertex 16.5006 -31.9352 36.5838
	vertex 16.5006 -30.438 37.4522
endloop
endfacet
facet normal 1 0 0
outer loop
	vertex 16.5006 -30.4185 37.4172
	vertex 16.5006 -30.438 37.4522
	vertex 16.5006 -31.9352 36.5838
endloop
endfacet
facet normal 1 0 0
outer loop
	vertex 16.5006 -30.438 37.4522
	vertex 16.5006 -30.4185 37.4172
	vertex 16.5006 -29.2664 38.00249
endloop
endfacet
facet normal 1 0 0
outer loop
	vertex 16.5006 -29.2469 37.9675
	vertex 16.5006 -29.2664 38.00249
	vertex 16.5006 -30.4185 37.4172
endloop
endfacet
facet normal 0 0.8735808 0.4866791
outer loop
	vertex 15.7556 -29.2469 37.9675
	vertex 15.7556 -29.2664 38.00249
	vertex 16.5006 -29.2469 37.9675
endloop
endfacet
facet normal 0 0.8735462 0.4867412
outer loop
	vertex 16.5006 -29.2664 38.00249
	vertex 16.5006 -29.2469 37.9675
	vertex 15.7556 -29.2664 38.00249
endloop
endfacet
facet normal -1 0 0
outer loop
	vertex 15.7556 -33.3989 35.6536
	vertex 15.7556 -33.4184 35.6885
	vertex 15.7556 -31.9352 36.5838
endloop
endfacet
facet normal -1 0 0
outer loop
	vertex 15.7556 -31.9547 36.6187
	vertex 15.7556 -31.9352 36.5838
	vertex 15.7556 -33.4184 35.6885
endloop
endfacet
facet normal -1 0 0
outer loop
	vertex 15.7556 -31.9352 36.5838
	vertex 15.7556 -31.9547 36.6187
	vertex 15.7556 -30.4185 37.4172
endloop
endfacet
facet normal -1 0 0
outer loop
	vertex 15.7556 -30.438 37.4522
	vertex 15.7556 -30.4185 37.4172
	vertex 15.7556 -31.9547 36.6187
endloop
endfacet
facet normal -1 0 0
outer loop
	vertex 15.7556 -30.4185 37.4172
	vertex 15.7556 -30.438 37.4522
	vertex 15.7556 -29.2469 37.9675
endloop
endfacet
facet normal -1 0 0
outer loop
	vertex 15.7556 -29.2664 38.00249
	vertex 15.7556 -29.2469 37.9675
	vertex 15.7556 -30.438 37.4522
endloop
endfacet
facet normal 0 -0.9497843 -0.3129056
outer loop
	vertex 16.5006 -28.8633 38.1479
	vertex 16.5006 -28.8758 38.1859
	vertex 15.7556 -28.8633 38.1479
endloop
endfacet
facet normal 0 -0.9498164 -0.3128079
outer loop
	vertex 15.7556 -28.8758 38.1859
	vertex 15.7556 -28.8633 38.1479
	vertex 16.5006 -28.8758 38.1859
endloop
endfacet
facet normal 1 0 0
outer loop
	vertex 16.5006 -28.8758 38.1859
	vertex 16.5006 -28.8633 38.1479
	vertex 16.5006 -27.2679 38.82
endloop
endfacet
facet normal 1 0 0
outer loop
	vertex 16.5006 -27.2554 38.782
	vertex 16.5006 -27.2679 38.82
	vertex 16.5006 -28.8633 38.1479
endloop
endfacet
facet normal 1 0 0
outer loop
	vertex 16.5006 -27.2679 38.82
	vertex 16.5006 -27.2554 38.782
	vertex 16.5006 -25.6258 39.3502
endloop
endfacet
facet normal 1 0 0
outer loop
	vertex 16.5006 -25.6133 39.3122
	vertex 16.5006 -25.6258 39.3502
	vertex 16.5006 -27.2554 38.782
endloop
endfacet
facet normal 1 0 0
outer loop
	vertex 16.5006 -25.6258 39.3502
	vertex 16.5006 -25.6133 39.3122
	vertex 16.5006 -24.3756 39.6681
endloop
endfacet
facet normal 1 0 0
outer loop
	vertex 16.5006 -24.3631 39.6301
	vertex 16.5006 -24.3756 39.6681
	vertex 16.5006 -25.6133 39.3122
endloop
endfacet
facet normal 0 0.9498485 0.3127104
outer loop
	vertex 15.7556 -24.3631 39.6301
	vertex 15.7556 -24.3756 39.6681
	vertex 16.5006 -24.3631 39.6301
endloop
endfacet
facet normal 0 0.9498485 0.3127104
outer loop
	vertex 16.5006 -24.3756 39.6681
	vertex 16.5006 -24.3631 39.6301
	vertex 15.7556 -24.3756 39.6681
endloop
endfacet
facet normal -1 0 0
outer loop
	vertex 15.7556 -28.8633 38.1479
	vertex 15.7556 -28.8758 38.1859
	vertex 15.7556 -27.2554 38.782
endloop
endfacet
facet normal -1 0 0
outer loop
	vertex 15.7556 -27.2679 38.82
	vertex 15.7556 -27.2554 38.782
	vertex 15.7556 -28.8758 38.1859
endloop
endfacet
facet normal -1 0 0
outer loop
	vertex 15.7556 -27.2554 38.782
	vertex 15.7556 -27.2679 38.82
	vertex 15.7556 -25.6133 39.3122
endloop
endfacet
facet normal -1 0 0
outer loop
	vertex 15.7556 -25.6258 39.3502
	vertex 15.7556 -25.6133 39.3122
	vertex 15.7556 -27.2679 38.82
endloop
endfacet
facet normal -1 0 0
outer loop
	vertex 15.7556 -25.6133 39.3122
	vertex 15.7556 -25.6258 39.3502
	vertex 15.7556 -24.3631 39.6301
endloop
endfacet
facet normal -1 0 0
outer loop
	vertex 15.7556 -24.3756 39.6681
	vertex 15.7556 -24.3631 39.6301
	vertex 15.7556 -25.6258 39.3502
endloop
endfacet
facet normal -1 0 0
outer loop
	vertex 15.7556 -18.8435 40.4045
	vertex 15.7556 -18.8386 40.3648
	vertex 15.7556 -20.5451 40.3043
endloop
endfacet
facet normal -1 0 0
outer loop
	vertex 15.7556 -20.5402 40.2646
	vertex 15.7556 -20.5451 40.3043
	vertex 15.7556 -18.8386 40.3648
endloop
endfacet
facet normal -1 0 0
outer loop
	vertex 15.7556 -20.5451 40.3043
	vertex 15.7556 -20.5402 40.2646
	vertex 15.7556 -22.2633 40.0929
endloop
endfacet
facet normal -1 0 0
outer loop
	vertex 15.7556 -22.2584 40.0532
	vertex 15.7556 -22.2633 40.0929
	vertex 15.7556 -20.5402 40.2646
endloop
endfacet
facet normal -1 0 0
outer loop
	vertex 15.7556 -22.2633 40.0929
	vertex 15.7556 -22.2584 40.0532
	vertex 15.7556 -23.9588 39.7741
endloop
endfacet
facet normal -1 0 0
outer loop
	vertex 15.7556 -23.954 39.7344
	vertex 15.7556 -23.9588 39.7741
	vertex 15.7556 -22.2584 40.0532
endloop
endfacet
facet normal 0 -0.9924621 -0.1225523
outer loop
	vertex 16.5006 -23.954 39.7344
	vertex 16.5006 -23.9588 39.7741
	vertex 15.7556 -23.954 39.7344
endloop
endfacet
facet normal 0 -0.9924634 -0.1225424
outer loop
	vertex 15.7556 -23.9588 39.7741
	vertex 15.7556 -23.954 39.7344
	vertex 16.5006 -23.9588 39.7741
endloop
endfacet
facet normal 1 0 0
outer loop
	vertex 16.5006 -23.9588 39.7741
	vertex 16.5006 -23.954 39.7344
	vertex 16.5006 -22.2633 40.0929
endloop
endfacet
facet normal 1 0 0
outer loop
	vertex 16.5006 -22.2584 40.0532
	vertex 16.5006 -22.2633 40.0929
	vertex 16.5006 -23.954 39.7344
endloop
endfacet
facet normal 1 0 0
outer loop
	vertex 16.5006 -22.2633 40.0929
	vertex 16.5006 -22.2584 40.0532
	vertex 16.5006 -20.5451 40.3043
endloop
endfacet
facet normal 1 0 0
outer loop
	vertex 16.5006 -20.5402 40.2646
	vertex 16.5006 -20.5451 40.3043
	vertex 16.5006 -22.2584 40.0532
endloop
endfacet
facet normal 1 0 0
outer loop
	vertex 16.5006 -20.5451 40.3043
	vertex 16.5006 -20.5402 40.2646
	vertex 16.5006 -18.8435 40.4045
endloop
endfacet
facet normal 1 0 0
outer loop
	vertex 16.5006 -18.8386 40.3648
	vertex 16.5006 -18.8435 40.4045
	vertex 16.5006 -20.5402 40.2646
endloop
endfacet
facet normal 0 0.9924924 0.1223069
outer loop
	vertex 15.7556 -18.8386 40.3648
	vertex 15.7556 -18.8435 40.4045
	vertex 16.5006 -18.8386 40.3648
endloop
endfacet
facet normal 0 0.9924924 0.1223069
outer loop
	vertex 16.5006 -18.8435 40.4045
	vertex 16.5006 -18.8386 40.3648
	vertex 15.7556 -18.8435 40.4045
endloop
endfacet
facet normal 0 -1 0
outer loop
	vertex 16.5006 -2.5377 40.36449
	vertex 16.5006 -2.5377 40.4045
	vertex 15.7556 -2.5377 40.36449
endloop
endfacet
facet normal 0 -1 0
outer loop
	vertex 15.7556 -2.5377 40.4045
	vertex 15.7556 -2.5377 40.36449
	vertex 16.5006 -2.5377 40.4045
endloop
endfacet
facet normal 1 0 0
outer loop
	vertex 16.5006 2.3274 40.36449
	vertex 16.5006 2.3274 40.4045
	vertex 16.5006 -2.5377 40.36449
endloop
endfacet
facet normal 1 0 0
outer loop
	vertex 16.5006 -2.5377 40.4045
	vertex 16.5006 -2.5377 40.36449
	vertex 16.5006 2.3274 40.4045
endloop
endfacet
facet normal 0 1 0
outer loop
	vertex 15.7556 2.3274 40.36449
	vertex 15.7556 2.3274 40.4045
	vertex 16.5006 2.3274 40.36449
endloop
endfacet
facet normal 0 1 0
outer loop
	vertex 16.5006 2.3274 40.4045
	vertex 16.5006 2.3274 40.36449
	vertex 15.7556 2.3274 40.4045
endloop
endfacet
facet normal -1 0 0
outer loop
	vertex 15.7556 -2.5377 40.36449
	vertex 15.7556 -2.5377 40.4045
	vertex 15.7556 2.3274 40.36449
endloop
endfacet
facet normal -1 0 0
outer loop
	vertex 15.7556 2.3274 40.4045
	vertex 15.7556 2.3274 40.36449
	vertex 15.7556 -2.5377 40.4045
endloop
endfacet
facet normal -1 0 0
outer loop
	vertex 15.7556 23.7447 39.7741
	vertex 15.7556 23.7396 39.7345
	vertex 15.7556 22.0519 40.0925
endloop
endfacet
facet normal -1 0 0
outer loop
	vertex 15.7556 22.0468 40.0528
	vertex 15.7556 22.0519 40.0925
	vertex 15.7556 23.7396 39.7345
endloop
endfacet
facet normal -1 0 0
outer loop
	vertex 15.7556 22.0519 40.0925
	vertex 15.7556 22.0468 40.0528
	vertex 15.7556 20.3335 40.3041
endloop
endfacet
facet normal -1 0 0
outer loop
	vertex 15.7556 20.3284 40.2644
	vertex 15.7556 20.3335 40.3041
	vertex 15.7556 22.0468 40.0528
endloop
endfacet
facet normal -1 0 0
outer loop
	vertex 15.7556 20.3335 40.3041
	vertex 15.7556 20.3284 40.2644
	vertex 15.7556 19.0582 40.3793
endloop
endfacet
facet normal -1 0 0
outer loop
	vertex 15.7556 19.0531 40.3397
	vertex 15.7556 19.0582 40.3793
	vertex 15.7556 20.3284 40.2644
endloop
endfacet
facet normal 0 -0.9917529 0.128165
outer loop
	vertex 16.5006 19.0531 40.3397
	vertex 16.5006 19.0582 40.3793
	vertex 15.7556 19.0531 40.3397
endloop
endfacet
facet normal 0 -0.9917529 0.128165
outer loop
	vertex 15.7556 19.0582 40.3793
	vertex 15.7556 19.0531 40.3397
	vertex 16.5006 19.0582 40.3793
endloop
endfacet
facet normal 1 0 0
outer loop
	vertex 16.5006 19.0582 40.3793
	vertex 16.5006 19.0531 40.3397
	vertex 16.5006 20.3335 40.3041
endloop
endfacet
facet normal 1 0 0
outer loop
	vertex 16.5006 20.3284 40.2644
	vertex 16.5006 20.3335 40.3041
	vertex 16.5006 19.0531 40.3397
endloop
endfacet
facet normal 1 0 0
outer loop
	vertex 16.5006 20.3335 40.3041
	vertex 16.5006 20.3284 40.2644
	vertex 16.5006 22.0519 40.0925
endloop
endfacet
facet normal 1 0 0
outer loop
	vertex 16.5006 22.0468 40.0528
	vertex 16.5006 22.0519 40.0925
	vertex 16.5006 20.3284 40.2644
endloop
endfacet
facet normal 1 0 0
outer loop
	vertex 16.5006 22.0519 40.0925
	vertex 16.5006 22.0468 40.0528
	vertex 16.5006 23.7447 39.7741
endloop
endfacet
facet normal 1 0 0
outer loop
	vertex 16.5006 23.7396 39.7345
	vertex 16.5006 23.7447 39.7741
	vertex 16.5006 22.0468 40.0528
endloop
endfacet
facet normal 0 0.9917509 -0.1281805
outer loop
	vertex 15.7556 23.7396 39.7345
	vertex 15.7556 23.7447 39.7741
	vertex 16.5006 23.7396 39.7345
endloop
endfacet
facet normal 0 0.9917509 -0.1281805
outer loop
	vertex 16.5006 23.7447 39.7741
	vertex 16.5006 23.7396 39.7345
	vertex 15.7556 23.7447 39.7741
endloop
endfacet
facet normal -1 0 0
outer loop
	vertex 15.7556 28.6571 38.1879
	vertex 15.7556 28.6446 38.14989
	vertex 15.7556 27.0525 38.8205
endloop
endfacet
facet normal -1 0 0
outer loop
	vertex 15.7556 27.04 38.7826
	vertex 15.7556 27.0525 38.8205
	vertex 15.7556 28.6446 38.14989
endloop
endfacet
facet normal -1 0 0
outer loop
	vertex 15.7556 27.0525 38.8205
	vertex 15.7556 27.04 38.7826
	vertex 15.7556 25.414 39.3496
endloop
endfacet
facet normal -1 0 0
outer loop
	vertex 15.7556 25.4015 39.3116
	vertex 15.7556 25.414 39.3496
	vertex 15.7556 27.04 38.7826
endloop
endfacet
facet normal -1 0 0
outer loop
	vertex 15.7556 25.414 39.3496
	vertex 15.7556 25.4015 39.3116
	vertex 15.7556 24.162 39.668
endloop
endfacet
facet normal -1 0 0
outer loop
	vertex 15.7556 24.1495 39.63
	vertex 15.7556 24.162 39.668
	vertex 15.7556 25.4015 39.3116
endloop
endfacet
facet normal 0 -0.9497522 0.3130031
outer loop
	vertex 16.5006 24.1495 39.63
	vertex 16.5006 24.162 39.668
	vertex 15.7556 24.1495 39.63
endloop
endfacet
facet normal 0 -0.9497522 0.3130031
outer loop
	vertex 15.7556 24.162 39.668
	vertex 15.7556 24.1495 39.63
	vertex 16.5006 24.162 39.668
endloop
endfacet
facet normal 1 0 0
outer loop
	vertex 16.5006 24.162 39.668
	vertex 16.5006 24.1495 39.63
	vertex 16.5006 25.414 39.3496
endloop
endfacet
facet normal 1 0 0
outer loop
	vertex 16.5006 25.4015 39.3116
	vertex 16.5006 25.414 39.3496
	vertex 16.5006 24.1495 39.63
endloop
endfacet
facet normal 1 0 0
outer loop
	vertex 16.5006 25.414 39.3496
	vertex 16.5006 25.4015 39.3116
	vertex 16.5006 27.0525 38.8205
endloop
endfacet
facet normal 1 0 0
outer loop
	vertex 16.5006 27.04 38.7826
	vertex 16.5006 27.0525 38.8205
	vertex 16.5006 25.4015 39.3116
endloop
endfacet
facet normal 1 0 0
outer loop
	vertex 16.5006 27.0525 38.8205
	vertex 16.5006 27.04 38.7826
	vertex 16.5006 28.6571 38.1879
endloop
endfacet
facet normal 1 0 0
outer loop
	vertex 16.5006 28.6446 38.14989
	vertex 16.5006 28.6571 38.1879
	vertex 16.5006 27.04 38.7826
endloop
endfacet
facet normal 0 0.9498485 -0.3127104
outer loop
	vertex 15.7556 28.6446 38.14989
	vertex 15.7556 28.6571 38.1879
	vertex 16.5006 28.6446 38.14989
endloop
endfacet
facet normal 0 0.9498485 -0.3127104
outer loop
	vertex 16.5006 28.6571 38.1879
	vertex 16.5006 28.6446 38.14989
	vertex 15.7556 28.6571 38.1879
endloop
endfacet
facet normal -1 0 0
outer loop
	vertex 15.7556 33.2035 35.6892
	vertex 15.7556 33.1841 35.6543
	vertex 15.7556 31.7411 36.6184
endloop
endfacet
facet normal -1 0 0
outer loop
	vertex 15.7556 31.7217 36.5835
	vertex 15.7556 31.7411 36.6184
	vertex 15.7556 33.1841 35.6543
endloop
endfacet
facet normal -1 0 0
outer loop
	vertex 15.7556 31.7411 36.6184
	vertex 15.7556 31.7217 36.5835
	vertex 15.7556 30.2252 37.4518
endloop
endfacet
facet normal -1 0 0
outer loop
	vertex 15.7556 30.2057 37.4168
	vertex 15.7556 30.2252 37.4518
	vertex 15.7556 31.7217 36.5835
endloop
endfacet
facet normal -1 0 0
outer loop
	vertex 15.7556 30.2252 37.4518
	vertex 15.7556 30.2057 37.4168
	vertex 15.7556 29.0491 38.0039
endloop
endfacet
facet normal -1 0 0
outer loop
	vertex 15.7556 29.0297 37.9689
	vertex 15.7556 29.0491 38.0039
	vertex 15.7556 30.2057 37.4168
endloop
endfacet
facet normal 0 -0.8735116 0.4868033
outer loop
	vertex 16.5006 29.0297 37.9689
	vertex 16.5006 29.0491 38.0039
	vertex 15.7556 29.0297 37.9689
endloop
endfacet
facet normal 0 -0.8735116 0.4868033
outer loop
	vertex 15.7556 29.0491 38.0039
	vertex 15.7556 29.0297 37.9689
	vertex 16.5006 29.0491 38.0039
endloop
endfacet
facet normal 1 0 0
outer loop
	vertex 16.5006 29.0491 38.0039
	vertex 16.5006 29.0297 37.9689
	vertex 16.5006 30.2252 37.4518
endloop
endfacet
facet normal 1 0 0
outer loop
	vertex 16.5006 30.2057 37.4168
	vertex 16.5006 30.2252 37.4518
	vertex 16.5006 29.0297 37.9689
endloop
endfacet
facet normal 1 0 0
outer loop
	vertex 16.5006 30.2252 37.4518
	vertex 16.5006 30.2057 37.4168
	vertex 16.5006 31.7411 36.6184
endloop
endfacet
facet normal 1 0 0
outer loop
	vertex 16.5006 31.7217 36.5835
	vertex 16.5006 31.7411 36.6184
	vertex 16.5006 30.2057 37.4168
endloop
endfacet
facet normal 1 0 0
outer loop
	vertex 16.5006 31.7411 36.6184
	vertex 16.5006 31.7217 36.5835
	vertex 16.5006 33.2035 35.6892
endloop
endfacet
facet normal 1 0 0
outer loop
	vertex 16.5006 33.1841 35.6543
	vertex 16.5006 33.2035 35.6892
	vertex 16.5006 31.7217 36.5835
endloop
endfacet
facet normal 0 0.8735116 -0.4868033
outer loop
	vertex 15.7556 33.1841 35.6543
	vertex 15.7556 33.2035 35.6892
	vertex 16.5006 33.1841 35.6543
endloop
endfacet
facet normal 0 0.8735116 -0.4868033
outer loop
	vertex 16.5006 33.2035 35.6892
	vertex 16.5006 33.1841 35.6543
	vertex 15.7556 33.2035 35.6892
endloop
endfacet
facet normal -1 0 0
outer loop
	vertex 15.7556 37.1836 32.3844
	vertex 15.7556 37.1579 32.3538
	vertex 15.7556 35.92739 33.5696
endloop
endfacet
facet normal -1 0 0
outer loop
	vertex 15.7556 35.9017 33.539
	vertex 15.7556 35.92739 33.5696
	vertex 15.7556 37.1579 32.3538
endloop
endfacet
facet normal -1 0 0
outer loop
	vertex 15.7556 35.92739 33.5696
	vertex 15.7556 35.9017 33.539
	vertex 15.7556 34.6003 34.6717
endloop
endfacet
facet normal -1 0 0
outer loop
	vertex 15.7556 34.5745 34.641
	vertex 15.7556 34.6003 34.6717
	vertex 15.7556 35.9017 33.539
endloop
endfacet
facet normal -1 0 0
outer loop
	vertex 15.7556 34.6003 34.6717
	vertex 15.7556 34.5745 34.641
	vertex 15.7556 34.2511 34.9261
endloop
endfacet
facet normal -1 0 0
outer loop
	vertex 15.7556 34.2254 34.8954
	vertex 15.7556 34.2511 34.9261
	vertex 15.7556 34.5745 34.641
endloop
endfacet
facet normal -1 0 0
outer loop
	vertex 15.7556 34.2511 34.9261
	vertex 15.7556 34.2254 34.8954
	vertex 15.7556 33.9019 35.1804
endloop
endfacet
facet normal -1 0 0
outer loop
	vertex 15.7556 33.8762 35.1498
	vertex 15.7556 33.9019 35.1804
	vertex 15.7556 34.2254 34.8954
endloop
endfacet
facet normal -1 0 0
outer loop
	vertex 15.7556 33.9019 35.1804
	vertex 15.7556 33.8762 35.1498
	vertex 15.7556 33.5527 35.4348
endloop
endfacet
facet normal -1 0 0
outer loop
	vertex 15.7556 33.527 35.4042
	vertex 15.7556 33.5527 35.4348
	vertex 15.7556 33.8762 35.1498
endloop
endfacet
facet normal 0 -0.7657337 0.6431577
outer loop
	vertex 16.5006 33.527 35.4042
	vertex 16.5006 33.5527 35.4348
	vertex 15.7556 33.527 35.4042
endloop
endfacet
facet normal 0 -0.7657337 0.6431577
outer loop
	vertex 15.7556 33.5527 35.4348
	vertex 15.7556 33.527 35.4042
	vertex 16.5006 33.5527 35.4348
endloop
endfacet
facet normal 1 0 0
outer loop
	vertex 16.5006 33.5527 35.4348
	vertex 16.5006 33.527 35.4042
	vertex 16.5006 33.9019 35.1804
endloop
endfacet
facet normal 1 0 0
outer loop
	vertex 16.5006 33.8762 35.1498
	vertex 16.5006 33.9019 35.1804
	vertex 16.5006 33.527 35.4042
endloop
endfacet
facet normal 1 0 0
outer loop
	vertex 16.5006 33.9019 35.1804
	vertex 16.5006 33.8762 35.1498
	vertex 16.5006 34.2511 34.9261
endloop
endfacet
facet normal 1 0 0
outer loop
	vertex 16.5006 34.2254 34.8954
	vertex 16.5006 34.2511 34.9261
	vertex 16.5006 33.8762 35.1498
endloop
endfacet
facet normal 1 0 0
outer loop
	vertex 16.5006 34.2511 34.9261
	vertex 16.5006 34.2254 34.8954
	vertex 16.5006 34.6003 34.6717
endloop
endfacet
facet normal 1 0 0
outer loop
	vertex 16.5006 34.5745 34.641
	vertex 16.5006 34.6003 34.6717
	vertex 16.5006 34.2254 34.8954
endloop
endfacet
facet normal 1 0 0
outer loop
	vertex 16.5006 34.6003 34.6717
	vertex 16.5006 34.5745 34.641
	vertex 16.5006 35.92739 33.5696
endloop
endfacet
facet normal 1 0 0
outer loop
	vertex 16.5006 35.9017 33.539
	vertex 16.5006 35.92739 33.5696
	vertex 16.5006 34.5745 34.641
endloop
endfacet
facet normal 1 0 0
outer loop
	vertex 16.5006 35.92739 33.5696
	vertex 16.5006 35.9017 33.539
	vertex 16.5006 37.1836 32.3844
endloop
endfacet
facet normal 1 0 0
outer loop
	vertex 16.5006 37.1579 32.3538
	vertex 16.5006 37.1836 32.3844
	vertex 16.5006 35.9017 33.539
endloop
endfacet
facet normal 0 0.7656664 -0.6432379
outer loop
	vertex 15.7556 37.1579 32.3538
	vertex 15.7556 37.1836 32.3844
	vertex 16.5006 37.1579 32.3538
endloop
endfacet
facet normal 0 0.7657 -0.6431978
outer loop
	vertex 16.5006 37.1836 32.3844
	vertex 16.5006 37.1579 32.3538
	vertex 15.7556 37.1836 32.3844
endloop
endfacet
facet normal 0 0 -1
outer loop
	vertex 15.7959 8.2102 40.36449
	vertex 15.7959 12.9947 40.3644
	vertex 16.4602 8.2102 40.36449
endloop
endfacet
facet normal 0 0 -1
outer loop
	vertex 16.4602 12.9947 40.3644
	vertex 16.4602 8.2102 40.36449
	vertex 15.7959 12.9947 40.3644
endloop
endfacet
facet normal 0 0 -1
outer loop
	vertex 15.7959 2.8564 40.36449
	vertex 15.7959 7.6409 40.36449
	vertex 16.4602 2.8564 40.36449
endloop
endfacet
facet normal 0 0 -1
outer loop
	vertex 16.4602 7.6409 40.36449
	vertex 16.4602 2.8564 40.36449
	vertex 15.7959 7.6409 40.36449
endloop
endfacet
facet normal 0 0 -1
outer loop
	vertex 16.4602 -3.0667 40.36449
	vertex 16.4602 -7.8512 40.36449
	vertex 15.7959 -3.0667 40.36449
endloop
endfacet
facet normal 0 0 -1
outer loop
	vertex 15.7959 -7.8512 40.36449
	vertex 15.7959 -3.0667 40.36449
	vertex 16.4602 -7.8512 40.36449
endloop
endfacet
facet normal 0 0 -1
outer loop
	vertex 15.7959 13.564 40.3644
	vertex 15.7959 18.5928 40.3644
	vertex 16.4602 13.564 40.3644
endloop
endfacet
facet normal 0 0 -1
outer loop
	vertex 16.4602 18.5928 40.3644
	vertex 16.4602 13.564 40.3644
	vertex 15.7959 18.5928 40.3644
endloop
endfacet
facet normal 0 0 -1
outer loop
	vertex 16.4602 -8.4205 40.36449
	vertex 16.4602 -13.205 40.36449
	vertex 15.7959 -8.4205 40.36449
endloop
endfacet
facet normal 0 0 -1
outer loop
	vertex 15.7959 -13.205 40.36449
	vertex 15.7959 -8.4205 40.36449
	vertex 16.4602 -13.205 40.36449
endloop
endfacet
facet normal 0 0.686179 -0.7274327
outer loop
	vertex 16.4602 -36.117 33.5378
	vertex 16.4602 -37.3418 32.3821
	vertex 15.7959 -36.117 33.5378
endloop
endfacet
facet normal 0 0.686179 -0.7274327
outer loop
	vertex 15.7959 -37.3418 32.3821
	vertex 15.7959 -36.117 33.5378
	vertex 16.4602 -37.3418 32.3821
endloop
endfacet
facet normal 0 0.6388871 -0.7693005
outer loop
	vertex 16.4602 -34.7934 34.6372
	vertex 16.4602 -36.117 33.5378
	vertex 15.7959 -34.7934 34.6372
endloop
endfacet
facet normal 0 0.638839 -0.7693405
outer loop
	vertex 15.7959 -36.117 33.5378
	vertex 15.7959 -34.7934 34.6372
	vertex 16.4602 -36.117 33.5378
endloop
endfacet
facet normal 0 0.5888634 -0.8082326
outer loop
	vertex 16.4602 -33.7754 35.379
	vertex 16.4602 -34.7934 34.6372
	vertex 15.7959 -33.7754 35.379
endloop
endfacet
facet normal 0 0.5889165 -0.8081939
outer loop
	vertex 15.7959 -34.7934 34.6372
	vertex 15.7959 -33.7754 35.379
	vertex 16.4602 -34.7934 34.6372
endloop
endfacet
facet normal 0 0.5364224 -0.8439496
outer loop
	vertex 16.4602 -31.9352 36.5838
	vertex 16.4602 -33.36489 35.6752
	vertex 15.7959 -31.9352 36.5838
endloop
endfacet
facet normal 0 0.5363645 -0.8439865
outer loop
	vertex 15.7959 -33.36489 35.6752
	vertex 15.7959 -31.9352 36.5838
	vertex 16.4602 -33.36489 35.6752
endloop
endfacet
facet normal 0 0.4817407 -0.8763139
outer loop
	vertex 16.4602 -30.4185 37.4172
	vertex 16.4602 -31.9352 36.5838
	vertex 15.7959 -30.4185 37.4172
endloop
endfacet
facet normal 0 0.4817407 -0.8763139
outer loop
	vertex 15.7959 -31.9352 36.5838
	vertex 15.7959 -30.4185 37.4172
	vertex 16.4602 -31.9352 36.5838
endloop
endfacet
facet normal 0 0.4251031 -0.9051449
outer loop
	vertex 16.4602 -29.2834 37.9504
	vertex 16.4602 -30.4185 37.4172
	vertex 15.7959 -29.2834 37.9504
endloop
endfacet
facet normal 0 0.4251031 -0.9051449
outer loop
	vertex 15.7959 -30.4185 37.4172
	vertex 15.7959 -29.2834 37.9504
	vertex 16.4602 -30.4185 37.4172
endloop
endfacet
facet normal 0 0.3668831 -0.9302671
outer loop
	vertex 16.4602 -27.2554 38.782
	vertex 16.4602 -28.8258 38.1627
	vertex 15.7959 -27.2554 38.782
endloop
endfacet
facet normal 0 0.3668831 -0.9302671
outer loop
	vertex 15.7959 -28.8258 38.1627
	vertex 15.7959 -27.2554 38.782
	vertex 16.4602 -28.8258 38.1627
endloop
endfacet
facet normal 0 0.3072809 -0.9516189
outer loop
	vertex 16.4602 -25.6133 39.3122
	vertex 16.4602 -27.2554 38.782
	vertex 15.7959 -25.6133 39.3122
endloop
endfacet
facet normal 0 0.3072809 -0.9516189
outer loop
	vertex 15.7959 -27.2554 38.782
	vertex 15.7959 -25.6133 39.3122
	vertex 16.4602 -27.2554 38.782
endloop
endfacet
facet normal 0 0.2464986 -0.9691432
outer loop
	vertex 16.4602 -24.4021 39.6202
	vertex 16.4602 -25.6133 39.3122
	vertex 15.7959 -24.4021 39.6202
endloop
endfacet
facet normal 0 0.2465556 -0.9691287
outer loop
	vertex 15.7959 -25.6133 39.3122
	vertex 15.7959 -24.4021 39.6202
	vertex 16.4602 -25.6133 39.3122
endloop
endfacet
facet normal 0 0 -1
outer loop
	vertex 16.4602 2.2871 40.36449
	vertex 16.4602 -2.4974 40.36449
	vertex 15.7959 2.2871 40.36449
endloop
endfacet
facet normal 0 0 -1
outer loop
	vertex 15.7959 -2.4974 40.36449
	vertex 15.7959 2.2871 40.36449
	vertex 16.4602 -2.4974 40.36449
endloop
endfacet
facet normal 0 -0.05891761 -0.9982628
outer loop
	vertex 16.4602 20.3284 40.2644
	vertex 16.4602 19.0934 40.3373
	vertex 15.7959 20.3284 40.2644
endloop
endfacet
facet normal 0 -0.05887706 -0.9982653
outer loop
	vertex 15.7959 19.0934 40.3373
	vertex 15.7959 20.3284 40.2644
	vertex 16.4602 19.0934 40.3373
endloop
endfacet
facet normal 0 -0.122302 -0.9924929
outer loop
	vertex 16.4602 22.0468 40.0528
	vertex 16.4602 20.3284 40.2644
	vertex 15.7959 22.0468 40.0528
endloop
endfacet
facet normal 0 -0.1223118 -0.9924917
outer loop
	vertex 15.7959 20.3284 40.2644
	vertex 15.7959 22.0468 40.0528
	vertex 16.4602 20.3284 40.2644
endloop
endfacet
facet normal 0 -0.1849126 -0.9827549
outer loop
	vertex 16.4602 23.7 39.7419
	vertex 16.4602 22.0468 40.0528
	vertex 15.7959 23.7 39.7419
endloop
endfacet
facet normal 0 -0.1849912 -0.9827402
outer loop
	vertex 15.7959 22.0468 40.0528
	vertex 15.7959 23.7 39.7419
	vertex 16.4602 22.0468 40.0528
endloop
endfacet
facet normal 0 0 -1
outer loop
	vertex 16.4602 -13.7743 40.36449
	vertex 16.4602 -18.4101 40.36449
	vertex 15.7959 -13.7743 40.36449
endloop
endfacet
facet normal 0 0 -1
outer loop
	vertex 15.7959 -18.4101 40.36449
	vertex 15.7959 -13.7743 40.36449
	vertex 16.4602 -18.4101 40.36449
endloop
endfacet
facet normal 0 -0.2466126 -0.9691142
outer loop
	vertex 16.4602 25.4015 39.3116
	vertex 16.4602 24.1886 39.6201
	vertex 15.7959 25.4015 39.3116
endloop
endfacet
facet normal 0 -0.2466126 -0.9691142
outer loop
	vertex 15.7959 24.1886 39.6201
	vertex 15.7959 25.4015 39.3116
	vertex 16.4602 24.1886 39.6201
endloop
endfacet
facet normal 0 -0.3072049 -0.9516434
outer loop
	vertex 16.4602 27.04 38.7826
	vertex 16.4602 25.4015 39.3116
	vertex 15.7959 27.04 38.7826
endloop
endfacet
facet normal 0 -0.3072786 -0.9516196
outer loop
	vertex 15.7959 25.4015 39.3116
	vertex 15.7959 27.04 38.7826
	vertex 16.4602 25.4015 39.3116
endloop
endfacet
facet normal 0 -0.3666718 -0.9303504
outer loop
	vertex 16.4602 28.6071 38.1647
	vertex 16.4602 27.04 38.7826
	vertex 15.7959 28.6071 38.1647
endloop
endfacet
facet normal 0 -0.3666718 -0.9303504
outer loop
	vertex 15.7959 27.04 38.7826
	vertex 15.7959 28.6071 38.1647
	vertex 16.4602 27.04 38.7826
endloop
endfacet
facet normal 0 -0.4250092 -0.9051891
outer loop
	vertex 16.4602 30.2057 37.4168
	vertex 16.4602 29.0662 37.9518
	vertex 15.7959 30.2057 37.4168
endloop
endfacet
facet normal 0 -0.4250092 -0.9051891
outer loop
	vertex 15.7959 29.0662 37.9518
	vertex 15.7959 30.2057 37.4168
	vertex 16.4602 29.0662 37.9518
endloop
endfacet
facet normal 0 -0.481672 -0.8763516
outer loop
	vertex 16.4602 31.7217 36.5835
	vertex 16.4602 30.2057 37.4168
	vertex 15.7959 31.7217 36.5835
endloop
endfacet
facet normal 0 -0.4817063 -0.8763328
outer loop
	vertex 15.7959 30.2057 37.4168
	vertex 15.7959 31.7217 36.5835
	vertex 16.4602 30.2057 37.4168
endloop
endfacet
facet normal 0 -0.5364436 -0.8439362
outer loop
	vertex 16.4602 33.15 35.6759
	vertex 16.4602 31.7217 36.5835
	vertex 15.7959 33.15 35.6759
endloop
endfacet
facet normal 0 -0.5364067 -0.8439596
outer loop
	vertex 15.7959 31.7217 36.5835
	vertex 15.7959 33.15 35.6759
	vertex 16.4602 31.7217 36.5835
endloop
endfacet
facet normal 0 0.184834 -0.9827697
outer loop
	vertex 16.4602 -22.2584 40.0532
	vertex 16.4602 -23.9143 39.7419
	vertex 15.7959 -22.2584 40.0532
endloop
endfacet
facet normal 0 0.184834 -0.9827697
outer loop
	vertex 15.7959 -23.9143 39.7419
	vertex 15.7959 -22.2584 40.0532
	vertex 16.4602 -23.9143 39.7419
endloop
endfacet
facet normal 0 0.1220516 -0.9925237
outer loop
	vertex 16.4602 -20.5402 40.2646
	vertex 16.4602 -22.2584 40.0532
	vertex 15.7959 -20.5402 40.2646
endloop
endfacet
facet normal 0 0.1220516 -0.9925237
outer loop
	vertex 15.7959 -22.2584 40.0532
	vertex 15.7959 -20.5402 40.2646
	vertex 16.4602 -22.2584 40.0532
endloop
endfacet
facet normal 0 0.05875541 -0.9982724
outer loop
	vertex 16.4602 -18.8788 40.3625
	vertex 16.4602 -20.5402 40.2646
	vertex 15.7959 -18.8788 40.3625
endloop
endfacet
facet normal 0 0.05879596 -0.99827
outer loop
	vertex 15.7959 -20.5402 40.2646
	vertex 15.7959 -18.8788 40.3625
	vertex 16.4602 -20.5402 40.2646
endloop
endfacet
facet normal 0 -0.5888102 -0.8082713
outer loop
	vertex 15.7959 33.5596 35.3805
	vertex 16.4602 33.8762 35.1498
	vertex 16.4602 33.5596 35.3805
endloop
endfacet
facet normal 0 -0.5888102 -0.8082713
outer loop
	vertex 16.4602 34.2254 34.8954
	vertex 16.4602 33.8762 35.1498
	vertex 15.7959 33.5596 35.3805
endloop
endfacet
facet normal 0 -0.5888634 -0.8082326
outer loop
	vertex 16.4602 34.5745 34.641
	vertex 16.4602 34.2254 34.8954
	vertex 15.7959 33.5596 35.3805
endloop
endfacet
facet normal 0 -0.5888634 -0.8082326
outer loop
	vertex 15.7959 33.8762 35.1498
	vertex 16.4602 34.5745 34.641
	vertex 15.7959 33.5596 35.3805
endloop
endfacet
facet normal 0 -0.5888634 -0.8082326
outer loop
	vertex 15.7959 34.2254 34.8954
	vertex 16.4602 34.5745 34.641
	vertex 15.7959 33.8762 35.1498
endloop
endfacet
facet normal 0 -0.5889165 -0.8081939
outer loop
	vertex 15.7959 34.5745 34.641
	vertex 16.4602 34.5745 34.641
	vertex 15.7959 34.2254 34.8954
endloop
endfacet
facet normal 0 -0.638879 -0.7693073
outer loop
	vertex 16.4602 35.9017 33.539
	vertex 16.4602 34.5745 34.641
	vertex 15.7959 35.9017 33.539
endloop
endfacet
facet normal 0 -0.6389671 -0.769234
outer loop
	vertex 15.7959 34.5745 34.641
	vertex 15.7959 35.9017 33.539
	vertex 16.4602 34.5745 34.641
endloop
endfacet
facet normal 0 -0.686179 -0.7274327
outer loop
	vertex 16.4602 37.1286 32.3814
	vertex 16.4602 35.9017 33.539
	vertex 15.7959 37.1286 32.3814
endloop
endfacet
facet normal 0 -0.686179 -0.7274327
outer loop
	vertex 15.7959 35.9017 33.539
	vertex 15.7959 37.1286 32.3814
	vertex 16.4602 35.9017 33.539
endloop
endfacet
endsolid Props_Props_0_Object047_0
