solid Props_Props_0_DingBu_0_DingBu_BoLi_0
facet normal 0 -0.05315281 -0.9957486
outer loop
	vertex 0.3540724 -0.3540725 0.01378372
	vertex 0.5812124 -0.3540725 0.01378372
	vertex 0.4676424 -0.4676425 0.03204674
endloop
endfacet
facet normal -0.05315281 0 -0.9957486
outer loop
	vertex 0.5812124 -0.3540725 0.01378372
	vertex 0.5812124 -0.5812125 0.01378374
	vertex 0.4676424 -0.4676425 0.03204674
endloop
endfacet
facet normal 0.05315281 0 -0.9957486
outer loop
	vertex 0.3540724 -0.5812125 0.01378373
	vertex 0.3540724 -0.3540725 0.01378372
	vertex 0.4676424 -0.4676425 0.03204674
endloop
endfacet
facet normal 0 0.05315281 -0.9957486
outer loop
	vertex 0.5812124 -0.5812125 0.01378374
	vertex 0.3540724 -0.5812125 0.01378373
	vertex 0.4676424 -0.4676425 0.03204674
endloop
endfacet
facet normal 6.317099E-05 -0.0531524 -0.9957436
outer loop
	vertex 0.1202504 -0.3540725 0.01378371
	vertex 0.3473914 -0.3540725 0.01378372
	vertex 0.2338214 -0.4676425 0.03204773
endloop
endfacet
facet normal -0.05315281 0 -0.9957486
outer loop
	vertex 0.3473914 -0.3540725 0.01378372
	vertex 0.3473914 -0.5812125 0.01378373
	vertex 0.2338214 -0.4676425 0.03204773
endloop
endfacet
facet normal 0.05327915 0 -0.9957385
outer loop
	vertex 0.1202504 -0.5812125 0.01378372
	vertex 0.1202504 -0.3540725 0.01378371
	vertex 0.2338214 -0.4676425 0.03204773
endloop
endfacet
facet normal 6.317099E-05 0.0531524 -0.9957436
outer loop
	vertex 0.3473914 -0.5812125 0.01378373
	vertex 0.1202504 -0.5812125 0.01378372
	vertex 0.2338214 -0.4676425 0.03204773
endloop
endfacet
facet normal -6.317099E-05 -0.0531524 -0.9957436
outer loop
	vertex -0.3473916 -0.3540725 0.01378369
	vertex -0.1202516 -0.3540725 0.0137837
	vertex -0.2338216 -0.4676425 0.03204672
endloop
endfacet
facet normal -0.05327915 0 -0.9957385
outer loop
	vertex -0.1202516 -0.3540725 0.0137837
	vertex -0.1202516 -0.5812125 0.01378371
	vertex -0.2338216 -0.4676425 0.03204672
endloop
endfacet
facet normal 0.05315281 0 -0.9957486
outer loop
	vertex -0.3473916 -0.5812125 0.01378371
	vertex -0.3473916 -0.3540725 0.01378369
	vertex -0.2338216 -0.4676425 0.03204672
endloop
endfacet
facet normal -6.317099E-05 0.0531524 -0.9957436
outer loop
	vertex -0.1202516 -0.5812125 0.01378371
	vertex -0.3473916 -0.5812125 0.01378371
	vertex -0.2338216 -0.4676425 0.03204672
endloop
endfacet
facet normal 0 -0.05315281 -0.9957486
outer loop
	vertex -0.579603 -0.3540725 0.01378369
	vertex -0.3524631 -0.3540725 0.01378369
	vertex -0.466033 -0.4676425 0.03204671
endloop
endfacet
facet normal -0.05315281 0 -0.9957486
outer loop
	vertex -0.3524631 -0.3540725 0.01378369
	vertex -0.3524631 -0.5812125 0.01378371
	vertex -0.466033 -0.4676425 0.03204671
endloop
endfacet
facet normal 0.05315281 0 -0.9957486
outer loop
	vertex -0.579603 -0.5812125 0.0137837
	vertex -0.579603 -0.3540725 0.01378369
	vertex -0.466033 -0.4676425 0.03204671
endloop
endfacet
facet normal 0 0.05315281 -0.9957486
outer loop
	vertex -0.3524631 -0.5812125 0.01378371
	vertex -0.579603 -0.5812125 0.0137837
	vertex -0.466033 -0.4676425 0.03204671
endloop
endfacet
facet normal 0 -0.05327915 -0.9957385
outer loop
	vertex 0.3540724 -0.1202515 0.0137837
	vertex 0.5812124 -0.1202515 0.01378371
	vertex 0.4676424 -0.2338215 0.03204673
endloop
endfacet
facet normal -0.0531524 -6.317099E-05 -0.9957436
outer loop
	vertex 0.5812124 -0.1202515 0.01378371
	vertex 0.5812124 -0.3473915 0.01378372
	vertex 0.4676424 -0.2338215 0.03204673
endloop
endfacet
facet normal 0.0531524 -6.317099E-05 -0.9957436
outer loop
	vertex 0.3540724 -0.3473915 0.01378372
	vertex 0.3540724 -0.1202515 0.0137837
	vertex 0.4676424 -0.2338215 0.03204673
endloop
endfacet
facet normal 0 0.05315281 -0.9957486
outer loop
	vertex 0.5812124 -0.3473915 0.01378372
	vertex 0.3540724 -0.3473915 0.01378372
	vertex 0.4676424 -0.2338215 0.03204673
endloop
endfacet
facet normal 6.317595E-05 -0.05327875 -0.9957335
outer loop
	vertex 0.1202504 -0.1202515 0.01378369
	vertex 0.3473914 -0.1202515 0.0137837
	vertex 0.2338214 -0.2338215 0.03204771
endloop
endfacet
facet normal -0.0531524 -6.317099E-05 -0.9957436
outer loop
	vertex 0.3473914 -0.1202515 0.0137837
	vertex 0.3473914 -0.3473915 0.01378371
	vertex 0.2338214 -0.2338215 0.03204771
endloop
endfacet
facet normal 0.05327875 -6.317595E-05 -0.9957335
outer loop
	vertex 0.1202504 -0.3473915 0.01378371
	vertex 0.1202504 -0.1202515 0.01378369
	vertex 0.2338214 -0.2338215 0.03204771
endloop
endfacet
facet normal 6.317099E-05 0.0531524 -0.9957436
outer loop
	vertex 0.3473914 -0.3473915 0.01378371
	vertex 0.1202504 -0.3473915 0.01378371
	vertex 0.2338214 -0.2338215 0.03204771
endloop
endfacet
facet normal -1.777761E-07 -0.05327835 -0.9957284
outer loop
	vertex -0.1135706 -0.1202515 0.01378369
	vertex 0.1135704 -0.1202515 0.01378369
	vertex 4.136343E-07 -0.2338215 0.03204671
endloop
endfacet
facet normal -0.05327893 -6.317595E-05 -0.9957335
outer loop
	vertex 0.1135704 -0.1202515 0.01378369
	vertex 0.1135704 -0.3473915 0.01378371
	vertex 4.136343E-07 -0.2338215 0.03204671
endloop
endfacet
facet normal 0.05327857 -6.317595E-05 -0.9957335
outer loop
	vertex -0.1135706 -0.3473915 0.0137837
	vertex -0.1135706 -0.1202515 0.01378369
	vertex 4.136343E-07 -0.2338215 0.03204671
endloop
endfacet
facet normal -1.777761E-07 0.05315199 -0.9957385
outer loop
	vertex 0.1135704 -0.3473915 0.01378371
	vertex -0.1135706 -0.3473915 0.0137837
	vertex 4.136343E-07 -0.2338215 0.03204671
endloop
endfacet
facet normal -6.317595E-05 -0.05327875 -0.9957335
outer loop
	vertex -0.3473916 -0.1202515 0.01378368
	vertex -0.1202516 -0.1202515 0.01378369
	vertex -0.2338216 -0.2338215 0.03204671
endloop
endfacet
facet normal -0.05327875 -6.317595E-05 -0.9957335
outer loop
	vertex -0.1202516 -0.1202515 0.01378369
	vertex -0.1202516 -0.3473915 0.0137837
	vertex -0.2338216 -0.2338215 0.03204671
endloop
endfacet
facet normal 0.0531524 -6.317099E-05 -0.9957436
outer loop
	vertex -0.3473916 -0.3473915 0.01378369
	vertex -0.3473916 -0.1202515 0.01378368
	vertex -0.2338216 -0.2338215 0.03204671
endloop
endfacet
facet normal -6.317099E-05 0.0531524 -0.9957436
outer loop
	vertex -0.1202516 -0.3473915 0.0137837
	vertex -0.3473916 -0.3473915 0.01378369
	vertex -0.2338216 -0.2338215 0.03204671
endloop
endfacet
facet normal 0 -0.05327915 -0.9957385
outer loop
	vertex -0.5812126 -0.1202515 0.01378367
	vertex -0.3540726 -0.1202515 0.01378368
	vertex -0.4676426 -0.2338215 0.0320467
endloop
endfacet
facet normal -0.0531524 -6.317099E-05 -0.9957436
outer loop
	vertex -0.3540726 -0.1202515 0.01378368
	vertex -0.3540726 -0.3473915 0.01378369
	vertex -0.4676426 -0.2338215 0.0320467
endloop
endfacet
facet normal 0.0531524 -6.317099E-05 -0.9957436
outer loop
	vertex -0.5812126 -0.3473915 0.01378369
	vertex -0.5812126 -0.1202515 0.01378367
	vertex -0.4676426 -0.2338215 0.0320467
endloop
endfacet
facet normal 0 0.05315281 -0.9957486
outer loop
	vertex -0.3540726 -0.3473915 0.01378369
	vertex -0.5812126 -0.3473915 0.01378369
	vertex -0.4676426 -0.2338215 0.0320467
endloop
endfacet
facet normal 0 -0.05327898 -0.9957385
outer loop
	vertex 0.3540724 0.1135705 0.01378369
	vertex 0.5812124 0.1135705 0.01378369
	vertex 0.4676424 -4.652412E-07 0.03204671
endloop
endfacet
facet normal -0.05315199 1.673472E-07 -0.9957385
outer loop
	vertex 0.5812124 0.1135705 0.01378369
	vertex 0.5812124 -0.1135705 0.01378371
	vertex 0.4676424 -4.652412E-07 0.03204671
endloop
endfacet
facet normal 0.05315199 1.673472E-07 -0.9957385
outer loop
	vertex 0.3540724 -0.1135705 0.0137837
	vertex 0.3540724 0.1135705 0.01378369
	vertex 0.4676424 -4.652412E-07 0.03204671
endloop
endfacet
facet normal 0 0.05327932 -0.9957385
outer loop
	vertex 0.5812124 -0.1135705 0.01378371
	vertex 0.3540724 -0.1135705 0.0137837
	vertex 0.4676424 -4.652412E-07 0.03204671
endloop
endfacet
facet normal 6.317595E-05 -0.05327858 -0.9957335
outer loop
	vertex 0.1202504 0.1135705 0.01378368
	vertex 0.3473914 0.1135705 0.01378369
	vertex 0.2338214 -4.724682E-07 0.0320477
endloop
endfacet
facet normal -0.05315199 1.673472E-07 -0.9957385
outer loop
	vertex 0.3473914 0.1135705 0.01378369
	vertex 0.3473914 -0.1135705 0.0137837
	vertex 0.2338214 -4.724682E-07 0.0320477
endloop
endfacet
facet normal 0.05327835 1.673472E-07 -0.9957284
outer loop
	vertex 0.1202504 -0.1135705 0.01378369
	vertex 0.1202504 0.1135705 0.01378368
	vertex 0.2338214 -4.724682E-07 0.0320477
endloop
endfacet
facet normal 6.317595E-05 0.05327892 -0.9957335
outer loop
	vertex 0.3473914 -0.1135705 0.0137837
	vertex 0.1202504 -0.1135705 0.01378369
	vertex 0.2338214 -4.724682E-07 0.0320477
endloop
endfacet
facet normal -1.793525E-07 -0.05327818 -0.9957284
outer loop
	vertex -0.1135706 0.1135705 0.01378367
	vertex 0.1135704 0.1135705 0.01378368
	vertex 4.064072E-07 -4.796954E-07 0.0320467
endloop
endfacet
facet normal -0.05327852 1.666196E-07 -0.9957284
outer loop
	vertex 0.1135704 0.1135705 0.01378368
	vertex 0.1135704 -0.1135705 0.01378369
	vertex 4.064072E-07 -4.796954E-07 0.0320467
endloop
endfacet
facet normal 0.05327817 1.666196E-07 -0.9957284
outer loop
	vertex -0.1135706 -0.1135705 0.01378369
	vertex -0.1135706 0.1135705 0.01378367
	vertex 4.064072E-07 -4.796954E-07 0.0320467
endloop
endfacet
facet normal -1.793525E-07 0.05327851 -0.9957284
outer loop
	vertex 0.1135704 -0.1135705 0.01378369
	vertex -0.1135706 -0.1135705 0.01378369
	vertex 4.064072E-07 -4.796954E-07 0.0320467
endloop
endfacet
facet normal 0 -0.05327898 -0.9957385
outer loop
	vertex -0.5812126 0.1135705 0.01378366
	vertex -0.3540726 0.1135705 0.01378367
	vertex -0.4676426 -4.941496E-07 0.03204668
endloop
endfacet
facet normal -0.05315199 1.673472E-07 -0.9957385
outer loop
	vertex -0.3540726 0.1135705 0.01378367
	vertex -0.3540726 -0.1135705 0.01378368
	vertex -0.4676426 -4.941496E-07 0.03204668
endloop
endfacet
facet normal 0.05315199 1.673472E-07 -0.9957385
outer loop
	vertex -0.5812126 -0.1135705 0.01378367
	vertex -0.5812126 0.1135705 0.01378366
	vertex -0.4676426 -4.941496E-07 0.03204668
endloop
endfacet
facet normal 0 0.05327932 -0.9957385
outer loop
	vertex -0.3540726 -0.1135705 0.01378368
	vertex -0.5812126 -0.1135705 0.01378367
	vertex -0.4676426 -4.941496E-07 0.03204668
endloop
endfacet
facet normal 0 -0.05315281 -0.9957486
outer loop
	vertex 0.3540724 0.3473915 0.01378367
	vertex 0.5812124 0.3473915 0.01378368
	vertex 0.4676424 0.2338215 0.0320467
endloop
endfacet
facet normal -0.0531524 6.317099E-05 -0.9957436
outer loop
	vertex 0.5812124 0.3473915 0.01378368
	vertex 0.5812124 0.1202505 0.01378369
	vertex 0.4676424 0.2338215 0.0320467
endloop
endfacet
facet normal 0.0531524 6.317099E-05 -0.9957436
outer loop
	vertex 0.3540724 0.1202505 0.01378369
	vertex 0.3540724 0.3473915 0.01378367
	vertex 0.4676424 0.2338215 0.0320467
endloop
endfacet
facet normal 0 0.05327915 -0.9957385
outer loop
	vertex 0.5812124 0.1202505 0.01378369
	vertex 0.3540724 0.1202505 0.01378369
	vertex 0.4676424 0.2338215 0.0320467
endloop
endfacet
facet normal 6.317099E-05 -0.0531524 -0.9957436
outer loop
	vertex 0.1202504 0.3473915 0.01378367
	vertex 0.3473914 0.3473915 0.01378367
	vertex 0.2338214 0.2338215 0.03204769
endloop
endfacet
facet normal -0.0531524 6.317099E-05 -0.9957436
outer loop
	vertex 0.3473914 0.3473915 0.01378367
	vertex 0.3473914 0.1202505 0.01378369
	vertex 0.2338214 0.2338215 0.03204769
endloop
endfacet
facet normal 0.05327875 6.317595E-05 -0.9957335
outer loop
	vertex 0.1202504 0.1202505 0.01378368
	vertex 0.1202504 0.3473915 0.01378367
	vertex 0.2338214 0.2338215 0.03204769
endloop
endfacet
facet normal 6.317595E-05 0.05327875 -0.9957335
outer loop
	vertex 0.3473914 0.1202505 0.01378369
	vertex 0.1202504 0.1202505 0.01378368
	vertex 0.2338214 0.2338215 0.03204769
endloop
endfacet
facet normal -1.793525E-07 -0.05315199 -0.9957385
outer loop
	vertex -0.1135706 0.3473915 0.01378366
	vertex 0.1135704 0.3473915 0.01378367
	vertex 3.991801E-07 0.2338215 0.03204668
endloop
endfacet
facet normal -0.05327893 6.317595E-05 -0.9957335
outer loop
	vertex 0.1135704 0.3473915 0.01378367
	vertex 0.1135704 0.1202505 0.01378368
	vertex 3.991801E-07 0.2338215 0.03204668
endloop
endfacet
facet normal 0.05327857 6.317595E-05 -0.9957335
outer loop
	vertex -0.1135706 0.1202505 0.01378367
	vertex -0.1135706 0.3473915 0.01378366
	vertex 3.991801E-07 0.2338215 0.03204668
endloop
endfacet
facet normal -1.793525E-07 0.05327835 -0.9957284
outer loop
	vertex 0.1135704 0.1202505 0.01378368
	vertex -0.1135706 0.1202505 0.01378367
	vertex 3.991801E-07 0.2338215 0.03204668
endloop
endfacet
facet normal 0 -0.05315281 -0.9957486
outer loop
	vertex -0.579603 0.3473915 0.01378364
	vertex -0.3524631 0.3473915 0.01378365
	vertex -0.466033 0.2338215 0.03204667
endloop
endfacet
facet normal -0.0531524 6.317099E-05 -0.9957436
outer loop
	vertex -0.3524631 0.3473915 0.01378365
	vertex -0.3524631 0.1202505 0.01378367
	vertex -0.466033 0.2338215 0.03204667
endloop
endfacet
facet normal 0.0531524 6.317099E-05 -0.9957436
outer loop
	vertex -0.579603 0.1202505 0.01378366
	vertex -0.579603 0.3473915 0.01378364
	vertex -0.466033 0.2338215 0.03204667
endloop
endfacet
facet normal 0 0.05327915 -0.9957385
outer loop
	vertex -0.3524631 0.1202505 0.01378367
	vertex -0.579603 0.1202505 0.01378366
	vertex -0.466033 0.2338215 0.03204667
endloop
endfacet
facet normal 0 -0.05315281 -0.9957486
outer loop
	vertex 0.355682 0.5812125 0.01378366
	vertex 0.582822 0.5812125 0.01378367
	vertex 0.4692519 0.4676425 0.03204668
endloop
endfacet
facet normal -0.05315281 0 -0.9957486
outer loop
	vertex 0.582822 0.5812125 0.01378367
	vertex 0.582822 0.3540715 0.01378368
	vertex 0.4692519 0.4676425 0.03204668
endloop
endfacet
facet normal 0.05315281 0 -0.9957486
outer loop
	vertex 0.355682 0.3540715 0.01378367
	vertex 0.355682 0.5812125 0.01378366
	vertex 0.4692519 0.4676425 0.03204668
endloop
endfacet
facet normal 0 0.05315281 -0.9957486
outer loop
	vertex 0.582822 0.3540715 0.01378368
	vertex 0.355682 0.3540715 0.01378367
	vertex 0.4692519 0.4676425 0.03204668
endloop
endfacet
facet normal -0.02663917 -0.0795679 -0.9936352
outer loop
	vertex -0.3473916 0.1135695 0.01378367
	vertex -0.1202516 0.1135705 0.01378367
	vertex -0.2338216 -4.869225E-07 0.03204669
endloop
endfacet
facet normal -0.05327835 7.457864E-08 -0.9957284
outer loop
	vertex -0.1202516 0.1135705 0.01378367
	vertex -0.1202516 -0.1135705 0.01378369
	vertex -0.2338216 -4.869225E-07 0.03204669
endloop
endfacet
facet normal -6.317595E-05 0.05327882 -0.9957335
outer loop
	vertex -0.1202516 -0.1135705 0.01378369
	vertex -0.3473916 -0.1135705 0.01378368
	vertex -0.2338216 -4.869225E-07 0.03204669
endloop
endfacet
facet normal 0.07947381 0.02663965 -0.9936452
outer loop
	vertex -0.3473916 -0.1135705 0.01378368
	vertex -0.3473916 0.1135705 0.01378367
	vertex -0.2338216 -4.869225E-07 0.03204669
endloop
endfacet
facet normal -0.07956798 0.04450457 -0.9931561
outer loop
	vertex -0.1186421 0.3473915 0.01378366
	vertex -0.1186421 0.1202505 0.01378367
	vertex -0.2322121 0.2338215 0.03204668
endloop
endfacet
facet normal -6.317595E-05 0.07114414 -0.9952544
outer loop
	vertex -0.1186421 0.1202505 0.01378367
	vertex -0.345782 0.1202505 0.01378367
	vertex -0.2322121 0.2338215 0.03204668
endloop
endfacet
facet normal 0.07947381 0.04450497 -0.9931661
outer loop
	vertex -0.345782 0.1202505 0.01378367
	vertex -0.345782 0.3473915 0.01378365
	vertex -0.2322121 0.2338215 0.03204668
endloop
endfacet
facet normal -0.07947422 -0.02657641 -0.9936503
outer loop
	vertex 0.3490009 0.5812125 0.01378366
	vertex 0.3490009 0.3540715 0.01378367
	vertex 0.2354309 0.4676425 0.03204767
endloop
endfacet
facet normal 6.317099E-05 -0.0531524 -0.9957436
outer loop
	vertex 0.1218599 0.5812125 0.01378365
	vertex 0.3490009 0.5812125 0.01378366
	vertex 0.2354309 0.4676425 0.03204767
endloop
endfacet
facet normal 0.05327915 0 -0.9957385
outer loop
	vertex 0.1218599 0.3540715 0.01378367
	vertex 0.1218599 0.5812125 0.01378365
	vertex 0.2354309 0.4676425 0.03204767
endloop
endfacet
facet normal 0.02663958 0.07947381 -0.9936452
outer loop
	vertex 0.3490009 0.3540725 0.01378367
	vertex 0.1218599 0.3540715 0.01378367
	vertex 0.2354309 0.4676425 0.03204767
endloop
endfacet
facet normal -0.07956838 -0.026576 -0.9936402
outer loop
	vertex 0.1151799 0.5812125 0.01378365
	vertex 0.1151799 0.3540715 0.01378367
	vertex 0.001608927 0.4676425 0.03204667
endloop
endfacet
facet normal 0 -0.05315199 -0.9957385
outer loop
	vertex -0.1119611 0.5812125 0.01378364
	vertex 0.1151799 0.5812125 0.01378365
	vertex 0.001608927 0.4676425 0.03204667
endloop
endfacet
facet normal 0.05327915 0 -0.9957385
outer loop
	vertex -0.1119611 0.3540715 0.01378366
	vertex -0.1119611 0.5812125 0.01378364
	vertex 0.001608927 0.4676425 0.03204667
endloop
endfacet
facet normal 0.02663958 0.07947381 -0.9936452
outer loop
	vertex 0.1151799 0.3540725 0.01378367
	vertex -0.1119611 0.3540715 0.01378366
	vertex 0.001608927 0.4676425 0.03204667
endloop
endfacet
facet normal -0.07956838 -0.04437799 -0.9931645
outer loop
	vertex -0.1186421 0.5812125 0.01378364
	vertex -0.1186421 0.3540715 0.01378366
	vertex -0.2322121 0.4676425 0.03204666
endloop
endfacet
facet normal -6.317099E-05 -0.0709544 -0.9952679
outer loop
	vertex -0.345782 0.5812125 0.01378364
	vertex -0.1186421 0.5812125 0.01378364
	vertex -0.2322121 0.4676425 0.03204666
endloop
endfacet
facet normal 0.07947422 -0.0443784 -0.9931746
outer loop
	vertex -0.345782 0.3540715 0.01378365
	vertex -0.345782 0.5812125 0.01378364
	vertex -0.2322121 0.4676425 0.03204666
endloop
endfacet
facet normal -0.07947422 -0.0443784 -0.9931746
outer loop
	vertex -0.3524631 0.5812125 0.01378364
	vertex -0.3524631 0.3540715 0.01378365
	vertex -0.466033 0.4676425 0.03204666
endloop
endfacet
facet normal 0 -0.07095481 -0.9952729
outer loop
	vertex -0.579603 0.5812125 0.01378363
	vertex -0.3524631 0.5812125 0.01378364
	vertex -0.466033 0.4676425 0.03204666
endloop
endfacet
facet normal 0.07947422 -0.0443784 -0.9931746
outer loop
	vertex -0.579603 0.3540715 0.01378364
	vertex -0.579603 0.5812125 0.01378363
	vertex -0.466033 0.4676425 0.03204666
endloop
endfacet
facet normal -0.1587805 0 -0.9873139
outer loop
	vertex 0.1135704 -0.3540725 0.01378371
	vertex 0.1135704 -0.5812125 0.01378372
	vertex 4.208614E-07 -0.4676425 0.03204673
endloop
endfacet
facet normal 0 -0.1586934 -0.9873279
outer loop
	vertex -0.1135706 -0.3540725 0.0137837
	vertex 0.1135704 -0.3540725 0.01378371
	vertex -5.791555E-07 -0.4676425 0.03204673
endloop
endfacet
facet normal 0.1587801 0 -0.987314
outer loop
	vertex -0.1135706 -0.5812125 0.01378371
	vertex -0.1135706 -0.3540725 0.0137837
	vertex 4.208614E-07 -0.4676425 0.03204673
endloop
endfacet
facet normal 0 0.1586934 -0.9873279
outer loop
	vertex 0.1135704 -0.5812125 0.01378372
	vertex -0.1135706 -0.5812125 0.01378371
	vertex -5.791555E-07 -0.4676425 0.03204673
endloop
endfacet
facet normal 0 -0.1586934 -0.9873279
outer loop
	vertex -0.345782 0.3473915 0.01378365
	vertex -0.1186421 0.3473915 0.01378366
	vertex -0.2322121 0.2338205 0.03204668
endloop
endfacet
facet normal 0 0.1586934 -0.9873279
outer loop
	vertex -0.1186421 0.3540725 0.01378366
	vertex -0.345782 0.3540725 0.01378365
	vertex -0.2322121 0.4676425 0.03204666
endloop
endfacet
facet normal 0 0.1586934 -0.9873279
outer loop
	vertex -0.3524631 0.3540725 0.01378365
	vertex -0.579603 0.3540725 0.01378364
	vertex -0.466033 0.4676425 0.03204666
endloop
endfacet
endsolid Props_Props_0_DingBu_0_DingBu_BoLi_0
