solid Props_Props_0_Object035_0
facet normal 0 0 1
outer loop
	vertex 15.7 48.1245 1.2558
	vertex 12.99 48.1245 1.2558
	vertex 15.7 45.2007 1.2558
endloop
endfacet
facet normal 0 0 1
outer loop
	vertex 12.99 45.2007 1.2559
	vertex 15.7 45.2007 1.2558
	vertex 12.99 48.1245 1.2558
endloop
endfacet
facet normal 0 0 1
outer loop
	vertex 15.7 48.1245 -4.7442
	vertex 12.99 48.1245 -4.7442
	vertex 15.7 45.2007 -4.7442
endloop
endfacet
facet normal 0 0 1
outer loop
	vertex 12.99 45.2007 -4.7442
	vertex 15.7 45.2007 -4.7442
	vertex 12.99 48.1245 -4.7442
endloop
endfacet
facet normal 0 0.301774 0.9533795
outer loop
	vertex 15.7 46.748 -19.9672
	vertex 12.99 46.748 -19.9672
	vertex 15.7 43.9611 -19.0833
endloop
endfacet
facet normal 0 0.3017857 0.9533758
outer loop
	vertex 12.99 43.9611 -19.0833
	vertex 15.7 43.9611 -19.0833
	vertex 12.99 46.748 -19.9672
endloop
endfacet
facet normal 0 0.5847592 0.8112069
outer loop
	vertex 15.6999 42.4957 -28.527
	vertex 12.9899 42.4957 -28.527
	vertex 15.6999 40.1241 -26.8171
endloop
endfacet
facet normal 0 0.5848663 0.8111297
outer loop
	vertex 12.9899 40.1241 -26.8171
	vertex 15.6999 40.1241 -26.8171
	vertex 12.9899 42.4957 -28.527
endloop
endfacet
facet normal 0 0 1
outer loop
	vertex 15.7 48.1245 -10.7443
	vertex 12.99 48.1245 -10.7443
	vertex 15.7 45.2007 -10.7442
endloop
endfacet
facet normal 0 0 1
outer loop
	vertex 12.99 45.2007 -10.7442
	vertex 15.7 45.2007 -10.7442
	vertex 12.99 48.1245 -10.7443
endloop
endfacet
facet normal 0 0 -1
outer loop
	vertex 12.99 48.1245 -5.0442
	vertex 15.7 48.1245 -5.0442
	vertex 12.99 45.2007 -5.0442
endloop
endfacet
facet normal 0 0 -1
outer loop
	vertex 15.7 45.2007 -5.0442
	vertex 12.99 45.2007 -5.0442
	vertex 15.7 48.1245 -5.0442
endloop
endfacet
facet normal 0 0 -1
outer loop
	vertex 12.99 48.1245 0.9558
	vertex 15.7 48.1245 0.9558
	vertex 12.99 45.2007 0.9559
endloop
endfacet
facet normal 0 0 -1
outer loop
	vertex 15.7 45.2007 0.9558
	vertex 12.99 45.2007 0.9559
	vertex 15.7 48.1245 0.9558
endloop
endfacet
facet normal 0 -0.3022294 -0.9532352
outer loop
	vertex 12.99 46.6572 -20.2531
	vertex 15.7 46.6572 -20.2531
	vertex 12.99 43.8703 -19.3692
endloop
endfacet
facet normal 0 -0.3022177 -0.953239
outer loop
	vertex 15.7 43.8703 -19.3692
	vertex 12.99 43.8703 -19.3692
	vertex 15.7 46.6572 -20.2531
endloop
endfacet
facet normal 0 -0.5848041 -0.8111746
outer loop
	vertex 12.9899 42.3203 -28.7703
	vertex 15.6999 42.3203 -28.7703
	vertex 12.9899 39.9486 -27.0605
endloop
endfacet
facet normal 0 -0.5847505 -0.8112132
outer loop
	vertex 15.6999 39.9486 -27.0605
	vertex 12.9899 39.9486 -27.0605
	vertex 15.6999 42.3203 -28.7703
endloop
endfacet
facet normal 0 0 -1
outer loop
	vertex 12.99 48.1245 -11.0443
	vertex 15.7 48.1245 -11.0443
	vertex 12.99 45.2007 -11.0442
endloop
endfacet
facet normal 0 0 -1
outer loop
	vertex 15.7 45.2007 -11.0443
	vertex 12.99 45.2007 -11.0442
	vertex 15.7 48.1245 -11.0443
endloop
endfacet
facet normal 1 0 0
outer loop
	vertex 15.7 48.1245 0.9558
	vertex 15.7 48.1245 1.2558
	vertex 15.7 45.2007 0.9558
endloop
endfacet
facet normal 1 0 0
outer loop
	vertex 15.7 45.2007 1.2558
	vertex 15.7 45.2007 0.9558
	vertex 15.7 48.1245 1.2558
endloop
endfacet
facet normal 0 1 0
outer loop
	vertex 12.99 48.1245 0.9558
	vertex 12.99 48.1245 1.2558
	vertex 15.7 48.1245 0.9558
endloop
endfacet
facet normal 0 1 0
outer loop
	vertex 15.7 48.1245 1.2558
	vertex 15.7 48.1245 0.9558
	vertex 12.99 48.1245 1.2558
endloop
endfacet
facet normal 1 0 0
outer loop
	vertex 15.7 48.1245 -5.0442
	vertex 15.7 48.1245 -4.7442
	vertex 15.7 45.2007 -5.0442
endloop
endfacet
facet normal 1 0 0
outer loop
	vertex 15.7 45.2007 -4.7442
	vertex 15.7 45.2007 -5.0442
	vertex 15.7 48.1245 -4.7442
endloop
endfacet
facet normal 0 1 0
outer loop
	vertex 12.99 48.1245 -5.0442
	vertex 12.99 48.1245 -4.7442
	vertex 15.7 48.1245 -5.0442
endloop
endfacet
facet normal 0 1 0
outer loop
	vertex 15.7 48.1245 -4.7442
	vertex 15.7 48.1245 -5.0442
	vertex 12.99 48.1245 -4.7442
endloop
endfacet
facet normal 1 0 0
outer loop
	vertex 15.7 46.6572 -20.2531
	vertex 15.7 46.748 -19.9672
	vertex 15.7 43.8703 -19.3692
endloop
endfacet
facet normal 1 0 0
outer loop
	vertex 15.7 43.9611 -19.0833
	vertex 15.7 43.8703 -19.3692
	vertex 15.7 46.748 -19.9672
endloop
endfacet
facet normal 0 0.9531052 -0.302639
outer loop
	vertex 12.99 46.6572 -20.2531
	vertex 12.99 46.748 -19.9672
	vertex 15.7 46.6572 -20.2531
endloop
endfacet
facet normal 0 0.9531052 -0.302639
outer loop
	vertex 15.7 46.748 -19.9672
	vertex 15.7 46.6572 -20.2531
	vertex 12.99 46.748 -19.9672
endloop
endfacet
facet normal 1 0 0
outer loop
	vertex 15.6999 42.3203 -28.7703
	vertex 15.6999 42.4957 -28.527
	vertex 15.6999 39.9486 -27.0605
endloop
endfacet
facet normal 1 0 0
outer loop
	vertex 15.6999 40.1241 -26.8171
	vertex 15.6999 39.9486 -27.0605
	vertex 15.6999 42.4957 -28.527
endloop
endfacet
facet normal 0 0.8111297 -0.5848663
outer loop
	vertex 12.9899 42.3203 -28.7703
	vertex 12.9899 42.4957 -28.527
	vertex 15.6999 42.3203 -28.7703
endloop
endfacet
facet normal 0 0.8110353 -0.5849971
outer loop
	vertex 15.6999 42.4957 -28.527
	vertex 15.6999 42.3203 -28.7703
	vertex 12.9899 42.4957 -28.527
endloop
endfacet
facet normal 1 0 0
outer loop
	vertex 15.7 48.1245 -11.0443
	vertex 15.7 48.1245 -10.7443
	vertex 15.7 45.2007 -11.0443
endloop
endfacet
facet normal 1 0 0
outer loop
	vertex 15.7 45.2007 -10.7442
	vertex 15.7 45.2007 -11.0443
	vertex 15.7 48.1245 -10.7443
endloop
endfacet
facet normal 0 1 0
outer loop
	vertex 12.99 48.1245 -11.0443
	vertex 12.99 48.1245 -10.7443
	vertex 15.7 48.1245 -11.0443
endloop
endfacet
facet normal 0 1 0
outer loop
	vertex 15.7 48.1245 -10.7443
	vertex 15.7 48.1245 -11.0443
	vertex 12.99 48.1245 -10.7443
endloop
endfacet
facet normal 0 0 -1
outer loop
	vertex 15.7 48.1245 6.955
	vertex 15.7 45.2008 6.955
	vertex 12.99 48.1245 6.955
endloop
endfacet
facet normal 0 0 -1
outer loop
	vertex 12.99 45.2008 6.955
	vertex 12.99 48.1245 6.955
	vertex 15.7 45.2008 6.955
endloop
endfacet
facet normal 0 0.3022294 -0.9532352
outer loop
	vertex 15.7001 46.7481 22.178
	vertex 15.7001 43.9612 21.2941
	vertex 12.9901 46.7481 22.178
endloop
endfacet
facet normal 0 0.3022529 -0.9532278
outer loop
	vertex 12.9901 43.9612 21.2941
	vertex 12.9901 46.7481 22.178
	vertex 15.7001 43.9612 21.2941
endloop
endfacet
facet normal 0 0.5848041 -0.8111746
outer loop
	vertex 15.7001 42.4959 30.7378
	vertex 15.7001 40.1242 29.028
	vertex 12.9901 42.4959 30.7378
endloop
endfacet
facet normal 0 0.5847505 -0.8112132
outer loop
	vertex 12.9901 40.1242 29.028
	vertex 12.9901 42.4959 30.7378
	vertex 15.7001 40.1242 29.028
endloop
endfacet
facet normal 0 0 -1
outer loop
	vertex 15.7 48.1245 12.9551
	vertex 15.7 45.2008 12.9551
	vertex 12.99 48.1245 12.9551
endloop
endfacet
facet normal 0 0 -1
outer loop
	vertex 12.99 45.2008 12.9551
	vertex 12.99 48.1245 12.9551
	vertex 15.7 45.2008 12.9551
endloop
endfacet
facet normal 0 0 1
outer loop
	vertex 12.99 48.1245 7.255
	vertex 12.99 45.2008 7.255
	vertex 15.7 48.1245 7.255
endloop
endfacet
facet normal 0 0 1
outer loop
	vertex 15.7 45.2008 7.255
	vertex 15.7 48.1245 7.255
	vertex 12.99 45.2008 7.255
endloop
endfacet
facet normal 0 -0.3022529 0.9532278
outer loop
	vertex 12.9901 46.6573 22.464
	vertex 12.9901 43.8704 21.5801
	vertex 15.7001 46.6573 22.4639
endloop
endfacet
facet normal 0 -0.3022529 0.9532278
outer loop
	vertex 15.7001 43.8704 21.5801
	vertex 15.7001 46.6573 22.4639
	vertex 12.9901 43.8704 21.5801
endloop
endfacet
facet normal 0 -0.5848576 0.811136
outer loop
	vertex 12.9901 42.3204 30.9812
	vertex 12.9901 39.9487 29.2713
	vertex 15.7001 42.3204 30.9812
endloop
endfacet
facet normal 0 -0.5848576 0.811136
outer loop
	vertex 15.7001 39.9487 29.2713
	vertex 15.7001 42.3204 30.9812
	vertex 12.9901 39.9487 29.2713
endloop
endfacet
facet normal 0 0 1
outer loop
	vertex 12.99 48.1245 13.2551
	vertex 12.99 45.2008 13.2551
	vertex 15.7 48.1245 13.2551
endloop
endfacet
facet normal 0 0 1
outer loop
	vertex 15.7 45.2008 13.2551
	vertex 15.7 48.1245 13.2551
	vertex 12.99 45.2008 13.2551
endloop
endfacet
facet normal 1 0 0
outer loop
	vertex 15.7 48.1245 7.255
	vertex 15.7 45.2008 7.255
	vertex 15.7 48.1245 6.955
endloop
endfacet
facet normal 1 0 0
outer loop
	vertex 15.7 45.2008 6.955
	vertex 15.7 48.1245 6.955
	vertex 15.7 45.2008 7.255
endloop
endfacet
facet normal 0 1 0
outer loop
	vertex 12.99 48.1245 7.255
	vertex 15.7 48.1245 7.255
	vertex 12.99 48.1245 6.955
endloop
endfacet
facet normal 0 1 0
outer loop
	vertex 15.7 48.1245 6.955
	vertex 12.99 48.1245 6.955
	vertex 15.7 48.1245 7.255
endloop
endfacet
facet normal 1 0 0
outer loop
	vertex 15.7001 46.6573 22.4639
	vertex 15.7001 43.8704 21.5801
	vertex 15.7001 46.7481 22.178
endloop
endfacet
facet normal 1 0 0
outer loop
	vertex 15.7001 43.9612 21.2941
	vertex 15.7001 46.7481 22.178
	vertex 15.7001 43.8704 21.5801
endloop
endfacet
facet normal 0 0.9531052 0.302639
outer loop
	vertex 12.9901 46.6573 22.464
	vertex 15.7001 46.6573 22.4639
	vertex 12.9901 46.7481 22.178
endloop
endfacet
facet normal 0 0.9531052 0.302639
outer loop
	vertex 15.7001 46.7481 22.178
	vertex 12.9901 46.7481 22.178
	vertex 15.7001 46.6573 22.4639
endloop
endfacet
facet normal 1 0 0
outer loop
	vertex 15.7001 42.3204 30.9812
	vertex 15.7001 39.9487 29.2713
	vertex 15.7001 42.4959 30.7378
endloop
endfacet
facet normal 1 0 0
outer loop
	vertex 15.7001 40.1242 29.028
	vertex 15.7001 42.4959 30.7378
	vertex 15.7001 39.9487 29.2713
endloop
endfacet
facet normal 0 0.8112024 0.5847655
outer loop
	vertex 12.9901 42.3204 30.9812
	vertex 15.7001 42.3204 30.9812
	vertex 12.9901 42.4959 30.7378
endloop
endfacet
facet normal 0 0.8111854 0.5847892
outer loop
	vertex 15.7001 42.4959 30.7378
	vertex 12.9901 42.4959 30.7378
	vertex 15.7001 42.3204 30.9812
endloop
endfacet
facet normal 1 0 0
outer loop
	vertex 15.7 48.1245 13.2551
	vertex 15.7 45.2008 13.2551
	vertex 15.7 48.1245 12.9551
endloop
endfacet
facet normal 1 0 0
outer loop
	vertex 15.7 45.2008 12.9551
	vertex 15.7 48.1245 12.9551
	vertex 15.7 45.2008 13.2551
endloop
endfacet
facet normal 0 1 0
outer loop
	vertex 12.99 48.1245 13.2551
	vertex 15.7 48.1245 13.2551
	vertex 12.99 48.1245 12.9551
endloop
endfacet
facet normal 0 1 0
outer loop
	vertex 15.7 48.1245 12.9551
	vertex 12.99 48.1245 12.9551
	vertex 15.7 48.1245 13.2551
endloop
endfacet
facet normal 1 0 0
outer loop
	vertex 13.45 40.6663 33.0769
	vertex 13.45 41.3 32.3059
	vertex 13.45 42.0956 34.2516
endloop
endfacet
facet normal 1 0 0
outer loop
	vertex 13.45 42.7292 33.4806
	vertex 13.45 42.0956 34.2516
	vertex 13.45 41.3 32.3059
endloop
endfacet
facet normal 1 0 0
outer loop
	vertex 13.45 47.4851 19.3971
	vertex 13.45 47.6637 18.4203
	vertex 13.45 49.305 19.7298
endloop
endfacet
facet normal 1 0 0
outer loop
	vertex 13.45 49.4836 18.753
	vertex 13.45 49.305 19.7298
	vertex 13.45 47.6637 18.4203
endloop
endfacet
facet normal 1 0 0
outer loop
	vertex 13.45 48.12659 12.456
	vertex 13.45 48.12659 11.456
	vertex 13.45 49.9766 12.456
endloop
endfacet
facet normal 1 0 0
outer loop
	vertex 13.45 49.9766 11.456
	vertex 13.45 49.9766 12.456
	vertex 13.45 48.12659 11.456
endloop
endfacet
facet normal 1 0 0
outer loop
	vertex 13.45 48.12659 5.685999
	vertex 13.45 48.12659 4.686
	vertex 13.45 49.9766 5.685999
endloop
endfacet
facet normal 1 0 0
outer loop
	vertex 13.45 49.9766 4.686
	vertex 13.45 49.9766 5.685999
	vertex 13.45 48.12659 4.686
endloop
endfacet
facet normal 1 0 0
outer loop
	vertex 13.45 48.12659 -2.474
	vertex 13.45 48.12659 -3.474
	vertex 13.45 49.9766 -2.474
endloop
endfacet
facet normal 1 0 0
outer loop
	vertex 13.45 49.9766 -3.474
	vertex 13.45 49.9766 -2.474
	vertex 13.45 48.12659 -3.474
endloop
endfacet
facet normal 1 0 0
outer loop
	vertex 13.45 48.12659 -9.244
	vertex 13.45 48.12659 -10.244
	vertex 13.45 49.9766 -9.244
endloop
endfacet
facet normal 1 0 0
outer loop
	vertex 13.45 49.9766 -10.244
	vertex 13.45 49.9766 -9.244
	vertex 13.45 48.12659 -10.244
endloop
endfacet
facet normal 1 0 0
outer loop
	vertex 13.45 44.735 27.0901
	vertex 13.45 44.9146 26.7593
	vertex 13.45 46.3608 27.9728
endloop
endfacet
facet normal 1 0 0
outer loop
	vertex 13.45 46.5676 27.59
	vertex 13.45 46.3608 27.9728
	vertex 13.45 44.9146 26.7593
endloop
endfacet
facet normal 1 0 0
outer loop
	vertex 13.45 44.9146 26.7593
	vertex 13.45 45.18 26.1867
	vertex 13.45 46.5676 27.59
endloop
endfacet
facet normal 1 0 0
outer loop
	vertex 13.45 46.8585 26.9645
	vertex 13.45 46.5676 27.59
	vertex 13.45 45.18 26.1867
endloop
endfacet
facet normal 1 0 0
outer loop
	vertex 13.45 40.6663 -30.8639
	vertex 13.45 42.0956 -32.0385
	vertex 13.45 41.3 -30.0928
endloop
endfacet
facet normal 1 0 0
outer loop
	vertex 13.45 42.7292 -31.2675
	vertex 13.45 41.3 -30.0928
	vertex 13.45 42.0956 -32.0385
endloop
endfacet
facet normal 1 0 0
outer loop
	vertex 13.45 47.4851 -17.184
	vertex 13.45 49.305 -17.5167
	vertex 13.45 47.6637 -16.2072
endloop
endfacet
facet normal 1 0 0
outer loop
	vertex 13.45 49.4836 -16.5399
	vertex 13.45 47.6637 -16.2072
	vertex 13.45 49.305 -17.5167
endloop
endfacet
facet normal 1 0 0
outer loop
	vertex 13.45 44.735 -24.877
	vertex 13.45 46.3608 -25.7597
	vertex 13.45 44.9146 -24.5462
endloop
endfacet
facet normal 1 0 0
outer loop
	vertex 13.45 46.5676 -25.3769
	vertex 13.45 44.9146 -24.5462
	vertex 13.45 46.3608 -25.7597
endloop
endfacet
facet normal 1 0 0
outer loop
	vertex 13.45 44.9146 -24.5462
	vertex 13.45 46.5676 -25.3769
	vertex 13.45 45.18 -23.9736
endloop
endfacet
facet normal 1 0 0
outer loop
	vertex 13.45 46.8585 -24.7515
	vertex 13.45 45.18 -23.9736
	vertex 13.45 46.5676 -25.3769
endloop
endfacet
facet normal 1 0 0
outer loop
	vertex 9.9995 44.6113 -17.0532
	vertex 9.9995 51.5267 -18.7753
	vertex 9.9995 44.6888 -16.7422
endloop
endfacet
facet normal 1 0 0
outer loop
	vertex 9.9995 51.6551 -18.2449
	vertex 9.9995 44.6888 -16.7422
	vertex 9.9995 51.5267 -18.7753
endloop
endfacet
facet normal 1 0 0
outer loop
	vertex 9.9995 44.6888 -16.7422
	vertex 9.9995 51.6551 -18.2449
	vertex 9.9995 45.0005 -15.0375
endloop
endfacet
facet normal 1 0 0
outer loop
	vertex 9.9995 52.0479 -16.0967
	vertex 9.9995 45.0005 -15.0375
	vertex 9.9995 51.6551 -18.2449
endloop
endfacet
facet normal 1 0 0
outer loop
	vertex 9.9995 45.0005 -15.0375
	vertex 9.9995 52.0479 -16.0967
	vertex 9.9995 45.1996 -13.3506
endloop
endfacet
facet normal 1 0 0
outer loop
	vertex 9.9995 52.277 -14.1862
	vertex 9.9995 45.1996 -13.3506
	vertex 9.9995 52.0479 -16.0967
endloop
endfacet
facet normal 1 0 0
outer loop
	vertex 9.9995 45.2958 3.2166
	vertex 9.9995 45.2958 -0.9833999
	vertex 9.9995 52.4224 3.2166
endloop
endfacet
facet normal 1 0 0
outer loop
	vertex 9.9995 52.4224 -0.9833999
	vertex 9.9995 52.4224 3.2166
	vertex 9.9995 45.2958 -0.9833999
endloop
endfacet
facet normal 1 0 0
outer loop
	vertex 9.9995 44.6113 19.2642
	vertex 9.9995 44.6888 18.9532
	vertex 9.9995 51.5267 20.9863
endloop
endfacet
facet normal 1 0 0
outer loop
	vertex 9.9995 51.6551 20.4559
	vertex 9.9995 51.5267 20.9863
	vertex 9.9995 44.6888 18.9532
endloop
endfacet
facet normal 1 0 0
outer loop
	vertex 9.9995 44.6888 18.9532
	vertex 9.9995 45.0005 17.2485
	vertex 9.9995 51.6551 20.4559
endloop
endfacet
facet normal 1 0 0
outer loop
	vertex 9.9995 52.0479 18.3078
	vertex 9.9995 51.6551 20.4559
	vertex 9.9995 45.0005 17.2485
endloop
endfacet
facet normal 1 0 0
outer loop
	vertex 9.9995 45.0005 17.2485
	vertex 9.9995 45.1996 15.5616
	vertex 9.9995 52.0479 18.3078
endloop
endfacet
facet normal 1 0 0
outer loop
	vertex 9.9995 52.277 16.3973
	vertex 9.9995 52.0479 18.3078
	vertex 9.9995 45.1996 15.5616
endloop
endfacet
facet normal 0 -0.6348853 0.7726065
outer loop
	vertex 13.45 41.3 32.3059
	vertex 15.85 41.3 32.3059
	vertex 13.45 42.7292 33.4806
endloop
endfacet
facet normal 0 -0.6348853 0.7726065
outer loop
	vertex 15.85 42.7292 33.4806
	vertex 13.45 42.7292 33.4806
	vertex 15.85 41.3 32.3059
endloop
endfacet
facet normal -1 0 0
outer loop
	vertex 15.85 41.3 32.3059
	vertex 15.85 40.6663 33.0769
	vertex 15.85 42.7292 33.4806
endloop
endfacet
facet normal -1 0 0
outer loop
	vertex 15.85 42.0956 34.2516
	vertex 15.85 42.7292 33.4806
	vertex 15.85 40.6663 33.0769
endloop
endfacet
facet normal 0 0.6348853 -0.7726065
outer loop
	vertex 15.85 40.6663 33.0769
	vertex 13.45 40.6663 33.0769
	vertex 15.85 42.0956 34.2516
endloop
endfacet
facet normal 0 0.6348853 -0.7726065
outer loop
	vertex 13.45 42.0956 34.2516
	vertex 15.85 42.0956 34.2516
	vertex 13.45 40.6663 33.0769
endloop
endfacet
facet normal 0 -0.1800168 0.9836635
outer loop
	vertex 13.45 47.6637 18.4203
	vertex 15.85 47.6637 18.4203
	vertex 13.45 49.4836 18.753
endloop
endfacet
facet normal 0 -0.1798593 0.9836923
outer loop
	vertex 15.85 49.4836 18.753
	vertex 13.45 49.4836 18.753
	vertex 15.85 47.6637 18.4203
endloop
endfacet
facet normal -1 0 0
outer loop
	vertex 15.85 47.6637 18.4203
	vertex 15.85 47.4851 19.3971
	vertex 15.85 49.4836 18.753
endloop
endfacet
facet normal -1 0 0
outer loop
	vertex 15.85 49.305 19.7298
	vertex 15.85 49.4836 18.753
	vertex 15.85 47.4851 19.3971
endloop
endfacet
facet normal 0 0.1801743 -0.9836347
outer loop
	vertex 15.85 47.4851 19.3971
	vertex 13.45 47.4851 19.3971
	vertex 15.85 49.305 19.7298
endloop
endfacet
facet normal 0 0.1801743 -0.9836347
outer loop
	vertex 13.45 49.305 19.7298
	vertex 15.85 49.305 19.7298
	vertex 13.45 47.4851 19.3971
endloop
endfacet
facet normal 0 0 -1
outer loop
	vertex 15.85 48.12659 12.456
	vertex 13.45 48.12659 12.456
	vertex 15.85 49.9766 12.456
endloop
endfacet
facet normal 0 0 -1
outer loop
	vertex 13.45 49.9766 12.456
	vertex 15.85 49.9766 12.456
	vertex 13.45 48.12659 12.456
endloop
endfacet
facet normal 0 0 1
outer loop
	vertex 13.45 48.12659 11.456
	vertex 15.85 48.12659 11.456
	vertex 13.45 49.9766 11.456
endloop
endfacet
facet normal 0 0 1
outer loop
	vertex 15.85 49.9766 11.456
	vertex 13.45 49.9766 11.456
	vertex 15.85 48.12659 11.456
endloop
endfacet
facet normal -1 0 0
outer loop
	vertex 15.85 48.12659 11.456
	vertex 15.85 48.12659 12.456
	vertex 15.85 49.9766 11.456
endloop
endfacet
facet normal -1 0 0
outer loop
	vertex 15.85 49.9766 12.456
	vertex 15.85 49.9766 11.456
	vertex 15.85 48.12659 12.456
endloop
endfacet
facet normal 0 0 -1
outer loop
	vertex 15.85 48.12659 5.685999
	vertex 13.45 48.12659 5.685999
	vertex 15.85 49.9766 5.685999
endloop
endfacet
facet normal 0 0 -1
outer loop
	vertex 13.45 49.9766 5.685999
	vertex 15.85 49.9766 5.685999
	vertex 13.45 48.12659 5.685999
endloop
endfacet
facet normal 0 0 1
outer loop
	vertex 13.45 48.12659 4.686
	vertex 15.85 48.12659 4.686
	vertex 13.45 49.9766 4.686
endloop
endfacet
facet normal 0 0 1
outer loop
	vertex 15.85 49.9766 4.686
	vertex 13.45 49.9766 4.686
	vertex 15.85 48.12659 4.686
endloop
endfacet
facet normal -1 0 0
outer loop
	vertex 15.85 48.12659 4.686
	vertex 15.85 48.12659 5.685999
	vertex 15.85 49.9766 4.686
endloop
endfacet
facet normal -1 0 0
outer loop
	vertex 15.85 49.9766 5.685999
	vertex 15.85 49.9766 4.686
	vertex 15.85 48.12659 5.685999
endloop
endfacet
facet normal 0 0 -1
outer loop
	vertex 15.85 48.12659 -2.474
	vertex 13.45 48.12659 -2.474
	vertex 15.85 49.9766 -2.474
endloop
endfacet
facet normal 0 0 -1
outer loop
	vertex 13.45 49.9766 -2.474
	vertex 15.85 49.9766 -2.474
	vertex 13.45 48.12659 -2.474
endloop
endfacet
facet normal 0 0 1
outer loop
	vertex 13.45 48.12659 -3.474
	vertex 15.85 48.12659 -3.474
	vertex 13.45 49.9766 -3.474
endloop
endfacet
facet normal 0 0 1
outer loop
	vertex 15.85 49.9766 -3.474
	vertex 13.45 49.9766 -3.474
	vertex 15.85 48.12659 -3.474
endloop
endfacet
facet normal -1 0 0
outer loop
	vertex 15.85 48.12659 -3.474
	vertex 15.85 48.12659 -2.474
	vertex 15.85 49.9766 -3.474
endloop
endfacet
facet normal -1 0 0
outer loop
	vertex 15.85 49.9766 -2.474
	vertex 15.85 49.9766 -3.474
	vertex 15.85 48.12659 -2.474
endloop
endfacet
facet normal 0 0 -1
outer loop
	vertex 15.85 48.12659 -9.244
	vertex 13.45 48.12659 -9.244
	vertex 15.85 49.9766 -9.244
endloop
endfacet
facet normal 0 0 -1
outer loop
	vertex 13.45 49.9766 -9.244
	vertex 15.85 49.9766 -9.244
	vertex 13.45 48.12659 -9.244
endloop
endfacet
facet normal 0 0 1
outer loop
	vertex 13.45 48.12659 -10.244
	vertex 15.85 48.12659 -10.244
	vertex 13.45 49.9766 -10.244
endloop
endfacet
facet normal 0 0 1
outer loop
	vertex 15.85 49.9766 -10.244
	vertex 13.45 49.9766 -10.244
	vertex 15.85 48.12659 -10.244
endloop
endfacet
facet normal -1 0 0
outer loop
	vertex 15.85 48.12659 -10.244
	vertex 15.85 48.12659 -9.244
	vertex 15.85 49.9766 -10.244
endloop
endfacet
facet normal -1 0 0
outer loop
	vertex 15.85 49.9766 -9.244
	vertex 15.85 49.9766 -10.244
	vertex 15.85 48.12659 -9.244
endloop
endfacet
facet normal 0 0.4771636 -0.8788144
outer loop
	vertex 15.85 44.735 27.0901
	vertex 13.45 44.735 27.0901
	vertex 15.85 46.3608 27.9728
endloop
endfacet
facet normal 0 0.4772893 -0.8787462
outer loop
	vertex 13.45 46.3608 27.9728
	vertex 15.85 46.3608 27.9728
	vertex 13.45 44.735 27.0901
endloop
endfacet
facet normal 0 -0.4204201 0.9073295
outer loop
	vertex 13.45 45.18 26.1867
	vertex 15.85 45.18 26.1867
	vertex 13.45 46.8585 26.9645
endloop
endfacet
facet normal 0 -0.4204201 0.9073295
outer loop
	vertex 15.85 46.8585 26.9646
	vertex 13.45 46.8585 26.9645
	vertex 15.85 45.18 26.1867
endloop
endfacet
facet normal -1 0 0
outer loop
	vertex 15.85 46.3608 27.9728
	vertex 15.85 46.5676 27.59
	vertex 15.85 44.735 27.0901
endloop
endfacet
facet normal -1 0 0
outer loop
	vertex 15.85 44.9146 26.7593
	vertex 15.85 44.735 27.0901
	vertex 15.85 46.5676 27.59
endloop
endfacet
facet normal -1 0 0
outer loop
	vertex 15.85 46.5676 27.59
	vertex 15.85 46.8585 26.9646
	vertex 15.85 44.9146 26.7593
endloop
endfacet
facet normal -1 0 0
outer loop
	vertex 15.85 45.18 26.1867
	vertex 15.85 44.9146 26.7593
	vertex 15.85 46.8585 26.9646
endloop
endfacet
facet normal 0 -0.7726065 -0.6348853
outer loop
	vertex 15.85 42.0956 34.2516
	vertex 13.45 42.0956 34.2516
	vertex 15.85 42.7292 33.4806
endloop
endfacet
facet normal 0 -0.7726065 -0.6348853
outer loop
	vertex 13.45 42.7292 33.4806
	vertex 15.85 42.7292 33.4806
	vertex 13.45 42.0956 34.2516
endloop
endfacet
facet normal 0 -0.9836805 -0.1799237
outer loop
	vertex 15.85 49.305 19.7298
	vertex 13.45 49.305 19.7298
	vertex 15.85 49.4836 18.753
endloop
endfacet
facet normal 0 -0.9836752 -0.1799525
outer loop
	vertex 13.45 49.4836 18.753
	vertex 15.85 49.4836 18.753
	vertex 13.45 49.305 19.7298
endloop
endfacet
facet normal 0 -1 0
outer loop
	vertex 15.85 49.9766 12.456
	vertex 13.45 49.9766 12.456
	vertex 15.85 49.9766 11.456
endloop
endfacet
facet normal 0 -1 0
outer loop
	vertex 13.45 49.9766 11.456
	vertex 15.85 49.9766 11.456
	vertex 13.45 49.9766 12.456
endloop
endfacet
facet normal 0 -1 0
outer loop
	vertex 15.85 49.9766 5.685999
	vertex 13.45 49.9766 5.685999
	vertex 15.85 49.9766 4.686
endloop
endfacet
facet normal 0 -1 0
outer loop
	vertex 13.45 49.9766 4.686
	vertex 15.85 49.9766 4.686
	vertex 13.45 49.9766 5.685999
endloop
endfacet
facet normal 0 -1 0
outer loop
	vertex 15.85 48.12659 11.456
	vertex 13.45 48.12659 11.456
	vertex 15.85 48.12659 5.685999
endloop
endfacet
facet normal 0 -1 0
outer loop
	vertex 13.45 48.12659 5.685999
	vertex 15.85 48.12659 5.685999
	vertex 13.45 48.12659 11.456
endloop
endfacet
facet normal 0 -1 0
outer loop
	vertex 15.85 49.9766 -2.474
	vertex 13.45 49.9766 -2.474
	vertex 15.85 49.9766 -3.474
endloop
endfacet
facet normal 0 -1 0
outer loop
	vertex 13.45 49.9766 -3.474
	vertex 15.85 49.9766 -3.474
	vertex 13.45 49.9766 -2.474
endloop
endfacet
facet normal 0 -1 0
outer loop
	vertex 15.85 48.12659 4.686
	vertex 13.45 48.12659 4.686
	vertex 15.85 48.12659 -2.474
endloop
endfacet
facet normal 0 -1 0
outer loop
	vertex 13.45 48.12659 -2.474
	vertex 15.85 48.12659 -2.474
	vertex 13.45 48.12659 4.686
endloop
endfacet
facet normal 0 -1 0
outer loop
	vertex 15.85 49.9766 -9.244
	vertex 13.45 49.9766 -9.244
	vertex 15.85 49.9766 -10.244
endloop
endfacet
facet normal 0 -1 0
outer loop
	vertex 13.45 49.9766 -10.244
	vertex 15.85 49.9766 -10.244
	vertex 13.45 49.9766 -9.244
endloop
endfacet
facet normal 0 -1 0
outer loop
	vertex 15.85 48.12659 -3.474
	vertex 13.45 48.12659 -3.474
	vertex 15.85 48.12659 -9.244
endloop
endfacet
facet normal 0 -1 0
outer loop
	vertex 13.45 48.12659 -9.244
	vertex 15.85 48.12659 -9.244
	vertex 13.45 48.12659 -3.474
endloop
endfacet
facet normal 0 -0.7657189 -0.6430052
outer loop
	vertex 13.45 40.6663 33.0769
	vertex 15.85 40.6663 33.0769
	vertex 13.45 40.6319 33.1188
endloop
endfacet
facet normal 0 -0.7589512 -0.6509795
outer loop
	vertex 15.85 40.6319 33.1188
	vertex 13.45 40.6319 33.1188
	vertex 15.85 40.6663 33.0769
endloop
endfacet
facet normal 0 -0.7450758 -0.6668115
outer loop
	vertex 13.45 40.6319 33.1188
	vertex 15.85 40.6319 33.1188
	vertex 13.45 39.3267 34.5163
endloop
endfacet
facet normal 0 -0.7379681 -0.6746692
outer loop
	vertex 15.85 39.3267 34.5163
	vertex 13.45 39.3267 34.5163
	vertex 15.85 40.6319 33.1188
endloop
endfacet
facet normal 0 -0.873659 -0.486306
outer loop
	vertex 13.45 44.735 27.0901
	vertex 15.85 44.735 27.0901
	vertex 13.45 43.9981 28.4474
endloop
endfacet
facet normal 0 -0.8684353 -0.4955741
outer loop
	vertex 15.85 43.9981 28.4474
	vertex 13.45 43.9981 28.4474
	vertex 15.85 44.735 27.0901
endloop
endfacet
facet normal 0 -0.8519195 -0.5228118
outer loop
	vertex 13.45 43.9981 28.4474
	vertex 15.85 43.9981 28.4474
	vertex 13.45 42.9721 30.08
endloop
endfacet
facet normal 0 -0.8406274 -0.5407815
outer loop
	vertex 15.85 42.9721 30.08
	vertex 13.45 42.9721 30.08
	vertex 15.85 43.9981 28.4474
endloop
endfacet
facet normal 0 -0.8170165 -0.5758439
outer loop
	vertex 13.45 42.9721 30.08
	vertex 15.85 42.9721 30.08
	vertex 13.45 41.8497 31.637
endloop
endfacet
facet normal 0 -0.8046977 -0.5929366
outer loop
	vertex 15.85 41.8497 31.637
	vertex 13.45 41.8497 31.637
	vertex 15.85 42.9721 30.08
endloop
endfacet
facet normal 0 -0.7857881 -0.6183146
outer loop
	vertex 15.85 41.8497 31.637
	vertex 15.85 41.3 32.3059
	vertex 13.45 41.8497 31.637
endloop
endfacet
facet normal 0 -0.7791973 -0.6265999
outer loop
	vertex 13.45 41.3 32.3059
	vertex 13.45 41.8497 31.637
	vertex 15.85 41.3 32.3059
endloop
endfacet
facet normal 0 -0.9024552 -0.4305563
outer loop
	vertex 13.45 46.8585 26.9645
	vertex 15.85 46.8585 26.9646
	vertex 13.45 46.5676 27.59
endloop
endfacet
facet normal 0 -0.8981479 -0.4394706
outer loop
	vertex 15.85 46.5676 27.59
	vertex 13.45 46.5676 27.59
	vertex 15.85 46.8585 26.9646
endloop
endfacet
facet normal 0 -0.889167 -0.4573591
outer loop
	vertex 15.85 46.5676 27.59
	vertex 15.85 46.3608 27.9728
	vertex 13.45 46.5676 27.59
endloop
endfacet
facet normal 0 -0.8844933 -0.4663334
outer loop
	vertex 13.45 46.3608 27.9728
	vertex 13.45 46.5676 27.59
	vertex 15.85 46.3608 27.9728
endloop
endfacet
facet normal 0 -0.9816306 -0.1902196
outer loop
	vertex 13.45 47.4851 19.3971
	vertex 15.85 47.4851 19.3971
	vertex 13.45 47.4574 19.5486
endloop
endfacet
facet normal 0 -0.9795911 -0.2004578
outer loop
	vertex 15.85 47.4574 19.5486
	vertex 13.45 47.4574 19.5486
	vertex 15.85 47.4851 19.3971
endloop
endfacet
facet normal 0 -0.9724385 -0.2312311
outer loop
	vertex 13.45 47.4574 19.5486
	vertex 15.85 47.4574 19.5486
	vertex 13.45 46.9947 21.4069
endloop
endfacet
facet normal 0 -0.9673466 -0.2516907
outer loop
	vertex 15.85 46.9947 21.4069
	vertex 13.45 46.9947 21.4069
	vertex 15.85 47.4574 19.5486
endloop
endfacet
facet normal 0 -0.9558532 -0.2923221
outer loop
	vertex 13.45 46.9947 21.4069
	vertex 15.85 46.9947 21.4069
	vertex 13.45 46.4138 23.2367
endloop
endfacet
facet normal 0 -0.949473 -0.3124185
outer loop
	vertex 15.85 46.4138 23.2367
	vertex 13.45 46.4138 23.2367
	vertex 15.85 46.9947 21.4069
endloop
endfacet
facet normal 0 -0.93544 -0.3522276
outer loop
	vertex 13.45 46.4138 23.2367
	vertex 15.85 46.4138 23.2367
	vertex 13.45 45.7209 25.0194
endloop
endfacet
facet normal 0 -0.9278085 -0.371865
outer loop
	vertex 15.85 45.7209 25.0194
	vertex 13.45 45.7209 25.0194
	vertex 15.85 46.4138 23.2367
endloop
endfacet
facet normal 0 -0.9158587 -0.401219
outer loop
	vertex 15.85 45.7209 25.0194
	vertex 15.85 45.18 26.1867
	vertex 13.45 45.7209 25.0194
endloop
endfacet
facet normal 0 -0.9115403 -0.4109356
outer loop
	vertex 13.45 45.18 26.1867
	vertex 13.45 45.7209 25.0194
	vertex 15.85 45.18 26.1867
endloop
endfacet
facet normal 0 -0.9998786 -0.00899363
outer loop
	vertex 13.45 48.12659 12.456
	vertex 15.85 48.12659 12.456
	vertex 13.45 48.12659 13.9075
endloop
endfacet
facet normal 0 -0.9997573 -0.01798726
outer loop
	vertex 15.85 48.12659 13.9075
	vertex 13.45 48.12659 13.9075
	vertex 15.85 48.12659 12.456
endloop
endfacet
facet normal 0 -0.9985318 -0.0465443
outer loop
	vertex 13.45 48.12659 13.9075
	vertex 15.85 48.12659 13.9075
	vertex 13.45 48.0266 15.7593
endloop
endfacet
facet normal 0 -0.9974276 -0.06610771
outer loop
	vertex 15.85 48.0266 15.7593
	vertex 13.45 48.0266 15.7593
	vertex 15.85 48.12659 13.9075
endloop
endfacet
facet normal 0 -0.9938432 -0.1066803
outer loop
	vertex 13.45 48.0266 15.7593
	vertex 15.85 48.0266 15.7593
	vertex 13.45 47.8013 17.6675
endloop
endfacet
facet normal 0 -0.9913629 -0.1276895
outer loop
	vertex 15.85 47.8013 17.6675
	vertex 13.45 47.8013 17.6675
	vertex 15.85 48.0266 15.7593
endloop
endfacet
facet normal 0 -0.9871576 -0.159058
outer loop
	vertex 15.85 47.8013 17.6675
	vertex 15.85 47.6637 18.4203
	vertex 13.45 47.8013 17.6675
endloop
endfacet
facet normal 0 -0.9854325 -0.1694174
outer loop
	vertex 13.45 47.6637 18.4203
	vertex 13.45 47.8013 17.6675
	vertex 15.85 47.6637 18.4203
endloop
endfacet
facet normal 0 -1 0
outer loop
	vertex 13.45 48.12659 -10.244
	vertex 13.45 48.12659 -11.6957
	vertex 15.85 48.12659 -10.244
endloop
endfacet
facet normal 0 -1 0
outer loop
	vertex 15.85 48.12659 -11.6957
	vertex 15.85 48.12659 -10.244
	vertex 13.45 48.12659 -11.6957
endloop
endfacet
facet normal 0 -0.6347654 -0.7727049
outer loop
	vertex 13.45 41.3 -30.0928
	vertex 13.45 42.7292 -31.2675
	vertex 15.85 41.3 -30.0928
endloop
endfacet
facet normal 0 -0.6347654 -0.7727049
outer loop
	vertex 15.85 42.7292 -31.2675
	vertex 15.85 41.3 -30.0928
	vertex 13.45 42.7292 -31.2675
endloop
endfacet
facet normal -1 0 0
outer loop
	vertex 15.85 41.3 -30.0928
	vertex 15.85 42.7292 -31.2675
	vertex 15.85 40.6663 -30.8639
endloop
endfacet
facet normal -1 0 0
outer loop
	vertex 15.85 42.0956 -32.0385
	vertex 15.85 40.6663 -30.8639
	vertex 15.85 42.7292 -31.2675
endloop
endfacet
facet normal 0 0.6348054 0.7726721
outer loop
	vertex 15.85 40.6663 -30.8639
	vertex 15.85 42.0956 -32.0385
	vertex 13.45 40.6663 -30.8639
endloop
endfacet
facet normal 0 0.6348453 0.7726393
outer loop
	vertex 13.45 42.0956 -32.0385
	vertex 13.45 40.6663 -30.8639
	vertex 15.85 42.0956 -32.0385
endloop
endfacet
facet normal 0 -0.1800313 -0.9836609
outer loop
	vertex 13.45 47.6637 -16.2072
	vertex 13.45 49.4836 -16.5399
	vertex 15.85 47.6637 -16.2072
endloop
endfacet
facet normal 0 -0.1798666 -0.983691
outer loop
	vertex 15.85 49.4836 -16.5399
	vertex 15.85 47.6637 -16.2072
	vertex 13.45 49.4836 -16.5399
endloop
endfacet
facet normal -1 0 0
outer loop
	vertex 15.85 47.6637 -16.2072
	vertex 15.85 49.4836 -16.5399
	vertex 15.85 47.4851 -17.184
endloop
endfacet
facet normal -1 0 0
outer loop
	vertex 15.85 49.305 -17.5167
	vertex 15.85 47.4851 -17.184
	vertex 15.85 49.4836 -16.5399
endloop
endfacet
facet normal 0 0.1801743 0.9836347
outer loop
	vertex 15.85 47.4851 -17.184
	vertex 15.85 49.305 -17.5167
	vertex 13.45 47.4851 -17.184
endloop
endfacet
facet normal 0 0.1801743 0.9836347
outer loop
	vertex 13.45 49.305 -17.5167
	vertex 13.45 47.4851 -17.184
	vertex 15.85 49.305 -17.5167
endloop
endfacet
facet normal 0 0.4771978 0.8787959
outer loop
	vertex 15.85 44.735 -24.877
	vertex 15.85 46.3608 -25.7597
	vertex 13.45 44.735 -24.877
endloop
endfacet
facet normal 0 0.4773576 0.878709
outer loop
	vertex 13.45 46.3608 -25.7597
	vertex 13.45 44.735 -24.877
	vertex 15.85 46.3608 -25.7597
endloop
endfacet
facet normal 0 -0.4204512 -0.9073151
outer loop
	vertex 13.45 45.18 -23.9736
	vertex 13.45 46.8585 -24.7515
	vertex 15.85 45.18 -23.9736
endloop
endfacet
facet normal 0 -0.4204512 -0.9073151
outer loop
	vertex 15.85 46.8585 -24.7515
	vertex 15.85 45.18 -23.9736
	vertex 13.45 46.8585 -24.7515
endloop
endfacet
facet normal -1 0 0
outer loop
	vertex 15.85 46.3608 -25.7597
	vertex 15.85 44.735 -24.877
	vertex 15.85 46.5676 -25.3769
endloop
endfacet
facet normal -1 0 0
outer loop
	vertex 15.85 44.9146 -24.5462
	vertex 15.85 46.5676 -25.3769
	vertex 15.85 44.735 -24.877
endloop
endfacet
facet normal -1 0 0
outer loop
	vertex 15.85 46.5676 -25.3769
	vertex 15.85 44.9146 -24.5462
	vertex 15.85 46.8585 -24.7515
endloop
endfacet
facet normal -1 0 0
outer loop
	vertex 15.85 45.18 -23.9736
	vertex 15.85 46.8585 -24.7515
	vertex 15.85 44.9146 -24.5462
endloop
endfacet
facet normal 0 -0.7725666 0.6349338
outer loop
	vertex 15.85 42.0956 -32.0385
	vertex 15.85 42.7292 -31.2675
	vertex 13.45 42.0956 -32.0385
endloop
endfacet
facet normal 0 -0.7725266 0.6349823
outer loop
	vertex 13.45 42.7292 -31.2675
	vertex 13.45 42.0956 -32.0385
	vertex 15.85 42.7292 -31.2675
endloop
endfacet
facet normal 0 -0.983695 0.179845
outer loop
	vertex 15.85 49.305 -17.5167
	vertex 15.85 49.4836 -16.5399
	vertex 13.45 49.305 -17.5167
endloop
endfacet
facet normal 0 -0.9836825 0.1799131
outer loop
	vertex 13.45 49.4836 -16.5399
	vertex 13.45 49.305 -17.5167
	vertex 15.85 49.4836 -16.5399
endloop
endfacet
facet normal 0 -0.7657189 0.6430052
outer loop
	vertex 13.45 40.6663 -30.8639
	vertex 13.45 40.6319 -30.9057
	vertex 15.85 40.6663 -30.8639
endloop
endfacet
facet normal 0 -0.7589512 0.6509795
outer loop
	vertex 15.85 40.6319 -30.9057
	vertex 15.85 40.6663 -30.8639
	vertex 13.45 40.6319 -30.9057
endloop
endfacet
facet normal 0 -0.7450758 0.6668115
outer loop
	vertex 13.45 40.6319 -30.9057
	vertex 13.45 39.3267 -32.3032
	vertex 15.85 40.6319 -30.9057
endloop
endfacet
facet normal 0 -0.7379681 0.6746692
outer loop
	vertex 15.85 39.3267 -32.3032
	vertex 15.85 40.6319 -30.9057
	vertex 13.45 39.3267 -32.3032
endloop
endfacet
facet normal 0 -0.873659 0.486306
outer loop
	vertex 13.45 44.735 -24.877
	vertex 13.45 43.9981 -26.2343
	vertex 15.85 44.735 -24.877
endloop
endfacet
facet normal 0 -0.8684353 0.4955741
outer loop
	vertex 15.85 43.9981 -26.2343
	vertex 15.85 44.735 -24.877
	vertex 13.45 43.9981 -26.2343
endloop
endfacet
facet normal 0 -0.8519195 0.5228118
outer loop
	vertex 13.45 43.9981 -26.2343
	vertex 13.45 42.9721 -27.867
	vertex 15.85 43.9981 -26.2343
endloop
endfacet
facet normal 0 -0.8406274 0.5407815
outer loop
	vertex 15.85 42.9721 -27.867
	vertex 15.85 43.9981 -26.2343
	vertex 13.45 42.9721 -27.867
endloop
endfacet
facet normal 0 -0.8170165 0.5758439
outer loop
	vertex 13.45 42.9721 -27.867
	vertex 13.45 41.8497 -29.424
	vertex 15.85 42.9721 -27.867
endloop
endfacet
facet normal 0 -0.8046977 0.5929366
outer loop
	vertex 15.85 41.8497 -29.424
	vertex 15.85 42.9721 -27.867
	vertex 13.45 41.8497 -29.424
endloop
endfacet
facet normal 0 -0.7857482 0.6183631
outer loop
	vertex 15.85 41.8497 -29.424
	vertex 13.45 41.8497 -29.424
	vertex 15.85 41.3 -30.0928
endloop
endfacet
facet normal 0 -0.7791174 0.626697
outer loop
	vertex 13.45 41.3 -30.0928
	vertex 15.85 41.3 -30.0928
	vertex 13.45 41.8497 -29.424
endloop
endfacet
facet normal 0 -0.9024552 0.4305563
outer loop
	vertex 13.45 46.8585 -24.7515
	vertex 13.45 46.5676 -25.3769
	vertex 15.85 46.8585 -24.7515
endloop
endfacet
facet normal 0 -0.8981479 0.4394706
outer loop
	vertex 15.85 46.5676 -25.3769
	vertex 15.85 46.8585 -24.7515
	vertex 13.45 46.5676 -25.3769
endloop
endfacet
facet normal 0 -0.889201 0.4572961
outer loop
	vertex 15.85 46.5676 -25.3769
	vertex 13.45 46.5676 -25.3769
	vertex 15.85 46.3608 -25.7597
endloop
endfacet
facet normal 0 -0.8845614 0.4662074
outer loop
	vertex 13.45 46.3608 -25.7597
	vertex 15.85 46.3608 -25.7597
	vertex 13.45 46.5676 -25.3769
endloop
endfacet
facet normal 0 -0.9816306 0.1902196
outer loop
	vertex 13.45 47.4851 -17.184
	vertex 13.45 47.4574 -17.3356
	vertex 15.85 47.4851 -17.184
endloop
endfacet
facet normal 0 -0.9795911 0.2004578
outer loop
	vertex 15.85 47.4574 -17.3356
	vertex 15.85 47.4851 -17.184
	vertex 13.45 47.4574 -17.3356
endloop
endfacet
facet normal 0 -0.9724278 0.2312688
outer loop
	vertex 13.45 47.4574 -17.3356
	vertex 13.45 46.9947 -19.1938
	vertex 15.85 47.4574 -17.3356
endloop
endfacet
facet normal 0 -0.9673039 0.2518415
outer loop
	vertex 15.85 46.9947 -19.1938
	vertex 15.85 47.4574 -17.3356
	vertex 13.45 46.9947 -19.1938
endloop
endfacet
facet normal 0 -0.9558105 0.2924728
outer loop
	vertex 13.45 46.9947 -19.1938
	vertex 13.45 46.4138 -21.0236
	vertex 15.85 46.9947 -19.1938
endloop
endfacet
facet normal 0 -0.949441 0.3125315
outer loop
	vertex 15.85 46.4138 -21.0236
	vertex 15.85 46.9947 -19.1938
	vertex 13.45 46.4138 -21.0236
endloop
endfacet
facet normal 0 -0.93544 0.3522276
outer loop
	vertex 13.45 46.4138 -21.0236
	vertex 13.45 45.7209 -22.8064
	vertex 15.85 46.4138 -21.0236
endloop
endfacet
facet normal 0 -0.9278085 0.371865
outer loop
	vertex 15.85 45.7209 -22.8064
	vertex 15.85 46.4138 -21.0236
	vertex 13.45 45.7209 -22.8064
endloop
endfacet
facet normal 0 -0.9158587 0.401219
outer loop
	vertex 15.85 45.7209 -22.8064
	vertex 13.45 45.7209 -22.8064
	vertex 15.85 45.18 -23.9736
endloop
endfacet
facet normal 0 -0.9115403 0.4109356
outer loop
	vertex 13.45 45.18 -23.9736
	vertex 15.85 45.18 -23.9736
	vertex 13.45 45.7209 -22.8064
endloop
endfacet
facet normal 0 -0.9854181 0.1694962
outer loop
	vertex 13.45 47.6637 -16.2072
	vertex 15.85 47.6637 -16.2072
	vertex 13.45 47.8013 -15.4545
endloop
endfacet
facet normal 0 -0.9871503 0.1590974
outer loop
	vertex 15.85 47.8013 -15.4545
	vertex 13.45 47.8013 -15.4545
	vertex 15.85 47.6637 -16.2072
endloop
endfacet
facet normal 0 -0.9913629 0.1276895
outer loop
	vertex 15.85 47.8013 -15.4545
	vertex 15.85 48.0266 -13.5462
	vertex 13.45 47.8013 -15.4545
endloop
endfacet
facet normal 0 -0.9938432 0.1066803
outer loop
	vertex 13.45 48.0266 -13.5462
	vertex 13.45 47.8013 -15.4545
	vertex 15.85 48.0266 -13.5462
endloop
endfacet
facet normal 0 -0.9970656 0.07505868
outer loop
	vertex 15.85 48.0266 -13.5462
	vertex 15.85 48.12659 -11.6944
	vertex 13.45 48.0266 -13.5462
endloop
endfacet
facet normal 0 -0.9978077 0.06444624
outer loop
	vertex 13.45 48.12659 -11.6944
	vertex 13.45 48.0266 -13.5462
	vertex 15.85 48.12659 -11.6944
endloop
endfacet
facet normal 0 -1 0
outer loop
	vertex 15.7 45.2007 0.9558
	vertex 15.7 45.2007 1.2558
	vertex 12.99 45.2007 0.9559
endloop
endfacet
facet normal 0 -1 0
outer loop
	vertex 12.99 45.2007 1.2559
	vertex 12.99 45.2007 0.9559
	vertex 15.7 45.2007 1.2558
endloop
endfacet
facet normal 0 -1 0
outer loop
	vertex 15.7 45.2007 -5.0442
	vertex 15.7 45.2007 -4.7442
	vertex 12.99 45.2007 -5.0442
endloop
endfacet
facet normal 0 -1 0
outer loop
	vertex 12.99 45.2007 -4.7442
	vertex 12.99 45.2007 -5.0442
	vertex 15.7 45.2007 -4.7442
endloop
endfacet
facet normal 0 -0.95315 0.3024982
outer loop
	vertex 15.7 43.8703 -19.3692
	vertex 15.7 43.9611 -19.0833
	vertex 12.99 43.8703 -19.3692
endloop
endfacet
facet normal 0 -0.95315 0.3024982
outer loop
	vertex 12.99 43.9611 -19.0833
	vertex 12.99 43.8703 -19.3692
	vertex 15.7 43.9611 -19.0833
endloop
endfacet
facet normal 0 -0.8113074 0.5846198
outer loop
	vertex 15.6999 39.9486 -27.0605
	vertex 15.6999 40.1241 -26.8171
	vertex 12.9899 39.9486 -27.0605
endloop
endfacet
facet normal 0 -0.8112796 0.5846584
outer loop
	vertex 12.9899 40.1241 -26.8171
	vertex 12.9899 39.9486 -27.0605
	vertex 15.6999 40.1241 -26.8171
endloop
endfacet
facet normal 0 -1 0
outer loop
	vertex 15.7 45.2007 -11.0443
	vertex 15.7 45.2007 -10.7442
	vertex 12.99 45.2007 -11.0442
endloop
endfacet
facet normal 0 -1 0
outer loop
	vertex 12.99 45.2007 -10.7442
	vertex 12.99 45.2007 -11.0442
	vertex 15.7 45.2007 -10.7442
endloop
endfacet
facet normal 0 -1 0
outer loop
	vertex 15.7 45.2008 7.255
	vertex 12.99 45.2008 7.255
	vertex 15.7 45.2008 6.955
endloop
endfacet
facet normal 0 -1 0
outer loop
	vertex 12.99 45.2008 6.955
	vertex 15.7 45.2008 6.955
	vertex 12.99 45.2008 7.255
endloop
endfacet
facet normal 0 -0.95315 -0.3024982
outer loop
	vertex 15.7001 43.8704 21.5801
	vertex 12.9901 43.8704 21.5801
	vertex 15.7001 43.9612 21.2941
endloop
endfacet
facet normal 0 -0.95315 -0.3024982
outer loop
	vertex 12.9901 43.9612 21.2941
	vertex 15.7001 43.9612 21.2941
	vertex 12.9901 43.8704 21.5801
endloop
endfacet
facet normal 0 -0.8111297 -0.5848663
outer loop
	vertex 15.7001 39.9487 29.2713
	vertex 12.9901 39.9487 29.2713
	vertex 15.7001 40.1242 29.028
endloop
endfacet
facet normal 0 -0.8110911 -0.5849199
outer loop
	vertex 12.9901 40.1242 29.028
	vertex 15.7001 40.1242 29.028
	vertex 12.9901 39.9487 29.2713
endloop
endfacet
facet normal 0 -1 0
outer loop
	vertex 15.7 45.2008 13.2551
	vertex 12.99 45.2008 13.2551
	vertex 15.7 45.2008 12.9551
endloop
endfacet
facet normal 0 -1 0
outer loop
	vertex 12.99 45.2008 12.9551
	vertex 15.7 45.2008 12.9551
	vertex 12.99 45.2008 13.2551
endloop
endfacet
facet normal 0 0 1
outer loop
	vertex 12.99 43.6727 1.1809
	vertex 12.99 42.1447 1.1809
	vertex 14.59 42.1447 1.1809
endloop
endfacet
facet normal 0 0 1
outer loop
	vertex 12.99 45.2007 1.1808
	vertex 12.99 43.6727 1.1809
	vertex 14.59 42.1447 1.1809
endloop
endfacet
facet normal 0 0 1
outer loop
	vertex 15.29 45.2007 1.1808
	vertex 12.99 45.2007 1.1808
	vertex 14.59 42.1447 1.1809
endloop
endfacet
facet normal 0 0 1
outer loop
	vertex 15.29 43.6727 1.1808
	vertex 15.29 45.2007 1.1808
	vertex 14.59 42.1447 1.1809
endloop
endfacet
facet normal 0 0 1
outer loop
	vertex 12.99 43.6727 -4.8192
	vertex 12.99 42.1447 -4.8192
	vertex 14.59 42.1447 -4.8192
endloop
endfacet
facet normal 0 0 1
outer loop
	vertex 12.99 45.2007 -4.8192
	vertex 12.99 43.6727 -4.8192
	vertex 14.59 42.1447 -4.8192
endloop
endfacet
facet normal 0 0 1
outer loop
	vertex 15.29 45.2007 -4.8192
	vertex 12.99 45.2007 -4.8192
	vertex 14.59 42.1447 -4.8192
endloop
endfacet
facet normal 0 0 1
outer loop
	vertex 15.29 43.6727 -4.8192
	vertex 15.29 45.2007 -4.8192
	vertex 14.59 42.1447 -4.8192
endloop
endfacet
facet normal 0 0.3019453 0.9533252
outer loop
	vertex 12.99 42.4819 -18.6928
	vertex 12.99 41.0254 -18.2309
	vertex 14.59 41.0254 -18.2309
endloop
endfacet
facet normal 0 0.3020932 0.9532784
outer loop
	vertex 12.99 43.9384 -19.1548
	vertex 12.99 42.4819 -18.6928
	vertex 14.59 41.0254 -18.2309
endloop
endfacet
facet normal 0 0.3020932 0.9532784
outer loop
	vertex 15.29 43.9384 -19.1548
	vertex 12.99 43.9384 -19.1548
	vertex 14.59 41.0254 -18.2309
endloop
endfacet
facet normal 0 0.3020932 0.9532784
outer loop
	vertex 15.29 42.4819 -18.6928
	vertex 15.29 43.9384 -19.1548
	vertex 14.59 41.0254 -18.2309
endloop
endfacet
facet normal 0 0.5849199 0.8110911
outer loop
	vertex 12.9899 38.8407 -25.9844
	vertex 12.9899 37.6013 -25.0908
	vertex 14.5899 37.6013 -25.0908
endloop
endfacet
facet normal 0 0.5848277 0.8111575
outer loop
	vertex 12.9899 40.0802 -26.878
	vertex 12.9899 38.8407 -25.9844
	vertex 14.5899 37.6013 -25.0908
endloop
endfacet
facet normal 0 0.5847892 0.8111854
outer loop
	vertex 15.2899 40.0802 -26.878
	vertex 12.9899 40.0802 -26.878
	vertex 14.5899 37.6013 -25.0908
endloop
endfacet
facet normal 0 0.5848277 0.8111575
outer loop
	vertex 15.2899 38.8407 -25.9844
	vertex 15.2899 40.0802 -26.878
	vertex 14.5899 37.6013 -25.0908
endloop
endfacet
facet normal 0 0 1
outer loop
	vertex 12.99 43.6727 -10.8192
	vertex 12.99 42.1447 -10.8192
	vertex 14.59 42.1447 -10.8192
endloop
endfacet
facet normal 0 0 1
outer loop
	vertex 12.99 45.2007 -10.8192
	vertex 12.99 43.6727 -10.8192
	vertex 14.59 42.1447 -10.8192
endloop
endfacet
facet normal 0 0 1
outer loop
	vertex 15.29 45.2007 -10.8193
	vertex 12.99 45.2007 -10.8192
	vertex 14.59 42.1447 -10.8192
endloop
endfacet
facet normal 0 0 1
outer loop
	vertex 15.29 43.6727 -10.8192
	vertex 15.29 45.2007 -10.8193
	vertex 14.59 42.1447 -10.8192
endloop
endfacet
facet normal 0 0 -1
outer loop
	vertex 12.99 45.2007 -4.9692
	vertex 15.29 45.2007 -4.9692
	vertex 15.29 43.6727 -4.9692
endloop
endfacet
facet normal 0 0 -1
outer loop
	vertex 12.99 43.6727 -4.9692
	vertex 12.99 45.2007 -4.9692
	vertex 15.29 43.6727 -4.9692
endloop
endfacet
facet normal 0 0 -1
outer loop
	vertex 12.99 42.1447 -4.9692
	vertex 12.99 43.6727 -4.9692
	vertex 15.29 43.6727 -4.9692
endloop
endfacet
facet normal 0 0 -1
outer loop
	vertex 14.59 42.1447 -4.9692
	vertex 12.99 42.1447 -4.9692
	vertex 15.29 43.6727 -4.9692
endloop
endfacet
facet normal 0 0 -1
outer loop
	vertex 12.99 45.2007 1.0308
	vertex 15.29 45.2007 1.0308
	vertex 15.29 43.6727 1.0308
endloop
endfacet
facet normal 0 0 -1
outer loop
	vertex 12.99 43.6727 1.0309
	vertex 12.99 45.2007 1.0308
	vertex 15.29 43.6727 1.0308
endloop
endfacet
facet normal 0 0 -1
outer loop
	vertex 12.99 42.1447 1.0309
	vertex 12.99 43.6727 1.0309
	vertex 15.29 43.6727 1.0308
endloop
endfacet
facet normal 0 0 -1
outer loop
	vertex 14.59 42.1447 1.0309
	vertex 12.99 42.1447 1.0309
	vertex 15.29 43.6727 1.0308
endloop
endfacet
facet normal 0 -0.3020932 -0.9532784
outer loop
	vertex 12.99 43.893 -19.2977
	vertex 15.29 43.893 -19.2977
	vertex 15.29 42.4365 -18.8358
endloop
endfacet
facet normal 0 -0.3019453 -0.9533252
outer loop
	vertex 12.99 42.4365 -18.8358
	vertex 12.99 43.893 -19.2977
	vertex 15.29 42.4365 -18.8358
endloop
endfacet
facet normal 0 -0.3019336 -0.9533289
outer loop
	vertex 12.99 40.98 -18.3739
	vertex 12.99 42.4365 -18.8358
	vertex 15.29 42.4365 -18.8358
endloop
endfacet
facet normal 0 -0.3020698 -0.9532858
outer loop
	vertex 14.59 40.98 -18.3739
	vertex 12.99 40.98 -18.3739
	vertex 15.29 42.4365 -18.8358
endloop
endfacet
facet normal 0 -0.5847356 -0.811224
outer loop
	vertex 12.9899 39.9925 -26.9996
	vertex 15.2899 39.9925 -26.9996
	vertex 15.2899 38.753 -26.1061
endloop
endfacet
facet normal 0 -0.5847356 -0.811224
outer loop
	vertex 12.9899 38.753 -26.106
	vertex 12.9899 39.9925 -26.9996
	vertex 15.2899 38.753 -26.1061
endloop
endfacet
facet normal 0 -0.5848277 -0.8111575
outer loop
	vertex 12.9899 37.5135 -25.2125
	vertex 12.9899 38.753 -26.106
	vertex 15.2899 38.753 -26.1061
endloop
endfacet
facet normal 0 -0.5849199 -0.8110911
outer loop
	vertex 14.5899 37.5135 -25.2125
	vertex 12.9899 37.5135 -25.2125
	vertex 15.2899 38.753 -26.1061
endloop
endfacet
facet normal 0 0 -1
outer loop
	vertex 12.99 45.2007 -10.9692
	vertex 15.29 45.2007 -10.9693
	vertex 15.29 43.6727 -10.9692
endloop
endfacet
facet normal 0 0 -1
outer loop
	vertex 12.99 43.6727 -10.9692
	vertex 12.99 45.2007 -10.9692
	vertex 15.29 43.6727 -10.9692
endloop
endfacet
facet normal 0 0 -1
outer loop
	vertex 12.99 42.1447 -10.9692
	vertex 12.99 43.6727 -10.9692
	vertex 15.29 43.6727 -10.9692
endloop
endfacet
facet normal 0 0 -1
outer loop
	vertex 14.59 42.1447 -10.9692
	vertex 12.99 42.1447 -10.9692
	vertex 15.29 43.6727 -10.9692
endloop
endfacet
facet normal 1 0 0
outer loop
	vertex 15.29 45.2007 1.0308
	vertex 15.29 45.2007 1.1808
	vertex 15.29 43.6727 1.0308
endloop
endfacet
facet normal 1 0 0
outer loop
	vertex 15.29 43.6727 1.1808
	vertex 15.29 43.6727 1.0308
	vertex 15.29 45.2007 1.1808
endloop
endfacet
facet normal 0 -1 0
outer loop
	vertex 14.59 42.1447 1.0309
	vertex 14.59 42.1447 1.1809
	vertex 12.99 42.1447 1.0309
endloop
endfacet
facet normal 0 -1 0
outer loop
	vertex 12.99 42.1447 1.1809
	vertex 12.99 42.1447 1.0309
	vertex 14.59 42.1447 1.1809
endloop
endfacet
facet normal 0.9091418 -0.4164866 0
outer loop
	vertex 15.29 43.6727 1.0308
	vertex 15.29 43.6727 1.1808
	vertex 14.59 42.1447 1.0309
endloop
endfacet
facet normal 0.9091418 -0.4164866 0
outer loop
	vertex 14.59 42.1447 1.1809
	vertex 14.59 42.1447 1.0309
	vertex 15.29 43.6727 1.1808
endloop
endfacet
facet normal 1 0 0
outer loop
	vertex 15.29 45.2007 -4.9692
	vertex 15.29 45.2007 -4.8192
	vertex 15.29 43.6727 -4.9692
endloop
endfacet
facet normal 1 0 0
outer loop
	vertex 15.29 43.6727 -4.8192
	vertex 15.29 43.6727 -4.9692
	vertex 15.29 45.2007 -4.8192
endloop
endfacet
facet normal 0 -1 0
outer loop
	vertex 14.59 42.1447 -4.9692
	vertex 14.59 42.1447 -4.8192
	vertex 12.99 42.1447 -4.9692
endloop
endfacet
facet normal 0 -1 0
outer loop
	vertex 12.99 42.1447 -4.8192
	vertex 12.99 42.1447 -4.9692
	vertex 14.59 42.1447 -4.8192
endloop
endfacet
facet normal 0.9091418 -0.4164866 0
outer loop
	vertex 15.29 43.6727 -4.9692
	vertex 15.29 43.6727 -4.8192
	vertex 14.59 42.1447 -4.9692
endloop
endfacet
facet normal 0.9091418 -0.4164866 0
outer loop
	vertex 14.59 42.1447 -4.8192
	vertex 14.59 42.1447 -4.9692
	vertex 15.29 43.6727 -4.8192
endloop
endfacet
facet normal 1 0 0
outer loop
	vertex 15.29 43.893 -19.2977
	vertex 15.29 43.9384 -19.1548
	vertex 15.29 42.4365 -18.8358
endloop
endfacet
facet normal 1 0 0
outer loop
	vertex 15.29 42.4819 -18.6928
	vertex 15.29 42.4365 -18.8358
	vertex 15.29 43.9384 -19.1548
endloop
endfacet
facet normal 0 -0.95315 0.3024982
outer loop
	vertex 14.59 40.98 -18.3739
	vertex 14.59 41.0254 -18.2309
	vertex 12.99 40.98 -18.3739
endloop
endfacet
facet normal 0 -0.95315 0.3024982
outer loop
	vertex 12.99 41.0254 -18.2309
	vertex 12.99 40.98 -18.3739
	vertex 14.59 41.0254 -18.2309
endloop
endfacet
facet normal 0.9091408 -0.3969557 0.1260525
outer loop
	vertex 15.29 42.4365 -18.8358
	vertex 15.29 42.4819 -18.6928
	vertex 14.59 40.98 -18.3739
endloop
endfacet
facet normal 0.9090821 -0.3970928 0.1260444
outer loop
	vertex 14.59 41.0254 -18.2309
	vertex 14.59 40.98 -18.3739
	vertex 15.29 42.4819 -18.6928
endloop
endfacet
facet normal 1 0 0
outer loop
	vertex 15.2899 39.9925 -26.9996
	vertex 15.2899 40.0802 -26.878
	vertex 15.2899 38.753 -26.1061
endloop
endfacet
facet normal 1 0 0
outer loop
	vertex 15.2899 38.8407 -25.9844
	vertex 15.2899 38.753 -26.1061
	vertex 15.2899 40.0802 -26.878
endloop
endfacet
facet normal 0 -0.8110525 0.5849735
outer loop
	vertex 14.5899 37.5135 -25.2125
	vertex 14.5899 37.6013 -25.0908
	vertex 12.9899 37.5135 -25.2125
endloop
endfacet
facet normal 0 -0.8110525 0.5849735
outer loop
	vertex 12.9899 37.6013 -25.0908
	vertex 12.9899 37.5135 -25.2125
	vertex 14.5899 37.6013 -25.0908
endloop
endfacet
facet normal 0.9090891 -0.3379383 0.2436281
outer loop
	vertex 15.2899 38.753 -26.1061
	vertex 15.2899 38.8407 -25.9844
	vertex 14.5899 37.5135 -25.2125
endloop
endfacet
facet normal 0.9091071 -0.337945 0.2435515
outer loop
	vertex 14.5899 37.6013 -25.0908
	vertex 14.5899 37.5135 -25.2125
	vertex 15.2899 38.8407 -25.9844
endloop
endfacet
facet normal 1 0 0
outer loop
	vertex 15.29 45.2007 -10.9693
	vertex 15.29 45.2007 -10.8193
	vertex 15.29 43.6727 -10.9692
endloop
endfacet
facet normal 1 0 0
outer loop
	vertex 15.29 43.6727 -10.8192
	vertex 15.29 43.6727 -10.9692
	vertex 15.29 45.2007 -10.8193
endloop
endfacet
facet normal 0 -1 0
outer loop
	vertex 14.59 42.1447 -10.9692
	vertex 14.59 42.1447 -10.8192
	vertex 12.99 42.1447 -10.9692
endloop
endfacet
facet normal 0 -1 0
outer loop
	vertex 12.99 42.1447 -10.8192
	vertex 12.99 42.1447 -10.9692
	vertex 14.59 42.1447 -10.8192
endloop
endfacet
facet normal 0.9091418 -0.4164866 0
outer loop
	vertex 15.29 43.6727 -10.9692
	vertex 15.29 43.6727 -10.8192
	vertex 14.59 42.1447 -10.9692
endloop
endfacet
facet normal 0.9091418 -0.4164866 0
outer loop
	vertex 14.59 42.1447 -10.8192
	vertex 14.59 42.1447 -10.9692
	vertex 15.29 43.6727 -10.8192
endloop
endfacet
facet normal 0 0 -1
outer loop
	vertex 12.99 43.6727 7.03
	vertex 12.99 45.2008 7.03
	vertex 15.29 45.2008 7.03
endloop
endfacet
facet normal 0 0 -1
outer loop
	vertex 12.99 42.1447 7.03
	vertex 12.99 43.6727 7.03
	vertex 15.29 45.2008 7.03
endloop
endfacet
facet normal 0 0 -1
outer loop
	vertex 14.59 42.1447 7.03
	vertex 12.99 42.1447 7.03
	vertex 15.29 45.2008 7.03
endloop
endfacet
facet normal 0 0 -1
outer loop
	vertex 15.29 43.6727 7.03
	vertex 14.59 42.1447 7.03
	vertex 15.29 45.2008 7.03
endloop
endfacet
facet normal 0 0.3019336 -0.9533289
outer loop
	vertex 12.99 41.0255 20.4417
	vertex 12.9901 42.48199 20.9037
	vertex 14.59 41.0255 20.4417
endloop
endfacet
facet normal 0 0.3019336 -0.9533289
outer loop
	vertex 12.9901 42.48199 20.9037
	vertex 12.9901 43.9385 21.3656
	vertex 15.2901 43.9385 21.3656
endloop
endfacet
facet normal 0 0.3019336 -0.9533289
outer loop
	vertex 14.59 41.0255 20.4417
	vertex 12.9901 42.48199 20.9037
	vertex 15.2901 43.9385 21.3656
endloop
endfacet
facet normal 0 0.3019336 -0.9533289
outer loop
	vertex 15.2901 42.48199 20.9037
	vertex 14.59 41.0255 20.4417
	vertex 15.2901 43.9385 21.3656
endloop
endfacet
facet normal 0 0.5847505 -0.8112132
outer loop
	vertex 12.9901 38.8408 28.1952
	vertex 12.9901 40.0803 29.0888
	vertex 15.2901 40.0803 29.0888
endloop
endfacet
facet normal 0 0.5847505 -0.8112132
outer loop
	vertex 12.9901 37.6014 27.3017
	vertex 12.9901 38.8408 28.1952
	vertex 15.2901 40.0803 29.0888
endloop
endfacet
facet normal 0 0.584697 -0.8112518
outer loop
	vertex 14.5901 37.6014 27.3017
	vertex 12.9901 37.6014 27.3017
	vertex 15.2901 40.0803 29.0888
endloop
endfacet
facet normal 0 0.5847505 -0.8112132
outer loop
	vertex 15.2901 38.8408 28.1952
	vertex 14.5901 37.6014 27.3017
	vertex 15.2901 40.0803 29.0888
endloop
endfacet
facet normal 0 0 -1
outer loop
	vertex 12.99 43.6728 13.0301
	vertex 12.99 45.2008 13.0301
	vertex 15.29 45.2008 13.0301
endloop
endfacet
facet normal 0 0 -1
outer loop
	vertex 12.99 42.1448 13.0301
	vertex 12.99 43.6728 13.0301
	vertex 15.29 45.2008 13.0301
endloop
endfacet
facet normal 0 0 -1
outer loop
	vertex 14.59 42.1448 13.0301
	vertex 12.99 42.1448 13.0301
	vertex 15.29 45.2008 13.0301
endloop
endfacet
facet normal 0 0 -1
outer loop
	vertex 15.29 43.6728 13.0301
	vertex 14.59 42.1448 13.0301
	vertex 15.29 45.2008 13.0301
endloop
endfacet
facet normal 0 0 1
outer loop
	vertex 12.99 42.1447 7.18
	vertex 14.59 42.1447 7.18
	vertex 15.29 43.6727 7.18
endloop
endfacet
facet normal 0 0 1
outer loop
	vertex 12.99 43.6727 7.18
	vertex 12.99 42.1447 7.18
	vertex 15.29 43.6727 7.18
endloop
endfacet
facet normal 0 0 1
outer loop
	vertex 12.99 45.2008 7.18
	vertex 12.99 43.6727 7.18
	vertex 15.29 43.6727 7.18
endloop
endfacet
facet normal 0 0 1
outer loop
	vertex 15.29 45.2008 7.18
	vertex 12.99 45.2008 7.18
	vertex 15.29 43.6727 7.18
endloop
endfacet
facet normal 0 -0.3022294 0.9532352
outer loop
	vertex 12.99 40.98009 20.5847
	vertex 14.59 40.98009 20.5847
	vertex 15.2901 42.4366 21.0466
endloop
endfacet
facet normal 0 -0.3022529 0.9532278
outer loop
	vertex 12.9901 42.4366 21.0466
	vertex 12.99 40.98009 20.5847
	vertex 15.2901 42.4366 21.0466
endloop
endfacet
facet normal 0 -0.3022763 0.9532204
outer loop
	vertex 12.9901 43.8931 21.5086
	vertex 12.9901 42.4366 21.0466
	vertex 15.2901 42.4366 21.0466
endloop
endfacet
facet normal 0 -0.3022763 0.9532204
outer loop
	vertex 15.2901 43.8931 21.5086
	vertex 12.9901 43.8931 21.5086
	vertex 15.2901 42.4366 21.0466
endloop
endfacet
facet normal 0 -0.5847742 0.8111961
outer loop
	vertex 12.9901 37.5136 27.4233
	vertex 14.5901 37.5136 27.4233
	vertex 15.2901 38.7531 28.3169
endloop
endfacet
facet normal 0 -0.5847356 0.811224
outer loop
	vertex 12.9901 38.7531 28.3169
	vertex 12.9901 37.5136 27.4233
	vertex 15.2901 38.7531 28.3169
endloop
endfacet
facet normal 0 -0.5847505 0.8112132
outer loop
	vertex 12.9901 39.9926 29.2105
	vertex 12.9901 38.7531 28.3169
	vertex 15.2901 38.7531 28.3169
endloop
endfacet
facet normal 0 -0.5848041 0.8111746
outer loop
	vertex 15.2901 39.9926 29.2105
	vertex 12.9901 39.9926 29.2105
	vertex 15.2901 38.7531 28.3169
endloop
endfacet
facet normal 0 0 1
outer loop
	vertex 12.99 42.1448 13.1801
	vertex 14.59 42.1448 13.1801
	vertex 15.29 43.6728 13.1801
endloop
endfacet
facet normal 0 0 1
outer loop
	vertex 12.99 43.6728 13.1801
	vertex 12.99 42.1448 13.1801
	vertex 15.29 43.6728 13.1801
endloop
endfacet
facet normal 0 0 1
outer loop
	vertex 12.99 45.2008 13.1801
	vertex 12.99 43.6728 13.1801
	vertex 15.29 43.6728 13.1801
endloop
endfacet
facet normal 0 0 1
outer loop
	vertex 15.29 45.2008 13.1801
	vertex 12.99 45.2008 13.1801
	vertex 15.29 43.6728 13.1801
endloop
endfacet
facet normal 1 0 0
outer loop
	vertex 15.29 45.2008 7.18
	vertex 15.29 43.6727 7.18
	vertex 15.29 45.2008 7.03
endloop
endfacet
facet normal 1 0 0
outer loop
	vertex 15.29 43.6727 7.03
	vertex 15.29 45.2008 7.03
	vertex 15.29 43.6727 7.18
endloop
endfacet
facet normal 0 -1 0
outer loop
	vertex 14.59 42.1447 7.18
	vertex 12.99 42.1447 7.18
	vertex 14.59 42.1447 7.03
endloop
endfacet
facet normal 0 -1 0
outer loop
	vertex 12.99 42.1447 7.03
	vertex 14.59 42.1447 7.03
	vertex 12.99 42.1447 7.18
endloop
endfacet
facet normal 0.9091418 -0.4164866 0
outer loop
	vertex 15.29 43.6727 7.18
	vertex 14.59 42.1447 7.18
	vertex 15.29 43.6727 7.03
endloop
endfacet
facet normal 0.9091418 -0.4164866 0
outer loop
	vertex 14.59 42.1447 7.03
	vertex 15.29 43.6727 7.03
	vertex 14.59 42.1447 7.18
endloop
endfacet
facet normal 1 0 0
outer loop
	vertex 15.2901 43.8931 21.5086
	vertex 15.2901 42.4366 21.0466
	vertex 15.2901 43.9385 21.3656
endloop
endfacet
facet normal 1 0 0
outer loop
	vertex 15.2901 42.48199 20.9037
	vertex 15.2901 43.9385 21.3656
	vertex 15.2901 42.4366 21.0466
endloop
endfacet
facet normal 0 -0.9531084 -0.302629
outer loop
	vertex 14.59 40.98009 20.5847
	vertex 12.99 40.98009 20.5847
	vertex 14.59 41.0255 20.4417
endloop
endfacet
facet normal 0 -0.9531116 -0.302619
outer loop
	vertex 12.99 41.0255 20.4417
	vertex 14.59 41.0255 20.4417
	vertex 12.99 40.98009 20.5847
endloop
endfacet
facet normal 0.9090821 -0.3970928 -0.1260444
outer loop
	vertex 15.2901 42.4366 21.0466
	vertex 14.59 40.98009 20.5847
	vertex 15.2901 42.48199 20.9037
endloop
endfacet
facet normal 0.9090867 -0.3970948 -0.1260044
outer loop
	vertex 14.59 41.0255 20.4417
	vertex 15.2901 42.48199 20.9037
	vertex 14.59 40.98009 20.5847
endloop
endfacet
facet normal 1 0 0
outer loop
	vertex 15.2901 39.9926 29.2105
	vertex 15.2901 38.7531 28.3169
	vertex 15.2901 40.0803 29.0888
endloop
endfacet
facet normal 1 0 0
outer loop
	vertex 15.2901 38.8408 28.1952
	vertex 15.2901 40.0803 29.0888
	vertex 15.2901 38.7531 28.3169
endloop
endfacet
facet normal 0 -0.8110139 -0.585027
outer loop
	vertex 14.5901 37.5136 27.4233
	vertex 12.9901 37.5136 27.4233
	vertex 14.5901 37.6014 27.3017
endloop
endfacet
facet normal 0 -0.8109753 -0.5850804
outer loop
	vertex 12.9901 37.6014 27.3017
	vertex 14.5901 37.6014 27.3017
	vertex 12.9901 37.5136 27.4233
endloop
endfacet
facet normal 0.9091321 -0.3378729 -0.2435582
outer loop
	vertex 15.2901 38.7531 28.3169
	vertex 14.5901 37.5136 27.4233
	vertex 15.2901 38.8408 28.1952
endloop
endfacet
facet normal 0.9090891 -0.3379383 -0.2436281
outer loop
	vertex 14.5901 37.6014 27.3017
	vertex 15.2901 38.8408 28.1952
	vertex 14.5901 37.5136 27.4233
endloop
endfacet
facet normal 1 0 0
outer loop
	vertex 15.29 45.2008 13.1801
	vertex 15.29 43.6728 13.1801
	vertex 15.29 45.2008 13.0301
endloop
endfacet
facet normal 1 0 0
outer loop
	vertex 15.29 43.6728 13.0301
	vertex 15.29 45.2008 13.0301
	vertex 15.29 43.6728 13.1801
endloop
endfacet
facet normal 0 -1 0
outer loop
	vertex 14.59 42.1448 13.1801
	vertex 12.99 42.1448 13.1801
	vertex 14.59 42.1448 13.0301
endloop
endfacet
facet normal 0 -1 0
outer loop
	vertex 12.99 42.1448 13.0301
	vertex 14.59 42.1448 13.0301
	vertex 12.99 42.1448 13.1801
endloop
endfacet
facet normal 0.9091418 -0.4164866 0
outer loop
	vertex 15.29 43.6728 13.1801
	vertex 14.59 42.1448 13.1801
	vertex 15.29 43.6728 13.0301
endloop
endfacet
facet normal 0.9091418 -0.4164866 0
outer loop
	vertex 14.59 42.1448 13.0301
	vertex 15.29 43.6728 13.0301
	vertex 14.59 42.1448 13.1801
endloop
endfacet
facet normal 0 0.2413674 0.9704338
outer loop
	vertex 12.4995 44.6113 -17.0532
	vertex 12.4995 51.52679 -18.7751
	vertex 9.9995 44.6113 -17.0532
endloop
endfacet
facet normal 0 0.2413674 0.9704338
outer loop
	vertex 9.9995 51.5267 -18.7753
	vertex 9.9995 44.6113 -17.0532
	vertex 12.4995 51.52679 -18.7751
endloop
endfacet
facet normal 0 -0.1171954 -0.9931089
outer loop
	vertex 9.9995 45.1996 -13.3506
	vertex 9.9995 52.277 -14.1862
	vertex 12.4995 45.1996 -13.3506
endloop
endfacet
facet normal 0 -0.1171954 -0.9931089
outer loop
	vertex 12.4995 52.277 -14.1862
	vertex 12.4995 45.1996 -13.3506
	vertex 9.9995 52.277 -14.1862
endloop
endfacet
facet normal -1 0 0
outer loop
	vertex 12.4995 51.52679 -18.7751
	vertex 12.4995 44.6113 -17.0532
	vertex 12.4995 51.6552 -18.2448
endloop
endfacet
facet normal -1 0 0
outer loop
	vertex 12.4995 44.6888 -16.7422
	vertex 12.4995 51.6552 -18.2448
	vertex 12.4995 44.6113 -17.0532
endloop
endfacet
facet normal -1 0 0
outer loop
	vertex 12.4995 51.6552 -18.2448
	vertex 12.4995 44.6888 -16.7422
	vertex 12.4995 52.0479 -16.0967
endloop
endfacet
facet normal -1 0 0
outer loop
	vertex 12.4995 45.0005 -15.0375
	vertex 12.4995 52.0479 -16.0967
	vertex 12.4995 44.6888 -16.7422
endloop
endfacet
facet normal -1 0 0
outer loop
	vertex 12.4995 52.0479 -16.0967
	vertex 12.4995 45.0005 -15.0375
	vertex 12.4995 52.277 -14.1862
endloop
endfacet
facet normal -1 0 0
outer loop
	vertex 12.4995 45.1996 -13.3506
	vertex 12.4995 52.277 -14.1862
	vertex 12.4995 45.0005 -15.0375
endloop
endfacet
facet normal 0 -0.9676602 0.2518059
outer loop
	vertex 9.9995 44.6113 -17.0532
	vertex 9.9995 44.269 -18.4282
	vertex 12.4995 44.6113 -17.0532
endloop
endfacet
facet normal 0 -0.9649202 0.26211
outer loop
	vertex 12.4995 44.269 -18.4282
	vertex 12.4995 44.6113 -17.0532
	vertex 9.9995 44.269 -18.4282
endloop
endfacet
facet normal 0 -0.9557978 0.292509
outer loop
	vertex 9.9995 44.269 -18.4282
	vertex 9.9995 43.7419 -20.0884
	vertex 12.4995 44.269 -18.4282
endloop
endfacet
facet normal 0 -0.9494154 0.3126039
outer loop
	vertex 12.4995 43.7419 -20.0884
	vertex 12.4995 44.269 -18.4282
	vertex 9.9995 43.7419 -20.0884
endloop
endfacet
facet normal 0 -0.9353895 0.3523586
outer loop
	vertex 9.9995 43.7419 -20.0884
	vertex 9.9995 43.1137 -21.7044
	vertex 12.4995 43.7419 -20.0884
endloop
endfacet
facet normal 0 -0.9277459 0.3720185
outer loop
	vertex 12.4995 43.1137 -21.7044
	vertex 12.4995 43.7419 -20.0884
	vertex 9.9995 43.1137 -21.7044
endloop
endfacet
facet normal 0 -0.9112175 0.410841
outer loop
	vertex 9.9995 43.1137 -21.7044
	vertex 9.9995 42.3827 -23.2816
	vertex 12.4995 43.1137 -21.7044
endloop
endfacet
facet normal 0 -0.9023328 0.4300038
outer loop
	vertex 12.4995 42.3827 -23.2816
	vertex 12.4995 43.1137 -21.7044
	vertex 9.9995 42.3827 -23.2816
endloop
endfacet
facet normal 0 -0.8833693 0.467725
outer loop
	vertex 9.9995 42.3827 -23.2816
	vertex 9.9995 41.5522 -24.8113
	vertex 12.4995 42.3827 -23.2816
endloop
endfacet
facet normal 0 -0.8732904 0.4862836
outer loop
	vertex 12.4995 41.5522 -24.8113
	vertex 12.4995 42.3827 -23.2816
	vertex 9.9995 41.5522 -24.8113
endloop
endfacet
facet normal 0 -0.8519449 0.5227741
outer loop
	vertex 9.9995 41.5522 -24.8113
	vertex 9.9995 40.6216 -26.2924
	vertex 12.4995 41.5522 -24.8113
endloop
endfacet
facet normal 0 -0.8406783 0.5407061
outer loop
	vertex 12.4995 40.6216 -26.2924
	vertex 12.4995 41.5522 -24.8113
	vertex 9.9995 40.6216 -26.2924
endloop
endfacet
facet normal 0 -0.817037 0.5758078
outer loop
	vertex 9.9995 40.6216 -26.2924
	vertex 9.9995 39.6037 -27.7044
	vertex 12.4995 40.6216 -26.2924
endloop
endfacet
facet normal 0 -0.8046626 0.5929776
outer loop
	vertex 12.4995 39.6037 -27.7044
	vertex 12.4995 40.6216 -26.2924
	vertex 9.9995 39.6037 -27.7044
endloop
endfacet
facet normal 0 -0.7788845 0.6264564
outer loop
	vertex 9.9995 39.6037 -27.7044
	vertex 9.9995 38.4991 -29.0484
	vertex 12.4995 39.6037 -27.7044
endloop
endfacet
facet normal 0 -0.765481 0.6427655
outer loop
	vertex 12.4995 38.4991 -29.0484
	vertex 12.4995 39.6037 -27.7044
	vertex 9.9995 38.4991 -29.0484
endloop
endfacet
facet normal 0 -0.7449672 0.6669327
outer loop
	vertex 9.9995 38.4991 -29.0484
	vertex 9.9995 37.316 -30.3152
	vertex 12.4995 38.4991 -29.0484
endloop
endfacet
facet normal 0 -0.7378569 0.6747907
outer loop
	vertex 12.4995 37.316 -30.3152
	vertex 12.4995 38.4991 -29.0484
	vertex 9.9995 37.316 -30.3152
endloop
endfacet
facet normal 0 -0.9915065 0.1292492
outer loop
	vertex 9.9995 52.277 -14.1862
	vertex 9.9995 52.0479 -16.0967
	vertex 12.4995 52.277 -14.1862
endloop
endfacet
facet normal 0 -0.9901316 0.1393917
outer loop
	vertex 12.4995 52.0479 -16.0967
	vertex 12.4995 52.277 -14.1862
	vertex 9.9995 52.0479 -16.0967
endloop
endfacet
facet normal 0 -0.9852286 0.1689543
outer loop
	vertex 9.9995 52.0479 -16.0967
	vertex 9.9995 51.6551 -18.2449
	vertex 12.4995 52.0479 -16.0967
endloop
endfacet
facet normal 0 -0.9817005 0.1883744
outer loop
	vertex 12.4995 51.6552 -18.2448
	vertex 12.4995 52.0479 -16.0967
	vertex 9.9995 51.6551 -18.2449
endloop
endfacet
facet normal 0 -0.9760809 0.2169978
outer loop
	vertex 12.4995 51.6552 -18.2448
	vertex 9.9995 51.6551 -18.2449
	vertex 12.4995 51.52679 -18.7751
endloop
endfacet
facet normal 0 -0.9739982 0.2261638
outer loop
	vertex 9.9995 51.5267 -18.7753
	vertex 12.4995 51.52679 -18.7751
	vertex 9.9995 51.6551 -18.2449
endloop
endfacet
facet normal 0 -0.994177 0.1067157
outer loop
	vertex 9.9995 45.1996 -13.3506
	vertex 12.4995 45.1996 -13.3506
	vertex 9.9995 45.2048 -13.307
endloop
endfacet
facet normal 0 -0.9952502 0.09619343
outer loop
	vertex 12.4995 45.2048 -13.307
	vertex 9.9995 45.2048 -13.307
	vertex 12.4995 45.1996 -13.3506
endloop
endfacet
facet normal 0 -0.9970661 0.07504994
outer loop
	vertex 12.4995 45.2048 -13.307
	vertex 12.4995 45.2958 -11.6207
	vertex 9.9995 45.2048 -13.307
endloop
endfacet
facet normal 0 -0.9978087 0.06442875
outer loop
	vertex 9.9995 45.2958 -11.6207
	vertex 9.9995 45.2048 -13.307
	vertex 12.4995 45.2958 -11.6207
endloop
endfacet
facet normal 0 0 -1
outer loop
	vertex 12.4995 45.2958 3.2166
	vertex 9.9995 45.2958 3.2166
	vertex 12.4995 52.4224 3.2165
endloop
endfacet
facet normal 0 0 -1
outer loop
	vertex 9.9995 52.4224 3.2166
	vertex 12.4995 52.4224 3.2165
	vertex 9.9995 45.2958 3.2166
endloop
endfacet
facet normal 0 0 1
outer loop
	vertex 9.9995 45.2958 -0.9833999
	vertex 12.4995 45.2958 -0.9833999
	vertex 9.9995 52.4224 -0.9833999
endloop
endfacet
facet normal 0 0 1
outer loop
	vertex 12.4995 52.4224 -0.9834999
	vertex 9.9995 52.4224 -0.9833999
	vertex 12.4995 45.2958 -0.9833999
endloop
endfacet
facet normal -1 0 0
outer loop
	vertex 12.4995 45.2958 -0.9833999
	vertex 12.4995 45.2958 3.2166
	vertex 12.4995 52.4224 -0.9834999
endloop
endfacet
facet normal -1 0 0
outer loop
	vertex 12.4995 52.4224 3.2165
	vertex 12.4995 52.4224 -0.9834999
	vertex 12.4995 45.2958 3.2166
endloop
endfacet
facet normal 0 0.2413674 -0.9704338
outer loop
	vertex 12.4995 44.6113 19.2642
	vertex 9.9995 44.6113 19.2642
	vertex 12.4995 51.52679 20.9861
endloop
endfacet
facet normal 0 0.2413674 -0.9704338
outer loop
	vertex 9.9995 51.5267 20.9863
	vertex 12.4995 51.52679 20.9861
	vertex 9.9995 44.6113 19.2642
endloop
endfacet
facet normal 0 -0.1171812 0.9931105
outer loop
	vertex 9.9995 45.1996 15.5616
	vertex 12.4995 45.1996 15.5616
	vertex 9.9995 52.277 16.3973
endloop
endfacet
facet normal 0 -0.1171812 0.9931105
outer loop
	vertex 12.4995 52.277 16.3973
	vertex 9.9995 52.277 16.3973
	vertex 12.4995 45.1996 15.5616
endloop
endfacet
facet normal -1 0 0
outer loop
	vertex 12.4995 51.52679 20.9861
	vertex 12.4995 51.6552 20.4558
	vertex 12.4995 44.6113 19.2642
endloop
endfacet
facet normal -1 0 0
outer loop
	vertex 12.4995 44.6888 18.9532
	vertex 12.4995 44.6113 19.2642
	vertex 12.4995 51.6552 20.4558
endloop
endfacet
facet normal -1 0 0
outer loop
	vertex 12.4995 51.6552 20.4558
	vertex 12.4995 52.0479 18.3078
	vertex 12.4995 44.6888 18.9532
endloop
endfacet
facet normal -1 0 0
outer loop
	vertex 12.4995 45.0005 17.2485
	vertex 12.4995 44.6888 18.9532
	vertex 12.4995 52.0479 18.3078
endloop
endfacet
facet normal -1 0 0
outer loop
	vertex 12.4995 52.0479 18.3078
	vertex 12.4995 52.277 16.3973
	vertex 12.4995 45.0005 17.2485
endloop
endfacet
facet normal -1 0 0
outer loop
	vertex 12.4995 45.1996 15.5616
	vertex 12.4995 45.0005 17.2485
	vertex 12.4995 52.277 16.3973
endloop
endfacet
facet normal 0 -1 0
outer loop
	vertex 12.4995 52.4224 3.2165
	vertex 9.9995 52.4224 3.2166
	vertex 12.4995 52.4224 -0.9834999
endloop
endfacet
facet normal 0 -1 0
outer loop
	vertex 9.9995 52.4224 -0.9833999
	vertex 12.4995 52.4224 -0.9834999
	vertex 9.9995 52.4224 3.2166
endloop
endfacet
facet normal 0 -0.9676306 -0.2519202
outer loop
	vertex 9.9995 44.6113 19.2642
	vertex 12.4995 44.6113 19.2642
	vertex 9.9995 44.269 20.6393
endloop
endfacet
facet normal 0 -0.9648893 -0.2622237
outer loop
	vertex 12.4995 44.269 20.6393
	vertex 9.9995 44.269 20.6393
	vertex 12.4995 44.6113 19.2642
endloop
endfacet
facet normal 0 -0.9557892 -0.2925482
outer loop
	vertex 9.9995 44.269 20.6393
	vertex 12.4995 44.269 20.6393
	vertex 9.9995 43.7419 22.2994
endloop
endfacet
facet normal 0 -0.9494303 -0.3125692
outer loop
	vertex 12.4995 43.7419 22.2994
	vertex 9.9995 43.7419 22.2994
	vertex 12.4995 44.269 20.6393
endloop
endfacet
facet normal 0 -0.935415 -0.3522862
outer loop
	vertex 9.9995 43.7419 22.2994
	vertex 12.4995 43.7419 22.2994
	vertex 9.9995 43.1137 23.9154
endloop
endfacet
facet normal 0 -0.9277586 -0.3719823
outer loop
	vertex 12.4995 43.1137 23.9154
	vertex 9.9995 43.1137 23.9154
	vertex 12.4995 43.7419 22.2994
endloop
endfacet
facet normal 0 -0.9112175 -0.410841
outer loop
	vertex 9.9995 43.1137 23.9154
	vertex 12.4995 43.1137 23.9154
	vertex 9.9995 42.3827 25.4927
endloop
endfacet
facet normal 0 -0.9023328 -0.4300038
outer loop
	vertex 12.4995 42.3827 25.4927
	vertex 9.9995 42.3827 25.4927
	vertex 12.4995 43.1137 23.9154
endloop
endfacet
facet normal 0 -0.8833693 -0.467725
outer loop
	vertex 9.9995 42.3827 25.4927
	vertex 12.4995 42.3827 25.4927
	vertex 9.9995 41.5522 27.0224
endloop
endfacet
facet normal 0 -0.8732904 -0.4862836
outer loop
	vertex 12.4995 41.5522 27.0224
	vertex 9.9995 41.5522 27.0224
	vertex 12.4995 42.3827 25.4927
endloop
endfacet
facet normal 0 -0.8519449 -0.5227741
outer loop
	vertex 9.9995 41.5522 27.0224
	vertex 12.4995 41.5522 27.0224
	vertex 9.9995 40.6216 28.5034
endloop
endfacet
facet normal 0 -0.8406783 -0.5407061
outer loop
	vertex 12.4995 40.6216 28.5034
	vertex 9.9995 40.6216 28.5034
	vertex 12.4995 41.5522 27.0224
endloop
endfacet
facet normal 0 -0.817037 -0.5758078
outer loop
	vertex 9.9995 40.6216 28.5034
	vertex 12.4995 40.6216 28.5034
	vertex 9.9995 39.6037 29.9155
endloop
endfacet
facet normal 0 -0.8046626 -0.5929776
outer loop
	vertex 12.4995 39.6037 29.9155
	vertex 9.9995 39.6037 29.9155
	vertex 12.4995 40.6216 28.5034
endloop
endfacet
facet normal 0 -0.7788845 -0.6264564
outer loop
	vertex 9.9995 39.6037 29.9155
	vertex 12.4995 39.6037 29.9155
	vertex 9.9995 38.4991 31.2595
endloop
endfacet
facet normal 0 -0.765481 -0.6427655
outer loop
	vertex 12.4995 38.4991 31.2595
	vertex 9.9995 38.4991 31.2595
	vertex 12.4995 39.6037 29.9155
endloop
endfacet
facet normal 0 -0.7450078 -0.6668892
outer loop
	vertex 9.9995 38.4991 31.2595
	vertex 12.4995 38.4991 31.2595
	vertex 9.9995 37.316 32.5262
endloop
endfacet
facet normal 0 -0.7379381 -0.6747038
outer loop
	vertex 12.4995 37.316 32.5262
	vertex 9.9995 37.316 32.5262
	vertex 12.4995 38.4991 31.2595
endloop
endfacet
facet normal 0 -0.9915161 -0.129169
outer loop
	vertex 9.9995 52.277 16.3973
	vertex 12.4995 52.277 16.3973
	vertex 9.9995 52.0479 18.3078
endloop
endfacet
facet normal 0 -0.9901364 -0.1393516
outer loop
	vertex 12.4995 52.0479 18.3078
	vertex 9.9995 52.0479 18.3078
	vertex 12.4995 52.277 16.3973
endloop
endfacet
facet normal 0 -0.9852368 -0.1689153
outer loop
	vertex 9.9995 52.0479 18.3078
	vertex 12.4995 52.0479 18.3078
	vertex 9.9995 51.6551 20.4559
endloop
endfacet
facet normal 0 -0.9817088 -0.1883355
outer loop
	vertex 12.4995 51.6552 20.4558
	vertex 9.9995 51.6551 20.4559
	vertex 12.4995 52.0479 18.3078
endloop
endfacet
facet normal 0 -0.9760891 -0.2169588
outer loop
	vertex 12.4995 51.6552 20.4558
	vertex 12.4995 51.52679 20.9861
	vertex 9.9995 51.6551 20.4559
endloop
endfacet
facet normal 0 -0.9740065 -0.2261249
outer loop
	vertex 9.9995 51.5267 20.9863
	vertex 9.9995 51.6551 20.4559
	vertex 12.4995 51.52679 20.9861
endloop
endfacet
facet normal 0 -0.9998786 -0.00899363
outer loop
	vertex 9.9995 45.2958 3.2166
	vertex 12.4995 45.2958 3.2166
	vertex 9.9995 45.2958 13.8317
endloop
endfacet
facet normal 0 -0.9997573 -0.01798726
outer loop
	vertex 12.4995 45.2958 13.8317
	vertex 9.9995 45.2958 13.8317
	vertex 12.4995 45.2958 3.2166
endloop
endfacet
facet normal 0 -0.9985352 -0.04650392
outer loop
	vertex 9.9995 45.2958 13.8317
	vertex 12.4995 45.2958 13.8317
	vertex 9.9995 45.2048 15.5181
endloop
endfacet
facet normal 0 -0.9974346 -0.06602695
outer loop
	vertex 12.4995 45.2048 15.5181
	vertex 9.9995 45.2048 15.5181
	vertex 12.4995 45.2958 13.8317
endloop
endfacet
facet normal 0 -0.9952619 -0.09607251
outer loop
	vertex 12.4995 45.2048 15.5181
	vertex 12.4995 45.1996 15.5616
	vertex 9.9995 45.2048 15.5181
endloop
endfacet
facet normal 0 -0.99419 -0.106595
outer loop
	vertex 9.9995 45.1996 15.5616
	vertex 9.9995 45.2048 15.5181
	vertex 12.4995 45.1996 15.5616
endloop
endfacet
facet normal 0 -1 0
outer loop
	vertex 9.9995 45.2958 -0.9833999
	vertex 9.9995 45.2958 -11.6199
	vertex 12.4995 45.2958 -0.9833999
endloop
endfacet
facet normal 0 -1 0
outer loop
	vertex 12.4995 45.2958 -11.6199
	vertex 12.4995 45.2958 -0.9833999
	vertex 9.9995 45.2958 -11.6199
endloop
endfacet
endsolid Props_Props_0_Object035_0
