solid Props_Props_0_Bqcd_03_0
facet normal 1 0 0
outer loop
	vertex 2.2 29.2751 10.0188
	vertex 2.2 29.3486 10.0612
	vertex 2.2 29.2327 10.0923
endloop
endfacet
facet normal 1 0 0
outer loop
	vertex 2.2 29.3486 10.0612
	vertex 2.2 29.3062 10.1347
	vertex 2.2 29.2327 10.0923
endloop
endfacet
facet normal -1 0 0
outer loop
	vertex 1 29.2327 10.0923
	vertex 1 29.3062 10.1347
	vertex 1 29.2751 10.0188
endloop
endfacet
facet normal -1 0 0
outer loop
	vertex 1 29.3062 10.1347
	vertex 1 29.3486 10.0612
	vertex 1 29.2751 10.0188
endloop
endfacet
facet normal 0 0.8659701 0.5000958
outer loop
	vertex 2.2 29.3062 10.1347
	vertex 2.2 29.3486 10.0612
	vertex 1 29.3062 10.1347
endloop
endfacet
facet normal 0 0.8659904 0.5000606
outer loop
	vertex 2.2 29.3486 10.0612
	vertex 1 29.3486 10.0612
	vertex 1 29.3062 10.1347
endloop
endfacet
facet normal 0 -0.499999 0.866026
outer loop
	vertex 2.2 29.2327 10.0923
	vertex 2.2 29.3062 10.1347
	vertex 1 29.2327 10.0923
endloop
endfacet
facet normal 0 -0.499999 0.866026
outer loop
	vertex 2.2 29.3062 10.1347
	vertex 1 29.3062 10.1347
	vertex 1 29.2327 10.0923
endloop
endfacet
facet normal 0 -0.8659931 -0.5000559
outer loop
	vertex 2.2 29.2751 10.0188
	vertex 2.2 29.2327 10.0923
	vertex 1 29.2751 10.0188
endloop
endfacet
facet normal 0 -0.866002 -0.5000406
outer loop
	vertex 2.2 29.2327 10.0923
	vertex 1 29.2327 10.0923
	vertex 1 29.2751 10.0188
endloop
endfacet
facet normal 0 0.4998681 -0.8661016
outer loop
	vertex 2.2 29.3486 10.0612
	vertex 2.2 29.2751 10.0188
	vertex 1 29.3486 10.0612
endloop
endfacet
facet normal 0 0.4999203 -0.8660714
outer loop
	vertex 2.2 29.2751 10.0188
	vertex 1 29.2751 10.0188
	vertex 1 29.3486 10.0612
endloop
endfacet
facet normal 1 0 0
outer loop
	vertex 2.2 28.1974 11.6768
	vertex 2.2 28.2709 11.7193
	vertex 2.2 28.155 11.7503
endloop
endfacet
facet normal 1 0 0
outer loop
	vertex 2.2 28.2709 11.7193
	vertex 2.2 28.2285 11.7928
	vertex 2.2 28.155 11.7503
endloop
endfacet
facet normal -1 0 0
outer loop
	vertex 1 28.155 11.7503
	vertex 1 28.2285 11.7928
	vertex 1 28.1974 11.6768
endloop
endfacet
facet normal -1 0 0
outer loop
	vertex 1 28.2285 11.7928
	vertex 1 28.2709 11.7193
	vertex 1 28.1974 11.6768
endloop
endfacet
facet normal 0 0.8660108 0.5000253
outer loop
	vertex 2.2 28.2285 11.7928
	vertex 2.2 28.2709 11.7193
	vertex 1 28.2285 11.7928
endloop
endfacet
facet normal 0 0.8660108 0.5000253
outer loop
	vertex 2.2 28.2709 11.7193
	vertex 1 28.2709 11.7193
	vertex 1 28.2285 11.7928
endloop
endfacet
facet normal 0 -0.499868 0.8661016
outer loop
	vertex 2.2 28.155 11.7503
	vertex 2.2 28.2285 11.7928
	vertex 1 28.155 11.7503
endloop
endfacet
facet normal 0 -0.4999467 0.8660561
outer loop
	vertex 2.2 28.2285 11.7928
	vertex 1 28.2285 11.7928
	vertex 1 28.155 11.7503
endloop
endfacet
facet normal 0 -0.8660108 -0.5000253
outer loop
	vertex 2.2 28.1974 11.6768
	vertex 2.2 28.155 11.7503
	vertex 1 28.1974 11.6768
endloop
endfacet
facet normal 0 -0.8660108 -0.5000253
outer loop
	vertex 2.2 28.155 11.7503
	vertex 1 28.155 11.7503
	vertex 1 28.1974 11.6768
endloop
endfacet
facet normal 0 0.4999291 -0.8660663
outer loop
	vertex 2.2 28.2709 11.7193
	vertex 2.2 28.1974 11.6768
	vertex 1 28.2709 11.7193
endloop
endfacet
facet normal 0 0.4998857 -0.8660914
outer loop
	vertex 2.2 28.1974 11.6768
	vertex 1 28.1974 11.6768
	vertex 1 28.2709 11.7193
endloop
endfacet
facet normal 1 0 0
outer loop
	vertex 2.2 26.7109 12.9699
	vertex 2.2 26.7844 13.0123
	vertex 2.2 26.6685 13.0434
endloop
endfacet
facet normal 1 0 0
outer loop
	vertex 2.2 26.7844 13.0123
	vertex 2.2 26.742 13.0858
	vertex 2.2 26.6685 13.0434
endloop
endfacet
facet normal -1 0 0
outer loop
	vertex 1 26.6685 13.0434
	vertex 1 26.742 13.0858
	vertex 1 26.7109 12.9699
endloop
endfacet
facet normal -1 0 0
outer loop
	vertex 1 26.742 13.0858
	vertex 1 26.7844 13.0123
	vertex 1 26.7109 12.9699
endloop
endfacet
facet normal 0 0.8660108 0.5000253
outer loop
	vertex 2.2 26.742 13.0858
	vertex 2.2 26.7844 13.0123
	vertex 1 26.742 13.0858
endloop
endfacet
facet normal 0 0.8660108 0.5000253
outer loop
	vertex 2.2 26.7844 13.0123
	vertex 1 26.7844 13.0123
	vertex 1 26.742 13.0858
endloop
endfacet
facet normal 0 -0.4999291 0.8660663
outer loop
	vertex 2.2 26.6685 13.0434
	vertex 2.2 26.742 13.0858
	vertex 1 26.6685 13.0434
endloop
endfacet
facet normal 0 -0.4998857 0.8660914
outer loop
	vertex 2.2 26.742 13.0858
	vertex 1 26.742 13.0858
	vertex 1 26.6685 13.0434
endloop
endfacet
facet normal 0 -0.8659701 -0.5000958
outer loop
	vertex 2.2 26.7109 12.9699
	vertex 2.2 26.6685 13.0434
	vertex 1 26.7109 12.9699
endloop
endfacet
facet normal 0 -0.8659904 -0.5000606
outer loop
	vertex 2.2 26.6685 13.0434
	vertex 1 26.6685 13.0434
	vertex 1 26.7109 12.9699
endloop
endfacet
facet normal 0 0.499868 -0.8661016
outer loop
	vertex 2.2 26.7844 13.0123
	vertex 2.2 26.7109 12.9699
	vertex 1 26.7844 13.0123
endloop
endfacet
facet normal 0 0.4999467 -0.8660561
outer loop
	vertex 2.2 26.7109 12.9699
	vertex 1 26.7109 12.9699
	vertex 1 26.7844 13.0123
endloop
endfacet
facet normal 1 0 0
outer loop
	vertex 2.2 24.9033 13.8102
	vertex 2.2 24.9768 13.8527
	vertex 2.2 24.8609 13.8837
endloop
endfacet
facet normal 1 0 0
outer loop
	vertex 2.2 24.9768 13.8527
	vertex 2.2 24.9344 13.9261
	vertex 2.2 24.8609 13.8837
endloop
endfacet
facet normal -1 0 0
outer loop
	vertex 1 24.8609 13.8837
	vertex 1 24.9344 13.9261
	vertex 1 24.9033 13.8102
endloop
endfacet
facet normal -1 0 0
outer loop
	vertex 1 24.9344 13.9261
	vertex 1 24.9768 13.8527
	vertex 1 24.9033 13.8102
endloop
endfacet
facet normal 0 0.8660108 0.5000253
outer loop
	vertex 2.2 24.9344 13.9261
	vertex 2.2 24.9768 13.8527
	vertex 1 24.9344 13.9261
endloop
endfacet
facet normal 0 0.8660108 0.5000253
outer loop
	vertex 2.2 24.9768 13.8527
	vertex 1 24.9768 13.8527
	vertex 1 24.9344 13.9261
endloop
endfacet
facet normal 0 -0.4999291 0.8660663
outer loop
	vertex 2.2 24.8609 13.8837
	vertex 2.2 24.9344 13.9261
	vertex 1 24.8609 13.8837
endloop
endfacet
facet normal 0 -0.4998857 0.8660914
outer loop
	vertex 2.2 24.9344 13.9261
	vertex 1 24.9344 13.9261
	vertex 1 24.8609 13.8837
endloop
endfacet
facet normal 0 -0.8659701 -0.5000958
outer loop
	vertex 2.2 24.9033 13.8102
	vertex 2.2 24.8609 13.8837
	vertex 1 24.9033 13.8102
endloop
endfacet
facet normal 0 -0.8659904 -0.5000606
outer loop
	vertex 2.2 24.8609 13.8837
	vertex 1 24.8609 13.8837
	vertex 1 24.9033 13.8102
endloop
endfacet
facet normal 0 0.4998857 -0.8660914
outer loop
	vertex 2.2 24.9768 13.8527
	vertex 2.2 24.9033 13.8102
	vertex 1 24.9768 13.8527
endloop
endfacet
facet normal 0 0.4999291 -0.8660663
outer loop
	vertex 2.2 24.9033 13.8102
	vertex 1 24.9033 13.8102
	vertex 1 24.9768 13.8527
endloop
endfacet
facet normal 1 0 0
outer loop
	vertex 2.2 -25.1579 13.8102
	vertex 2.2 -25.0845 13.8527
	vertex 2.2 -25.2004 13.8837
endloop
endfacet
facet normal 1 0 0
outer loop
	vertex 2.2 -25.0845 13.8527
	vertex 2.2 -25.1269 13.9261
	vertex 2.2 -25.2004 13.8837
endloop
endfacet
facet normal -1 0 0
outer loop
	vertex 1 -25.2004 13.8837
	vertex 1 -25.1269 13.9261
	vertex 1 -25.1579 13.8102
endloop
endfacet
facet normal -1 0 0
outer loop
	vertex 1 -25.1269 13.9261
	vertex 1 -25.0845 13.8527
	vertex 1 -25.1579 13.8102
endloop
endfacet
facet normal 0 0.8660108 0.5000253
outer loop
	vertex 2.2 -25.1269 13.9261
	vertex 2.2 -25.0845 13.8527
	vertex 1 -25.1269 13.9261
endloop
endfacet
facet normal 0 0.8660108 0.5000253
outer loop
	vertex 2.2 -25.0845 13.8527
	vertex 1 -25.0845 13.8527
	vertex 1 -25.1269 13.9261
endloop
endfacet
facet normal 0 -0.499868 0.8661016
outer loop
	vertex 2.2 -25.2004 13.8837
	vertex 2.2 -25.1269 13.9261
	vertex 1 -25.2004 13.8837
endloop
endfacet
facet normal 0 -0.4999467 0.8660561
outer loop
	vertex 2.2 -25.1269 13.9261
	vertex 1 -25.1269 13.9261
	vertex 1 -25.2004 13.8837
endloop
endfacet
facet normal 0 -0.8659904 -0.5000606
outer loop
	vertex 2.2 -25.1579 13.8102
	vertex 2.2 -25.2004 13.8837
	vertex 1 -25.1579 13.8102
endloop
endfacet
facet normal 0 -0.8659701 -0.5000958
outer loop
	vertex 2.2 -25.2004 13.8837
	vertex 1 -25.2004 13.8837
	vertex 1 -25.1579 13.8102
endloop
endfacet
facet normal 0 0.5000077 -0.8660209
outer loop
	vertex 2.2 -25.0845 13.8527
	vertex 2.2 -25.1579 13.8102
	vertex 1 -25.0845 13.8527
endloop
endfacet
facet normal 0 0.4999901 -0.8660311
outer loop
	vertex 2.2 -25.1579 13.8102
	vertex 1 -25.1579 13.8102
	vertex 1 -25.0845 13.8527
endloop
endfacet
facet normal 1 0 0
outer loop
	vertex 2.2 -26.9656 12.9699
	vertex 2.2 -26.8921 13.0123
	vertex 2.2 -27.008 13.0434
endloop
endfacet
facet normal 1 0 0
outer loop
	vertex 2.2 -26.8921 13.0123
	vertex 2.2 -26.9345 13.0858
	vertex 2.2 -27.008 13.0434
endloop
endfacet
facet normal -1 0 0
outer loop
	vertex 1 -27.008 13.0434
	vertex 1 -26.9345 13.0858
	vertex 1 -26.9656 12.9699
endloop
endfacet
facet normal -1 0 0
outer loop
	vertex 1 -26.9345 13.0858
	vertex 1 -26.8921 13.0123
	vertex 1 -26.9656 12.9699
endloop
endfacet
facet normal 0 0.8660108 0.5000253
outer loop
	vertex 2.2 -26.9345 13.0858
	vertex 2.2 -26.8921 13.0123
	vertex 1 -26.9345 13.0858
endloop
endfacet
facet normal 0 0.8660108 0.5000253
outer loop
	vertex 2.2 -26.8921 13.0123
	vertex 1 -26.8921 13.0123
	vertex 1 -26.9345 13.0858
endloop
endfacet
facet normal 0 -0.499868 0.8661016
outer loop
	vertex 2.2 -27.008 13.0434
	vertex 2.2 -26.9345 13.0858
	vertex 1 -27.008 13.0434
endloop
endfacet
facet normal 0 -0.4999467 0.8660561
outer loop
	vertex 2.2 -26.9345 13.0858
	vertex 1 -26.9345 13.0858
	vertex 1 -27.008 13.0434
endloop
endfacet
facet normal 0 -0.8659904 -0.5000606
outer loop
	vertex 2.2 -26.9656 12.9699
	vertex 2.2 -27.008 13.0434
	vertex 1 -26.9656 12.9699
endloop
endfacet
facet normal 0 -0.8659701 -0.5000958
outer loop
	vertex 2.2 -27.008 13.0434
	vertex 1 -27.008 13.0434
	vertex 1 -26.9656 12.9699
endloop
endfacet
facet normal 0 0.4999291 -0.8660663
outer loop
	vertex 2.2 -26.8921 13.0123
	vertex 2.2 -26.9656 12.9699
	vertex 1 -26.8921 13.0123
endloop
endfacet
facet normal 0 0.4998857 -0.8660914
outer loop
	vertex 2.2 -26.9656 12.9699
	vertex 1 -26.9656 12.9699
	vertex 1 -26.8921 13.0123
endloop
endfacet
facet normal 1 0 0
outer loop
	vertex 2.2 -28.4521 11.6768
	vertex 2.2 -28.3786 11.7193
	vertex 2.2 -28.4945 11.7503
endloop
endfacet
facet normal 1 0 0
outer loop
	vertex 2.2 -28.3786 11.7193
	vertex 2.2 -28.421 11.7927
	vertex 2.2 -28.4945 11.7503
endloop
endfacet
facet normal -1 0 0
outer loop
	vertex 1 -28.4945 11.7503
	vertex 1 -28.421 11.7927
	vertex 1 -28.4521 11.6768
endloop
endfacet
facet normal -1 0 0
outer loop
	vertex 1 -28.421 11.7927
	vertex 1 -28.3786 11.7193
	vertex 1 -28.4521 11.6768
endloop
endfacet
facet normal 0 0.8659701 0.5000958
outer loop
	vertex 2.2 -28.421 11.7927
	vertex 2.2 -28.3786 11.7193
	vertex 1 -28.421 11.7927
endloop
endfacet
facet normal 0 0.8659904 0.5000606
outer loop
	vertex 2.2 -28.3786 11.7193
	vertex 1 -28.3786 11.7193
	vertex 1 -28.421 11.7927
endloop
endfacet
facet normal 0 -0.4999901 0.8660311
outer loop
	vertex 2.2 -28.4945 11.7503
	vertex 2.2 -28.421 11.7927
	vertex 1 -28.4945 11.7503
endloop
endfacet
facet normal 0 -0.5000077 0.8660209
outer loop
	vertex 2.2 -28.421 11.7927
	vertex 1 -28.421 11.7927
	vertex 1 -28.4945 11.7503
endloop
endfacet
facet normal 0 -0.8660108 -0.5000253
outer loop
	vertex 2.2 -28.4521 11.6768
	vertex 2.2 -28.4945 11.7503
	vertex 1 -28.4521 11.6768
endloop
endfacet
facet normal 0 -0.8660108 -0.5000253
outer loop
	vertex 2.2 -28.4945 11.7503
	vertex 1 -28.4945 11.7503
	vertex 1 -28.4521 11.6768
endloop
endfacet
facet normal 0 0.499807 -0.8661368
outer loop
	vertex 2.2 -28.3786 11.7193
	vertex 2.2 -28.4521 11.6768
	vertex 1 -28.3786 11.7193
endloop
endfacet
facet normal 0 0.4998246 -0.8661266
outer loop
	vertex 2.2 -28.4521 11.6768
	vertex 1 -28.4521 11.6768
	vertex 1 -28.3786 11.7193
endloop
endfacet
facet normal 1 0 0
outer loop
	vertex 2.2 -29.5298 10.0188
	vertex 2.2 -29.4563 10.0612
	vertex 2.2 -29.5722 10.0923
endloop
endfacet
facet normal 1 0 0
outer loop
	vertex 2.2 -29.4563 10.0612
	vertex 2.2 -29.4987 10.1347
	vertex 2.2 -29.5722 10.0923
endloop
endfacet
facet normal -1 0 0
outer loop
	vertex 1 -29.5722 10.0923
	vertex 1 -29.4987 10.1347
	vertex 1 -29.5298 10.0188
endloop
endfacet
facet normal -1 0 0
outer loop
	vertex 1 -29.4987 10.1347
	vertex 1 -29.4563 10.0612
	vertex 1 -29.5298 10.0188
endloop
endfacet
facet normal 0 0.8660108 0.5000253
outer loop
	vertex 2.2 -29.4987 10.1347
	vertex 2.2 -29.4563 10.0612
	vertex 1 -29.4987 10.1347
endloop
endfacet
facet normal 0 0.8660108 0.5000253
outer loop
	vertex 2.2 -29.4563 10.0612
	vertex 1 -29.4563 10.0612
	vertex 1 -29.4987 10.1347
endloop
endfacet
facet normal 0 -0.499999 0.866026
outer loop
	vertex 2.2 -29.5722 10.0923
	vertex 2.2 -29.4987 10.1347
	vertex 1 -29.5722 10.0923
endloop
endfacet
facet normal 0 -0.499999 0.866026
outer loop
	vertex 2.2 -29.4987 10.1347
	vertex 1 -29.4987 10.1347
	vertex 1 -29.5722 10.0923
endloop
endfacet
facet normal 0 -0.8659931 -0.5000559
outer loop
	vertex 2.2 -29.5298 10.0188
	vertex 2.2 -29.5722 10.0923
	vertex 1 -29.5298 10.0188
endloop
endfacet
facet normal 0 -0.866002 -0.5000406
outer loop
	vertex 2.2 -29.5722 10.0923
	vertex 1 -29.5722 10.0923
	vertex 1 -29.5298 10.0188
endloop
endfacet
facet normal 0 0.4999291 -0.8660663
outer loop
	vertex 2.2 -29.4563 10.0612
	vertex 2.2 -29.5298 10.0188
	vertex 1 -29.4563 10.0612
endloop
endfacet
facet normal 0 0.4998592 -0.8661066
outer loop
	vertex 2.2 -29.5298 10.0188
	vertex 1 -29.5298 10.0188
	vertex 1 -29.4563 10.0612
endloop
endfacet
facet normal 1 0 0
outer loop
	vertex 2.2 -29.5298 -7.9194
	vertex 2.2 -29.4563 -7.877
	vertex 2.2 -29.5722 -7.846
endloop
endfacet
facet normal 1 0 0
outer loop
	vertex 2.2 -29.4563 -7.877
	vertex 2.2 -29.4987 -7.8035
	vertex 2.2 -29.5722 -7.846
endloop
endfacet
facet normal -1 0 0
outer loop
	vertex 1 -29.5722 -7.846
	vertex 1 -29.4987 -7.8035
	vertex 1 -29.5298 -7.9194
endloop
endfacet
facet normal -1 0 0
outer loop
	vertex 1 -29.4987 -7.8035
	vertex 1 -29.4563 -7.877
	vertex 1 -29.5298 -7.9194
endloop
endfacet
facet normal 0 0.8659843 0.5000712
outer loop
	vertex 2.2 -29.4987 -7.8035
	vertex 2.2 -29.4563 -7.877
	vertex 1 -29.4987 -7.8035
endloop
endfacet
facet normal 0 0.8659843 0.5000712
outer loop
	vertex 2.2 -29.4563 -7.877
	vertex 1 -29.4563 -7.877
	vertex 1 -29.4987 -7.8035
endloop
endfacet
facet normal 0 -0.499999 0.866026
outer loop
	vertex 2.2 -29.5722 -7.846
	vertex 2.2 -29.4987 -7.8035
	vertex 1 -29.5722 -7.846
endloop
endfacet
facet normal 0 -0.499999 0.866026
outer loop
	vertex 2.2 -29.4987 -7.8035
	vertex 1 -29.4987 -7.8035
	vertex 1 -29.5722 -7.846
endloop
endfacet
facet normal 0 -0.8659931 -0.5000559
outer loop
	vertex 2.2 -29.5298 -7.9194
	vertex 2.2 -29.5722 -7.846
	vertex 1 -29.5298 -7.9194
endloop
endfacet
facet normal 0 -0.866002 -0.5000406
outer loop
	vertex 2.2 -29.5722 -7.846
	vertex 1 -29.5722 -7.846
	vertex 1 -29.5298 -7.9194
endloop
endfacet
facet normal 0 0.4999555 -0.8660511
outer loop
	vertex 2.2 -29.4563 -7.877
	vertex 2.2 -29.5298 -7.9194
	vertex 1 -29.4563 -7.877
endloop
endfacet
facet normal 0 0.4998857 -0.8660914
outer loop
	vertex 2.2 -29.5298 -7.9194
	vertex 1 -29.5298 -7.9194
	vertex 1 -29.4563 -7.877
endloop
endfacet
facet normal 1 0 0
outer loop
	vertex 2.2 -28.4521 -9.5775
	vertex 2.2 -28.3786 -9.5351
	vertex 2.2 -28.4945 -9.504
endloop
endfacet
facet normal 1 0 0
outer loop
	vertex 2.2 -28.3786 -9.5351
	vertex 2.2 -28.421 -9.4616
	vertex 2.2 -28.4945 -9.504
endloop
endfacet
facet normal -1 0 0
outer loop
	vertex 1 -28.4945 -9.504
	vertex 1 -28.421 -9.4616
	vertex 1 -28.4521 -9.5775
endloop
endfacet
facet normal -1 0 0
outer loop
	vertex 1 -28.421 -9.4616
	vertex 1 -28.3786 -9.5351
	vertex 1 -28.4521 -9.5775
endloop
endfacet
facet normal 0 0.8659701 0.5000958
outer loop
	vertex 2.2 -28.421 -9.4616
	vertex 2.2 -28.3786 -9.5351
	vertex 1 -28.421 -9.4616
endloop
endfacet
facet normal 0 0.8659904 0.5000606
outer loop
	vertex 2.2 -28.3786 -9.5351
	vertex 1 -28.3786 -9.5351
	vertex 1 -28.421 -9.4616
endloop
endfacet
facet normal 0 -0.499999 0.866026
outer loop
	vertex 2.2 -28.4945 -9.504
	vertex 2.2 -28.421 -9.4616
	vertex 1 -28.4945 -9.504
endloop
endfacet
facet normal 0 -0.499999 0.866026
outer loop
	vertex 2.2 -28.421 -9.4616
	vertex 1 -28.421 -9.4616
	vertex 1 -28.4945 -9.504
endloop
endfacet
facet normal 0 -0.8660108 -0.5000253
outer loop
	vertex 2.2 -28.4521 -9.5775
	vertex 2.2 -28.4945 -9.504
	vertex 1 -28.4521 -9.5775
endloop
endfacet
facet normal 0 -0.8660108 -0.5000253
outer loop
	vertex 2.2 -28.4945 -9.504
	vertex 1 -28.4945 -9.504
	vertex 1 -28.4521 -9.5775
endloop
endfacet
facet normal 0 0.4998159 -0.8661317
outer loop
	vertex 2.2 -28.3786 -9.5351
	vertex 2.2 -28.4521 -9.5775
	vertex 1 -28.3786 -9.5351
endloop
endfacet
facet normal 0 0.4998159 -0.8661317
outer loop
	vertex 2.2 -28.4521 -9.5775
	vertex 1 -28.4521 -9.5775
	vertex 1 -28.3786 -9.5351
endloop
endfacet
facet normal 1 0 0
outer loop
	vertex 2.2 -26.9656 -10.8705
	vertex 2.2 -26.8921 -10.8281
	vertex 2.2 -27.008 -10.797
endloop
endfacet
facet normal 1 0 0
outer loop
	vertex 2.2 -26.8921 -10.8281
	vertex 2.2 -26.9345 -10.7546
	vertex 2.2 -27.008 -10.797
endloop
endfacet
facet normal -1 0 0
outer loop
	vertex 1 -27.008 -10.797
	vertex 1 -26.9345 -10.7546
	vertex 1 -26.9656 -10.8705
endloop
endfacet
facet normal -1 0 0
outer loop
	vertex 1 -26.9345 -10.7546
	vertex 1 -26.8921 -10.8281
	vertex 1 -26.9656 -10.8705
endloop
endfacet
facet normal 0 0.8660108 0.5000253
outer loop
	vertex 2.2 -26.9345 -10.7546
	vertex 2.2 -26.8921 -10.8281
	vertex 1 -26.9345 -10.7546
endloop
endfacet
facet normal 0 0.8660108 0.5000253
outer loop
	vertex 2.2 -26.8921 -10.8281
	vertex 1 -26.8921 -10.8281
	vertex 1 -26.9345 -10.7546
endloop
endfacet
facet normal 0 -0.4998857 0.8660914
outer loop
	vertex 2.2 -27.008 -10.797
	vertex 2.2 -26.9345 -10.7546
	vertex 1 -27.008 -10.797
endloop
endfacet
facet normal 0 -0.4999291 0.8660663
outer loop
	vertex 2.2 -26.9345 -10.7546
	vertex 1 -26.9345 -10.7546
	vertex 1 -27.008 -10.797
endloop
endfacet
facet normal 0 -0.8659904 -0.5000606
outer loop
	vertex 2.2 -26.9656 -10.8705
	vertex 2.2 -27.008 -10.797
	vertex 1 -26.9656 -10.8705
endloop
endfacet
facet normal 0 -0.8659701 -0.5000958
outer loop
	vertex 2.2 -27.008 -10.797
	vertex 1 -27.008 -10.797
	vertex 1 -26.9656 -10.8705
endloop
endfacet
facet normal 0 0.4999467 -0.8660561
outer loop
	vertex 2.2 -26.8921 -10.8281
	vertex 2.2 -26.9656 -10.8705
	vertex 1 -26.8921 -10.8281
endloop
endfacet
facet normal 0 0.499868 -0.8661016
outer loop
	vertex 2.2 -26.9656 -10.8705
	vertex 1 -26.9656 -10.8705
	vertex 1 -26.8921 -10.8281
endloop
endfacet
facet normal 1 0 0
outer loop
	vertex 2.2 -25.158 -11.7109
	vertex 2.2 -25.0845 -11.6684
	vertex 2.2 -25.2004 -11.6374
endloop
endfacet
facet normal 1 0 0
outer loop
	vertex 2.2 -25.0845 -11.6684
	vertex 2.2 -25.1269 -11.595
	vertex 2.2 -25.2004 -11.6374
endloop
endfacet
facet normal -1 0 0
outer loop
	vertex 1 -25.2004 -11.6374
	vertex 1 -25.1269 -11.595
	vertex 1 -25.158 -11.7109
endloop
endfacet
facet normal -1 0 0
outer loop
	vertex 1 -25.1269 -11.595
	vertex 1 -25.0845 -11.6684
	vertex 1 -25.158 -11.7109
endloop
endfacet
facet normal 0 0.8660108 0.5000253
outer loop
	vertex 2.2 -25.1269 -11.595
	vertex 2.2 -25.0845 -11.6684
	vertex 1 -25.1269 -11.595
endloop
endfacet
facet normal 0 0.8660108 0.5000253
outer loop
	vertex 2.2 -25.0845 -11.6684
	vertex 1 -25.0845 -11.6684
	vertex 1 -25.1269 -11.595
endloop
endfacet
facet normal 0 -0.499868 0.8661016
outer loop
	vertex 2.2 -25.2004 -11.6374
	vertex 2.2 -25.1269 -11.595
	vertex 1 -25.2004 -11.6374
endloop
endfacet
facet normal 0 -0.4999467 0.8660561
outer loop
	vertex 2.2 -25.1269 -11.595
	vertex 1 -25.1269 -11.595
	vertex 1 -25.2004 -11.6374
endloop
endfacet
facet normal 0 -0.8659904 -0.5000606
outer loop
	vertex 2.2 -25.158 -11.7109
	vertex 2.2 -25.2004 -11.6374
	vertex 1 -25.158 -11.7109
endloop
endfacet
facet normal 0 -0.8659701 -0.5000958
outer loop
	vertex 2.2 -25.2004 -11.6374
	vertex 1 -25.2004 -11.6374
	vertex 1 -25.158 -11.7109
endloop
endfacet
facet normal 0 0.4999291 -0.8660663
outer loop
	vertex 2.2 -25.0845 -11.6684
	vertex 2.2 -25.158 -11.7109
	vertex 1 -25.0845 -11.6684
endloop
endfacet
facet normal 0 0.4998857 -0.8660914
outer loop
	vertex 2.2 -25.158 -11.7109
	vertex 1 -25.158 -11.7109
	vertex 1 -25.0845 -11.6684
endloop
endfacet
facet normal 1 0 0
outer loop
	vertex 2.2 24.9033 -11.7109
	vertex 2.2 24.9768 -11.6684
	vertex 2.2 24.8609 -11.6374
endloop
endfacet
facet normal 1 0 0
outer loop
	vertex 2.2 24.9768 -11.6684
	vertex 2.2 24.9343 -11.595
	vertex 2.2 24.8609 -11.6374
endloop
endfacet
facet normal -1 0 0
outer loop
	vertex 1 24.8609 -11.6374
	vertex 1 24.9343 -11.595
	vertex 1 24.9033 -11.7109
endloop
endfacet
facet normal -1 0 0
outer loop
	vertex 1 24.9343 -11.595
	vertex 1 24.9768 -11.6684
	vertex 1 24.9033 -11.7109
endloop
endfacet
facet normal 0 0.8660108 0.5000253
outer loop
	vertex 2.2 24.9343 -11.595
	vertex 2.2 24.9768 -11.6684
	vertex 1 24.9343 -11.595
endloop
endfacet
facet normal 0 0.8660108 0.5000253
outer loop
	vertex 2.2 24.9768 -11.6684
	vertex 1 24.9768 -11.6684
	vertex 1 24.9343 -11.595
endloop
endfacet
facet normal 0 -0.4999901 0.8660311
outer loop
	vertex 2.2 24.8609 -11.6374
	vertex 2.2 24.9343 -11.595
	vertex 1 24.8609 -11.6374
endloop
endfacet
facet normal 0 -0.5000077 0.8660209
outer loop
	vertex 2.2 24.9343 -11.595
	vertex 1 24.9343 -11.595
	vertex 1 24.8609 -11.6374
endloop
endfacet
facet normal 0 -0.8659701 -0.5000958
outer loop
	vertex 2.2 24.9033 -11.7109
	vertex 2.2 24.8609 -11.6374
	vertex 1 24.9033 -11.7109
endloop
endfacet
facet normal 0 -0.8659904 -0.5000606
outer loop
	vertex 2.2 24.8609 -11.6374
	vertex 1 24.8609 -11.6374
	vertex 1 24.9033 -11.7109
endloop
endfacet
facet normal 0 0.499868 -0.8661016
outer loop
	vertex 2.2 24.9768 -11.6684
	vertex 2.2 24.9033 -11.7109
	vertex 1 24.9768 -11.6684
endloop
endfacet
facet normal 0 0.4999467 -0.8660561
outer loop
	vertex 2.2 24.9033 -11.7109
	vertex 1 24.9033 -11.7109
	vertex 1 24.9768 -11.6684
endloop
endfacet
facet normal 1 0 0
outer loop
	vertex 2.2 26.7109 -10.8705
	vertex 2.2 26.7844 -10.8281
	vertex 2.2 26.6685 -10.797
endloop
endfacet
facet normal 1 0 0
outer loop
	vertex 2.2 26.7844 -10.8281
	vertex 2.2 26.742 -10.7546
	vertex 2.2 26.6685 -10.797
endloop
endfacet
facet normal -1 0 0
outer loop
	vertex 1 26.6685 -10.797
	vertex 1 26.742 -10.7546
	vertex 1 26.7109 -10.8705
endloop
endfacet
facet normal -1 0 0
outer loop
	vertex 1 26.742 -10.7546
	vertex 1 26.7844 -10.8281
	vertex 1 26.7109 -10.8705
endloop
endfacet
facet normal 0 0.8660108 0.5000253
outer loop
	vertex 2.2 26.742 -10.7546
	vertex 2.2 26.7844 -10.8281
	vertex 1 26.742 -10.7546
endloop
endfacet
facet normal 0 0.8660108 0.5000253
outer loop
	vertex 2.2 26.7844 -10.8281
	vertex 1 26.7844 -10.8281
	vertex 1 26.742 -10.7546
endloop
endfacet
facet normal 0 -0.4999467 0.8660561
outer loop
	vertex 2.2 26.6685 -10.797
	vertex 2.2 26.742 -10.7546
	vertex 1 26.6685 -10.797
endloop
endfacet
facet normal 0 -0.499868 0.8661016
outer loop
	vertex 2.2 26.742 -10.7546
	vertex 1 26.742 -10.7546
	vertex 1 26.6685 -10.797
endloop
endfacet
facet normal 0 -0.8659701 -0.5000958
outer loop
	vertex 2.2 26.7109 -10.8705
	vertex 2.2 26.6685 -10.797
	vertex 1 26.7109 -10.8705
endloop
endfacet
facet normal 0 -0.8659904 -0.5000606
outer loop
	vertex 2.2 26.6685 -10.797
	vertex 1 26.6685 -10.797
	vertex 1 26.7109 -10.8705
endloop
endfacet
facet normal 0 0.4998857 -0.8660914
outer loop
	vertex 2.2 26.7844 -10.8281
	vertex 2.2 26.7109 -10.8705
	vertex 1 26.7844 -10.8281
endloop
endfacet
facet normal 0 0.4999291 -0.8660663
outer loop
	vertex 2.2 26.7109 -10.8705
	vertex 1 26.7109 -10.8705
	vertex 1 26.7844 -10.8281
endloop
endfacet
facet normal 1 0 0
outer loop
	vertex 2.2 28.1974 -9.5775
	vertex 2.2 28.2709 -9.535
	vertex 2.2 28.155 -9.504
endloop
endfacet
facet normal 1 0 0
outer loop
	vertex 2.2 28.2709 -9.535
	vertex 2.2 28.2285 -9.4616
	vertex 2.2 28.155 -9.504
endloop
endfacet
facet normal -1 0 0
outer loop
	vertex 1 28.155 -9.504
	vertex 1 28.2285 -9.4616
	vertex 1 28.1974 -9.5775
endloop
endfacet
facet normal -1 0 0
outer loop
	vertex 1 28.2285 -9.4616
	vertex 1 28.2709 -9.535
	vertex 1 28.1974 -9.5775
endloop
endfacet
facet normal 0 0.8660108 0.5000253
outer loop
	vertex 2.2 28.2285 -9.4616
	vertex 2.2 28.2709 -9.535
	vertex 1 28.2285 -9.4616
endloop
endfacet
facet normal 0 0.8660108 0.5000253
outer loop
	vertex 2.2 28.2709 -9.535
	vertex 1 28.2709 -9.535
	vertex 1 28.2285 -9.4616
endloop
endfacet
facet normal 0 -0.4998769 0.8660965
outer loop
	vertex 2.2 28.155 -9.504
	vertex 2.2 28.2285 -9.4616
	vertex 1 28.155 -9.504
endloop
endfacet
facet normal 0 -0.4999379 0.8660613
outer loop
	vertex 2.2 28.2285 -9.4616
	vertex 1 28.2285 -9.4616
	vertex 1 28.155 -9.504
endloop
endfacet
facet normal 0 -0.8660108 -0.5000253
outer loop
	vertex 2.2 28.1974 -9.5775
	vertex 2.2 28.155 -9.504
	vertex 1 28.1974 -9.5775
endloop
endfacet
facet normal 0 -0.8660108 -0.5000253
outer loop
	vertex 2.2 28.155 -9.504
	vertex 1 28.155 -9.504
	vertex 1 28.1974 -9.5775
endloop
endfacet
facet normal 0 0.4999379 -0.8660613
outer loop
	vertex 2.2 28.2709 -9.535
	vertex 2.2 28.1974 -9.5775
	vertex 1 28.2709 -9.535
endloop
endfacet
facet normal 0 0.4998769 -0.8660965
outer loop
	vertex 2.2 28.1974 -9.5775
	vertex 1 28.1974 -9.5775
	vertex 1 28.2709 -9.535
endloop
endfacet
facet normal 1 0 0
outer loop
	vertex 2.2 29.2751 -7.9194
	vertex 2.2 29.3486 -7.877
	vertex 2.2 29.2327 -7.846
endloop
endfacet
facet normal 1 0 0
outer loop
	vertex 2.2 29.3486 -7.877
	vertex 2.2 29.3062 -7.8035
	vertex 2.2 29.2327 -7.846
endloop
endfacet
facet normal -1 0 0
outer loop
	vertex 1 29.2327 -7.846
	vertex 1 29.3062 -7.8035
	vertex 1 29.2751 -7.9194
endloop
endfacet
facet normal -1 0 0
outer loop
	vertex 1 29.3062 -7.8035
	vertex 1 29.3486 -7.877
	vertex 1 29.2751 -7.9194
endloop
endfacet
facet normal 0 0.8659436 0.5001416
outer loop
	vertex 2.2 29.3062 -7.8035
	vertex 2.2 29.3486 -7.877
	vertex 1 29.3062 -7.8035
endloop
endfacet
facet normal 0 0.8659639 0.5001064
outer loop
	vertex 2.2 29.3486 -7.877
	vertex 1 29.3486 -7.877
	vertex 1 29.3062 -7.8035
endloop
endfacet
facet normal 0 -0.499999 0.866026
outer loop
	vertex 2.2 29.2327 -7.846
	vertex 2.2 29.3062 -7.8035
	vertex 1 29.2327 -7.846
endloop
endfacet
facet normal 0 -0.499999 0.866026
outer loop
	vertex 2.2 29.3062 -7.8035
	vertex 1 29.3062 -7.8035
	vertex 1 29.2327 -7.846
endloop
endfacet
facet normal 0 -0.8659931 -0.5000559
outer loop
	vertex 2.2 29.2751 -7.9194
	vertex 2.2 29.2327 -7.846
	vertex 1 29.2751 -7.9194
endloop
endfacet
facet normal 0 -0.866002 -0.5000406
outer loop
	vertex 2.2 29.2327 -7.846
	vertex 1 29.2327 -7.846
	vertex 1 29.2751 -7.9194
endloop
endfacet
facet normal 0 0.4998945 -0.8660863
outer loop
	vertex 2.2 29.3486 -7.877
	vertex 2.2 29.2751 -7.9194
	vertex 1 29.3486 -7.877
endloop
endfacet
facet normal 0 0.4999467 -0.8660562
outer loop
	vertex 2.2 29.2751 -7.9194
	vertex 1 29.2751 -7.9194
	vertex 1 29.3486 -7.877
endloop
endfacet
facet normal 1 0 0
outer loop
	vertex 2.2 15.712 -11.9099
	vertex 2.2 15.7968 -11.9948
	vertex 2.2 15.7968 -11.9099
endloop
endfacet
facet normal 1 0 0
outer loop
	vertex 2.2 15.712 -11.9948
	vertex 2.2 15.7968 -11.9948
	vertex 2.2 15.712 -11.9099
endloop
endfacet
facet normal -1 0 0
outer loop
	vertex 1 15.712 -11.9099
	vertex 1 15.7968 -11.9099
	vertex 1 15.712 -11.9948
endloop
endfacet
facet normal -1 0 0
outer loop
	vertex 1 15.7968 -11.9099
	vertex 1 15.7968 -11.9948
	vertex 1 15.712 -11.9948
endloop
endfacet
facet normal 0 1 0
outer loop
	vertex 2.2 15.7968 -11.9099
	vertex 2.2 15.7968 -11.9948
	vertex 1 15.7968 -11.9099
endloop
endfacet
facet normal 0 1 0
outer loop
	vertex 2.2 15.7968 -11.9948
	vertex 1 15.7968 -11.9948
	vertex 1 15.7968 -11.9099
endloop
endfacet
facet normal 0 0 1
outer loop
	vertex 2.2 15.712 -11.9099
	vertex 2.2 15.7968 -11.9099
	vertex 1 15.712 -11.9099
endloop
endfacet
facet normal 0 0 1
outer loop
	vertex 2.2 15.7968 -11.9099
	vertex 1 15.7968 -11.9099
	vertex 1 15.712 -11.9099
endloop
endfacet
facet normal 0 -1 0
outer loop
	vertex 2.2 15.712 -11.9948
	vertex 2.2 15.712 -11.9099
	vertex 1 15.712 -11.9948
endloop
endfacet
facet normal 0 -1 0
outer loop
	vertex 2.2 15.712 -11.9099
	vertex 1 15.712 -11.9099
	vertex 1 15.712 -11.9948
endloop
endfacet
facet normal 0 0 -1
outer loop
	vertex 2.2 15.7968 -11.9948
	vertex 2.2 15.712 -11.9948
	vertex 1 15.7968 -11.9948
endloop
endfacet
facet normal 0 0 -1
outer loop
	vertex 2.2 15.712 -11.9948
	vertex 1 15.712 -11.9948
	vertex 1 15.7968 -11.9948
endloop
endfacet
facet normal 1 0 0
outer loop
	vertex 2.2 14.739 -11.9099
	vertex 2.2 14.8238 -11.9948
	vertex 2.2 14.8238 -11.9099
endloop
endfacet
facet normal 1 0 0
outer loop
	vertex 2.2 14.739 -11.9948
	vertex 2.2 14.8238 -11.9948
	vertex 2.2 14.739 -11.9099
endloop
endfacet
facet normal -1 0 0
outer loop
	vertex 1 14.739 -11.9099
	vertex 1 14.8238 -11.9099
	vertex 1 14.739 -11.9948
endloop
endfacet
facet normal -1 0 0
outer loop
	vertex 1 14.8238 -11.9099
	vertex 1 14.8238 -11.9948
	vertex 1 14.739 -11.9948
endloop
endfacet
facet normal 0 1 0
outer loop
	vertex 2.2 14.8238 -11.9099
	vertex 2.2 14.8238 -11.9948
	vertex 1 14.8238 -11.9099
endloop
endfacet
facet normal 0 1 0
outer loop
	vertex 2.2 14.8238 -11.9948
	vertex 1 14.8238 -11.9948
	vertex 1 14.8238 -11.9099
endloop
endfacet
facet normal 0 0 1
outer loop
	vertex 2.2 14.739 -11.9099
	vertex 2.2 14.8238 -11.9099
	vertex 1 14.739 -11.9099
endloop
endfacet
facet normal 0 0 1
outer loop
	vertex 2.2 14.8238 -11.9099
	vertex 1 14.8238 -11.9099
	vertex 1 14.739 -11.9099
endloop
endfacet
facet normal 0 -1 0
outer loop
	vertex 2.2 14.739 -11.9948
	vertex 2.2 14.739 -11.9099
	vertex 1 14.739 -11.9948
endloop
endfacet
facet normal 0 -1 0
outer loop
	vertex 2.2 14.739 -11.9099
	vertex 1 14.739 -11.9099
	vertex 1 14.739 -11.9948
endloop
endfacet
facet normal 0 0 -1
outer loop
	vertex 2.2 14.8238 -11.9948
	vertex 2.2 14.739 -11.9948
	vertex 1 14.8238 -11.9948
endloop
endfacet
facet normal 0 0 -1
outer loop
	vertex 2.2 14.739 -11.9948
	vertex 1 14.739 -11.9948
	vertex 1 14.8238 -11.9948
endloop
endfacet
facet normal 1 0 0
outer loop
	vertex 2.2 11.4879 -11.9099
	vertex 2.2 11.5728 -11.9948
	vertex 2.2 11.5728 -11.9099
endloop
endfacet
facet normal 1 0 0
outer loop
	vertex 2.2 11.4879 -11.9948
	vertex 2.2 11.5728 -11.9948
	vertex 2.2 11.4879 -11.9099
endloop
endfacet
facet normal -1 0 0
outer loop
	vertex 1 11.4879 -11.9099
	vertex 1 11.5728 -11.9099
	vertex 1 11.4879 -11.9948
endloop
endfacet
facet normal -1 0 0
outer loop
	vertex 1 11.5728 -11.9099
	vertex 1 11.5728 -11.9948
	vertex 1 11.4879 -11.9948
endloop
endfacet
facet normal 0 1 0
outer loop
	vertex 2.2 11.5728 -11.9099
	vertex 2.2 11.5728 -11.9948
	vertex 1 11.5728 -11.9099
endloop
endfacet
facet normal 0 1 0
outer loop
	vertex 2.2 11.5728 -11.9948
	vertex 1 11.5728 -11.9948
	vertex 1 11.5728 -11.9099
endloop
endfacet
facet normal 0 0 1
outer loop
	vertex 2.2 11.4879 -11.9099
	vertex 2.2 11.5728 -11.9099
	vertex 1 11.4879 -11.9099
endloop
endfacet
facet normal 0 0 1
outer loop
	vertex 2.2 11.5728 -11.9099
	vertex 1 11.5728 -11.9099
	vertex 1 11.4879 -11.9099
endloop
endfacet
facet normal 0 -1 0
outer loop
	vertex 2.2 11.4879 -11.9948
	vertex 2.2 11.4879 -11.9099
	vertex 1 11.4879 -11.9948
endloop
endfacet
facet normal 0 -1 0
outer loop
	vertex 2.2 11.4879 -11.9099
	vertex 1 11.4879 -11.9099
	vertex 1 11.4879 -11.9948
endloop
endfacet
facet normal 0 0 -1
outer loop
	vertex 2.2 11.5728 -11.9948
	vertex 2.2 11.4879 -11.9948
	vertex 1 11.5728 -11.9948
endloop
endfacet
facet normal 0 0 -1
outer loop
	vertex 2.2 11.4879 -11.9948
	vertex 1 11.4879 -11.9948
	vertex 1 11.5728 -11.9948
endloop
endfacet
facet normal 1 0 0
outer loop
	vertex 2.2 3.2039 -11.9099
	vertex 2.2 3.2888 -11.9948
	vertex 2.2 3.2888 -11.9099
endloop
endfacet
facet normal 1 0 0
outer loop
	vertex 2.2 3.2039 -11.9948
	vertex 2.2 3.2888 -11.9948
	vertex 2.2 3.2039 -11.9099
endloop
endfacet
facet normal -1 0 0
outer loop
	vertex 1 3.2039 -11.9099
	vertex 1 3.2888 -11.9099
	vertex 1 3.2039 -11.9948
endloop
endfacet
facet normal -1 0 0
outer loop
	vertex 1 3.2888 -11.9099
	vertex 1 3.2888 -11.9948
	vertex 1 3.2039 -11.9948
endloop
endfacet
facet normal 0 1 0
outer loop
	vertex 2.2 3.2888 -11.9099
	vertex 2.2 3.2888 -11.9948
	vertex 1 3.2888 -11.9099
endloop
endfacet
facet normal 0 1 0
outer loop
	vertex 2.2 3.2888 -11.9948
	vertex 1 3.2888 -11.9948
	vertex 1 3.2888 -11.9099
endloop
endfacet
facet normal 0 0 1
outer loop
	vertex 2.2 3.2039 -11.9099
	vertex 2.2 3.2888 -11.9099
	vertex 1 3.2039 -11.9099
endloop
endfacet
facet normal 0 0 1
outer loop
	vertex 2.2 3.2888 -11.9099
	vertex 1 3.2888 -11.9099
	vertex 1 3.2039 -11.9099
endloop
endfacet
facet normal 0 -1 0
outer loop
	vertex 2.2 3.2039 -11.9948
	vertex 2.2 3.2039 -11.9099
	vertex 1 3.2039 -11.9948
endloop
endfacet
facet normal 0 -1 0
outer loop
	vertex 2.2 3.2039 -11.9099
	vertex 1 3.2039 -11.9099
	vertex 1 3.2039 -11.9948
endloop
endfacet
facet normal 0 0 -1
outer loop
	vertex 2.2 3.2888 -11.9948
	vertex 2.2 3.2039 -11.9948
	vertex 1 3.2888 -11.9948
endloop
endfacet
facet normal 0 0 -1
outer loop
	vertex 2.2 3.2039 -11.9948
	vertex 1 3.2039 -11.9948
	vertex 1 3.2888 -11.9948
endloop
endfacet
facet normal 1 0 0
outer loop
	vertex 2.2 -3.4701 -11.9099
	vertex 2.2 -3.3853 -11.9948
	vertex 2.2 -3.3853 -11.9099
endloop
endfacet
facet normal 1 0 0
outer loop
	vertex 2.2 -3.4701 -11.9948
	vertex 2.2 -3.3853 -11.9948
	vertex 2.2 -3.4701 -11.9099
endloop
endfacet
facet normal -1 0 0
outer loop
	vertex 1 -3.4701 -11.9099
	vertex 1 -3.3853 -11.9099
	vertex 1 -3.4701 -11.9948
endloop
endfacet
facet normal -1 0 0
outer loop
	vertex 1 -3.3853 -11.9099
	vertex 1 -3.3853 -11.9948
	vertex 1 -3.4701 -11.9948
endloop
endfacet
facet normal 0 1 0
outer loop
	vertex 2.2 -3.3853 -11.9099
	vertex 2.2 -3.3853 -11.9948
	vertex 1 -3.3853 -11.9099
endloop
endfacet
facet normal 0 1 0
outer loop
	vertex 2.2 -3.3853 -11.9948
	vertex 1 -3.3853 -11.9948
	vertex 1 -3.3853 -11.9099
endloop
endfacet
facet normal 0 0 1
outer loop
	vertex 2.2 -3.4701 -11.9099
	vertex 2.2 -3.3853 -11.9099
	vertex 1 -3.4701 -11.9099
endloop
endfacet
facet normal 0 0 1
outer loop
	vertex 2.2 -3.3853 -11.9099
	vertex 1 -3.3853 -11.9099
	vertex 1 -3.4701 -11.9099
endloop
endfacet
facet normal 0 -1 0
outer loop
	vertex 2.2 -3.4701 -11.9948
	vertex 2.2 -3.4701 -11.9099
	vertex 1 -3.4701 -11.9948
endloop
endfacet
facet normal 0 -1 0
outer loop
	vertex 2.2 -3.4701 -11.9099
	vertex 1 -3.4701 -11.9099
	vertex 1 -3.4701 -11.9948
endloop
endfacet
facet normal 0 0 -1
outer loop
	vertex 2.2 -3.3853 -11.9948
	vertex 2.2 -3.4701 -11.9948
	vertex 1 -3.3853 -11.9948
endloop
endfacet
facet normal 0 0 -1
outer loop
	vertex 2.2 -3.4701 -11.9948
	vertex 1 -3.4701 -11.9948
	vertex 1 -3.3853 -11.9948
endloop
endfacet
facet normal 1 0 0
outer loop
	vertex 2.2 -11.7436 -11.9099
	vertex 2.2 -11.6588 -11.9948
	vertex 2.2 -11.6588 -11.9099
endloop
endfacet
facet normal 1 0 0
outer loop
	vertex 2.2 -11.7436 -11.9948
	vertex 2.2 -11.6588 -11.9948
	vertex 2.2 -11.7436 -11.9099
endloop
endfacet
facet normal -1 0 0
outer loop
	vertex 1 -11.7436 -11.9099
	vertex 1 -11.6588 -11.9099
	vertex 1 -11.7436 -11.9948
endloop
endfacet
facet normal -1 0 0
outer loop
	vertex 1 -11.6588 -11.9099
	vertex 1 -11.6588 -11.9948
	vertex 1 -11.7436 -11.9948
endloop
endfacet
facet normal 0 1 0
outer loop
	vertex 2.2 -11.6588 -11.9099
	vertex 2.2 -11.6588 -11.9948
	vertex 1 -11.6588 -11.9099
endloop
endfacet
facet normal 0 1 0
outer loop
	vertex 2.2 -11.6588 -11.9948
	vertex 1 -11.6588 -11.9948
	vertex 1 -11.6588 -11.9099
endloop
endfacet
facet normal 0 0 1
outer loop
	vertex 2.2 -11.7436 -11.9099
	vertex 2.2 -11.6588 -11.9099
	vertex 1 -11.7436 -11.9099
endloop
endfacet
facet normal 0 0 1
outer loop
	vertex 2.2 -11.6588 -11.9099
	vertex 1 -11.6588 -11.9099
	vertex 1 -11.7436 -11.9099
endloop
endfacet
facet normal 0 -1 0
outer loop
	vertex 2.2 -11.7436 -11.9948
	vertex 2.2 -11.7436 -11.9099
	vertex 1 -11.7436 -11.9948
endloop
endfacet
facet normal 0 -1 0
outer loop
	vertex 2.2 -11.7436 -11.9099
	vertex 1 -11.7436 -11.9099
	vertex 1 -11.7436 -11.9948
endloop
endfacet
facet normal 0 0 -1
outer loop
	vertex 2.2 -11.6588 -11.9948
	vertex 2.2 -11.7436 -11.9948
	vertex 1 -11.6588 -11.9948
endloop
endfacet
facet normal 0 0 -1
outer loop
	vertex 2.2 -11.7436 -11.9948
	vertex 1 -11.7436 -11.9948
	vertex 1 -11.6588 -11.9948
endloop
endfacet
facet normal 1 0 0
outer loop
	vertex 2.2 -12.8452 -11.9099
	vertex 2.2 -12.7604 -11.9948
	vertex 2.2 -12.7604 -11.9099
endloop
endfacet
facet normal 1 0 0
outer loop
	vertex 2.2 -12.8452 -11.9948
	vertex 2.2 -12.7604 -11.9948
	vertex 2.2 -12.8452 -11.9099
endloop
endfacet
facet normal -1 0 0
outer loop
	vertex 1 -12.8452 -11.9099
	vertex 1 -12.7604 -11.9099
	vertex 1 -12.8452 -11.9948
endloop
endfacet
facet normal -1 0 0
outer loop
	vertex 1 -12.7604 -11.9099
	vertex 1 -12.7604 -11.9948
	vertex 1 -12.8452 -11.9948
endloop
endfacet
facet normal 0 1 0
outer loop
	vertex 2.2 -12.7604 -11.9099
	vertex 2.2 -12.7604 -11.9948
	vertex 1 -12.7604 -11.9099
endloop
endfacet
facet normal 0 1 0
outer loop
	vertex 2.2 -12.7604 -11.9948
	vertex 1 -12.7604 -11.9948
	vertex 1 -12.7604 -11.9099
endloop
endfacet
facet normal 0 0 1
outer loop
	vertex 2.2 -12.8452 -11.9099
	vertex 2.2 -12.7604 -11.9099
	vertex 1 -12.8452 -11.9099
endloop
endfacet
facet normal 0 0 1
outer loop
	vertex 2.2 -12.7604 -11.9099
	vertex 1 -12.7604 -11.9099
	vertex 1 -12.8452 -11.9099
endloop
endfacet
facet normal 0 -1 0
outer loop
	vertex 2.2 -12.8452 -11.9948
	vertex 2.2 -12.8452 -11.9099
	vertex 1 -12.8452 -11.9948
endloop
endfacet
facet normal 0 -1 0
outer loop
	vertex 2.2 -12.8452 -11.9099
	vertex 1 -12.8452 -11.9099
	vertex 1 -12.8452 -11.9948
endloop
endfacet
facet normal 0 0 -1
outer loop
	vertex 2.2 -12.7604 -11.9948
	vertex 2.2 -12.8452 -11.9948
	vertex 1 -12.7604 -11.9948
endloop
endfacet
facet normal 0 0 -1
outer loop
	vertex 2.2 -12.8452 -11.9948
	vertex 1 -12.8452 -11.9948
	vertex 1 -12.7604 -11.9948
endloop
endfacet
facet normal 1 0 0
outer loop
	vertex 2.2 -16.6098 -11.9099
	vertex 2.2 -16.525 -11.9948
	vertex 2.2 -16.525 -11.9099
endloop
endfacet
facet normal 1 0 0
outer loop
	vertex 2.2 -16.6098 -11.9948
	vertex 2.2 -16.525 -11.9948
	vertex 2.2 -16.6098 -11.9099
endloop
endfacet
facet normal -1 0 0
outer loop
	vertex 1 -16.6098 -11.9099
	vertex 1 -16.525 -11.9099
	vertex 1 -16.6098 -11.9948
endloop
endfacet
facet normal -1 0 0
outer loop
	vertex 1 -16.525 -11.9099
	vertex 1 -16.525 -11.9948
	vertex 1 -16.6098 -11.9948
endloop
endfacet
facet normal 0 1 0
outer loop
	vertex 2.2 -16.525 -11.9099
	vertex 2.2 -16.525 -11.9948
	vertex 1 -16.525 -11.9099
endloop
endfacet
facet normal 0 1 0
outer loop
	vertex 2.2 -16.525 -11.9948
	vertex 1 -16.525 -11.9948
	vertex 1 -16.525 -11.9099
endloop
endfacet
facet normal 0 0 1
outer loop
	vertex 2.2 -16.6098 -11.9099
	vertex 2.2 -16.525 -11.9099
	vertex 1 -16.6098 -11.9099
endloop
endfacet
facet normal 0 0 1
outer loop
	vertex 2.2 -16.525 -11.9099
	vertex 1 -16.525 -11.9099
	vertex 1 -16.6098 -11.9099
endloop
endfacet
facet normal 0 -1 0
outer loop
	vertex 2.2 -16.6098 -11.9948
	vertex 2.2 -16.6098 -11.9099
	vertex 1 -16.6098 -11.9948
endloop
endfacet
facet normal 0 -1 0
outer loop
	vertex 2.2 -16.6098 -11.9099
	vertex 1 -16.6098 -11.9099
	vertex 1 -16.6098 -11.9948
endloop
endfacet
facet normal 0 0 -1
outer loop
	vertex 2.2 -16.525 -11.9948
	vertex 2.2 -16.6098 -11.9948
	vertex 1 -16.525 -11.9948
endloop
endfacet
facet normal 0 0 -1
outer loop
	vertex 2.2 -16.6098 -11.9948
	vertex 1 -16.6098 -11.9948
	vertex 1 -16.525 -11.9948
endloop
endfacet
facet normal 1 0 0
outer loop
	vertex 2.2 4.964099 14.2101
	vertex 2.2 5.0489 14.1252
	vertex 2.2 5.0489 14.2101
endloop
endfacet
facet normal 1 0 0
outer loop
	vertex 2.2 4.964099 14.1252
	vertex 2.2 5.0489 14.1252
	vertex 2.2 4.964099 14.2101
endloop
endfacet
facet normal -1 0 0
outer loop
	vertex 1 4.964099 14.2101
	vertex 1 5.0489 14.2101
	vertex 1 4.964099 14.1252
endloop
endfacet
facet normal -1 0 0
outer loop
	vertex 1 5.0489 14.2101
	vertex 1 5.0489 14.1252
	vertex 1 4.964099 14.1252
endloop
endfacet
facet normal 0 1 0
outer loop
	vertex 2.2 5.0489 14.2101
	vertex 2.2 5.0489 14.1252
	vertex 1 5.0489 14.2101
endloop
endfacet
facet normal 0 1 0
outer loop
	vertex 2.2 5.0489 14.1252
	vertex 1 5.0489 14.1252
	vertex 1 5.0489 14.2101
endloop
endfacet
facet normal 0 0 1
outer loop
	vertex 2.2 4.964099 14.2101
	vertex 2.2 5.0489 14.2101
	vertex 1 4.964099 14.2101
endloop
endfacet
facet normal 0 0 1
outer loop
	vertex 2.2 5.0489 14.2101
	vertex 1 5.0489 14.2101
	vertex 1 4.964099 14.2101
endloop
endfacet
facet normal 0 -1 0
outer loop
	vertex 2.2 4.964099 14.1252
	vertex 2.2 4.964099 14.2101
	vertex 1 4.964099 14.1252
endloop
endfacet
facet normal 0 -1 0
outer loop
	vertex 2.2 4.964099 14.2101
	vertex 1 4.964099 14.2101
	vertex 1 4.964099 14.1252
endloop
endfacet
facet normal 0 0 -1
outer loop
	vertex 2.2 5.0489 14.1252
	vertex 2.2 4.964099 14.1252
	vertex 1 5.0489 14.1252
endloop
endfacet
facet normal 0 0 -1
outer loop
	vertex 2.2 4.964099 14.1252
	vertex 1 4.964099 14.1252
	vertex 1 5.0489 14.1252
endloop
endfacet
facet normal 1 0 0
outer loop
	vertex 2.2 -4.2886 14.2101
	vertex 2.2 -4.2037 14.1252
	vertex 2.2 -4.2037 14.2101
endloop
endfacet
facet normal 1 0 0
outer loop
	vertex 2.2 -4.2886 14.1252
	vertex 2.2 -4.2037 14.1252
	vertex 2.2 -4.2886 14.2101
endloop
endfacet
facet normal -1 0 0
outer loop
	vertex 1 -4.2886 14.2101
	vertex 1 -4.2037 14.2101
	vertex 1 -4.2886 14.1252
endloop
endfacet
facet normal -1 0 0
outer loop
	vertex 1 -4.2037 14.2101
	vertex 1 -4.2037 14.1252
	vertex 1 -4.2886 14.1252
endloop
endfacet
facet normal 0 1 0
outer loop
	vertex 2.2 -4.2037 14.2101
	vertex 2.2 -4.2037 14.1252
	vertex 1 -4.2037 14.2101
endloop
endfacet
facet normal 0 1 0
outer loop
	vertex 2.2 -4.2037 14.1252
	vertex 1 -4.2037 14.1252
	vertex 1 -4.2037 14.2101
endloop
endfacet
facet normal 0 0 1
outer loop
	vertex 2.2 -4.2886 14.2101
	vertex 2.2 -4.2037 14.2101
	vertex 1 -4.2886 14.2101
endloop
endfacet
facet normal 0 0 1
outer loop
	vertex 2.2 -4.2037 14.2101
	vertex 1 -4.2037 14.2101
	vertex 1 -4.2886 14.2101
endloop
endfacet
facet normal 0 -1 0
outer loop
	vertex 2.2 -4.2886 14.1252
	vertex 2.2 -4.2886 14.2101
	vertex 1 -4.2886 14.1252
endloop
endfacet
facet normal 0 -1 0
outer loop
	vertex 2.2 -4.2886 14.2101
	vertex 1 -4.2886 14.2101
	vertex 1 -4.2886 14.1252
endloop
endfacet
facet normal 0 0 -1
outer loop
	vertex 2.2 -4.2037 14.1252
	vertex 2.2 -4.2886 14.1252
	vertex 1 -4.2037 14.1252
endloop
endfacet
facet normal 0 0 -1
outer loop
	vertex 2.2 -4.2886 14.1252
	vertex 1 -4.2886 14.1252
	vertex 1 -4.2037 14.1252
endloop
endfacet
facet normal 1 0 0
outer loop
	vertex 2.2 29.9058 4.1464
	vertex 2.2 29.9906 4.0615
	vertex 2.2 29.9906 4.1464
endloop
endfacet
facet normal 1 0 0
outer loop
	vertex 2.2 29.9058 4.0615
	vertex 2.2 29.9906 4.0615
	vertex 2.2 29.9058 4.1464
endloop
endfacet
facet normal -1 0 0
outer loop
	vertex 1 29.9058 4.1464
	vertex 1 29.9906 4.1464
	vertex 1 29.9058 4.0615
endloop
endfacet
facet normal -1 0 0
outer loop
	vertex 1 29.9906 4.1464
	vertex 1 29.9906 4.0615
	vertex 1 29.9058 4.0615
endloop
endfacet
facet normal 0 1 0
outer loop
	vertex 2.2 29.9906 4.1464
	vertex 2.2 29.9906 4.0615
	vertex 1 29.9906 4.1464
endloop
endfacet
facet normal 0 1 0
outer loop
	vertex 2.2 29.9906 4.0615
	vertex 1 29.9906 4.0615
	vertex 1 29.9906 4.1464
endloop
endfacet
facet normal 0 0 1
outer loop
	vertex 2.2 29.9058 4.1464
	vertex 2.2 29.9906 4.1464
	vertex 1 29.9058 4.1464
endloop
endfacet
facet normal 0 0 1
outer loop
	vertex 2.2 29.9906 4.1464
	vertex 1 29.9906 4.1464
	vertex 1 29.9058 4.1464
endloop
endfacet
facet normal 0 -1 0
outer loop
	vertex 2.2 29.9058 4.0615
	vertex 2.2 29.9058 4.1464
	vertex 1 29.9058 4.0615
endloop
endfacet
facet normal 0 -1 0
outer loop
	vertex 2.2 29.9058 4.1464
	vertex 1 29.9058 4.1464
	vertex 1 29.9058 4.0615
endloop
endfacet
facet normal 0 0 -1
outer loop
	vertex 2.2 29.9906 4.0615
	vertex 2.2 29.9058 4.0615
	vertex 1 29.9906 4.0615
endloop
endfacet
facet normal 0 0 -1
outer loop
	vertex 2.2 29.9058 4.0615
	vertex 1 29.9058 4.0615
	vertex 1 29.9906 4.0615
endloop
endfacet
facet normal 1 0 0
outer loop
	vertex 2.2 29.9058 1.1501
	vertex 2.2 29.9906 1.0652
	vertex 2.2 29.9906 1.1501
endloop
endfacet
facet normal 1 0 0
outer loop
	vertex 2.2 29.9058 1.0652
	vertex 2.2 29.9906 1.0652
	vertex 2.2 29.9058 1.1501
endloop
endfacet
facet normal -1 0 0
outer loop
	vertex 1 29.9058 1.1501
	vertex 1 29.9906 1.1501
	vertex 1 29.9058 1.0652
endloop
endfacet
facet normal -1 0 0
outer loop
	vertex 1 29.9906 1.1501
	vertex 1 29.9906 1.0652
	vertex 1 29.9058 1.0652
endloop
endfacet
facet normal 0 1 0
outer loop
	vertex 2.2 29.9906 1.1501
	vertex 2.2 29.9906 1.0652
	vertex 1 29.9906 1.1501
endloop
endfacet
facet normal 0 1 0
outer loop
	vertex 2.2 29.9906 1.0652
	vertex 1 29.9906 1.0652
	vertex 1 29.9906 1.1501
endloop
endfacet
facet normal 0 0 1
outer loop
	vertex 2.2 29.9058 1.1501
	vertex 2.2 29.9906 1.1501
	vertex 1 29.9058 1.1501
endloop
endfacet
facet normal 0 0 1
outer loop
	vertex 2.2 29.9906 1.1501
	vertex 1 29.9906 1.1501
	vertex 1 29.9058 1.1501
endloop
endfacet
facet normal 0 -1 0
outer loop
	vertex 2.2 29.9058 1.0652
	vertex 2.2 29.9058 1.1501
	vertex 1 29.9058 1.0652
endloop
endfacet
facet normal 0 -1 0
outer loop
	vertex 2.2 29.9058 1.1501
	vertex 1 29.9058 1.1501
	vertex 1 29.9058 1.0652
endloop
endfacet
facet normal 0 0 -1
outer loop
	vertex 2.2 29.9906 1.0652
	vertex 2.2 29.9058 1.0652
	vertex 1 29.9906 1.0652
endloop
endfacet
facet normal 0 0 -1
outer loop
	vertex 2.2 29.9058 1.0652
	vertex 1 29.9058 1.0652
	vertex 1 29.9906 1.0652
endloop
endfacet
facet normal 1 0 0
outer loop
	vertex 2.2 29.9058 -1.8462
	vertex 2.2 29.9906 -1.9311
	vertex 2.2 29.9906 -1.8462
endloop
endfacet
facet normal 1 0 0
outer loop
	vertex 2.2 29.9058 -1.9311
	vertex 2.2 29.9906 -1.9311
	vertex 2.2 29.9058 -1.8462
endloop
endfacet
facet normal -1 0 0
outer loop
	vertex 1 29.9058 -1.8462
	vertex 1 29.9906 -1.8462
	vertex 1 29.9058 -1.9311
endloop
endfacet
facet normal -1 0 0
outer loop
	vertex 1 29.9906 -1.8462
	vertex 1 29.9906 -1.9311
	vertex 1 29.9058 -1.9311
endloop
endfacet
facet normal 0 1 0
outer loop
	vertex 2.2 29.9906 -1.8462
	vertex 2.2 29.9906 -1.9311
	vertex 1 29.9906 -1.8462
endloop
endfacet
facet normal 0 1 0
outer loop
	vertex 2.2 29.9906 -1.9311
	vertex 1 29.9906 -1.9311
	vertex 1 29.9906 -1.8462
endloop
endfacet
facet normal 0 0 1
outer loop
	vertex 2.2 29.9058 -1.8462
	vertex 2.2 29.9906 -1.8462
	vertex 1 29.9058 -1.8462
endloop
endfacet
facet normal 0 0 1
outer loop
	vertex 2.2 29.9906 -1.8462
	vertex 1 29.9906 -1.8462
	vertex 1 29.9058 -1.8462
endloop
endfacet
facet normal 0 -1 0
outer loop
	vertex 2.2 29.9058 -1.9311
	vertex 2.2 29.9058 -1.8462
	vertex 1 29.9058 -1.9311
endloop
endfacet
facet normal 0 -1 0
outer loop
	vertex 2.2 29.9058 -1.8462
	vertex 1 29.9058 -1.8462
	vertex 1 29.9058 -1.9311
endloop
endfacet
facet normal 0 0 -1
outer loop
	vertex 2.2 29.9906 -1.9311
	vertex 2.2 29.9058 -1.9311
	vertex 1 29.9906 -1.9311
endloop
endfacet
facet normal 0 0 -1
outer loop
	vertex 2.2 29.9058 -1.9311
	vertex 1 29.9058 -1.9311
	vertex 1 29.9906 -1.9311
endloop
endfacet
facet normal 1 0 0
outer loop
	vertex 2.2 29.9058 -4.8425
	vertex 2.2 29.9906 -4.9274
	vertex 2.2 29.9906 -4.8425
endloop
endfacet
facet normal 1 0 0
outer loop
	vertex 2.2 29.9058 -4.9274
	vertex 2.2 29.9906 -4.9274
	vertex 2.2 29.9058 -4.8425
endloop
endfacet
facet normal -1 0 0
outer loop
	vertex 1 29.9058 -4.8425
	vertex 1 29.9906 -4.8425
	vertex 1 29.9058 -4.9274
endloop
endfacet
facet normal -1 0 0
outer loop
	vertex 1 29.9906 -4.8425
	vertex 1 29.9906 -4.9274
	vertex 1 29.9058 -4.9274
endloop
endfacet
facet normal 0 1 0
outer loop
	vertex 2.2 29.9906 -4.8425
	vertex 2.2 29.9906 -4.9274
	vertex 1 29.9906 -4.8425
endloop
endfacet
facet normal 0 1 0
outer loop
	vertex 2.2 29.9906 -4.9274
	vertex 1 29.9906 -4.9274
	vertex 1 29.9906 -4.8425
endloop
endfacet
facet normal 0 0 1
outer loop
	vertex 2.2 29.9058 -4.8425
	vertex 2.2 29.9906 -4.8425
	vertex 1 29.9058 -4.8425
endloop
endfacet
facet normal 0 0 1
outer loop
	vertex 2.2 29.9906 -4.8425
	vertex 1 29.9906 -4.8425
	vertex 1 29.9058 -4.8425
endloop
endfacet
facet normal 0 -1 0
outer loop
	vertex 2.2 29.9058 -4.9274
	vertex 2.2 29.9058 -4.8425
	vertex 1 29.9058 -4.9274
endloop
endfacet
facet normal 0 -1 0
outer loop
	vertex 2.2 29.9058 -4.8425
	vertex 1 29.9058 -4.8425
	vertex 1 29.9058 -4.9274
endloop
endfacet
facet normal 0 0 -1
outer loop
	vertex 2.2 29.9906 -4.9274
	vertex 2.2 29.9058 -4.9274
	vertex 1 29.9906 -4.9274
endloop
endfacet
facet normal 0 0 -1
outer loop
	vertex 2.2 29.9058 -4.9274
	vertex 1 29.9058 -4.9274
	vertex 1 29.9906 -4.9274
endloop
endfacet
facet normal 1 0 0
outer loop
	vertex 2.2 22.8383 -11.9099
	vertex 2.2 22.9232 -11.9948
	vertex 2.2 22.9232 -11.9099
endloop
endfacet
facet normal 1 0 0
outer loop
	vertex 2.2 22.8383 -11.9948
	vertex 2.2 22.9232 -11.9948
	vertex 2.2 22.8383 -11.9099
endloop
endfacet
facet normal -1 0 0
outer loop
	vertex 1 22.8383 -11.9099
	vertex 1 22.9232 -11.9099
	vertex 1 22.8383 -11.9948
endloop
endfacet
facet normal -1 0 0
outer loop
	vertex 1 22.9232 -11.9099
	vertex 1 22.9232 -11.9948
	vertex 1 22.8383 -11.9948
endloop
endfacet
facet normal 0 1 0
outer loop
	vertex 2.2 22.9232 -11.9099
	vertex 2.2 22.9232 -11.9948
	vertex 1 22.9232 -11.9099
endloop
endfacet
facet normal 0 1 0
outer loop
	vertex 2.2 22.9232 -11.9948
	vertex 1 22.9232 -11.9948
	vertex 1 22.9232 -11.9099
endloop
endfacet
facet normal 0 0 1
outer loop
	vertex 2.2 22.8383 -11.9099
	vertex 2.2 22.9232 -11.9099
	vertex 1 22.8383 -11.9099
endloop
endfacet
facet normal 0 0 1
outer loop
	vertex 2.2 22.9232 -11.9099
	vertex 1 22.9232 -11.9099
	vertex 1 22.8383 -11.9099
endloop
endfacet
facet normal 0 -1 0
outer loop
	vertex 2.2 22.8383 -11.9948
	vertex 2.2 22.8383 -11.9099
	vertex 1 22.8383 -11.9948
endloop
endfacet
facet normal 0 -1 0
outer loop
	vertex 2.2 22.8383 -11.9099
	vertex 1 22.8383 -11.9099
	vertex 1 22.8383 -11.9948
endloop
endfacet
facet normal 0 0 -1
outer loop
	vertex 2.2 22.9232 -11.9948
	vertex 2.2 22.8383 -11.9948
	vertex 1 22.9232 -11.9948
endloop
endfacet
facet normal 0 0 -1
outer loop
	vertex 2.2 22.8383 -11.9948
	vertex 1 22.8383 -11.9948
	vertex 1 22.9232 -11.9948
endloop
endfacet
facet normal 1 0 0
outer loop
	vertex 2.2 18.2398 -11.9099
	vertex 2.2 18.3247 -11.9948
	vertex 2.2 18.3247 -11.9099
endloop
endfacet
facet normal 1 0 0
outer loop
	vertex 2.2 18.2398 -11.9948
	vertex 2.2 18.3247 -11.9948
	vertex 2.2 18.2398 -11.9099
endloop
endfacet
facet normal -1 0 0
outer loop
	vertex 1 18.2398 -11.9099
	vertex 1 18.3247 -11.9099
	vertex 1 18.2398 -11.9948
endloop
endfacet
facet normal -1 0 0
outer loop
	vertex 1 18.3247 -11.9099
	vertex 1 18.3247 -11.9948
	vertex 1 18.2398 -11.9948
endloop
endfacet
facet normal 0 1 0
outer loop
	vertex 2.2 18.3247 -11.9099
	vertex 2.2 18.3247 -11.9948
	vertex 1 18.3247 -11.9099
endloop
endfacet
facet normal 0 1 0
outer loop
	vertex 2.2 18.3247 -11.9948
	vertex 1 18.3247 -11.9948
	vertex 1 18.3247 -11.9099
endloop
endfacet
facet normal 0 0 1
outer loop
	vertex 2.2 18.2398 -11.9099
	vertex 2.2 18.3247 -11.9099
	vertex 1 18.2398 -11.9099
endloop
endfacet
facet normal 0 0 1
outer loop
	vertex 2.2 18.3247 -11.9099
	vertex 1 18.3247 -11.9099
	vertex 1 18.2398 -11.9099
endloop
endfacet
facet normal 0 -1 0
outer loop
	vertex 2.2 18.2398 -11.9948
	vertex 2.2 18.2398 -11.9099
	vertex 1 18.2398 -11.9948
endloop
endfacet
facet normal 0 -1 0
outer loop
	vertex 2.2 18.2398 -11.9099
	vertex 1 18.2398 -11.9099
	vertex 1 18.2398 -11.9948
endloop
endfacet
facet normal 0 0 -1
outer loop
	vertex 2.2 18.3247 -11.9948
	vertex 2.2 18.2398 -11.9948
	vertex 1 18.3247 -11.9948
endloop
endfacet
facet normal 0 0 -1
outer loop
	vertex 2.2 18.2398 -11.9948
	vertex 1 18.2398 -11.9948
	vertex 1 18.3247 -11.9948
endloop
endfacet
facet normal 1 0 0
outer loop
	vertex 2.2 12.4676 -11.9099
	vertex 2.2 12.5524 -11.9948
	vertex 2.2 12.5524 -11.9099
endloop
endfacet
facet normal 1 0 0
outer loop
	vertex 2.2 12.4676 -11.9948
	vertex 2.2 12.5524 -11.9948
	vertex 2.2 12.4676 -11.9099
endloop
endfacet
facet normal -1 0 0
outer loop
	vertex 1 12.4676 -11.9099
	vertex 1 12.5524 -11.9099
	vertex 1 12.4676 -11.9948
endloop
endfacet
facet normal -1 0 0
outer loop
	vertex 1 12.5524 -11.9099
	vertex 1 12.5524 -11.9948
	vertex 1 12.4676 -11.9948
endloop
endfacet
facet normal 0 1 0
outer loop
	vertex 2.2 12.5524 -11.9099
	vertex 2.2 12.5524 -11.9948
	vertex 1 12.5524 -11.9099
endloop
endfacet
facet normal 0 1 0
outer loop
	vertex 2.2 12.5524 -11.9948
	vertex 1 12.5524 -11.9948
	vertex 1 12.5524 -11.9099
endloop
endfacet
facet normal 0 0 1
outer loop
	vertex 2.2 12.4676 -11.9099
	vertex 2.2 12.5524 -11.9099
	vertex 1 12.4676 -11.9099
endloop
endfacet
facet normal 0 0 1
outer loop
	vertex 2.2 12.5524 -11.9099
	vertex 1 12.5524 -11.9099
	vertex 1 12.4676 -11.9099
endloop
endfacet
facet normal 0 -1 0
outer loop
	vertex 2.2 12.4676 -11.9948
	vertex 2.2 12.4676 -11.9099
	vertex 1 12.4676 -11.9948
endloop
endfacet
facet normal 0 -1 0
outer loop
	vertex 2.2 12.4676 -11.9099
	vertex 1 12.4676 -11.9099
	vertex 1 12.4676 -11.9948
endloop
endfacet
facet normal 0 0 -1
outer loop
	vertex 2.2 12.5524 -11.9948
	vertex 2.2 12.4676 -11.9948
	vertex 1 12.5524 -11.9948
endloop
endfacet
facet normal 0 0 -1
outer loop
	vertex 2.2 12.4676 -11.9948
	vertex 1 12.4676 -11.9948
	vertex 1 12.5524 -11.9948
endloop
endfacet
facet normal 1 0 0
outer loop
	vertex 2.2 9.0428 -11.9099
	vertex 2.2 9.1277 -11.9948
	vertex 2.2 9.1277 -11.9099
endloop
endfacet
facet normal 1 0 0
outer loop
	vertex 2.2 9.0428 -11.9948
	vertex 2.2 9.1277 -11.9948
	vertex 2.2 9.0428 -11.9099
endloop
endfacet
facet normal -1 0 0
outer loop
	vertex 1 9.0428 -11.9099
	vertex 1 9.1277 -11.9099
	vertex 1 9.0428 -11.9948
endloop
endfacet
facet normal -1 0 0
outer loop
	vertex 1 9.1277 -11.9099
	vertex 1 9.1277 -11.9948
	vertex 1 9.0428 -11.9948
endloop
endfacet
facet normal 0 1 0
outer loop
	vertex 2.2 9.1277 -11.9099
	vertex 2.2 9.1277 -11.9948
	vertex 1 9.1277 -11.9099
endloop
endfacet
facet normal 0 1 0
outer loop
	vertex 2.2 9.1277 -11.9948
	vertex 1 9.1277 -11.9948
	vertex 1 9.1277 -11.9099
endloop
endfacet
facet normal 0 0 1
outer loop
	vertex 2.2 9.0428 -11.9099
	vertex 2.2 9.1277 -11.9099
	vertex 1 9.0428 -11.9099
endloop
endfacet
facet normal 0 0 1
outer loop
	vertex 2.2 9.1277 -11.9099
	vertex 1 9.1277 -11.9099
	vertex 1 9.0428 -11.9099
endloop
endfacet
facet normal 0 -1 0
outer loop
	vertex 2.2 9.0428 -11.9948
	vertex 2.2 9.0428 -11.9099
	vertex 1 9.0428 -11.9948
endloop
endfacet
facet normal 0 -1 0
outer loop
	vertex 2.2 9.0428 -11.9099
	vertex 1 9.0428 -11.9099
	vertex 1 9.0428 -11.9948
endloop
endfacet
facet normal 0 0 -1
outer loop
	vertex 2.2 9.1277 -11.9948
	vertex 2.2 9.0428 -11.9948
	vertex 1 9.1277 -11.9948
endloop
endfacet
facet normal 0 0 -1
outer loop
	vertex 2.2 9.0428 -11.9948
	vertex 1 9.0428 -11.9948
	vertex 1 9.1277 -11.9948
endloop
endfacet
facet normal 1 0 0
outer loop
	vertex 2.2 4.2184 -11.9099
	vertex 2.2 4.3033 -11.9948
	vertex 2.2 4.3033 -11.9099
endloop
endfacet
facet normal 1 0 0
outer loop
	vertex 2.2 4.2184 -11.9948
	vertex 2.2 4.3033 -11.9948
	vertex 2.2 4.2184 -11.9099
endloop
endfacet
facet normal -1 0 0
outer loop
	vertex 1 4.2184 -11.9099
	vertex 1 4.3033 -11.9099
	vertex 1 4.2184 -11.9948
endloop
endfacet
facet normal -1 0 0
outer loop
	vertex 1 4.3033 -11.9099
	vertex 1 4.3033 -11.9948
	vertex 1 4.2184 -11.9948
endloop
endfacet
facet normal 0 1 0
outer loop
	vertex 2.2 4.3033 -11.9099
	vertex 2.2 4.3033 -11.9948
	vertex 1 4.3033 -11.9099
endloop
endfacet
facet normal 0 1 0
outer loop
	vertex 2.2 4.3033 -11.9948
	vertex 1 4.3033 -11.9948
	vertex 1 4.3033 -11.9099
endloop
endfacet
facet normal 0 0 1
outer loop
	vertex 2.2 4.2184 -11.9099
	vertex 2.2 4.3033 -11.9099
	vertex 1 4.2184 -11.9099
endloop
endfacet
facet normal 0 0 1
outer loop
	vertex 2.2 4.3033 -11.9099
	vertex 1 4.3033 -11.9099
	vertex 1 4.2184 -11.9099
endloop
endfacet
facet normal 0 -1 0
outer loop
	vertex 2.2 4.2184 -11.9948
	vertex 2.2 4.2184 -11.9099
	vertex 1 4.2184 -11.9948
endloop
endfacet
facet normal 0 -1 0
outer loop
	vertex 2.2 4.2184 -11.9099
	vertex 1 4.2184 -11.9099
	vertex 1 4.2184 -11.9948
endloop
endfacet
facet normal 0 0 -1
outer loop
	vertex 2.2 4.3033 -11.9948
	vertex 2.2 4.2184 -11.9948
	vertex 1 4.3033 -11.9948
endloop
endfacet
facet normal 0 0 -1
outer loop
	vertex 2.2 4.2184 -11.9948
	vertex 1 4.2184 -11.9948
	vertex 1 4.3033 -11.9948
endloop
endfacet
facet normal 1 0 0
outer loop
	vertex 2.2 -0.1542 -11.9099
	vertex 2.2 -0.0694 -11.9948
	vertex 2.2 -0.0694 -11.9099
endloop
endfacet
facet normal 1 0 0
outer loop
	vertex 2.2 -0.1542 -11.9948
	vertex 2.2 -0.0694 -11.9948
	vertex 2.2 -0.1542 -11.9099
endloop
endfacet
facet normal -1 0 0
outer loop
	vertex 1 -0.1542 -11.9099
	vertex 1 -0.0694 -11.9099
	vertex 1 -0.1542 -11.9948
endloop
endfacet
facet normal -1 0 0
outer loop
	vertex 1 -0.0694 -11.9099
	vertex 1 -0.0694 -11.9948
	vertex 1 -0.1542 -11.9948
endloop
endfacet
facet normal 0 1 0
outer loop
	vertex 2.2 -0.0694 -11.9099
	vertex 2.2 -0.0694 -11.9948
	vertex 1 -0.0694 -11.9099
endloop
endfacet
facet normal 0 1 0
outer loop
	vertex 2.2 -0.0694 -11.9948
	vertex 1 -0.0694 -11.9948
	vertex 1 -0.0694 -11.9099
endloop
endfacet
facet normal 0 0 1
outer loop
	vertex 2.2 -0.1542 -11.9099
	vertex 2.2 -0.0694 -11.9099
	vertex 1 -0.1542 -11.9099
endloop
endfacet
facet normal 0 0 1
outer loop
	vertex 2.2 -0.0694 -11.9099
	vertex 1 -0.0694 -11.9099
	vertex 1 -0.1542 -11.9099
endloop
endfacet
facet normal 0 -1 0
outer loop
	vertex 2.2 -0.1542 -11.9948
	vertex 2.2 -0.1542 -11.9099
	vertex 1 -0.1542 -11.9948
endloop
endfacet
facet normal 0 -1 0
outer loop
	vertex 2.2 -0.1542 -11.9099
	vertex 1 -0.1542 -11.9099
	vertex 1 -0.1542 -11.9948
endloop
endfacet
facet normal 0 0 -1
outer loop
	vertex 2.2 -0.0694 -11.9948
	vertex 2.2 -0.1542 -11.9948
	vertex 1 -0.0694 -11.9948
endloop
endfacet
facet normal 0 0 -1
outer loop
	vertex 2.2 -0.1542 -11.9948
	vertex 1 -0.1542 -11.9948
	vertex 1 -0.0694 -11.9948
endloop
endfacet
facet normal 1 0 0
outer loop
	vertex 2.2 -4.5783 -11.9099
	vertex 2.2 -4.4934 -11.9948
	vertex 2.2 -4.4934 -11.9099
endloop
endfacet
facet normal 1 0 0
outer loop
	vertex 2.2 -4.5783 -11.9948
	vertex 2.2 -4.4934 -11.9948
	vertex 2.2 -4.5783 -11.9099
endloop
endfacet
facet normal -1 0 0
outer loop
	vertex 1 -4.5783 -11.9099
	vertex 1 -4.4934 -11.9099
	vertex 1 -4.5783 -11.9948
endloop
endfacet
facet normal -1 0 0
outer loop
	vertex 1 -4.4934 -11.9099
	vertex 1 -4.4934 -11.9948
	vertex 1 -4.5783 -11.9948
endloop
endfacet
facet normal 0 1 0
outer loop
	vertex 2.2 -4.4934 -11.9099
	vertex 2.2 -4.4934 -11.9948
	vertex 1 -4.4934 -11.9099
endloop
endfacet
facet normal 0 1 0
outer loop
	vertex 2.2 -4.4934 -11.9948
	vertex 1 -4.4934 -11.9948
	vertex 1 -4.4934 -11.9099
endloop
endfacet
facet normal 0 0 1
outer loop
	vertex 2.2 -4.5783 -11.9099
	vertex 2.2 -4.4934 -11.9099
	vertex 1 -4.5783 -11.9099
endloop
endfacet
facet normal 0 0 1
outer loop
	vertex 2.2 -4.4934 -11.9099
	vertex 1 -4.4934 -11.9099
	vertex 1 -4.5783 -11.9099
endloop
endfacet
facet normal 0 -1 0
outer loop
	vertex 2.2 -4.5783 -11.9948
	vertex 2.2 -4.5783 -11.9099
	vertex 1 -4.5783 -11.9948
endloop
endfacet
facet normal 0 -1 0
outer loop
	vertex 2.2 -4.5783 -11.9099
	vertex 1 -4.5783 -11.9099
	vertex 1 -4.5783 -11.9948
endloop
endfacet
facet normal 0 0 -1
outer loop
	vertex 2.2 -4.4934 -11.9948
	vertex 2.2 -4.5783 -11.9948
	vertex 1 -4.4934 -11.9948
endloop
endfacet
facet normal 0 0 -1
outer loop
	vertex 2.2 -4.5783 -11.9948
	vertex 1 -4.5783 -11.9948
	vertex 1 -4.4934 -11.9948
endloop
endfacet
facet normal 1 0 0
outer loop
	vertex 2.2 -9.3512 -11.9099
	vertex 2.2 -9.2664 -11.9948
	vertex 2.2 -9.2664 -11.9099
endloop
endfacet
facet normal 1 0 0
outer loop
	vertex 2.2 -9.3512 -11.9948
	vertex 2.2 -9.2664 -11.9948
	vertex 2.2 -9.3512 -11.9099
endloop
endfacet
facet normal -1 0 0
outer loop
	vertex 1 -9.3512 -11.9099
	vertex 1 -9.2664 -11.9099
	vertex 1 -9.3512 -11.9948
endloop
endfacet
facet normal -1 0 0
outer loop
	vertex 1 -9.2664 -11.9099
	vertex 1 -9.2664 -11.9948
	vertex 1 -9.3512 -11.9948
endloop
endfacet
facet normal 0 1 0
outer loop
	vertex 2.2 -9.2664 -11.9099
	vertex 2.2 -9.2664 -11.9948
	vertex 1 -9.2664 -11.9099
endloop
endfacet
facet normal 0 1 0
outer loop
	vertex 2.2 -9.2664 -11.9948
	vertex 1 -9.2664 -11.9948
	vertex 1 -9.2664 -11.9099
endloop
endfacet
facet normal 0 0 1
outer loop
	vertex 2.2 -9.3512 -11.9099
	vertex 2.2 -9.2664 -11.9099
	vertex 1 -9.3512 -11.9099
endloop
endfacet
facet normal 0 0 1
outer loop
	vertex 2.2 -9.2664 -11.9099
	vertex 1 -9.2664 -11.9099
	vertex 1 -9.3512 -11.9099
endloop
endfacet
facet normal 0 -1 0
outer loop
	vertex 2.2 -9.3512 -11.9948
	vertex 2.2 -9.3512 -11.9099
	vertex 1 -9.3512 -11.9948
endloop
endfacet
facet normal 0 -1 0
outer loop
	vertex 2.2 -9.3512 -11.9099
	vertex 1 -9.3512 -11.9099
	vertex 1 -9.3512 -11.9948
endloop
endfacet
facet normal 0 0 -1
outer loop
	vertex 2.2 -9.2664 -11.9948
	vertex 2.2 -9.3512 -11.9948
	vertex 1 -9.2664 -11.9948
endloop
endfacet
facet normal 0 0 -1
outer loop
	vertex 2.2 -9.3512 -11.9948
	vertex 1 -9.3512 -11.9948
	vertex 1 -9.2664 -11.9948
endloop
endfacet
facet normal 1 0 0
outer loop
	vertex 2.2 -15.0141 -11.9099
	vertex 2.2 -14.9293 -11.9948
	vertex 2.2 -14.9293 -11.9099
endloop
endfacet
facet normal 1 0 0
outer loop
	vertex 2.2 -15.0141 -11.9948
	vertex 2.2 -14.9293 -11.9948
	vertex 2.2 -15.0141 -11.9099
endloop
endfacet
facet normal -1 0 0
outer loop
	vertex 1 -15.0141 -11.9099
	vertex 1 -14.9293 -11.9099
	vertex 1 -15.0141 -11.9948
endloop
endfacet
facet normal -1 0 0
outer loop
	vertex 1 -14.9293 -11.9099
	vertex 1 -14.9293 -11.9948
	vertex 1 -15.0141 -11.9948
endloop
endfacet
facet normal 0 1 0
outer loop
	vertex 2.2 -14.9293 -11.9099
	vertex 2.2 -14.9293 -11.9948
	vertex 1 -14.9293 -11.9099
endloop
endfacet
facet normal 0 1 0
outer loop
	vertex 2.2 -14.9293 -11.9948
	vertex 1 -14.9293 -11.9948
	vertex 1 -14.9293 -11.9099
endloop
endfacet
facet normal 0 0 1
outer loop
	vertex 2.2 -15.0141 -11.9099
	vertex 2.2 -14.9293 -11.9099
	vertex 1 -15.0141 -11.9099
endloop
endfacet
facet normal 0 0 1
outer loop
	vertex 2.2 -14.9293 -11.9099
	vertex 1 -14.9293 -11.9099
	vertex 1 -15.0141 -11.9099
endloop
endfacet
facet normal 0 -1 0
outer loop
	vertex 2.2 -15.0141 -11.9948
	vertex 2.2 -15.0141 -11.9099
	vertex 1 -15.0141 -11.9948
endloop
endfacet
facet normal 0 -1 0
outer loop
	vertex 2.2 -15.0141 -11.9099
	vertex 1 -15.0141 -11.9099
	vertex 1 -15.0141 -11.9948
endloop
endfacet
facet normal 0 0 -1
outer loop
	vertex 2.2 -14.9293 -11.9948
	vertex 2.2 -15.0141 -11.9948
	vertex 1 -14.9293 -11.9948
endloop
endfacet
facet normal 0 0 -1
outer loop
	vertex 2.2 -15.0141 -11.9948
	vertex 1 -15.0141 -11.9948
	vertex 1 -14.9293 -11.9948
endloop
endfacet
facet normal 1 0 0
outer loop
	vertex 2.2 -18.5483 -11.9099
	vertex 2.2 -18.4634 -11.9948
	vertex 2.2 -18.4634 -11.9099
endloop
endfacet
facet normal 1 0 0
outer loop
	vertex 2.2 -18.5483 -11.9948
	vertex 2.2 -18.4634 -11.9948
	vertex 2.2 -18.5483 -11.9099
endloop
endfacet
facet normal -1 0 0
outer loop
	vertex 1 -18.5483 -11.9099
	vertex 1 -18.4634 -11.9099
	vertex 1 -18.5483 -11.9948
endloop
endfacet
facet normal -1 0 0
outer loop
	vertex 1 -18.4634 -11.9099
	vertex 1 -18.4634 -11.9948
	vertex 1 -18.5483 -11.9948
endloop
endfacet
facet normal 0 1 0
outer loop
	vertex 2.2 -18.4634 -11.9099
	vertex 2.2 -18.4634 -11.9948
	vertex 1 -18.4634 -11.9099
endloop
endfacet
facet normal 0 1 0
outer loop
	vertex 2.2 -18.4634 -11.9948
	vertex 1 -18.4634 -11.9948
	vertex 1 -18.4634 -11.9099
endloop
endfacet
facet normal 0 0 1
outer loop
	vertex 2.2 -18.5483 -11.9099
	vertex 2.2 -18.4634 -11.9099
	vertex 1 -18.5483 -11.9099
endloop
endfacet
facet normal 0 0 1
outer loop
	vertex 2.2 -18.4634 -11.9099
	vertex 1 -18.4634 -11.9099
	vertex 1 -18.5483 -11.9099
endloop
endfacet
facet normal 0 -1 0
outer loop
	vertex 2.2 -18.5483 -11.9948
	vertex 2.2 -18.5483 -11.9099
	vertex 1 -18.5483 -11.9948
endloop
endfacet
facet normal 0 -1 0
outer loop
	vertex 2.2 -18.5483 -11.9099
	vertex 1 -18.5483 -11.9099
	vertex 1 -18.5483 -11.9948
endloop
endfacet
facet normal 0 0 -1
outer loop
	vertex 2.2 -18.4634 -11.9948
	vertex 2.2 -18.5483 -11.9948
	vertex 1 -18.4634 -11.9948
endloop
endfacet
facet normal 0 0 -1
outer loop
	vertex 2.2 -18.5483 -11.9948
	vertex 1 -18.5483 -11.9948
	vertex 1 -18.4634 -11.9948
endloop
endfacet
facet normal 1 0 0
outer loop
	vertex 2.2 -23.1468 -11.9099
	vertex 2.2 -23.0619 -11.9948
	vertex 2.2 -23.0619 -11.9099
endloop
endfacet
facet normal 1 0 0
outer loop
	vertex 2.2 -23.1468 -11.9948
	vertex 2.2 -23.0619 -11.9948
	vertex 2.2 -23.1468 -11.9099
endloop
endfacet
facet normal -1 0 0
outer loop
	vertex 1 -23.1468 -11.9099
	vertex 1 -23.0619 -11.9099
	vertex 1 -23.1468 -11.9948
endloop
endfacet
facet normal -1 0 0
outer loop
	vertex 1 -23.0619 -11.9099
	vertex 1 -23.0619 -11.9948
	vertex 1 -23.1468 -11.9948
endloop
endfacet
facet normal 0 1 0
outer loop
	vertex 2.2 -23.0619 -11.9099
	vertex 2.2 -23.0619 -11.9948
	vertex 1 -23.0619 -11.9099
endloop
endfacet
facet normal 0 1 0
outer loop
	vertex 2.2 -23.0619 -11.9948
	vertex 1 -23.0619 -11.9948
	vertex 1 -23.0619 -11.9099
endloop
endfacet
facet normal 0 0 1
outer loop
	vertex 2.2 -23.1468 -11.9099
	vertex 2.2 -23.0619 -11.9099
	vertex 1 -23.1468 -11.9099
endloop
endfacet
facet normal 0 0 1
outer loop
	vertex 2.2 -23.0619 -11.9099
	vertex 1 -23.0619 -11.9099
	vertex 1 -23.1468 -11.9099
endloop
endfacet
facet normal 0 -1 0
outer loop
	vertex 2.2 -23.1468 -11.9948
	vertex 2.2 -23.1468 -11.9099
	vertex 1 -23.1468 -11.9948
endloop
endfacet
facet normal 0 -1 0
outer loop
	vertex 2.2 -23.1468 -11.9099
	vertex 1 -23.1468 -11.9099
	vertex 1 -23.1468 -11.9948
endloop
endfacet
facet normal 0 0 -1
outer loop
	vertex 2.2 -23.0619 -11.9948
	vertex 2.2 -23.1468 -11.9948
	vertex 1 -23.0619 -11.9948
endloop
endfacet
facet normal 0 0 -1
outer loop
	vertex 2.2 -23.1468 -11.9948
	vertex 1 -23.1468 -11.9948
	vertex 1 -23.0619 -11.9948
endloop
endfacet
facet normal 1 0 0
outer loop
	vertex 2.2 -30.2142 -4.8425
	vertex 2.2 -30.1294 -4.9274
	vertex 2.2 -30.1294 -4.8425
endloop
endfacet
facet normal 1 0 0
outer loop
	vertex 2.2 -30.2142 -4.9274
	vertex 2.2 -30.1294 -4.9274
	vertex 2.2 -30.2142 -4.8425
endloop
endfacet
facet normal -1 0 0
outer loop
	vertex 1 -30.2142 -4.8425
	vertex 1 -30.1294 -4.8425
	vertex 1 -30.2142 -4.9274
endloop
endfacet
facet normal -1 0 0
outer loop
	vertex 1 -30.1294 -4.8425
	vertex 1 -30.1294 -4.9274
	vertex 1 -30.2142 -4.9274
endloop
endfacet
facet normal 0 1 0
outer loop
	vertex 2.2 -30.1294 -4.8425
	vertex 2.2 -30.1294 -4.9274
	vertex 1 -30.1294 -4.8425
endloop
endfacet
facet normal 0 1 0
outer loop
	vertex 2.2 -30.1294 -4.9274
	vertex 1 -30.1294 -4.9274
	vertex 1 -30.1294 -4.8425
endloop
endfacet
facet normal 0 0 1
outer loop
	vertex 2.2 -30.2142 -4.8425
	vertex 2.2 -30.1294 -4.8425
	vertex 1 -30.2142 -4.8425
endloop
endfacet
facet normal 0 0 1
outer loop
	vertex 2.2 -30.1294 -4.8425
	vertex 1 -30.1294 -4.8425
	vertex 1 -30.2142 -4.8425
endloop
endfacet
facet normal 0 -1 0
outer loop
	vertex 2.2 -30.2142 -4.9274
	vertex 2.2 -30.2142 -4.8425
	vertex 1 -30.2142 -4.9274
endloop
endfacet
facet normal 0 -1 0
outer loop
	vertex 2.2 -30.2142 -4.8425
	vertex 1 -30.2142 -4.8425
	vertex 1 -30.2142 -4.9274
endloop
endfacet
facet normal 0 0 -1
outer loop
	vertex 2.2 -30.1294 -4.9274
	vertex 2.2 -30.2142 -4.9274
	vertex 1 -30.1294 -4.9274
endloop
endfacet
facet normal 0 0 -1
outer loop
	vertex 2.2 -30.2142 -4.9274
	vertex 1 -30.2142 -4.9274
	vertex 1 -30.1294 -4.9274
endloop
endfacet
facet normal 1 0 0
outer loop
	vertex 2.2 -30.2142 -1.8462
	vertex 2.2 -30.1294 -1.9311
	vertex 2.2 -30.1294 -1.8462
endloop
endfacet
facet normal 1 0 0
outer loop
	vertex 2.2 -30.2142 -1.9311
	vertex 2.2 -30.1294 -1.9311
	vertex 2.2 -30.2142 -1.8462
endloop
endfacet
facet normal -1 0 0
outer loop
	vertex 1 -30.2142 -1.8462
	vertex 1 -30.1294 -1.8462
	vertex 1 -30.2142 -1.9311
endloop
endfacet
facet normal -1 0 0
outer loop
	vertex 1 -30.1294 -1.8462
	vertex 1 -30.1294 -1.9311
	vertex 1 -30.2142 -1.9311
endloop
endfacet
facet normal 0 1 0
outer loop
	vertex 2.2 -30.1294 -1.8462
	vertex 2.2 -30.1294 -1.9311
	vertex 1 -30.1294 -1.8462
endloop
endfacet
facet normal 0 1 0
outer loop
	vertex 2.2 -30.1294 -1.9311
	vertex 1 -30.1294 -1.9311
	vertex 1 -30.1294 -1.8462
endloop
endfacet
facet normal 0 0 1
outer loop
	vertex 2.2 -30.2142 -1.8462
	vertex 2.2 -30.1294 -1.8462
	vertex 1 -30.2142 -1.8462
endloop
endfacet
facet normal 0 0 1
outer loop
	vertex 2.2 -30.1294 -1.8462
	vertex 1 -30.1294 -1.8462
	vertex 1 -30.2142 -1.8462
endloop
endfacet
facet normal 0 -1 0
outer loop
	vertex 2.2 -30.2142 -1.9311
	vertex 2.2 -30.2142 -1.8462
	vertex 1 -30.2142 -1.9311
endloop
endfacet
facet normal 0 -1 0
outer loop
	vertex 2.2 -30.2142 -1.8462
	vertex 1 -30.2142 -1.8462
	vertex 1 -30.2142 -1.9311
endloop
endfacet
facet normal 0 0 -1
outer loop
	vertex 2.2 -30.1294 -1.9311
	vertex 2.2 -30.2142 -1.9311
	vertex 1 -30.1294 -1.9311
endloop
endfacet
facet normal 0 0 -1
outer loop
	vertex 2.2 -30.2142 -1.9311
	vertex 1 -30.2142 -1.9311
	vertex 1 -30.1294 -1.9311
endloop
endfacet
facet normal 1 0 0
outer loop
	vertex 2.2 -30.2142 1.1501
	vertex 2.2 -30.1294 1.0652
	vertex 2.2 -30.1294 1.1501
endloop
endfacet
facet normal 1 0 0
outer loop
	vertex 2.2 -30.2142 1.0652
	vertex 2.2 -30.1294 1.0652
	vertex 2.2 -30.2142 1.1501
endloop
endfacet
facet normal -1 0 0
outer loop
	vertex 1 -30.2142 1.1501
	vertex 1 -30.1294 1.1501
	vertex 1 -30.2142 1.0652
endloop
endfacet
facet normal -1 0 0
outer loop
	vertex 1 -30.1294 1.1501
	vertex 1 -30.1294 1.0652
	vertex 1 -30.2142 1.0652
endloop
endfacet
facet normal 0 1 0
outer loop
	vertex 2.2 -30.1294 1.1501
	vertex 2.2 -30.1294 1.0652
	vertex 1 -30.1294 1.1501
endloop
endfacet
facet normal 0 1 0
outer loop
	vertex 2.2 -30.1294 1.0652
	vertex 1 -30.1294 1.0652
	vertex 1 -30.1294 1.1501
endloop
endfacet
facet normal 0 0 1
outer loop
	vertex 2.2 -30.2142 1.1501
	vertex 2.2 -30.1294 1.1501
	vertex 1 -30.2142 1.1501
endloop
endfacet
facet normal 0 0 1
outer loop
	vertex 2.2 -30.1294 1.1501
	vertex 1 -30.1294 1.1501
	vertex 1 -30.2142 1.1501
endloop
endfacet
facet normal 0 -1 0
outer loop
	vertex 2.2 -30.2142 1.0652
	vertex 2.2 -30.2142 1.1501
	vertex 1 -30.2142 1.0652
endloop
endfacet
facet normal 0 -1 0
outer loop
	vertex 2.2 -30.2142 1.1501
	vertex 1 -30.2142 1.1501
	vertex 1 -30.2142 1.0652
endloop
endfacet
facet normal 0 0 -1
outer loop
	vertex 2.2 -30.1294 1.0652
	vertex 2.2 -30.2142 1.0652
	vertex 1 -30.1294 1.0652
endloop
endfacet
facet normal 0 0 -1
outer loop
	vertex 2.2 -30.2142 1.0652
	vertex 1 -30.2142 1.0652
	vertex 1 -30.1294 1.0652
endloop
endfacet
facet normal 1 0 0
outer loop
	vertex 2.2 -30.2142 4.1463
	vertex 2.2 -30.1294 4.0615
	vertex 2.2 -30.1294 4.1463
endloop
endfacet
facet normal 1 0 0
outer loop
	vertex 2.2 -30.2142 4.0615
	vertex 2.2 -30.1294 4.0615
	vertex 2.2 -30.2142 4.1463
endloop
endfacet
facet normal -1 0 0
outer loop
	vertex 1 -30.2142 4.1463
	vertex 1 -30.1294 4.1463
	vertex 1 -30.2142 4.0615
endloop
endfacet
facet normal -1 0 0
outer loop
	vertex 1 -30.1294 4.1463
	vertex 1 -30.1294 4.0615
	vertex 1 -30.2142 4.0615
endloop
endfacet
facet normal 0 1 0
outer loop
	vertex 2.2 -30.1294 4.1463
	vertex 2.2 -30.1294 4.0615
	vertex 1 -30.1294 4.1463
endloop
endfacet
facet normal 0 1 0
outer loop
	vertex 2.2 -30.1294 4.0615
	vertex 1 -30.1294 4.0615
	vertex 1 -30.1294 4.1463
endloop
endfacet
facet normal 0 0 1
outer loop
	vertex 2.2 -30.2142 4.1463
	vertex 2.2 -30.1294 4.1463
	vertex 1 -30.2142 4.1463
endloop
endfacet
facet normal 0 0 1
outer loop
	vertex 2.2 -30.1294 4.1463
	vertex 1 -30.1294 4.1463
	vertex 1 -30.2142 4.1463
endloop
endfacet
facet normal 0 -1 0
outer loop
	vertex 2.2 -30.2142 4.0615
	vertex 2.2 -30.2142 4.1463
	vertex 1 -30.2142 4.0615
endloop
endfacet
facet normal 0 -1 0
outer loop
	vertex 2.2 -30.2142 4.1463
	vertex 1 -30.2142 4.1463
	vertex 1 -30.2142 4.0615
endloop
endfacet
facet normal 0 0 -1
outer loop
	vertex 2.2 -30.1294 4.0615
	vertex 2.2 -30.2142 4.0615
	vertex 1 -30.1294 4.0615
endloop
endfacet
facet normal 0 0 -1
outer loop
	vertex 2.2 -30.2142 4.0615
	vertex 1 -30.2142 4.0615
	vertex 1 -30.1294 4.0615
endloop
endfacet
facet normal 1 0 0
outer loop
	vertex 2.2 -30.2142 7.1426
	vertex 2.2 -30.1294 7.057799
	vertex 2.2 -30.1294 7.1426
endloop
endfacet
facet normal 1 0 0
outer loop
	vertex 2.2 -30.2142 7.057799
	vertex 2.2 -30.1294 7.057799
	vertex 2.2 -30.2142 7.1426
endloop
endfacet
facet normal -1 0 0
outer loop
	vertex 1 -30.2142 7.1426
	vertex 1 -30.1294 7.1426
	vertex 1 -30.2142 7.057799
endloop
endfacet
facet normal -1 0 0
outer loop
	vertex 1 -30.1294 7.1426
	vertex 1 -30.1294 7.057799
	vertex 1 -30.2142 7.057799
endloop
endfacet
facet normal 0 1 0
outer loop
	vertex 2.2 -30.1294 7.1426
	vertex 2.2 -30.1294 7.057799
	vertex 1 -30.1294 7.1426
endloop
endfacet
facet normal 0 1 0
outer loop
	vertex 2.2 -30.1294 7.057799
	vertex 1 -30.1294 7.057799
	vertex 1 -30.1294 7.1426
endloop
endfacet
facet normal 0 0 1
outer loop
	vertex 2.2 -30.2142 7.1426
	vertex 2.2 -30.1294 7.1426
	vertex 1 -30.2142 7.1426
endloop
endfacet
facet normal 0 0 1
outer loop
	vertex 2.2 -30.1294 7.1426
	vertex 1 -30.1294 7.1426
	vertex 1 -30.2142 7.1426
endloop
endfacet
facet normal 0 -1 0
outer loop
	vertex 2.2 -30.2142 7.057799
	vertex 2.2 -30.2142 7.1426
	vertex 1 -30.2142 7.057799
endloop
endfacet
facet normal 0 -1 0
outer loop
	vertex 2.2 -30.2142 7.1426
	vertex 1 -30.2142 7.1426
	vertex 1 -30.2142 7.057799
endloop
endfacet
facet normal 0 0 -1
outer loop
	vertex 2.2 -30.1294 7.057799
	vertex 2.2 -30.2142 7.057799
	vertex 1 -30.1294 7.057799
endloop
endfacet
facet normal 0 0 -1
outer loop
	vertex 2.2 -30.2142 7.057799
	vertex 1 -30.2142 7.057799
	vertex 1 -30.1294 7.057799
endloop
endfacet
facet normal 1 0 0
outer loop
	vertex 2.2 -23.1468 14.2101
	vertex 2.2 -23.0619 14.1252
	vertex 2.2 -23.0619 14.2101
endloop
endfacet
facet normal 1 0 0
outer loop
	vertex 2.2 -23.1468 14.1252
	vertex 2.2 -23.0619 14.1252
	vertex 2.2 -23.1468 14.2101
endloop
endfacet
facet normal -1 0 0
outer loop
	vertex 1 -23.1468 14.2101
	vertex 1 -23.0619 14.2101
	vertex 1 -23.1468 14.1252
endloop
endfacet
facet normal -1 0 0
outer loop
	vertex 1 -23.0619 14.2101
	vertex 1 -23.0619 14.1252
	vertex 1 -23.1468 14.1252
endloop
endfacet
facet normal 0 1 0
outer loop
	vertex 2.2 -23.0619 14.2101
	vertex 2.2 -23.0619 14.1252
	vertex 1 -23.0619 14.2101
endloop
endfacet
facet normal 0 1 0
outer loop
	vertex 2.2 -23.0619 14.1252
	vertex 1 -23.0619 14.1252
	vertex 1 -23.0619 14.2101
endloop
endfacet
facet normal 0 0 1
outer loop
	vertex 2.2 -23.1468 14.2101
	vertex 2.2 -23.0619 14.2101
	vertex 1 -23.1468 14.2101
endloop
endfacet
facet normal 0 0 1
outer loop
	vertex 2.2 -23.0619 14.2101
	vertex 1 -23.0619 14.2101
	vertex 1 -23.1468 14.2101
endloop
endfacet
facet normal 0 -1 0
outer loop
	vertex 2.2 -23.1468 14.1252
	vertex 2.2 -23.1468 14.2101
	vertex 1 -23.1468 14.1252
endloop
endfacet
facet normal 0 -1 0
outer loop
	vertex 2.2 -23.1468 14.2101
	vertex 1 -23.1468 14.2101
	vertex 1 -23.1468 14.1252
endloop
endfacet
facet normal 0 0 -1
outer loop
	vertex 2.2 -23.0619 14.1252
	vertex 2.2 -23.1468 14.1252
	vertex 1 -23.0619 14.1252
endloop
endfacet
facet normal 0 0 -1
outer loop
	vertex 2.2 -23.1468 14.1252
	vertex 1 -23.1468 14.1252
	vertex 1 -23.0619 14.1252
endloop
endfacet
facet normal 1 0 0
outer loop
	vertex 2.2 -18.5483 14.2101
	vertex 2.2 -18.4634 14.1252
	vertex 2.2 -18.4634 14.2101
endloop
endfacet
facet normal 1 0 0
outer loop
	vertex 2.2 -18.5483 14.1252
	vertex 2.2 -18.4634 14.1252
	vertex 2.2 -18.5483 14.2101
endloop
endfacet
facet normal -1 0 0
outer loop
	vertex 1 -18.5483 14.2101
	vertex 1 -18.4634 14.2101
	vertex 1 -18.5483 14.1252
endloop
endfacet
facet normal -1 0 0
outer loop
	vertex 1 -18.4634 14.2101
	vertex 1 -18.4634 14.1252
	vertex 1 -18.5483 14.1252
endloop
endfacet
facet normal 0 1 0
outer loop
	vertex 2.2 -18.4634 14.2101
	vertex 2.2 -18.4634 14.1252
	vertex 1 -18.4634 14.2101
endloop
endfacet
facet normal 0 1 0
outer loop
	vertex 2.2 -18.4634 14.1252
	vertex 1 -18.4634 14.1252
	vertex 1 -18.4634 14.2101
endloop
endfacet
facet normal 0 0 1
outer loop
	vertex 2.2 -18.5483 14.2101
	vertex 2.2 -18.4634 14.2101
	vertex 1 -18.5483 14.2101
endloop
endfacet
facet normal 0 0 1
outer loop
	vertex 2.2 -18.4634 14.2101
	vertex 1 -18.4634 14.2101
	vertex 1 -18.5483 14.2101
endloop
endfacet
facet normal 0 -1 0
outer loop
	vertex 2.2 -18.5483 14.1252
	vertex 2.2 -18.5483 14.2101
	vertex 1 -18.5483 14.1252
endloop
endfacet
facet normal 0 -1 0
outer loop
	vertex 2.2 -18.5483 14.2101
	vertex 1 -18.5483 14.2101
	vertex 1 -18.5483 14.1252
endloop
endfacet
facet normal 0 0 -1
outer loop
	vertex 2.2 -18.4634 14.1252
	vertex 2.2 -18.5483 14.1252
	vertex 1 -18.4634 14.1252
endloop
endfacet
facet normal 0 0 -1
outer loop
	vertex 2.2 -18.5483 14.1252
	vertex 1 -18.5483 14.1252
	vertex 1 -18.4634 14.1252
endloop
endfacet
facet normal 1 0 0
outer loop
	vertex 2.2 -13.9498 14.2101
	vertex 2.2 -13.8649 14.1252
	vertex 2.2 -13.8649 14.2101
endloop
endfacet
facet normal 1 0 0
outer loop
	vertex 2.2 -13.9498 14.1252
	vertex 2.2 -13.8649 14.1252
	vertex 2.2 -13.9498 14.2101
endloop
endfacet
facet normal -1 0 0
outer loop
	vertex 1 -13.9498 14.2101
	vertex 1 -13.8649 14.2101
	vertex 1 -13.9498 14.1252
endloop
endfacet
facet normal -1 0 0
outer loop
	vertex 1 -13.8649 14.2101
	vertex 1 -13.8649 14.1252
	vertex 1 -13.9498 14.1252
endloop
endfacet
facet normal 0 1 0
outer loop
	vertex 2.2 -13.8649 14.2101
	vertex 2.2 -13.8649 14.1252
	vertex 1 -13.8649 14.2101
endloop
endfacet
facet normal 0 1 0
outer loop
	vertex 2.2 -13.8649 14.1252
	vertex 1 -13.8649 14.1252
	vertex 1 -13.8649 14.2101
endloop
endfacet
facet normal 0 0 1
outer loop
	vertex 2.2 -13.9498 14.2101
	vertex 2.2 -13.8649 14.2101
	vertex 1 -13.9498 14.2101
endloop
endfacet
facet normal 0 0 1
outer loop
	vertex 2.2 -13.8649 14.2101
	vertex 1 -13.8649 14.2101
	vertex 1 -13.9498 14.2101
endloop
endfacet
facet normal 0 -1 0
outer loop
	vertex 2.2 -13.9498 14.1252
	vertex 2.2 -13.9498 14.2101
	vertex 1 -13.9498 14.1252
endloop
endfacet
facet normal 0 -1 0
outer loop
	vertex 2.2 -13.9498 14.2101
	vertex 1 -13.9498 14.2101
	vertex 1 -13.9498 14.1252
endloop
endfacet
facet normal 0 0 -1
outer loop
	vertex 2.2 -13.8649 14.1252
	vertex 2.2 -13.9498 14.1252
	vertex 1 -13.8649 14.1252
endloop
endfacet
facet normal 0 0 -1
outer loop
	vertex 2.2 -13.9498 14.1252
	vertex 1 -13.9498 14.1252
	vertex 1 -13.8649 14.1252
endloop
endfacet
facet normal 1 0 0
outer loop
	vertex 2.2 -9.3512 14.2101
	vertex 2.2 -9.2664 14.1252
	vertex 2.2 -9.2664 14.2101
endloop
endfacet
facet normal 1 0 0
outer loop
	vertex 2.2 -9.3512 14.1252
	vertex 2.2 -9.2664 14.1252
	vertex 2.2 -9.3512 14.2101
endloop
endfacet
facet normal -1 0 0
outer loop
	vertex 1 -9.3512 14.2101
	vertex 1 -9.2664 14.2101
	vertex 1 -9.3512 14.1252
endloop
endfacet
facet normal -1 0 0
outer loop
	vertex 1 -9.2664 14.2101
	vertex 1 -9.2664 14.1252
	vertex 1 -9.3512 14.1252
endloop
endfacet
facet normal 0 1 0
outer loop
	vertex 2.2 -9.2664 14.2101
	vertex 2.2 -9.2664 14.1252
	vertex 1 -9.2664 14.2101
endloop
endfacet
facet normal 0 1 0
outer loop
	vertex 2.2 -9.2664 14.1252
	vertex 1 -9.2664 14.1252
	vertex 1 -9.2664 14.2101
endloop
endfacet
facet normal 0 0 1
outer loop
	vertex 2.2 -9.3512 14.2101
	vertex 2.2 -9.2664 14.2101
	vertex 1 -9.3512 14.2101
endloop
endfacet
facet normal 0 0 1
outer loop
	vertex 2.2 -9.2664 14.2101
	vertex 1 -9.2664 14.2101
	vertex 1 -9.3512 14.2101
endloop
endfacet
facet normal 0 -1 0
outer loop
	vertex 2.2 -9.3512 14.1252
	vertex 2.2 -9.3512 14.2101
	vertex 1 -9.3512 14.1252
endloop
endfacet
facet normal 0 -1 0
outer loop
	vertex 2.2 -9.3512 14.2101
	vertex 1 -9.3512 14.2101
	vertex 1 -9.3512 14.1252
endloop
endfacet
facet normal 0 0 -1
outer loop
	vertex 2.2 -9.2664 14.1252
	vertex 2.2 -9.3512 14.1252
	vertex 1 -9.2664 14.1252
endloop
endfacet
facet normal 0 0 -1
outer loop
	vertex 2.2 -9.3512 14.1252
	vertex 1 -9.3512 14.1252
	vertex 1 -9.2664 14.1252
endloop
endfacet
facet normal 1 0 0
outer loop
	vertex 2.2 -5.2631 14.2101
	vertex 2.2 -5.1783 14.1252
	vertex 2.2 -5.1783 14.2101
endloop
endfacet
facet normal 1 0 0
outer loop
	vertex 2.2 -5.2631 14.1252
	vertex 2.2 -5.1783 14.1252
	vertex 2.2 -5.2631 14.2101
endloop
endfacet
facet normal -1 0 0
outer loop
	vertex 1 -5.2631 14.2101
	vertex 1 -5.1783 14.2101
	vertex 1 -5.2631 14.1252
endloop
endfacet
facet normal -1 0 0
outer loop
	vertex 1 -5.1783 14.2101
	vertex 1 -5.1783 14.1252
	vertex 1 -5.2631 14.1252
endloop
endfacet
facet normal 0 1 0
outer loop
	vertex 2.2 -5.1783 14.2101
	vertex 2.2 -5.1783 14.1252
	vertex 1 -5.1783 14.2101
endloop
endfacet
facet normal 0 1 0
outer loop
	vertex 2.2 -5.1783 14.1252
	vertex 1 -5.1783 14.1252
	vertex 1 -5.1783 14.2101
endloop
endfacet
facet normal 0 0 1
outer loop
	vertex 2.2 -5.2631 14.2101
	vertex 2.2 -5.1783 14.2101
	vertex 1 -5.2631 14.2101
endloop
endfacet
facet normal 0 0 1
outer loop
	vertex 2.2 -5.1783 14.2101
	vertex 1 -5.1783 14.2101
	vertex 1 -5.2631 14.2101
endloop
endfacet
facet normal 0 -1 0
outer loop
	vertex 2.2 -5.2631 14.1252
	vertex 2.2 -5.2631 14.2101
	vertex 1 -5.2631 14.1252
endloop
endfacet
facet normal 0 -1 0
outer loop
	vertex 2.2 -5.2631 14.2101
	vertex 1 -5.2631 14.2101
	vertex 1 -5.2631 14.1252
endloop
endfacet
facet normal 0 0 -1
outer loop
	vertex 2.2 -5.1783 14.1252
	vertex 2.2 -5.2631 14.1252
	vertex 1 -5.1783 14.1252
endloop
endfacet
facet normal 0 0 -1
outer loop
	vertex 2.2 -5.2631 14.1252
	vertex 1 -5.2631 14.1252
	vertex 1 -5.1783 14.1252
endloop
endfacet
facet normal 1 0 0
outer loop
	vertex 2.2 -0.1542 14.2101
	vertex 2.2 -0.0694 14.1252
	vertex 2.2 -0.0694 14.2101
endloop
endfacet
facet normal 1 0 0
outer loop
	vertex 2.2 -0.1542 14.1252
	vertex 2.2 -0.0694 14.1252
	vertex 2.2 -0.1542 14.2101
endloop
endfacet
facet normal -1 0 0
outer loop
	vertex 1 -0.1542 14.2101
	vertex 1 -0.0694 14.2101
	vertex 1 -0.1542 14.1252
endloop
endfacet
facet normal -1 0 0
outer loop
	vertex 1 -0.0694 14.2101
	vertex 1 -0.0694 14.1252
	vertex 1 -0.1542 14.1252
endloop
endfacet
facet normal 0 1 0
outer loop
	vertex 2.2 -0.0694 14.2101
	vertex 2.2 -0.0694 14.1252
	vertex 1 -0.0694 14.2101
endloop
endfacet
facet normal 0 1 0
outer loop
	vertex 2.2 -0.0694 14.1252
	vertex 1 -0.0694 14.1252
	vertex 1 -0.0694 14.2101
endloop
endfacet
facet normal 0 0 1
outer loop
	vertex 2.2 -0.1542 14.2101
	vertex 2.2 -0.0694 14.2101
	vertex 1 -0.1542 14.2101
endloop
endfacet
facet normal 0 0 1
outer loop
	vertex 2.2 -0.0694 14.2101
	vertex 1 -0.0694 14.2101
	vertex 1 -0.1542 14.2101
endloop
endfacet
facet normal 0 -1 0
outer loop
	vertex 2.2 -0.1542 14.1252
	vertex 2.2 -0.1542 14.2101
	vertex 1 -0.1542 14.1252
endloop
endfacet
facet normal 0 -1 0
outer loop
	vertex 2.2 -0.1542 14.2101
	vertex 1 -0.1542 14.2101
	vertex 1 -0.1542 14.1252
endloop
endfacet
facet normal 0 0 -1
outer loop
	vertex 2.2 -0.0694 14.1252
	vertex 2.2 -0.1542 14.1252
	vertex 1 -0.0694 14.1252
endloop
endfacet
facet normal 0 0 -1
outer loop
	vertex 2.2 -0.1542 14.1252
	vertex 1 -0.1542 14.1252
	vertex 1 -0.0694 14.1252
endloop
endfacet
facet normal 1 0 0
outer loop
	vertex 2.2 3.9668 14.2101
	vertex 2.2 4.0517 14.1252
	vertex 2.2 4.0517 14.2101
endloop
endfacet
facet normal 1 0 0
outer loop
	vertex 2.2 3.9668 14.1252
	vertex 2.2 4.0517 14.1252
	vertex 2.2 3.9668 14.2101
endloop
endfacet
facet normal -1 0 0
outer loop
	vertex 1 3.9668 14.2101
	vertex 1 4.0517 14.2101
	vertex 1 3.9668 14.1252
endloop
endfacet
facet normal -1 0 0
outer loop
	vertex 1 4.0517 14.2101
	vertex 1 4.0517 14.1252
	vertex 1 3.9668 14.1252
endloop
endfacet
facet normal 0 1 0
outer loop
	vertex 2.2 4.0517 14.2101
	vertex 2.2 4.0517 14.1252
	vertex 1 4.0517 14.2101
endloop
endfacet
facet normal 0 1 0
outer loop
	vertex 2.2 4.0517 14.1252
	vertex 1 4.0517 14.1252
	vertex 1 4.0517 14.2101
endloop
endfacet
facet normal 0 0 1
outer loop
	vertex 2.2 3.9668 14.2101
	vertex 2.2 4.0517 14.2101
	vertex 1 3.9668 14.2101
endloop
endfacet
facet normal 0 0 1
outer loop
	vertex 2.2 4.0517 14.2101
	vertex 1 4.0517 14.2101
	vertex 1 3.9668 14.2101
endloop
endfacet
facet normal 0 -1 0
outer loop
	vertex 2.2 3.9668 14.1252
	vertex 2.2 3.9668 14.2101
	vertex 1 3.9668 14.1252
endloop
endfacet
facet normal 0 -1 0
outer loop
	vertex 2.2 3.9668 14.2101
	vertex 1 3.9668 14.2101
	vertex 1 3.9668 14.1252
endloop
endfacet
facet normal 0 0 -1
outer loop
	vertex 2.2 4.0517 14.1252
	vertex 2.2 3.9668 14.1252
	vertex 1 4.0517 14.1252
endloop
endfacet
facet normal 0 0 -1
outer loop
	vertex 2.2 3.9668 14.1252
	vertex 1 3.9668 14.1252
	vertex 1 4.0517 14.1252
endloop
endfacet
facet normal 1 0 0
outer loop
	vertex 2.2 9.0428 14.2101
	vertex 2.2 9.1276 14.1252
	vertex 2.2 9.1276 14.2101
endloop
endfacet
facet normal 1 0 0
outer loop
	vertex 2.2 9.0428 14.1252
	vertex 2.2 9.1276 14.1252
	vertex 2.2 9.0428 14.2101
endloop
endfacet
facet normal -1 0 0
outer loop
	vertex 1 9.0428 14.2101
	vertex 1 9.1276 14.2101
	vertex 1 9.0428 14.1252
endloop
endfacet
facet normal -1 0 0
outer loop
	vertex 1 9.1276 14.2101
	vertex 1 9.1276 14.1252
	vertex 1 9.0428 14.1252
endloop
endfacet
facet normal 0 1 0
outer loop
	vertex 2.2 9.1276 14.2101
	vertex 2.2 9.1276 14.1252
	vertex 1 9.1276 14.2101
endloop
endfacet
facet normal 0 1 0
outer loop
	vertex 2.2 9.1276 14.1252
	vertex 1 9.1276 14.1252
	vertex 1 9.1276 14.2101
endloop
endfacet
facet normal 0 0 1
outer loop
	vertex 2.2 9.0428 14.2101
	vertex 2.2 9.1276 14.2101
	vertex 1 9.0428 14.2101
endloop
endfacet
facet normal 0 0 1
outer loop
	vertex 2.2 9.1276 14.2101
	vertex 1 9.1276 14.2101
	vertex 1 9.0428 14.2101
endloop
endfacet
facet normal 0 -1 0
outer loop
	vertex 2.2 9.0428 14.1252
	vertex 2.2 9.0428 14.2101
	vertex 1 9.0428 14.1252
endloop
endfacet
facet normal 0 -1 0
outer loop
	vertex 2.2 9.0428 14.2101
	vertex 1 9.0428 14.2101
	vertex 1 9.0428 14.1252
endloop
endfacet
facet normal 0 0 -1
outer loop
	vertex 2.2 9.1276 14.1252
	vertex 2.2 9.0428 14.1252
	vertex 1 9.1276 14.1252
endloop
endfacet
facet normal 0 0 -1
outer loop
	vertex 2.2 9.0428 14.1252
	vertex 1 9.0428 14.1252
	vertex 1 9.1276 14.1252
endloop
endfacet
facet normal 1 0 0
outer loop
	vertex 2.2 13.6413 14.2101
	vertex 2.2 13.7262 14.1252
	vertex 2.2 13.7262 14.2101
endloop
endfacet
facet normal 1 0 0
outer loop
	vertex 2.2 13.6413 14.1252
	vertex 2.2 13.7262 14.1252
	vertex 2.2 13.6413 14.2101
endloop
endfacet
facet normal -1 0 0
outer loop
	vertex 1 13.6413 14.2101
	vertex 1 13.7262 14.2101
	vertex 1 13.6413 14.1252
endloop
endfacet
facet normal -1 0 0
outer loop
	vertex 1 13.7262 14.2101
	vertex 1 13.7262 14.1252
	vertex 1 13.6413 14.1252
endloop
endfacet
facet normal 0 1 0
outer loop
	vertex 2.2 13.7262 14.2101
	vertex 2.2 13.7262 14.1252
	vertex 1 13.7262 14.2101
endloop
endfacet
facet normal 0 1 0
outer loop
	vertex 2.2 13.7262 14.1252
	vertex 1 13.7262 14.1252
	vertex 1 13.7262 14.2101
endloop
endfacet
facet normal 0 0 1
outer loop
	vertex 2.2 13.6413 14.2101
	vertex 2.2 13.7262 14.2101
	vertex 1 13.6413 14.2101
endloop
endfacet
facet normal 0 0 1
outer loop
	vertex 2.2 13.7262 14.2101
	vertex 1 13.7262 14.2101
	vertex 1 13.6413 14.2101
endloop
endfacet
facet normal 0 -1 0
outer loop
	vertex 2.2 13.6413 14.1252
	vertex 2.2 13.6413 14.2101
	vertex 1 13.6413 14.1252
endloop
endfacet
facet normal 0 -1 0
outer loop
	vertex 2.2 13.6413 14.2101
	vertex 1 13.6413 14.2101
	vertex 1 13.6413 14.1252
endloop
endfacet
facet normal 0 0 -1
outer loop
	vertex 2.2 13.7262 14.1252
	vertex 2.2 13.6413 14.1252
	vertex 1 13.7262 14.1252
endloop
endfacet
facet normal 0 0 -1
outer loop
	vertex 2.2 13.6413 14.1252
	vertex 1 13.6413 14.1252
	vertex 1 13.7262 14.1252
endloop
endfacet
facet normal 1 0 0
outer loop
	vertex 2.2 18.2398 14.2101
	vertex 2.2 18.3247 14.1252
	vertex 2.2 18.3247 14.2101
endloop
endfacet
facet normal 1 0 0
outer loop
	vertex 2.2 18.2398 14.1252
	vertex 2.2 18.3247 14.1252
	vertex 2.2 18.2398 14.2101
endloop
endfacet
facet normal -1 0 0
outer loop
	vertex 1 18.2398 14.2101
	vertex 1 18.3247 14.2101
	vertex 1 18.2398 14.1252
endloop
endfacet
facet normal -1 0 0
outer loop
	vertex 1 18.3247 14.2101
	vertex 1 18.3247 14.1252
	vertex 1 18.2398 14.1252
endloop
endfacet
facet normal 0 1 0
outer loop
	vertex 2.2 18.3247 14.2101
	vertex 2.2 18.3247 14.1252
	vertex 1 18.3247 14.2101
endloop
endfacet
facet normal 0 1 0
outer loop
	vertex 2.2 18.3247 14.1252
	vertex 1 18.3247 14.1252
	vertex 1 18.3247 14.2101
endloop
endfacet
facet normal 0 0 1
outer loop
	vertex 2.2 18.2398 14.2101
	vertex 2.2 18.3247 14.2101
	vertex 1 18.2398 14.2101
endloop
endfacet
facet normal 0 0 1
outer loop
	vertex 2.2 18.3247 14.2101
	vertex 1 18.3247 14.2101
	vertex 1 18.2398 14.2101
endloop
endfacet
facet normal 0 -1 0
outer loop
	vertex 2.2 18.2398 14.1252
	vertex 2.2 18.2398 14.2101
	vertex 1 18.2398 14.1252
endloop
endfacet
facet normal 0 -1 0
outer loop
	vertex 2.2 18.2398 14.2101
	vertex 1 18.2398 14.2101
	vertex 1 18.2398 14.1252
endloop
endfacet
facet normal 0 0 -1
outer loop
	vertex 2.2 18.3247 14.1252
	vertex 2.2 18.2398 14.1252
	vertex 1 18.3247 14.1252
endloop
endfacet
facet normal 0 0 -1
outer loop
	vertex 2.2 18.2398 14.1252
	vertex 1 18.2398 14.1252
	vertex 1 18.3247 14.1252
endloop
endfacet
facet normal 1 0 0
outer loop
	vertex 2.2 22.8383 14.2101
	vertex 2.2 22.9232 14.1252
	vertex 2.2 22.9232 14.2101
endloop
endfacet
facet normal 1 0 0
outer loop
	vertex 2.2 22.8383 14.1252
	vertex 2.2 22.9232 14.1252
	vertex 2.2 22.8383 14.2101
endloop
endfacet
facet normal -1 0 0
outer loop
	vertex 1 22.8383 14.2101
	vertex 1 22.9232 14.2101
	vertex 1 22.8383 14.1252
endloop
endfacet
facet normal -1 0 0
outer loop
	vertex 1 22.9232 14.2101
	vertex 1 22.9232 14.1252
	vertex 1 22.8383 14.1252
endloop
endfacet
facet normal 0 1 0
outer loop
	vertex 2.2 22.9232 14.2101
	vertex 2.2 22.9232 14.1252
	vertex 1 22.9232 14.2101
endloop
endfacet
facet normal 0 1 0
outer loop
	vertex 2.2 22.9232 14.1252
	vertex 1 22.9232 14.1252
	vertex 1 22.9232 14.2101
endloop
endfacet
facet normal 0 0 1
outer loop
	vertex 2.2 22.8383 14.2101
	vertex 2.2 22.9232 14.2101
	vertex 1 22.8383 14.2101
endloop
endfacet
facet normal 0 0 1
outer loop
	vertex 2.2 22.9232 14.2101
	vertex 1 22.9232 14.2101
	vertex 1 22.8383 14.2101
endloop
endfacet
facet normal 0 -1 0
outer loop
	vertex 2.2 22.8383 14.1252
	vertex 2.2 22.8383 14.2101
	vertex 1 22.8383 14.1252
endloop
endfacet
facet normal 0 -1 0
outer loop
	vertex 2.2 22.8383 14.2101
	vertex 1 22.8383 14.2101
	vertex 1 22.8383 14.1252
endloop
endfacet
facet normal 0 0 -1
outer loop
	vertex 2.2 22.9232 14.1252
	vertex 2.2 22.8383 14.1252
	vertex 1 22.9232 14.1252
endloop
endfacet
facet normal 0 0 -1
outer loop
	vertex 2.2 22.8383 14.1252
	vertex 1 22.8383 14.1252
	vertex 1 22.9232 14.1252
endloop
endfacet
facet normal -1 0 0
outer loop
	vertex 1 29.9058 7.057799
	vertex 1 29.9906 7.1426
	vertex 1 29.9906 7.057799
endloop
endfacet
facet normal -1 0 0
outer loop
	vertex 1 29.9058 7.1426
	vertex 1 29.9906 7.1426
	vertex 1 29.9058 7.057799
endloop
endfacet
facet normal 1 0 0
outer loop
	vertex 2.2 29.9058 7.057799
	vertex 2.2 29.9906 7.057799
	vertex 2.2 29.9058 7.1426
endloop
endfacet
facet normal 1 0 0
outer loop
	vertex 2.2 29.9906 7.057799
	vertex 2.2 29.9906 7.1426
	vertex 2.2 29.9058 7.1426
endloop
endfacet
facet normal 0 1 0
outer loop
	vertex 1 29.9906 7.057799
	vertex 1 29.9906 7.1426
	vertex 2.2 29.9906 7.057799
endloop
endfacet
facet normal 0 1 0
outer loop
	vertex 1 29.9906 7.1426
	vertex 2.2 29.9906 7.1426
	vertex 2.2 29.9906 7.057799
endloop
endfacet
facet normal 0 0 -1
outer loop
	vertex 1 29.9058 7.057799
	vertex 1 29.9906 7.057799
	vertex 2.2 29.9058 7.057799
endloop
endfacet
facet normal 0 0 -1
outer loop
	vertex 1 29.9906 7.057799
	vertex 2.2 29.9906 7.057799
	vertex 2.2 29.9058 7.057799
endloop
endfacet
facet normal 0 -1 0
outer loop
	vertex 1 29.9058 7.1426
	vertex 1 29.9058 7.057799
	vertex 2.2 29.9058 7.1426
endloop
endfacet
facet normal 0 -1 0
outer loop
	vertex 1 29.9058 7.057799
	vertex 2.2 29.9058 7.057799
	vertex 2.2 29.9058 7.1426
endloop
endfacet
facet normal 0 0 1
outer loop
	vertex 1 29.9906 7.1426
	vertex 1 29.9058 7.1426
	vertex 2.2 29.9906 7.1426
endloop
endfacet
facet normal 0 0 1
outer loop
	vertex 1 29.9058 7.1426
	vertex 2.2 29.9058 7.1426
	vertex 2.2 29.9906 7.1426
endloop
endfacet
endsolid Props_Props_0_Bqcd_03_0
