solid FURNITURE_FURNITURE_0_Door_Glass_0_Box462_0
facet normal 0.007636514 -0.9999709 0
outer loop
	vertex 2.450641 -2.635777 -0.01469459
	vertex 2.439172 -2.635865 -0.01469459
	vertex 2.450641 -2.635777 -0.02269459
endloop
endfacet
facet normal 0.007636514 -0.9999709 0
outer loop
	vertex 2.439172 -2.635865 -0.02269459
	vertex 2.450641 -2.635777 -0.02269459
	vertex 2.439172 -2.635865 -0.01469459
endloop
endfacet
facet normal -0.8671083 -0.4981195 0
outer loop
	vertex 2.439172 -2.635865 -0.02269459
	vertex 2.439172 -2.635865 -0.01469459
	vertex 2.433249 -2.625555 -0.02269459
endloop
endfacet
facet normal -0.8671083 -0.4981195 0
outer loop
	vertex 2.433249 -2.625555 -0.0146946
	vertex 2.433249 -2.625555 -0.02269459
	vertex 2.439172 -2.635865 -0.01469459
endloop
endfacet
facet normal 0.8831839 -0.4690267 0
outer loop
	vertex 2.450641 -2.635777 -0.01469459
	vertex 2.450641 -2.635777 -0.02269459
	vertex 2.456069 -2.625555 -0.01469459
endloop
endfacet
facet normal 0.8831839 -0.4690267 0
outer loop
	vertex 2.456069 -2.625555 -0.02269459
	vertex 2.456069 -2.625555 -0.01469459
	vertex 2.450641 -2.635777 -0.02269459
endloop
endfacet
facet normal -2.440955E-07 -5.995389E-08 -1
outer loop
	vertex 2.450641 -2.635777 -0.02269459
	vertex 2.439172 -2.635865 -0.02269459
	vertex 2.456069 -2.625555 -0.02269459
endloop
endfacet
facet normal -1.049434E-07 -1.72395E-07 -1
outer loop
	vertex 2.433249 -2.625555 -0.02269459
	vertex 2.456069 -2.625555 -0.02269459
	vertex 2.439172 -2.635865 -0.02269459
endloop
endfacet
facet normal -1.050979E-07 -7.732644E-08 -1
outer loop
	vertex 2.433249 -2.625555 -0.02269459
	vertex 2.439172 -2.615246 -0.02269459
	vertex 2.456069 -2.625555 -0.02269459
endloop
endfacet
facet normal -2.448461E-07 -1.907446E-07 -1
outer loop
	vertex 2.450641 -2.615333 -0.0226946
	vertex 2.456069 -2.625555 -0.02269459
	vertex 2.439172 -2.615246 -0.02269459
endloop
endfacet
facet normal 0.007636514 0.9999709 0
outer loop
	vertex 2.439172 -2.615246 -0.02269459
	vertex 2.439172 -2.615246 -0.01469459
	vertex 2.450641 -2.615333 -0.0226946
endloop
endfacet
facet normal 0.007636514 0.9999709 0
outer loop
	vertex 2.450641 -2.615333 -0.01469459
	vertex 2.450641 -2.615333 -0.0226946
	vertex 2.439172 -2.615246 -0.01469459
endloop
endfacet
facet normal -0.8671083 0.4981195 0
outer loop
	vertex 2.433249 -2.625555 -0.0146946
	vertex 2.439172 -2.615246 -0.01469459
	vertex 2.433249 -2.625555 -0.02269459
endloop
endfacet
facet normal -0.8671083 0.4981195 0
outer loop
	vertex 2.439172 -2.615246 -0.02269459
	vertex 2.433249 -2.625555 -0.02269459
	vertex 2.439172 -2.615246 -0.01469459
endloop
endfacet
facet normal 0.883184 0.4690267 0
outer loop
	vertex 2.456069 -2.625555 -0.02269459
	vertex 2.450641 -2.615333 -0.0226946
	vertex 2.456069 -2.625555 -0.01469459
endloop
endfacet
facet normal 0.883184 0.4690267 0
outer loop
	vertex 2.450641 -2.615333 -0.01469459
	vertex 2.456069 -2.625555 -0.01469459
	vertex 2.450641 -2.615333 -0.0226946
endloop
endfacet
facet normal 0.007609907 0.999971 0
outer loop
	vertex 2.439172 -3.813105 -0.02869434
	vertex 2.439172 -3.813105 -0.02069435
	vertex 2.450641 -3.813192 -0.02869435
endloop
endfacet
facet normal 0.007609907 0.999971 0
outer loop
	vertex 2.450641 -3.813192 -0.02069435
	vertex 2.450641 -3.813192 -0.02869435
	vertex 2.439172 -3.813105 -0.02069435
endloop
endfacet
facet normal -0.867102 0.4981306 0
outer loop
	vertex 2.433249 -3.823415 -0.02069436
	vertex 2.439172 -3.813105 -0.02069435
	vertex 2.433249 -3.823415 -0.02869435
endloop
endfacet
facet normal -0.867102 0.4981306 0
outer loop
	vertex 2.439172 -3.813105 -0.02869434
	vertex 2.433249 -3.823415 -0.02869435
	vertex 2.439172 -3.813105 -0.02069435
endloop
endfacet
facet normal 0.883184 0.4690267 0
outer loop
	vertex 2.456069 -3.823415 -0.02869435
	vertex 2.450641 -3.813192 -0.02869435
	vertex 2.456069 -3.823415 -0.02069435
endloop
endfacet
facet normal 0.883184 0.4690267 0
outer loop
	vertex 2.450641 -3.813192 -0.02069435
	vertex 2.456069 -3.823415 -0.02069435
	vertex 2.450641 -3.813192 -0.02869435
endloop
endfacet
facet normal -2.440937E-07 5.995798E-08 -1
outer loop
	vertex 2.450641 -3.813192 -0.02869435
	vertex 2.456069 -3.823415 -0.02869435
	vertex 2.439172 -3.813105 -0.02869434
endloop
endfacet
facet normal -1.049437E-07 1.724001E-07 -1
outer loop
	vertex 2.433249 -3.823415 -0.02869435
	vertex 2.439172 -3.813105 -0.02869434
	vertex 2.456069 -3.823415 -0.02869435
endloop
endfacet
facet normal -1.050993E-07 7.732819E-08 -1
outer loop
	vertex 2.433249 -3.823415 -0.02869435
	vertex 2.456069 -3.823415 -0.02869435
	vertex 2.439172 -3.833724 -0.02869434
endloop
endfacet
facet normal -2.448515E-07 1.907465E-07 -1
outer loop
	vertex 2.450641 -3.833637 -0.02869435
	vertex 2.439172 -3.833724 -0.02869434
	vertex 2.456069 -3.823415 -0.02869435
endloop
endfacet
facet normal 0.00766312 -0.9999707 0
outer loop
	vertex 2.450641 -3.833637 -0.02069435
	vertex 2.439172 -3.833724 -0.02069434
	vertex 2.450641 -3.833637 -0.02869435
endloop
endfacet
facet normal 0.00766312 -0.9999707 0
outer loop
	vertex 2.439172 -3.833724 -0.02869434
	vertex 2.450641 -3.833637 -0.02869435
	vertex 2.439172 -3.833724 -0.02069434
endloop
endfacet
facet normal -0.8671148 -0.4981084 0
outer loop
	vertex 2.439172 -3.833724 -0.02869434
	vertex 2.439172 -3.833724 -0.02069434
	vertex 2.433249 -3.823415 -0.02869435
endloop
endfacet
facet normal -0.8671148 -0.4981084 0
outer loop
	vertex 2.433249 -3.823415 -0.02069436
	vertex 2.433249 -3.823415 -0.02869435
	vertex 2.439172 -3.833724 -0.02069434
endloop
endfacet
facet normal 0.883184 -0.4690267 0
outer loop
	vertex 2.450641 -3.833637 -0.02069435
	vertex 2.450641 -3.833637 -0.02869435
	vertex 2.456069 -3.823415 -0.02069435
endloop
endfacet
facet normal 0.883184 -0.4690267 0
outer loop
	vertex 2.456069 -3.823415 -0.02869435
	vertex 2.456069 -3.823415 -0.02069435
	vertex 2.450641 -3.833637 -0.02869435
endloop
endfacet
facet normal 0.007643165 -0.9999708 0
outer loop
	vertex 2.450641 0.6791177 -0.02069435
	vertex 2.439172 0.6790301 -0.02069435
	vertex 2.450641 0.6791177 -0.02869435
endloop
endfacet
facet normal 0.007643165 -0.9999708 0
outer loop
	vertex 2.439172 0.6790301 -0.02869434
	vertex 2.450641 0.6791177 -0.02869435
	vertex 2.439172 0.6790301 -0.02069435
endloop
endfacet
facet normal -0.86711 -0.4981168 0
outer loop
	vertex 2.439172 0.6790301 -0.02869434
	vertex 2.439172 0.6790301 -0.02069435
	vertex 2.433249 0.6893399 -0.02869435
endloop
endfacet
facet normal -0.86711 -0.4981168 0
outer loop
	vertex 2.433249 0.6893399 -0.02069436
	vertex 2.433249 0.6893399 -0.02869435
	vertex 2.439172 0.6790301 -0.02069435
endloop
endfacet
facet normal 0.883184 -0.4690267 0
outer loop
	vertex 2.450641 0.6791177 -0.02069435
	vertex 2.450641 0.6791177 -0.02869435
	vertex 2.456069 0.6893399 -0.02069435
endloop
endfacet
facet normal 0.883184 -0.4690267 0
outer loop
	vertex 2.456069 0.6893399 -0.02869435
	vertex 2.456069 0.6893399 -0.02069435
	vertex 2.450641 0.6791177 -0.02869435
endloop
endfacet
facet normal -2.44096E-07 -5.995274E-08 -1
outer loop
	vertex 2.450641 0.6791177 -0.02869435
	vertex 2.439172 0.6790301 -0.02869434
	vertex 2.456069 0.6893399 -0.02869435
endloop
endfacet
facet normal -1.049435E-07 -1.723938E-07 -1
outer loop
	vertex 2.433249 0.6893399 -0.02869435
	vertex 2.456069 0.6893399 -0.02869435
	vertex 2.439172 0.6790301 -0.02869434
endloop
endfacet
facet normal -1.050981E-07 -7.732608E-08 -1
outer loop
	vertex 2.433249 0.6893399 -0.02869435
	vertex 2.439172 0.6996497 -0.02869434
	vertex 2.456069 0.6893399 -0.02869435
endloop
endfacet
facet normal -2.448473E-07 -1.907451E-07 -1
outer loop
	vertex 2.450641 0.6995621 -0.02869435
	vertex 2.456069 0.6893399 -0.02869435
	vertex 2.439172 0.6996497 -0.02869434
endloop
endfacet
facet normal 0.007643166 0.9999708 0
outer loop
	vertex 2.439172 0.6996497 -0.02869434
	vertex 2.439172 0.6996497 -0.02069434
	vertex 2.450641 0.6995621 -0.02869435
endloop
endfacet
facet normal 0.007643166 0.9999708 0
outer loop
	vertex 2.450641 0.6995621 -0.02069435
	vertex 2.450641 0.6995621 -0.02869435
	vertex 2.439172 0.6996497 -0.02069434
endloop
endfacet
facet normal -0.86711 0.4981168 0
outer loop
	vertex 2.433249 0.6893399 -0.02069436
	vertex 2.439172 0.6996497 -0.02069434
	vertex 2.433249 0.6893399 -0.02869435
endloop
endfacet
facet normal -0.86711 0.4981168 0
outer loop
	vertex 2.439172 0.6996497 -0.02869434
	vertex 2.433249 0.6893399 -0.02869435
	vertex 2.439172 0.6996497 -0.02069434
endloop
endfacet
facet normal 0.883184 0.4690267 0
outer loop
	vertex 2.456069 0.6893399 -0.02869435
	vertex 2.450641 0.6995621 -0.02869435
	vertex 2.456069 0.6893399 -0.02069435
endloop
endfacet
facet normal 0.883184 0.4690267 0
outer loop
	vertex 2.450641 0.6995621 -0.02069435
	vertex 2.456069 0.6893399 -0.02069435
	vertex 2.450641 0.6995621 -0.02869435
endloop
endfacet
facet normal 0.007649818 -0.9999708 0
outer loop
	vertex 2.450641 -1.577259 -0.01469459
	vertex 2.439172 -1.577347 -0.01469459
	vertex 2.450641 -1.577259 -0.02269459
endloop
endfacet
facet normal 0.007649818 -0.9999708 0
outer loop
	vertex 2.439172 -1.577347 -0.02269459
	vertex 2.450641 -1.577259 -0.02269459
	vertex 2.439172 -1.577347 -0.01469459
endloop
endfacet
facet normal -0.8671116 -0.498114 0
outer loop
	vertex 2.439172 -1.577347 -0.02269459
	vertex 2.439172 -1.577347 -0.01469459
	vertex 2.433249 -1.567037 -0.02269459
endloop
endfacet
facet normal -0.8671116 -0.498114 0
outer loop
	vertex 2.433249 -1.567037 -0.0146946
	vertex 2.433249 -1.567037 -0.02269459
	vertex 2.439172 -1.577347 -0.01469459
endloop
endfacet
facet normal 0.8831839 -0.4690267 0
outer loop
	vertex 2.450641 -1.577259 -0.01469459
	vertex 2.450641 -1.577259 -0.02269459
	vertex 2.456069 -1.567037 -0.01469459
endloop
endfacet
facet normal 0.8831839 -0.4690267 0
outer loop
	vertex 2.456069 -1.567037 -0.02269459
	vertex 2.456069 -1.567037 -0.01469459
	vertex 2.450641 -1.577259 -0.02269459
endloop
endfacet
facet normal -2.440965E-07 -5.995155E-08 -1
outer loop
	vertex 2.450641 -1.577259 -0.02269459
	vertex 2.439172 -1.577347 -0.02269459
	vertex 2.456069 -1.567037 -0.02269459
endloop
endfacet
facet normal -1.049435E-07 -1.723926E-07 -1
outer loop
	vertex 2.433249 -1.567037 -0.02269459
	vertex 2.456069 -1.567037 -0.02269459
	vertex 2.439172 -1.577347 -0.02269459
endloop
endfacet
facet normal -1.050983E-07 -7.732572E-08 -1
outer loop
	vertex 2.433249 -1.567037 -0.02269459
	vertex 2.439172 -1.556727 -0.02269459
	vertex 2.456069 -1.567037 -0.02269459
endloop
endfacet
facet normal -2.448485E-07 -1.907456E-07 -1
outer loop
	vertex 2.450641 -1.556815 -0.0226946
	vertex 2.456069 -1.567037 -0.02269459
	vertex 2.439172 -1.556727 -0.02269459
endloop
endfacet
facet normal 0.007649818 0.9999708 0
outer loop
	vertex 2.439172 -1.556727 -0.02269459
	vertex 2.439172 -1.556727 -0.01469459
	vertex 2.450641 -1.556815 -0.0226946
endloop
endfacet
facet normal 0.007649818 0.9999708 0
outer loop
	vertex 2.450641 -1.556815 -0.01469459
	vertex 2.450641 -1.556815 -0.0226946
	vertex 2.439172 -1.556727 -0.01469459
endloop
endfacet
facet normal -0.8671116 0.498114 0
outer loop
	vertex 2.433249 -1.567037 -0.0146946
	vertex 2.439172 -1.556727 -0.01469459
	vertex 2.433249 -1.567037 -0.02269459
endloop
endfacet
facet normal -0.8671116 0.498114 0
outer loop
	vertex 2.439172 -1.556727 -0.02269459
	vertex 2.433249 -1.567037 -0.02269459
	vertex 2.439172 -1.556727 -0.01469459
endloop
endfacet
facet normal 0.883184 0.4690267 0
outer loop
	vertex 2.456069 -1.567037 -0.02269459
	vertex 2.450641 -1.556815 -0.0226946
	vertex 2.456069 -1.567037 -0.01469459
endloop
endfacet
facet normal 0.883184 0.4690267 0
outer loop
	vertex 2.450641 -1.556815 -0.01469459
	vertex 2.456069 -1.567037 -0.01469459
	vertex 2.450641 -1.556815 -0.0226946
endloop
endfacet
facet normal 0.007643165 -0.9999708 0
outer loop
	vertex 2.450641 -0.5187411 -0.01469459
	vertex 2.439172 -0.5188288 -0.01469459
	vertex 2.450641 -0.5187411 -0.02269459
endloop
endfacet
facet normal 0.007643165 -0.9999708 0
outer loop
	vertex 2.439172 -0.5188288 -0.02269459
	vertex 2.450641 -0.5187411 -0.02269459
	vertex 2.439172 -0.5188288 -0.01469459
endloop
endfacet
facet normal -0.86711 -0.4981168 0
outer loop
	vertex 2.439172 -0.5188288 -0.02269459
	vertex 2.439172 -0.5188288 -0.01469459
	vertex 2.433249 -0.508519 -0.02269459
endloop
endfacet
facet normal -0.86711 -0.4981168 0
outer loop
	vertex 2.433249 -0.508519 -0.0146946
	vertex 2.433249 -0.508519 -0.02269459
	vertex 2.439172 -0.5188288 -0.01469459
endloop
endfacet
facet normal 0.8831839 -0.4690267 0
outer loop
	vertex 2.450641 -0.5187411 -0.01469459
	vertex 2.450641 -0.5187411 -0.02269459
	vertex 2.456069 -0.508519 -0.01469459
endloop
endfacet
facet normal 0.8831839 -0.4690267 0
outer loop
	vertex 2.456069 -0.508519 -0.02269459
	vertex 2.456069 -0.508519 -0.01469459
	vertex 2.450641 -0.5187411 -0.02269459
endloop
endfacet
facet normal -2.44096E-07 -5.99527E-08 -1
outer loop
	vertex 2.450641 -0.5187411 -0.02269459
	vertex 2.439172 -0.5188288 -0.02269459
	vertex 2.456069 -0.508519 -0.02269459
endloop
endfacet
facet normal -1.049435E-07 -1.723939E-07 -1
outer loop
	vertex 2.433249 -0.508519 -0.02269459
	vertex 2.456069 -0.508519 -0.02269459
	vertex 2.439172 -0.5188288 -0.02269459
endloop
endfacet
facet normal -1.050982E-07 -7.73261E-08 -1
outer loop
	vertex 2.433249 -0.508519 -0.02269459
	vertex 2.439172 -0.4982091 -0.02269459
	vertex 2.456069 -0.508519 -0.02269459
endloop
endfacet
facet normal -2.448479E-07 -1.907453E-07 -1
outer loop
	vertex 2.450641 -0.4982968 -0.0226946
	vertex 2.456069 -0.508519 -0.02269459
	vertex 2.439172 -0.4982091 -0.02269459
endloop
endfacet
facet normal 0.007646491 0.9999708 0
outer loop
	vertex 2.439172 -0.4982091 -0.02269459
	vertex 2.439172 -0.4982091 -0.01469459
	vertex 2.450641 -0.4982968 -0.0226946
endloop
endfacet
facet normal 0.007646492 0.9999708 0
outer loop
	vertex 2.450641 -0.4982968 -0.01469459
	vertex 2.450641 -0.4982968 -0.0226946
	vertex 2.439172 -0.4982091 -0.01469459
endloop
endfacet
facet normal -0.8671107 0.4981154 0
outer loop
	vertex 2.433249 -0.508519 -0.0146946
	vertex 2.439172 -0.4982091 -0.01469459
	vertex 2.433249 -0.508519 -0.02269459
endloop
endfacet
facet normal -0.8671107 0.4981153 0
outer loop
	vertex 2.439172 -0.4982091 -0.02269459
	vertex 2.433249 -0.508519 -0.02269459
	vertex 2.439172 -0.4982091 -0.01469459
endloop
endfacet
facet normal 0.883184 0.4690267 0
outer loop
	vertex 2.456069 -0.508519 -0.02269459
	vertex 2.450641 -0.4982968 -0.0226946
	vertex 2.456069 -0.508519 -0.01469459
endloop
endfacet
facet normal 0.883184 0.4690267 0
outer loop
	vertex 2.450641 -0.4982968 -0.01469459
	vertex 2.456069 -0.508519 -0.01469459
	vertex 2.450641 -0.4982968 -0.0226946
endloop
endfacet
facet normal -0.9553412 0.1666677 0
outer loop
	vertex 2.428663 0.6893399 -0.004694519
	vertex 2.428663 0.6893399 0.08672428
	vertex 2.430806 0.697338 -0.004694519
endloop
endfacet
facet normal -0.9106824 0.3333354 0
outer loop
	vertex 2.430806 0.697338 0.08672428
	vertex 2.430806 0.697338 -0.004694519
	vertex 2.428663 0.6893399 0.08672428
endloop
endfacet
facet normal -0.7440152 0.6220109 0
outer loop
	vertex 2.430806 0.697338 -0.004694519
	vertex 2.430806 0.697338 0.08672428
	vertex 2.436661 0.703193 -0.004694519
endloop
endfacet
facet normal -0.6220069 0.7440186 0
outer loop
	vertex 2.436661 0.703193 0.08672428
	vertex 2.436661 0.703193 -0.004694519
	vertex 2.430806 0.697338 0.08672428
endloop
endfacet
facet normal -0.3333323 0.9106842 0
outer loop
	vertex 2.436661 0.703193 -0.004694519
	vertex 2.436661 0.703193 0.08672428
	vertex 2.444659 0.7053362 -0.004694517
endloop
endfacet
facet normal -0.1666662 0.9553421 0
outer loop
	vertex 2.444659 0.7053362 0.08672428
	vertex 2.444659 0.7053362 -0.004694517
	vertex 2.436661 0.703193 0.08672428
endloop
endfacet
facet normal 0.1666662 0.9553421 0
outer loop
	vertex 2.444659 0.7053362 -0.004694517
	vertex 2.444659 0.7053362 0.08672428
	vertex 2.452657 0.703193 -0.004694517
endloop
endfacet
facet normal 0.3333323 0.9106842 0
outer loop
	vertex 2.452657 0.703193 0.08672428
	vertex 2.452657 0.703193 -0.004694517
	vertex 2.444659 0.7053362 0.08672428
endloop
endfacet
facet normal 0.6220069 0.7440186 0
outer loop
	vertex 2.452657 0.703193 -0.004694517
	vertex 2.452657 0.703193 0.08672428
	vertex 2.458512 0.697338 -0.004694517
endloop
endfacet
facet normal 0.7440152 0.6220108 0
outer loop
	vertex 2.458512 0.697338 0.08672428
	vertex 2.458512 0.697338 -0.004694517
	vertex 2.452657 0.703193 0.08672428
endloop
endfacet
facet normal 0.9106824 0.3333354 0
outer loop
	vertex 2.458512 0.697338 -0.004694517
	vertex 2.458512 0.697338 0.08672428
	vertex 2.460655 0.6893399 -0.004694519
endloop
endfacet
facet normal 0.9553412 0.1666677 0
outer loop
	vertex 2.460655 0.6893399 0.08672428
	vertex 2.460655 0.6893399 -0.004694519
	vertex 2.458512 0.697338 0.08672428
endloop
endfacet
facet normal 0.9553422 -0.1666659 0
outer loop
	vertex 2.460655 0.6893399 -0.004694519
	vertex 2.460655 0.6893399 0.08672428
	vertex 2.458512 0.6813418 -0.004694519
endloop
endfacet
facet normal 0.9106835 -0.3333335 1.919337E-07
outer loop
	vertex 2.458512 0.6813418 0.08672428
	vertex 2.458512 0.6813418 -0.004694519
	vertex 2.460655 0.6893399 0.08672428
endloop
endfacet
facet normal 0.7440175 -0.6220082 2.781833E-07
outer loop
	vertex 2.458512 0.6813418 -0.004694519
	vertex 2.458512 0.6813418 0.08672428
	vertex 2.452657 0.6754867 -0.004694519
endloop
endfacet
facet normal 0.622008 -0.7440178 4.861133E-07
outer loop
	vertex 2.452657 0.6754867 0.08672428
	vertex 2.452657 0.6754867 -0.004694519
	vertex 2.458512 0.6813418 0.08672428
endloop
endfacet
facet normal 0.3333326 -0.9106836 3.644322E-07
outer loop
	vertex 2.452657 0.6754867 -0.004694519
	vertex 2.452657 0.6754867 0.08672428
	vertex 2.444659 0.6733437 -0.004694521
endloop
endfacet
facet normal 0.1666653 -0.9553421 2.781826E-07
outer loop
	vertex 2.444659 0.6733437 0.08672428
	vertex 2.444659 0.6733437 -0.004694521
	vertex 2.452657 0.6754867 0.08672428
endloop
endfacet
facet normal -0.1666669 -0.9553421 7.025261E-08
outer loop
	vertex 2.444659 0.6733437 -0.004694521
	vertex 2.444659 0.6733437 0.08672428
	vertex 2.436661 0.6754867 -0.004694521
endloop
endfacet
facet normal -0.3333323 -0.9106842 0
outer loop
	vertex 2.436661 0.6754867 0.08672428
	vertex 2.436661 0.6754867 -0.004694521
	vertex 2.444659 0.6733437 0.08672428
endloop
endfacet
facet normal -0.6220069 -0.7440186 0
outer loop
	vertex 2.436661 0.6754867 -0.004694521
	vertex 2.436661 0.6754867 0.08672428
	vertex 2.430806 0.6813418 -0.004694521
endloop
endfacet
facet normal -0.7440152 -0.6220108 0
outer loop
	vertex 2.430806 0.6813418 0.08672428
	vertex 2.430806 0.6813418 -0.004694521
	vertex 2.436661 0.6754867 0.08672428
endloop
endfacet
facet normal -0.9106824 -0.3333354 0
outer loop
	vertex 2.430806 0.6813418 -0.004694521
	vertex 2.430806 0.6813418 0.08672428
	vertex 2.428663 0.6893399 -0.004694519
endloop
endfacet
facet normal -0.9553412 -0.1666677 0
outer loop
	vertex 2.428663 0.6893399 0.08672428
	vertex 2.428663 0.6893399 -0.004694519
	vertex 2.430806 0.6813418 0.08672428
endloop
endfacet
facet normal -0.9553415 0.1666671 0
outer loop
	vertex 2.428663 -1.567037 -0.004694519
	vertex 2.428663 -1.567037 0.08672428
	vertex 2.430806 -1.559039 -0.004694519
endloop
endfacet
facet normal -0.9106831 0.3333342 0
outer loop
	vertex 2.430806 -1.559039 0.08672428
	vertex 2.430806 -1.559039 -0.004694519
	vertex 2.428663 -1.567037 0.08672428
endloop
endfacet
facet normal -0.7440169 0.6220091 0
outer loop
	vertex 2.430806 -1.559039 -0.004694519
	vertex 2.430806 -1.559039 0.08672428
	vertex 2.436661 -1.553184 -0.004694519
endloop
endfacet
facet normal -0.6220091 0.7440169 0
outer loop
	vertex 2.436661 -1.553184 0.08672428
	vertex 2.436661 -1.553184 -0.004694519
	vertex 2.430806 -1.559039 0.08672428
endloop
endfacet
facet normal -0.3333342 0.9106831 0
outer loop
	vertex 2.436661 -1.553184 -0.004694519
	vertex 2.436661 -1.553184 0.08672428
	vertex 2.444659 -1.551041 -0.004694517
endloop
endfacet
facet normal -0.1666671 0.9553415 0
outer loop
	vertex 2.444659 -1.551041 0.08672428
	vertex 2.444659 -1.551041 -0.004694517
	vertex 2.436661 -1.553184 0.08672428
endloop
endfacet
facet normal 0.1666671 0.9553415 0
outer loop
	vertex 2.444659 -1.551041 -0.004694517
	vertex 2.444659 -1.551041 0.08672428
	vertex 2.452657 -1.553184 -0.004694517
endloop
endfacet
facet normal 0.3333342 0.9106831 0
outer loop
	vertex 2.452657 -1.553184 0.08672428
	vertex 2.452657 -1.553184 -0.004694517
	vertex 2.444659 -1.551041 0.08672428
endloop
endfacet
facet normal 0.6220091 0.7440169 0
outer loop
	vertex 2.452657 -1.553184 -0.004694517
	vertex 2.452657 -1.553184 0.08672428
	vertex 2.458512 -1.559039 -0.004694517
endloop
endfacet
facet normal 0.7440169 0.6220091 0
outer loop
	vertex 2.458512 -1.559039 0.08672428
	vertex 2.458512 -1.559039 -0.004694517
	vertex 2.452657 -1.553184 0.08672428
endloop
endfacet
facet normal 0.9106831 0.3333342 0
outer loop
	vertex 2.458512 -1.559039 -0.004694517
	vertex 2.458512 -1.559039 0.08672428
	vertex 2.460655 -1.567037 -0.004694519
endloop
endfacet
facet normal 0.9553415 0.1666671 0
outer loop
	vertex 2.460655 -1.567037 0.08672428
	vertex 2.460655 -1.567037 -0.004694519
	vertex 2.458512 -1.559039 0.08672428
endloop
endfacet
facet normal 0.9553426 -0.1666652 0
outer loop
	vertex 2.460655 -1.567037 -0.004694519
	vertex 2.460655 -1.567037 0.08672428
	vertex 2.458512 -1.575035 -0.004694519
endloop
endfacet
facet normal 0.9106842 -0.3333322 1.919347E-07
outer loop
	vertex 2.458512 -1.575035 0.08672428
	vertex 2.458512 -1.575035 -0.004694519
	vertex 2.460655 -1.567037 0.08672428
endloop
endfacet
facet normal 0.7440191 -0.6220065 2.781844E-07
outer loop
	vertex 2.458512 -1.575035 -0.004694519
	vertex 2.458512 -1.575035 0.08672428
	vertex 2.452657 -1.58089 -0.004694519
endloop
endfacet
facet normal 0.6220102 -0.7440162 4.861159E-07
outer loop
	vertex 2.452657 -1.58089 0.08672428
	vertex 2.452657 -1.58089 -0.004694519
	vertex 2.458512 -1.575035 0.08672428
endloop
endfacet
facet normal 0.3333345 -0.9106825 3.644338E-07
outer loop
	vertex 2.452657 -1.58089 -0.004694519
	vertex 2.452657 -1.58089 0.08672428
	vertex 2.444659 -1.583033 -0.004694521
endloop
endfacet
facet normal 0.1666663 -0.9553416 2.781841E-07
outer loop
	vertex 2.444659 -1.583033 0.08672428
	vertex 2.444659 -1.583033 -0.004694521
	vertex 2.452657 -1.58089 0.08672428
endloop
endfacet
facet normal -0.1666679 -0.9553415 7.025261E-08
outer loop
	vertex 2.444659 -1.583033 -0.004694521
	vertex 2.444659 -1.583033 0.08672428
	vertex 2.436661 -1.58089 -0.004694521
endloop
endfacet
facet normal -0.3333342 -0.9106831 0
outer loop
	vertex 2.436661 -1.58089 0.08672428
	vertex 2.436661 -1.58089 -0.004694521
	vertex 2.444659 -1.583033 0.08672428
endloop
endfacet
facet normal -0.6220091 -0.7440169 0
outer loop
	vertex 2.436661 -1.58089 -0.004694521
	vertex 2.436661 -1.58089 0.08672428
	vertex 2.430806 -1.575035 -0.004694521
endloop
endfacet
facet normal -0.7440169 -0.6220091 0
outer loop
	vertex 2.430806 -1.575035 0.08672428
	vertex 2.430806 -1.575035 -0.004694521
	vertex 2.436661 -1.58089 0.08672428
endloop
endfacet
facet normal -0.9106831 -0.3333342 0
outer loop
	vertex 2.430806 -1.575035 -0.004694521
	vertex 2.430806 -1.575035 0.08672428
	vertex 2.428663 -1.567037 -0.004694519
endloop
endfacet
facet normal -0.9553415 -0.1666671 0
outer loop
	vertex 2.428663 -1.567037 0.08672428
	vertex 2.428663 -1.567037 -0.004694519
	vertex 2.430806 -1.575035 0.08672428
endloop
endfacet
facet normal -0.9553415 0.1666671 0
outer loop
	vertex 2.428663 -3.823415 -0.004694519
	vertex 2.428663 -3.823415 0.08672428
	vertex 2.430806 -3.815417 -0.004694519
endloop
endfacet
facet normal -0.9106831 0.3333342 0
outer loop
	vertex 2.430806 -3.815417 0.08672428
	vertex 2.430806 -3.815417 -0.004694519
	vertex 2.428663 -3.823415 0.08672428
endloop
endfacet
facet normal -0.7440143 0.6220106 0
outer loop
	vertex 2.430806 -3.815417 -0.004694519
	vertex 2.430806 -3.815417 0.08672428
	vertex 2.436661 -3.809561 -0.004694519
endloop
endfacet
facet normal -0.622004 0.7440199 0
outer loop
	vertex 2.436661 -3.809561 0.08672428
	vertex 2.436661 -3.809561 -0.004694519
	vertex 2.430806 -3.815417 0.08672428
endloop
endfacet
facet normal -0.3333291 0.9106861 0
outer loop
	vertex 2.436661 -3.809561 -0.004694519
	vertex 2.436661 -3.809561 0.08672428
	vertex 2.444659 -3.807418 -0.004694517
endloop
endfacet
facet normal -0.1666646 0.955343 0
outer loop
	vertex 2.444659 -3.807418 0.08672428
	vertex 2.444659 -3.807418 -0.004694517
	vertex 2.436661 -3.809561 0.08672428
endloop
endfacet
facet normal 0.1666646 0.955343 0
outer loop
	vertex 2.444659 -3.807418 -0.004694517
	vertex 2.444659 -3.807418 0.08672428
	vertex 2.452657 -3.809561 -0.004694517
endloop
endfacet
facet normal 0.3333291 0.9106861 0
outer loop
	vertex 2.452657 -3.809561 0.08672428
	vertex 2.452657 -3.809561 -0.004694517
	vertex 2.444659 -3.807418 0.08672428
endloop
endfacet
facet normal 0.622004 0.7440199 0
outer loop
	vertex 2.452657 -3.809561 -0.004694517
	vertex 2.452657 -3.809561 0.08672428
	vertex 2.458512 -3.815417 -0.004694517
endloop
endfacet
facet normal 0.7440143 0.6220106 0
outer loop
	vertex 2.458512 -3.815417 0.08672428
	vertex 2.458512 -3.815417 -0.004694517
	vertex 2.452657 -3.809561 0.08672428
endloop
endfacet
facet normal 0.9106831 0.3333342 0
outer loop
	vertex 2.458512 -3.815417 -0.004694517
	vertex 2.458512 -3.815417 0.08672428
	vertex 2.460655 -3.823415 -0.004694519
endloop
endfacet
facet normal 0.9553415 0.1666671 0
outer loop
	vertex 2.460655 -3.823415 0.08672428
	vertex 2.460655 -3.823415 -0.004694519
	vertex 2.458512 -3.815417 0.08672428
endloop
endfacet
facet normal 0.9553426 -0.1666652 0
outer loop
	vertex 2.460655 -3.823415 -0.004694519
	vertex 2.460655 -3.823415 0.08672428
	vertex 2.458512 -3.831413 -0.004694519
endloop
endfacet
facet normal 0.9106842 -0.3333322 1.919347E-07
outer loop
	vertex 2.458512 -3.831413 0.08672428
	vertex 2.458512 -3.831413 -0.004694519
	vertex 2.460655 -3.823415 0.08672428
endloop
endfacet
facet normal 0.7440165 -0.622008 2.781797E-07
outer loop
	vertex 2.458512 -3.831413 -0.004694519
	vertex 2.458512 -3.831413 0.08672428
	vertex 2.452657 -3.837268 -0.004694519
endloop
endfacet
facet normal 0.6220051 -0.7440192 4.861114E-07
outer loop
	vertex 2.452657 -3.837268 0.08672428
	vertex 2.452657 -3.837268 -0.004694519
	vertex 2.458512 -3.831413 0.08672428
endloop
endfacet
facet normal 0.3333294 -0.9106855 3.644243E-07
outer loop
	vertex 2.452657 -3.837268 -0.004694519
	vertex 2.452657 -3.837268 0.08672428
	vertex 2.444659 -3.839411 -0.004694521
endloop
endfacet
facet normal 0.1666637 -0.9553431 2.781794E-07
outer loop
	vertex 2.444659 -3.839411 0.08672428
	vertex 2.444659 -3.839411 -0.004694521
	vertex 2.452657 -3.837268 0.08672428
endloop
endfacet
facet normal -0.1666653 -0.955343 7.024762E-08
outer loop
	vertex 2.444659 -3.839411 -0.004694521
	vertex 2.444659 -3.839411 0.08672428
	vertex 2.436661 -3.837268 -0.004694521
endloop
endfacet
facet normal -0.3333291 -0.9106861 0
outer loop
	vertex 2.436661 -3.837268 0.08672428
	vertex 2.436661 -3.837268 -0.004694521
	vertex 2.444659 -3.839411 0.08672428
endloop
endfacet
facet normal -0.622004 -0.7440199 0
outer loop
	vertex 2.436661 -3.837268 -0.004694521
	vertex 2.436661 -3.837268 0.08672428
	vertex 2.430806 -3.831413 -0.004694521
endloop
endfacet
facet normal -0.7440143 -0.6220106 0
outer loop
	vertex 2.430806 -3.831413 0.08672428
	vertex 2.430806 -3.831413 -0.004694521
	vertex 2.436661 -3.837268 0.08672428
endloop
endfacet
facet normal -0.9106831 -0.3333342 0
outer loop
	vertex 2.430806 -3.831413 -0.004694521
	vertex 2.430806 -3.831413 0.08672428
	vertex 2.428663 -3.823415 -0.004694519
endloop
endfacet
facet normal -0.9553415 -0.1666671 0
outer loop
	vertex 2.428663 -3.823415 0.08672428
	vertex 2.428663 -3.823415 -0.004694519
	vertex 2.430806 -3.831413 0.08672428
endloop
endfacet
facet normal 0 0 -1
outer loop
	vertex 2.413245 -0.508519 -0.0146945
	vertex 2.413245 0.75 -0.01469447
	vertex 2.476074 -0.5085191 -0.0146945
endloop
endfacet
facet normal 0 0 -1
outer loop
	vertex 2.476074 0.7499999 -0.01469447
	vertex 2.476074 -0.5085191 -0.0146945
	vertex 2.413245 0.75 -0.01469447
endloop
endfacet
facet normal 0 0 1
outer loop
	vertex 2.413245 -0.5085191 -0.004694496
	vertex 2.413245 -1.567037 -0.004694522
	vertex 2.476074 -0.508519 -0.004694496
endloop
endfacet
facet normal 0 0 1
outer loop
	vertex 2.476074 -1.567037 -0.004694521
	vertex 2.476074 -0.508519 -0.004694496
	vertex 2.413245 -1.567037 -0.004694522
endloop
endfacet
facet normal 1 0 0
outer loop
	vertex 2.476074 -0.508519 -0.004694496
	vertex 2.476074 -1.567037 -0.004694521
	vertex 2.476074 -0.5085191 -0.0146945
endloop
endfacet
facet normal 1 0 0
outer loop
	vertex 2.476074 -1.567037 -0.01469452
	vertex 2.476074 -0.5085191 -0.0146945
	vertex 2.476074 -1.567037 -0.004694521
endloop
endfacet
facet normal -1 0 0
outer loop
	vertex 2.413245 -0.508519 -0.0146945
	vertex 2.413245 -1.567037 -0.01469452
	vertex 2.413245 -0.5085191 -0.004694496
endloop
endfacet
facet normal -1 0 0
outer loop
	vertex 2.413245 -1.567037 -0.004694522
	vertex 2.413245 -0.5085191 -0.004694496
	vertex 2.413245 -1.567037 -0.01469452
endloop
endfacet
facet normal 0 0 1
outer loop
	vertex 2.413245 -2.625555 -0.004694546
	vertex 2.413245 -3.884075 -0.004694572
	vertex 2.476074 -2.625556 -0.004694546
endloop
endfacet
facet normal 0 0 1
outer loop
	vertex 2.476074 -3.884075 -0.004694571
	vertex 2.476074 -2.625556 -0.004694546
	vertex 2.413245 -3.884075 -0.004694572
endloop
endfacet
facet normal 1 0 0
outer loop
	vertex 2.476074 -2.625556 -0.004694546
	vertex 2.476074 -3.884075 -0.004694571
	vertex 2.476074 -2.625555 -0.01469455
endloop
endfacet
facet normal 1 0 0
outer loop
	vertex 2.476074 -3.884075 -0.01469457
	vertex 2.476074 -2.625555 -0.01469455
	vertex 2.476074 -3.884075 -0.004694571
endloop
endfacet
facet normal -1 0 0
outer loop
	vertex 2.413245 -2.625556 -0.01469455
	vertex 2.413245 -3.884075 -0.01469457
	vertex 2.413245 -2.625555 -0.004694546
endloop
endfacet
facet normal -1 0 0
outer loop
	vertex 2.413245 -3.884075 -0.004694572
	vertex 2.413245 -2.625555 -0.004694546
	vertex 2.413245 -3.884075 -0.01469457
endloop
endfacet
facet normal 0 0 -1
outer loop
	vertex 2.413245 -2.625556 -0.01469455
	vertex 2.413245 -1.567037 -0.01469452
	vertex 2.476074 -2.625555 -0.01469455
endloop
endfacet
facet normal 0 0 -1
outer loop
	vertex 2.476074 -1.567037 -0.01469452
	vertex 2.476074 -2.625555 -0.01469455
	vertex 2.413245 -1.567037 -0.01469452
endloop
endfacet
facet normal 0 0 -1
outer loop
	vertex 2.413245 -1.567037 -0.01469452
	vertex 2.413245 -0.508519 -0.0146945
	vertex 2.476074 -1.567037 -0.01469452
endloop
endfacet
facet normal 0 0 -1
outer loop
	vertex 2.476074 -0.5085191 -0.0146945
	vertex 2.476074 -1.567037 -0.01469452
	vertex 2.413245 -0.508519 -0.0146945
endloop
endfacet
facet normal 0 0 1
outer loop
	vertex 2.413245 -1.567037 -0.004694522
	vertex 2.413245 -2.625555 -0.004694546
	vertex 2.476074 -1.567037 -0.004694521
endloop
endfacet
facet normal 0 0 1
outer loop
	vertex 2.476074 -2.625556 -0.004694546
	vertex 2.476074 -1.567037 -0.004694521
	vertex 2.413245 -2.625555 -0.004694546
endloop
endfacet
facet normal 1 0 0
outer loop
	vertex 2.476074 -1.567037 -0.004694521
	vertex 2.476074 -2.625556 -0.004694546
	vertex 2.476074 -1.567037 -0.01469452
endloop
endfacet
facet normal 1 0 0
outer loop
	vertex 2.476074 -2.625555 -0.01469455
	vertex 2.476074 -1.567037 -0.01469452
	vertex 2.476074 -2.625556 -0.004694546
endloop
endfacet
facet normal -1 0 0
outer loop
	vertex 2.413245 -1.567037 -0.01469452
	vertex 2.413245 -2.625556 -0.01469455
	vertex 2.413245 -1.567037 -0.004694522
endloop
endfacet
facet normal -1 0 0
outer loop
	vertex 2.413245 -2.625555 -0.004694546
	vertex 2.413245 -1.567037 -0.004694522
	vertex 2.413245 -2.625556 -0.01469455
endloop
endfacet
facet normal 0 0 -1
outer loop
	vertex 2.413245 -3.884075 -0.01469457
	vertex 2.413245 -2.625556 -0.01469455
	vertex 2.476074 -3.884075 -0.01469457
endloop
endfacet
facet normal 0 0 -1
outer loop
	vertex 2.476074 -2.625555 -0.01469455
	vertex 2.476074 -3.884075 -0.01469457
	vertex 2.413245 -2.625556 -0.01469455
endloop
endfacet
facet normal 0 -1 0
outer loop
	vertex 2.476074 -3.884075 -0.004694571
	vertex 2.413245 -3.884075 -0.004694572
	vertex 2.476074 -3.884075 -0.01469457
endloop
endfacet
facet normal 0 -1 0
outer loop
	vertex 2.413245 -3.884075 -0.01469457
	vertex 2.476074 -3.884075 -0.01469457
	vertex 2.413245 -3.884075 -0.004694572
endloop
endfacet
facet normal 0 0 1
outer loop
	vertex 2.413245 0.75 -0.004694471
	vertex 2.413245 -0.5085191 -0.004694496
	vertex 2.476074 0.7499999 -0.00469447
endloop
endfacet
facet normal 0 0 1
outer loop
	vertex 2.476074 -0.508519 -0.004694496
	vertex 2.476074 0.7499999 -0.00469447
	vertex 2.413245 -0.5085191 -0.004694496
endloop
endfacet
facet normal 1.214317E-06 1 0
outer loop
	vertex 2.476074 0.7499999 -0.01469447
	vertex 2.413245 0.75 -0.01469447
	vertex 2.476074 0.7499999 -0.00469447
endloop
endfacet
facet normal 1.214317E-06 1 0
outer loop
	vertex 2.413245 0.75 -0.004694471
	vertex 2.476074 0.7499999 -0.00469447
	vertex 2.413245 0.75 -0.01469447
endloop
endfacet
facet normal 1 0 0
outer loop
	vertex 2.476074 0.7499999 -0.01469447
	vertex 2.476074 0.7499999 -0.00469447
	vertex 2.476074 -0.5085191 -0.0146945
endloop
endfacet
facet normal 1 0 0
outer loop
	vertex 2.476074 -0.508519 -0.004694496
	vertex 2.476074 -0.5085191 -0.0146945
	vertex 2.476074 0.7499999 -0.00469447
endloop
endfacet
facet normal -1 0 0
outer loop
	vertex 2.413245 0.75 -0.01469447
	vertex 2.413245 -0.508519 -0.0146945
	vertex 2.413245 0.75 -0.004694471
endloop
endfacet
facet normal -1 0 0
outer loop
	vertex 2.413245 -0.5085191 -0.004694496
	vertex 2.413245 0.75 -0.004694471
	vertex 2.413245 -0.508519 -0.0146945
endloop
endfacet
facet normal -1 0 0
outer loop
	vertex 2.415745 -3.790074 -0.02069456
	vertex 2.415745 -3.856754 -0.02069457
	vertex 2.415745 -3.784074 -0.01469456
endloop
endfacet
facet normal -1 0 0
outer loop
	vertex 2.415745 -3.856754 -0.01469456
	vertex 2.415745 -3.784074 -0.01469456
	vertex 2.415745 -3.856754 -0.02069457
endloop
endfacet
facet normal 0 -1 0
outer loop
	vertex 2.415745 -3.856754 -0.02069457
	vertex 2.473573 -3.856754 -0.02069457
	vertex 2.415745 -3.856754 -0.01469456
endloop
endfacet
facet normal 0 -1 0
outer loop
	vertex 2.473573 -3.856754 -0.01469456
	vertex 2.415745 -3.856754 -0.01469456
	vertex 2.473573 -3.856754 -0.02069457
endloop
endfacet
facet normal 1 0 0
outer loop
	vertex 2.473573 -3.856754 -0.02069457
	vertex 2.473573 -3.790074 -0.02069456
	vertex 2.473573 -3.856754 -0.01469456
endloop
endfacet
facet normal 1 0 0
outer loop
	vertex 2.473573 -3.784074 -0.01469456
	vertex 2.473573 -3.856754 -0.01469456
	vertex 2.473573 -3.790074 -0.02069456
endloop
endfacet
facet normal 1 0 0
outer loop
	vertex 2.473573 -3.790074 -0.02069456
	vertex 2.473573 -3.790074 -0.06529301
	vertex 2.473573 -3.784074 -0.01469456
endloop
endfacet
facet normal 1 0 0
outer loop
	vertex 2.473573 -3.784074 -0.06529301
	vertex 2.473573 -3.784074 -0.01469456
	vertex 2.473573 -3.790074 -0.06529301
endloop
endfacet
facet normal 0 7.94761E-07 -1
outer loop
	vertex 2.473573 -3.790074 -0.06529301
	vertex 2.415745 -3.790074 -0.06529301
	vertex 2.473573 -3.784074 -0.06529301
endloop
endfacet
facet normal 0 7.94761E-07 -1
outer loop
	vertex 2.415745 -3.784074 -0.06529301
	vertex 2.473573 -3.784074 -0.06529301
	vertex 2.415745 -3.790074 -0.06529301
endloop
endfacet
facet normal -1 0 0
outer loop
	vertex 2.415745 -3.790074 -0.06529301
	vertex 2.415745 -3.790074 -0.02069456
	vertex 2.415745 -3.784074 -0.06529301
endloop
endfacet
facet normal -1 0 0
outer loop
	vertex 2.415745 -3.784074 -0.01469456
	vertex 2.415745 -3.784074 -0.06529301
	vertex 2.415745 -3.790074 -0.02069456
endloop
endfacet
facet normal 0 0 -1
outer loop
	vertex 2.415745 -3.856754 -0.02069457
	vertex 2.415745 -3.790074 -0.02069456
	vertex 2.473573 -3.856754 -0.02069457
endloop
endfacet
facet normal 0 0 -1
outer loop
	vertex 2.473573 -3.790074 -0.02069456
	vertex 2.473573 -3.856754 -0.02069457
	vertex 2.415745 -3.790074 -0.02069456
endloop
endfacet
facet normal 0 -1 0
outer loop
	vertex 2.473573 -3.790074 -0.06529301
	vertex 2.473573 -3.790074 -0.02069456
	vertex 2.415745 -3.790074 -0.06529301
endloop
endfacet
facet normal 0 -1 0
outer loop
	vertex 2.415745 -3.790074 -0.02069456
	vertex 2.415745 -3.790074 -0.06529301
	vertex 2.473573 -3.790074 -0.02069456
endloop
endfacet
facet normal 0 1 0
outer loop
	vertex 2.473573 -3.784074 -0.06529301
	vertex 2.415745 -3.784074 -0.06529301
	vertex 2.473573 -3.784074 -0.01469456
endloop
endfacet
facet normal 0 1 0
outer loop
	vertex 2.415745 -3.784074 -0.01469456
	vertex 2.473573 -3.784074 -0.01469456
	vertex 2.415745 -3.784074 -0.06529301
endloop
endfacet
facet normal -1 0 0
outer loop
	vertex 2.415745 0.72268 -0.01469436
	vertex 2.415745 0.72268 -0.02069437
	vertex 2.415745 0.6499999 -0.01469437
endloop
endfacet
facet normal -1 0 0
outer loop
	vertex 2.415745 0.6559998 -0.02069437
	vertex 2.415745 0.6499999 -0.01469437
	vertex 2.415745 0.72268 -0.02069437
endloop
endfacet
facet normal 0 1 0
outer loop
	vertex 2.473573 0.72268 -0.01469436
	vertex 2.473573 0.72268 -0.02069437
	vertex 2.415745 0.72268 -0.01469436
endloop
endfacet
facet normal 0 1 0
outer loop
	vertex 2.415745 0.72268 -0.02069437
	vertex 2.415745 0.72268 -0.01469436
	vertex 2.473573 0.72268 -0.02069437
endloop
endfacet
facet normal 1 0 0
outer loop
	vertex 2.473573 0.6499999 -0.01469437
	vertex 2.473573 0.6559998 -0.02069437
	vertex 2.473573 0.72268 -0.01469436
endloop
endfacet
facet normal 1 0 0
outer loop
	vertex 2.473573 0.72268 -0.02069437
	vertex 2.473573 0.72268 -0.01469436
	vertex 2.473573 0.6559998 -0.02069437
endloop
endfacet
facet normal 1 0 0
outer loop
	vertex 2.473573 0.6499999 -0.06529281
	vertex 2.473573 0.6559998 -0.06529281
	vertex 2.473573 0.6499999 -0.01469437
endloop
endfacet
facet normal 1 0 0
outer loop
	vertex 2.473573 0.6559998 -0.02069437
	vertex 2.473573 0.6499999 -0.01469437
	vertex 2.473573 0.6559998 -0.06529281
endloop
endfacet
facet normal 0 0 -1
outer loop
	vertex 2.415745 0.6499999 -0.06529281
	vertex 2.415745 0.6559998 -0.06529281
	vertex 2.473573 0.6499999 -0.06529281
endloop
endfacet
facet normal 0 0 -1
outer loop
	vertex 2.473573 0.6559998 -0.06529281
	vertex 2.473573 0.6499999 -0.06529281
	vertex 2.415745 0.6559998 -0.06529281
endloop
endfacet
facet normal -1 0 0
outer loop
	vertex 2.415745 0.6499999 -0.01469437
	vertex 2.415745 0.6559998 -0.02069437
	vertex 2.415745 0.6499999 -0.06529281
endloop
endfacet
facet normal -1 0 0
outer loop
	vertex 2.415745 0.6559998 -0.06529281
	vertex 2.415745 0.6499999 -0.06529281
	vertex 2.415745 0.6559998 -0.02069437
endloop
endfacet
facet normal 0 0 -1
outer loop
	vertex 2.473573 0.6559998 -0.02069437
	vertex 2.415745 0.6559998 -0.02069437
	vertex 2.473573 0.72268 -0.02069437
endloop
endfacet
facet normal 0 0 -1
outer loop
	vertex 2.415745 0.72268 -0.02069437
	vertex 2.473573 0.72268 -0.02069437
	vertex 2.415745 0.6559998 -0.02069437
endloop
endfacet
facet normal 0 1 0
outer loop
	vertex 2.415745 0.6559998 -0.02069437
	vertex 2.473573 0.6559998 -0.02069437
	vertex 2.415745 0.6559998 -0.06529281
endloop
endfacet
facet normal 0 1 0
outer loop
	vertex 2.473573 0.6559998 -0.06529281
	vertex 2.415745 0.6559998 -0.06529281
	vertex 2.473573 0.6559998 -0.02069437
endloop
endfacet
facet normal 0 -1 0
outer loop
	vertex 2.415745 0.6499999 -0.01469437
	vertex 2.415745 0.6499999 -0.06529281
	vertex 2.473573 0.6499999 -0.01469437
endloop
endfacet
facet normal 0 -1 0
outer loop
	vertex 2.473573 0.6499999 -0.06529281
	vertex 2.473573 0.6499999 -0.01469437
	vertex 2.415745 0.6499999 -0.06529281
endloop
endfacet
endsolid FURNITURE_FURNITURE_0_Door_Glass_0_Box462_0
